<svg xmlns="http://www.w3.org/2000/svg" width="156" height="156" viewBox="0 0 156 156">
  <g id="Grupo_28187" data-name="Grupo 28187" transform="translate(-918 -4668)">
    <g id="Grupo_28183" data-name="Grupo 28183" transform="translate(508 -4083)">
      <g id="Elipse_993" data-name="Elipse 993" transform="translate(410 8751)" fill="#fff" stroke="#7d58bd" stroke-width="7">
        <circle cx="78" cy="78" r="78" stroke="none"/>
        <circle cx="78" cy="78" r="74.5" fill="none"/>
      </g>
      <g id="leadership" transform="translate(444.898 8784.028)">
        <g id="Grupo_26663" data-name="Grupo 26663" transform="translate(2.102 15.706)">
          <g id="Grupo_26662" data-name="Grupo 26662">
            <path id="Trazado_21225" data-name="Trazado 21225" d="M61.389,140.805H48.524V129.369a7.148,7.148,0,0,0-7.147-7.147H32.8v-7.848l19.413-13.866a1.416,1.416,0,0,0,.314-2.016l-4.288-5.718a1.429,1.429,0,0,0-1.958-.314L31.627,102.595A10.006,10.006,0,1,0,15.8,105.068H14.216a1.429,1.429,0,0,0-1.058.472L3.924,115.8a7.147,7.147,0,0,0,.286,9.835l7.562,7.6a1.438,1.438,0,0,0,2.187-.186l1.687-2.387v25.86a1.43,1.43,0,0,0,1.429,1.43h8.577a1.43,1.43,0,0,0,1.429-1.43V133.658H37.088v7.147H32.8a1.43,1.43,0,0,0-1.429,1.43V156.53a1.43,1.43,0,0,0,1.429,1.43h28.59a1.43,1.43,0,0,0,1.43-1.43V142.235A1.429,1.429,0,0,0,61.389,140.805ZM15.646,97.92a7.147,7.147,0,1,1,7.147,7.147A7.148,7.148,0,0,1,15.646,97.92ZM26.2,107.927l-1.973,3.945-1.973-3.945Zm-10.55,15.31-2.287-2.444,2.287-2.287ZM25.652,130.8a1.43,1.43,0,0,0-1.429,1.43V155.1H18.5V115.074a1.438,1.438,0,0,0-2.444-1.015l-5.718,5.718a1.43,1.43,0,0,0,0,2l4.674,4.875L12.6,130.027l-6.4-6.376a4.289,4.289,0,0,1-.157-5.932l8.82-9.792h4.188l3.9,7.791a1.43,1.43,0,0,0,2.545,0l4.131-8.248L46.78,95.59l2.587,3.445L30.541,112.487a1.429,1.429,0,0,0-.6,1.158v10.006a1.43,1.43,0,0,0,1.429,1.429H41.376a4.288,4.288,0,0,1,4.288,4.288v11.436H39.947v-8.577a1.43,1.43,0,0,0-1.43-1.43ZM59.96,155.1H34.229V143.664H59.96Z" transform="translate(-2.102 -87.895)"/>
          </g>
        </g>
        <g id="Grupo_26665" data-name="Grupo 26665" transform="translate(61.389)">
          <g id="Grupo_26664" data-name="Grupo 26664">
            <path id="Trazado_21226" data-name="Trazado 21226" d="M358.2,11.436A10.006,10.006,0,0,1,348.192,1.429a1.43,1.43,0,0,0-2.859,0,10.006,10.006,0,0,1-10.006,10.006,1.429,1.429,0,1,0,0,2.859A10.006,10.006,0,0,1,345.333,24.3a1.43,1.43,0,0,0,2.859,0A10.006,10.006,0,0,1,358.2,14.295a1.429,1.429,0,1,0,0-2.859Zm-11.436,6.976a12.978,12.978,0,0,0-5.546-5.546,12.98,12.98,0,0,0,5.546-5.546,12.981,12.981,0,0,0,5.546,5.546A12.981,12.981,0,0,0,346.762,18.412Z" transform="translate(-333.897)"/>
          </g>
        </g>
        <g id="Grupo_26667" data-name="Grupo 26667" transform="translate(46.248 36.011)">
          <g id="Grupo_26666" data-name="Grupo 26666" transform="translate(0 0)">
            <rect id="Rectángulo_4213" data-name="Rectángulo 4213" width="4.832" height="2.859" transform="translate(0 2.857) rotate(-36.251)"/>
          </g>
        </g>
        <g id="Grupo_26669" data-name="Grupo 26669" transform="translate(53.405 23.147)">
          <g id="Grupo_26668" data-name="Grupo 26668" transform="translate(0 0)">
            <rect id="Rectángulo_4214" data-name="Rectángulo 4214" width="17.726" height="2.859" transform="translate(0 10.487) rotate(-36.272)"/>
          </g>
        </g>
        <g id="Grupo_26671" data-name="Grupo 26671" transform="translate(53.443 15.961)">
          <g id="Grupo_26670" data-name="Grupo 26670" transform="translate(0 0)">
            <rect id="Rectángulo_4215" data-name="Rectángulo 4215" width="10.307" height="2.859" transform="translate(0 5.717) rotate(-33.692)"/>
          </g>
        </g>
      </g>
    </g>
  </g>
</svg>
