<svg xmlns="http://www.w3.org/2000/svg" width="747.188" height="556.817" viewBox="0 0 747.188 556.817">
  <g id="Grupo_26797" data-name="Grupo 26797" transform="translate(-56 -209.696)">
    <g id="Grupo_26768" data-name="Grupo 26768" transform="translate(56 209.696)">
      <rect id="Rectángulo_4284" data-name="Rectángulo 4284" width="747.188" height="0.374" transform="translate(0 489.327)" fill="#e6e6e6"/>
      <rect id="Rectángulo_4285" data-name="Rectángulo 4285" width="49.497" height="0.374" transform="translate(78.393 503.558)" fill="#e6e6e6"/>
      <rect id="Rectángulo_4286" data-name="Rectángulo 4286" width="82.812" height="0.374" transform="translate(255.747 499.503)" fill="#e6e6e6"/>
      <rect id="Rectángulo_4287" data-name="Rectángulo 4287" width="28.681" height="0.374" transform="translate(135.988 512.434)" fill="#e6e6e6"/>
      <rect id="Rectángulo_4288" data-name="Rectángulo 4288" width="64.547" height="0.374" transform="translate(576.022 503.371)" fill="#e6e6e6"/>
      <rect id="Rectángulo_4289" data-name="Rectángulo 4289" width="9.464" height="0.374" transform="translate(653.874 503.371)" fill="#e6e6e6"/>
      <rect id="Rectángulo_4290" data-name="Rectángulo 4290" width="69.993" height="0.374" transform="translate(414.261 508.615)" fill="#e6e6e6"/>
      <path id="Trazado_21425" data-name="Trazado 21425" d="M391.3,632.376H102.737a8.54,8.54,0,0,1-8.53-8.53V218.224a8.539,8.539,0,0,1,8.53-8.528H391.3a8.539,8.539,0,0,1,8.528,8.528V623.846A8.54,8.54,0,0,1,391.3,632.376ZM102.737,210.07a8.164,8.164,0,0,0-8.156,8.155V623.846A8.165,8.165,0,0,0,102.737,632H391.3a8.165,8.165,0,0,0,8.155-8.156V218.224a8.165,8.165,0,0,0-8.155-8.155Z" transform="translate(-37.111 -209.696)" fill="#e6e6e6"/>
      <path id="Trazado_21426" data-name="Trazado 21426" d="M607.594,632.376H319.033a8.539,8.539,0,0,1-8.528-8.53V218.224a8.538,8.538,0,0,1,8.528-8.528H607.594a8.539,8.539,0,0,1,8.531,8.528V623.846A8.541,8.541,0,0,1,607.594,632.376ZM319.033,210.07a8.164,8.164,0,0,0-8.155,8.155V623.846A8.164,8.164,0,0,0,319.033,632H607.594a8.166,8.166,0,0,0,8.158-8.156V218.224a8.166,8.166,0,0,0-8.158-8.155Z" transform="translate(69.821 -209.696)" fill="#e6e6e6"/>
    </g>
    <g id="Grupo_26777" data-name="Grupo 26777" transform="translate(145.575 228.492)">
      <g id="Grupo_26772" data-name="Grupo 26772" transform="translate(45.681)">
        <g id="Grupo_26770" data-name="Grupo 26770" transform="translate(6.292 3.134)">
          <rect id="Rectángulo_4291" data-name="Rectángulo 4291" width="288.501" height="207.108" transform="translate(15.038 7.122)" fill="#f8fafa"/>
          <path id="Trazado_21427" data-name="Trazado 21427" d="M385.349,436.245l-73.38-207.108H256.9l73.38,207.108Z" transform="translate(-98.228 -222.015)" fill="#fff"/>
          <path id="Trazado_21428" data-name="Trazado 21428" d="M274.684,436.245,201.3,229.137H181.217L254.6,436.245Z" transform="translate(-135.643 -222.015)" fill="#fff"/>
          <g id="Grupo_26769" data-name="Grupo 26769">
            <path id="Trazado_21429" data-name="Trazado 21429" d="M152,224.371H468.015a1.286,1.286,0,0,1,1.282,1.282h0a1.286,1.286,0,0,1-1.282,1.282H152a1.286,1.286,0,0,1-1.282-1.282h0A1.286,1.286,0,0,1,152,224.371Z" transform="translate(-150.72 -224.371)" fill="#d9d9d8"/>
            <rect id="Rectángulo_4292" data-name="Rectángulo 4292" width="3.419" height="207.999" transform="translate(157.579 6.677)" fill="#ededec"/>
            <rect id="Rectángulo_4293" data-name="Rectángulo 4293" width="1.709" height="207.999" transform="translate(155.87 6.677)" fill="#d9d9d8"/>
            <rect id="Rectángulo_4294" data-name="Rectángulo 4294" width="3.419" height="292.489" transform="translate(13.044 112.385) rotate(-90)" fill="#ededec"/>
            <path id="Trazado_21430" data-name="Trazado 21430" d="M159.449,435.48h0V227.8H451.937V435.48h0V438.9H159.449Zm289.069,0V231.221H162.867V435.48Z" transform="translate(-146.405 -222.675)" fill="#ededec"/>
            <rect id="Rectángulo_4295" data-name="Rectángulo 4295" width="1.709" height="211.097" transform="translate(11.335 5.127)" fill="#d9d9d8"/>
          </g>
        </g>
        <g id="Grupo_26771" data-name="Grupo 26771">
          <path id="Trazado_21431" data-name="Trazado 21431" d="M208.258,222.274V465.494H146.51l11.324-243.221Z" transform="translate(-146.51 -222.274)" fill="#e6e6e6" opacity="0.5"/>
          <path id="Trazado_21432" data-name="Trazado 21432" d="M325.651,222.274V465.494H387.4L376.075,222.274Z" transform="translate(-57.947 -222.274)" fill="#e6e6e6" opacity="0.5"/>
        </g>
      </g>
      <g id="Grupo_26775" data-name="Grupo 26775" transform="translate(0 266.129)">
        <g id="Grupo_26774" data-name="Grupo 26774">
          <g id="Grupo_26773" data-name="Grupo 26773">
            <rect id="Rectángulo_4296" data-name="Rectángulo 4296" width="23.55" height="191.026" transform="translate(2.963 6.233)" fill="#ededec"/>
            <rect id="Rectángulo_4297" data-name="Rectángulo 4297" width="259.463" height="7.143" transform="translate(7.485 197.259)" fill="#ededec"/>
            <rect id="Rectángulo_4298" data-name="Rectángulo 4298" width="244.957" height="191.026" transform="translate(271.47 197.259) rotate(180)" fill="#f2f3f3"/>
            <rect id="Rectángulo_4299" data-name="Rectángulo 4299" width="24.07" height="6.233" fill="#ededec"/>
            <rect id="Rectángulo_4300" data-name="Rectángulo 4300" width="250.363" height="6.233" transform="translate(274.433 6.233) rotate(180)" fill="#f8fafa"/>
            <path id="Trazado_21433" data-name="Trazado 21433" d="M367.369,507.7H139.35V413.288H367.369Zm-226.438-1.583H365.788V414.869H140.931Z" transform="translate(-104.369 -393.97)" fill="#d9d9d8"/>
            <path id="Trazado_21434" data-name="Trazado 21434" d="M367.369,543.78H139.35V482.795H367.369ZM140.931,542.2H365.788V484.376H140.931Z" transform="translate(-104.369 -359.608)" fill="#d9d9d8"/>
            <rect id="Rectángulo_4301" data-name="Rectángulo 4301" width="166.579" height="5.07" rx="1.398" transform="translate(65.702 20.108)" fill="#d9d9d8"/>
            <rect id="Rectángulo_4302" data-name="Rectángulo 4302" width="166.579" height="5.07" rx="1.398" transform="translate(65.702 123.978)" fill="#d9d9d8"/>
          </g>
        </g>
      </g>
      <g id="Grupo_26776" data-name="Grupo 26776" transform="translate(425.91 43.363)">
        <rect id="Rectángulo_4303" data-name="Rectángulo 4303" width="137.001" height="418.001" transform="translate(141.348 418.001) rotate(180)" fill="#ededec"/>
        <rect id="Rectángulo_4304" data-name="Rectángulo 4304" width="4.347" height="418.001" fill="#d9d9d8"/>
        <rect id="Rectángulo_4305" data-name="Rectángulo 4305" width="92.546" height="386.111" transform="translate(119.121 402.056) rotate(180)" fill="#f8fafa"/>
      </g>
    </g>
    <ellipse id="_Path_" data-name="&lt;Path&gt;" cx="289.743" cy="16.921" rx="289.743" ry="16.921" transform="translate(139.851 732.67)" fill="#f2f3f3"/>
    <g id="Grupo_26784" data-name="Grupo 26784" transform="translate(145.431 273.116)">
      <path id="Trazado_21435" data-name="Trazado 21435" d="M201.726,573.1l11.7-4.438-7.164-28.276-11.7,4.438Z" transform="translate(-76.929 -109.632)" fill="#ecc8be"/>
      <path id="Trazado_21436" data-name="Trazado 21436" d="M140.527,572.015h12.514l1.875-28.979H142.4Z" transform="translate(-103.643 -108.321)" fill="#ecc8be"/>
      <path id="Trazado_21437" data-name="Trazado 21437" d="M155.769,561.458H140.511a1.025,1.025,0,0,0-1.022.855l-1.92,11.124a1.946,1.946,0,0,0,1.943,2.225c4.9-.085,8.473-.372,14.655-.372,3.8,0,15.293.395,20.545.395,5.138,0,5.682-5.194,3.507-5.664-9.746-2.11-17.157-5.018-20.382-7.793A3.179,3.179,0,0,0,155.769,561.458Z" transform="translate(-105.118 -99.214)" fill="#1c262a"/>
      <path id="Trazado_21438" data-name="Trazado 21438" d="M211.248,559.52l-12.778,4.846a1.093,1.093,0,0,0-.693,1.177l1.633,11.277a1.823,1.823,0,0,0,2.473,1.444c4.58-1.828,8.466-4.144,14.3-6.238,6.819-2.449,13.587-5.066,19.106-8.582,4.332-2.76,2.508-7.984.465-7.164-9.3,3.733-11.58,4.96-21.34,3.083A5.8,5.8,0,0,0,211.248,559.52Z" transform="translate(-75.346 -101.816)" fill="#1c262a"/>
      <path id="Trazado_21439" data-name="Trazado 21439" d="M190.226,307.235c3.938,6.959,8.088,14.131,12.267,21.071,4.18,6.971,8.476,13.86,13.029,20.319,1.1,1.638,2.328,3.2,3.428,4.716a4.137,4.137,0,0,0,.971,1.127,3.615,3.615,0,0,0,2.27.356,15.7,15.7,0,0,0,4.18-.994,51.658,51.658,0,0,0,9.651-5.054c1.611-1.059,3.247-2.152,4.849-3.313,1.578-1.145,3.214-2.428,4.673-3.552l7.018,6.246a65.9,65.9,0,0,1-4.107,5.339c-1.427,1.7-2.911,3.371-4.526,4.948a59.005,59.005,0,0,1-5.138,4.589,43.688,43.688,0,0,1-6.024,4.1,30.22,30.22,0,0,1-7.6,3.092,20.41,20.41,0,0,1-10.095-.03,18.975,18.975,0,0,1-9.21-5.815c-1.5-1.739-2.966-3.362-4.334-5.081a235.98,235.98,0,0,1-15.09-20.993c-4.621-7.21-8.89-14.428-12.931-22.1Z" transform="translate(-87.335 -224.895)" fill="#ddb2b3"/>
      <g id="Grupo_26778" data-name="Grupo 26778" transform="translate(80.367 73.104)">
        <path id="Trazado_21440" data-name="Trazado 21440" d="M169.953,310.866c-3.374,11.478,20.379,42.772,20.379,42.772l23.95-15.412s-7.04-15.967-16.6-28.142C187.873,297.584,173.656,298.268,169.953,310.866Z" transform="translate(-169.624 -301.055)" fill="#5b4997"/>
        <path id="Trazado_21441" data-name="Trazado 21441" d="M169.953,310.866c-3.374,11.478,20.379,42.772,20.379,42.772l23.95-15.412s-7.04-15.967-16.6-28.142C187.873,297.584,173.656,298.268,169.953,310.866Z" transform="translate(-169.624 -301.055)" fill="#030504" opacity="0.2"/>
      </g>
      <path id="Trazado_21442" data-name="Trazado 21442" d="M182.754,316.715c4.927,2.106,12.176,13.969,15.949,22.762l-10.165,6.532a191.41,191.41,0,0,1-15.278-23.946C176.471,318.54,180.151,315.61,182.754,316.715Z" transform="translate(-87.46 -220.326)" fill="#030504" opacity="0.2"/>
      <path id="Trazado_21443" data-name="Trazado 21443" d="M220.73,337.114l4.389-12.288,12.454,5.943s-2.585,10.96-11.7,10.942Z" transform="translate(-63.992 -216.199)" fill="#ecc8be"/>
      <path id="Trazado_21444" data-name="Trazado 21444" d="M234.75,319.41l5.269,5.825-3.9,8.213L223.667,327.5Z" transform="translate(-62.54 -218.877)" fill="#ecc8be"/>
      <path id="Trazado_21445" data-name="Trazado 21445" d="M206.264,540.39l3.695,14.574-11.705,4.44-3.695-14.574Z" transform="translate(-76.931 -109.629)" fill="#030504" opacity="0.2"/>
      <path id="Trazado_21446" data-name="Trazado 21446" d="M142.1,543.041H154.62l-.973,14.937H141.128Z" transform="translate(-103.345 -108.318)" fill="#030504" opacity="0.2"/>
      <g id="Grupo_26779" data-name="Grupo 26779" transform="translate(24.914 71.228)">
        <path id="Trazado_21447" data-name="Trazado 21447" d="M132.517,306.41c13.479,47.535,11.272,97.971,12.115,108.218,9.808-.351,46.749-1.744,66.887-2.506,11.362-70.856-9.042-110.294-9.042-110.294s-4.292-.834-10.129-1.432c-1.831-.188-3.8-.353-5.859-.46-1.136-.069-2.289-.1-3.459-.129-7.551-.124-19.883,1.076-28.378,2.115-1.778.221-3.591.489-5.341.774-1.626.278-3.22.572-4.722.874C137.774,304.928,132.517,306.41,132.517,306.41Z" transform="translate(-132.517 -299.799)" fill="#5b4997"/>
        <path id="Trazado_21448" data-name="Trazado 21448" d="M132.517,306.41c13.479,47.535,11.272,97.971,12.115,108.218,9.808-.351,46.749-1.744,66.887-2.506,11.362-70.856-9.042-110.294-9.042-110.294s-4.292-.834-10.129-1.432c-1.831-.188-3.8-.353-5.859-.46-1.136-.069-2.289-.1-3.459-.129-7.551-.124-19.883,1.076-28.378,2.115-1.778.221-3.591.489-5.341.774-1.626.278-3.22.572-4.722.874C137.774,304.928,132.517,306.41,132.517,306.41Z" transform="translate(-132.517 -299.799)" fill="#030504" opacity="0.2"/>
      </g>
      <path id="Trazado_21449" data-name="Trazado 21449" d="M144.578,317.869c1.2,4.6-.17,25.582-4.973,30.759-.655-6.72-1.527-13.735-2.681-20.906Z" transform="translate(-105.424 -219.638)" fill="#030504" opacity="0.2"/>
      <path id="Trazado_21450" data-name="Trazado 21450" d="M147.764,279.7c2.469,9,5.5,25.59-.433,32.157,5.329,4.562,12.239,9.778,23.109,9.353s8.419-7.742,5.265-11.463c-10.362-1.674-10.661-9.247-9.416-16.473Z" transform="translate(-100.279 -238.509)" fill="#ecc8be"/>
      <g id="Grupo_26780" data-name="Grupo 26780" transform="translate(42.008 70.138)">
        <path id="Trazado_21451" data-name="Trazado 21451" d="M164.71,306.441l1.973,1.335-7.2,2.1,1.855-3.335Z" transform="translate(-136.28 -295.425)" fill="#5b4997"/>
        <path id="Trazado_21452" data-name="Trazado 21452" d="M165.046,305.972l-.745,2.037,7.232,2.1-.488-3.87Z" transform="translate(-133.897 -295.657)" fill="#5b4997"/>
        <path id="Trazado_21453" data-name="Trazado 21453" d="M144.675,301.326l2.847-1.429a2.736,2.736,0,0,1,2.86.242,56.809,56.809,0,0,0,22,9.682c-5.716,2.729-4.3,10.047-4.3,10.047s-18.158-5.986-23.988-16.828A1.27,1.27,0,0,1,144.675,301.326Z" transform="translate(-143.956 -298.806)" fill="#fff"/>
        <path id="Trazado_21454" data-name="Trazado 21454" d="M170.243,299.705l-4.174-.629a.554.554,0,0,0-.533.868c1.459,2.067,3.879,6.638-.737,9.44,5.717,2.729,7.494,9.406,7.494,9.406s7.442-8.031-1.234-18.623A1.319,1.319,0,0,0,170.243,299.705Z" transform="translate(-133.651 -299.07)" fill="#fff"/>
      </g>
      <path id="Trazado_21455" data-name="Trazado 21455" d="M152.728,283.4l10.964,8.029a29.215,29.215,0,0,0-.5,5.1c-3.932-.273-9.591-4.145-10.307-8.186A13.7,13.7,0,0,1,152.728,283.4Z" transform="translate(-97.69 -236.676)" fill="#030504" opacity="0.2"/>
      <path id="Trazado_21456" data-name="Trazado 21456" d="M172.415,271.158c-.5,4.341-4.668,8.086-7.366,9.022l-3.359-18.917C169.238,255.943,173.119,265.055,172.415,271.158Z" transform="translate(-93.18 -248.416)" fill="#1c262a"/>
      <path id="Trazado_21457" data-name="Trazado 21457" d="M145.182,277.5c2.174,12.227,2.827,19.494,9.775,25.1,10.45,8.43,25,1.039,26.524-11.592,1.37-11.369-2.418-29.454-15.036-32.966A16.938,16.938,0,0,0,145.182,277.5Z" transform="translate(-101.478 -249.542)" fill="#ecc8be"/>
      <path id="Trazado_21458" data-name="Trazado 21458" d="M150.454,288.338c5.662,3.01,8.158-3.755,8.206-6.5.078-4.368-1.814-9.159-4.069-10.912,10.933-.066,32.564-.541,27.108-10.957s-16.383-9.223-24.62-3.53c-4.353,3.01-18.43.39-14.939,8.51C134.8,268.851,141.165,283.4,150.454,288.338Z" transform="translate(-104.426 -252.135)" fill="#1c262a"/>
      <path id="Trazado_21459" data-name="Trazado 21459" d="M143.67,260.871a8.935,8.935,0,0,1-5.4-1.837,5.115,5.115,0,0,0,4.776,3.957Z" transform="translate(-104.756 -248.725)" fill="#1c262a"/>
      <path id="Trazado_21460" data-name="Trazado 21460" d="M142.229,280.211a11.814,11.814,0,0,0,6.822,5.9c3.939,1.273,4.842-2.339,3.887-6.142-.861-3.424-2.717-8.085-6.737-7.7C142.241,272.639,140.54,276.774,142.229,280.211Z" transform="translate(-103.122 -242.196)" fill="#ecc8be"/>
      <path id="Trazado_21461" data-name="Trazado 21461" d="M214.5,507.258c-5.087-37.853-14.572-132.291-14.572-132.291l-43.971,1.648S176.7,470.993,184.2,509.258s28.381,130.628,28.381,130.628l19.815-7.5S219.794,546.615,214.5,507.258Z" transform="translate(-96.013 -191.41)" fill="#1c262a"/>
      <path id="Trazado_21462" data-name="Trazado 21462" d="M170.179,393.1c-2.744.686-7.077,2.369-9.775,5,4.147,19.083,9.573,44.2,14.234,66.337C177.818,445.26,177.912,409.076,170.179,393.1Z" transform="translate(-93.816 -182.447)" fill="#030504" opacity="0.2"/>
      <path id="Trazado_21463" data-name="Trazado 21463" d="M185.119,375.562s-9.329,102.45-13.6,138.865c-4.679,39.879-10.523,123.456-10.523,123.456H138.073s-.95-73.919,2.029-112.955c3.392-44.465,1.859-147.743,1.859-147.743Z" transform="translate(-104.927 -191.116)" fill="#1c262a"/>
      <path id="Trazado_21464" data-name="Trazado 21464" d="M164.517,554.274H137.528l-.568-8.063,30.132-.525Z" transform="translate(-105.406 -107.011)" fill="#5b4997"/>
      <path id="Trazado_21465" data-name="Trazado 21465" d="M217.662,549.9l-23.609,8.955-2.893-7.628L217.4,540.82Z" transform="translate(-78.611 -109.417)" fill="#5b4997"/>
      <path id="Trazado_21466" data-name="Trazado 21466" d="M157.862,272.354c.115,1,.74,1.754,1.4,1.68s1.092-.95.977-1.953-.741-1.754-1.4-1.678S157.746,271.352,157.862,272.354Z" transform="translate(-95.082 -243.107)" fill="#1c262a"/>
      <path id="Trazado_21467" data-name="Trazado 21467" d="M165.446,271.48c.115,1,.74,1.754,1.4,1.68s1.094-.95.977-1.953-.74-1.754-1.4-1.678S165.331,270.478,165.446,271.48Z" transform="translate(-91.332 -243.539)" fill="#1c262a"/>
      <path id="Trazado_21468" data-name="Trazado 21468" d="M163.067,271.445s2.947,5.522,5.779,8.023c-1.584,1.86-4.686,1.451-4.686,1.451Z" transform="translate(-92.499 -242.589)" fill="#c79da2"/>
      <path id="Trazado_21469" data-name="Trazado 21469" d="M163.2,280.938a8.319,8.319,0,0,1-6.043-2.633.3.3,0,0,1,.456-.38,8.016,8.016,0,0,0,6.835,2.36.3.3,0,1,1,.067.589A9.53,9.53,0,0,1,163.2,280.938Z" transform="translate(-95.456 -239.438)" fill="#1c262a"/>
      <path id="Trazado_21470" data-name="Trazado 21470" d="M155.427,270.81a.593.593,0,0,1-.5-.894,5.879,5.879,0,0,1,4.514-2.983.592.592,0,0,1,.055,1.184h0a4.7,4.7,0,0,0-3.548,2.4A.593.593,0,0,1,155.427,270.81Z" transform="translate(-96.563 -244.82)" fill="#1c262a"/>
      <path id="Trazado_21471" data-name="Trazado 21471" d="M169.961,269.085a.589.589,0,0,1-.489-.275,4.7,4.7,0,0,0-3.628-2.279.593.593,0,0,1,.015-1.185,5.891,5.891,0,0,1,4.613,2.827.592.592,0,0,1-.511.912Z" transform="translate(-91.414 -245.604)" fill="#1c262a"/>
      <g id="Grupo_26781" data-name="Grupo 26781" transform="translate(51.359 452.342)">
        <path id="Trazado_21472" data-name="Trazado 21472" d="M153.752,563.97a15.068,15.068,0,0,1-3.3-.448.32.32,0,0,1-.236-.24.283.283,0,0,1,.121-.3c.442-.286,4.356-2.765,5.774-2.055a1,1,0,0,1,.55.838,1.706,1.706,0,0,1-.535,1.566A3.651,3.651,0,0,1,153.752,563.97Zm-2.458-.865c2.146.426,3.776.348,4.432-.226a1.158,1.158,0,0,0,.348-1.076.382.382,0,0,0-.2-.348C155.133,561.086,152.887,562.155,151.294,563.1Z" transform="translate(-150.213 -551.881)" fill="#5b4997"/>
        <path id="Trazado_21473" data-name="Trazado 21473" d="M150.524,564.5a.315.315,0,0,1-.311-.32c0-.152.124-3.763,1.52-4.951a1.557,1.557,0,0,1,1.243-.381h0a1.03,1.03,0,0,1,.982.776c.333,1.4-2.034,4.138-3.294,4.84A.289.289,0,0,1,150.524,564.5Zm2.274-5.072a1,1,0,0,0-.668.26c-.9.761-1.19,2.865-1.284,3.92,1.239-.977,2.732-3.049,2.534-3.872-.018-.076-.061-.253-.448-.3h0A1,1,0,0,0,152.8,559.428Z" transform="translate(-150.213 -552.852)" fill="#5b4997"/>
        <path id="Trazado_21474" data-name="Trazado 21474" d="M208.068,560.83a.3.3,0,0,1-.229-.495c.427-.475,4.226-4.645,5.948-4.391a.941.941,0,0,1,.738.563h0a1.66,1.66,0,0,1-.009,1.545c-.852,1.623-4.38,2.434-6.408,2.774Zm5.516-4.305c-1,.028-3.18,1.968-4.7,3.557,2.747-.55,4.63-1.393,5.108-2.3a1.076,1.076,0,0,0,0-1.018.349.349,0,0,0-.287-.229A.584.584,0,0,0,213.583,556.524Z" transform="translate(-121.761 -554.287)" fill="#5b4997"/>
        <path id="Trazado_21475" data-name="Trazado 21475" d="M208.192,561.375a.262.262,0,0,1-.084-.009.3.3,0,0,1-.211-.209c-.037-.138-.918-3.409.108-5.2a2.169,2.169,0,0,1,1.357-1.058h0c.791-.212,1.158.091,1.326.383.716,1.242-1.122,4.834-2.294,6A.3.3,0,0,1,208.192,561.375Zm1.627-5.949a1.305,1.305,0,0,0-.3.049h0a1.574,1.574,0,0,0-1,.781c-.674,1.173-.375,3.216-.176,4.193,1.113-1.412,2.261-4.123,1.831-4.867C210.149,555.536,210.08,555.418,209.82,555.426Zm-.381-.236h0Z" transform="translate(-121.886 -554.831)" fill="#5b4997"/>
      </g>
      <g id="Grupo_26783" data-name="Grupo 26783" transform="translate(0 76.744)">
        <path id="Trazado_21476" data-name="Trazado 21476" d="M154.518,318.925c-3.754,7.733-7.579,15.716-11.289,23.574-1.84,3.953-3.687,7.895-5.429,11.855l-2.593,5.934-1.239,2.968-.309.743-.217.551c-.154.353-.253.711-.384,1.067a18.116,18.116,0,0,0-.49,9.09,31.252,31.252,0,0,0,3.941,9.941,61.7,61.7,0,0,0,7.115,9.631c1.358,1.551,2.783,3.074,4.28,4.532.747.729,1.509,1.447,2.283,2.143.743.7,1.589,1.442,2.249,2.016l-4.985,7.964a61.452,61.452,0,0,1-6.266-3.666c-1.986-1.308-3.933-2.69-5.819-4.183a64.4,64.4,0,0,1-10.441-10.395,43.743,43.743,0,0,1-7.55-13.99,33.633,33.633,0,0,1-.725-17.3c.181-.711.341-1.435.56-2.131l.577-1.853,1.061-3.294c.735-2.173,1.464-4.356,2.271-6.489,1.569-4.295,3.211-8.536,4.976-12.714,3.492-8.406,7.272-16.511,11.544-24.653Z" transform="translate(-115.845 -300.14)" fill="#ddb2b3"/>
        <g id="Grupo_26782" data-name="Grupo 26782" transform="translate(2.272)">
          <path id="Trazado_21477" data-name="Trazado 21477" d="M140.011,304.587c-11.419,3.576-22.646,42.289-22.646,42.289l26.418,11.562s8.545-18.708,13.458-33.369C162.594,309.1,153.841,300.256,140.011,304.587Z" transform="translate(-117.365 -303.49)" fill="#5b4997"/>
          <path id="Trazado_21478" data-name="Trazado 21478" d="M140.011,304.587c-11.419,3.576-22.646,42.289-22.646,42.289l26.418,11.562s8.545-18.708,13.458-33.369C162.594,309.1,153.841,300.256,140.011,304.587Z" transform="translate(-117.365 -303.49)" fill="#030504" opacity="0.2"/>
        </g>
        <path id="Trazado_21479" data-name="Trazado 21479" d="M140.676,370.658l10.925,6.495-10.627,10.579s-9.229-7.1-6.477-12.66Z" transform="translate(-106.876 -270.284)" fill="#ecc8be"/>
        <path id="Trazado_21480" data-name="Trazado 21480" d="M156.584,385.36l-10.959,7.676-6.962-7.453L149.29,375Z" transform="translate(-104.564 -268.136)" fill="#ecc8be"/>
      </g>
    </g>
    <g id="Grupo_26796" data-name="Grupo 26796" transform="translate(298.02 344.181)">
      <g id="Grupo_26785" data-name="Grupo 26785">
        <rect id="Rectángulo_4306" data-name="Rectángulo 4306" width="7.222" height="1.495" transform="matrix(0.072, -0.997, 0.997, 0.072, 427.531, 110.467)" fill="#5b4997"/>
        <rect id="Rectángulo_4307" data-name="Rectángulo 4307" width="20.937" height="1.495" transform="translate(428.499 96.895) rotate(-85.856)" fill="#5b4997"/>
        <path id="Trazado_21481" data-name="Trazado 21481" d="M605.678,610.54H239.65A18.728,18.728,0,0,1,220.771,590.2l19.367-270.179a22.266,22.266,0,0,1,21.792-20.335H627.959a18.728,18.728,0,0,1,18.877,20.335L627.47,590.2A22.267,22.267,0,0,1,605.678,610.54Z" transform="translate(-216.587 -299.69)" fill="#5b4997"/>
        <path id="Trazado_21482" data-name="Trazado 21482" d="M467.659,619.55H348.85L327.673,472.738H446.482Z" transform="translate(-163.711 -214.139)" fill="#5b4997"/>
        <path id="Trazado_21483" data-name="Trazado 21483" d="M452.086,565.127H323.565l-2.552,8.748H449.534Z" transform="translate(-167.004 -168.464)" fill="#5b4997"/>
        <path id="Trazado_21484" data-name="Trazado 21484" d="M452.754,543.414l-115.8-6.327-9.282-64.348H442.559Z" transform="translate(-163.711 -214.139)" fill="#1c262a"/>
        <path id="Trazado_21485" data-name="Trazado 21485" d="M602.913,610.54H236.885A18.728,18.728,0,0,1,218.006,590.2l19.367-270.179a22.267,22.267,0,0,1,21.792-20.335H625.194a18.728,18.728,0,0,1,18.877,20.335L624.705,590.2A22.267,22.267,0,0,1,602.913,610.54Z" transform="translate(-217.954 -299.69)" fill="#1c262a"/>
        <rect id="Rectángulo_4308" data-name="Rectángulo 4308" width="155.391" height="1.428" transform="matrix(0.072, -0.997, 0.997, 0.072, 414.097, 177.952)" fill="#fff"/>
        <rect id="Rectángulo_4309" data-name="Rectángulo 4309" width="53.805" height="1.428" transform="translate(409.292 245.084) rotate(-85.901)" fill="#fff"/>
      </g>
      <g id="Grupo_26795" data-name="Grupo 26795" transform="translate(4.18 5.057)">
        <g id="Grupo_26786" data-name="Grupo 26786" transform="translate(1.514)">
          <path id="Trazado_21486" data-name="Trazado 21486" d="M600.255,603.81H236.5a14.576,14.576,0,0,1-14.694-15.827L241.093,318.9a17.33,17.33,0,0,1,16.963-15.828H621.811A14.577,14.577,0,0,1,636.505,318.9l-19.288,269.08A17.33,17.33,0,0,1,600.255,603.81Z" transform="translate(-221.765 -303.074)" fill="#fff"/>
          <path id="Trazado_21487" data-name="Trazado 21487" d="M600.255,603.81H236.5a14.576,14.576,0,0,1-14.694-15.827L241.093,318.9a17.33,17.33,0,0,1,16.963-15.828H621.811A14.577,14.577,0,0,1,636.505,318.9l-19.288,269.08A17.33,17.33,0,0,1,600.255,603.81Z" transform="translate(-221.765 -303.074)" fill="#5b4997" opacity="0.2"/>
          <path id="Trazado_21488" data-name="Trazado 21488" d="M324.522,587.939H239.57a7.043,7.043,0,0,1-7.1-7.648L251.221,318.7a8.374,8.374,0,0,1,8.2-7.647h84.952a7.042,7.042,0,0,1,7.1,7.647l-18.75,261.589A8.375,8.375,0,0,1,324.522,587.939Z" transform="translate(-216.481 -299.128)" fill="#fff" opacity="0.5"/>
        </g>
        <path id="Trazado_21489" data-name="Trazado 21489" d="M308.529,342.52H264.561a6.344,6.344,0,0,1-6.394-6.888l.484-6.743A7.541,7.541,0,0,1,266.033,322H310a6.342,6.342,0,0,1,6.394,6.888l-.483,6.743A7.543,7.543,0,0,1,308.529,342.52Z" transform="translate(-202.263 -293.716)" fill="#5b4997" opacity="0.4"/>
        <g id="Grupo_26787" data-name="Grupo 26787" transform="translate(0 63.459)">
          <path id="Trazado_21490" data-name="Trazado 21490" d="M299.062,436.7H231.938a11.067,11.067,0,0,1-11.156-12.018l4.81-67.124a13.161,13.161,0,0,1,12.88-12.018H305.6a11.069,11.069,0,0,1,11.157,12.018l-4.812,67.124A13.159,13.159,0,0,1,299.062,436.7Z" transform="translate(-220.751 -345.539)" fill="#5b4997"/>
          <path id="Trazado_21491" data-name="Trazado 21491" d="M281.454,369.714a5.015,5.015,0,0,0-4.909,4.58l-.7,9.746a4.217,4.217,0,0,0,4.251,4.58h6.814a1.241,1.241,0,0,0,1.218-1.136l1.193-16.635a1.044,1.044,0,0,0-1.055-1.136Z" transform="translate(-193.519 -333.587)" fill="#fff"/>
          <path id="Trazado_21492" data-name="Trazado 21492" d="M276.827,358.186h-42.31a1.692,1.692,0,0,1-1.705-1.837h0a2.01,2.01,0,0,1,1.968-1.837h42.31a1.69,1.69,0,0,1,1.7,1.837h0A2.01,2.01,0,0,1,276.827,358.186Z" transform="translate(-214.791 -341.102)" fill="#fff"/>
          <path id="Trazado_21493" data-name="Trazado 21493" d="M276.377,364.441h-42.31a1.691,1.691,0,0,1-1.7-1.837h0a2.01,2.01,0,0,1,1.967-1.837h42.31a1.692,1.692,0,0,1,1.705,1.837h0A2.01,2.01,0,0,1,276.377,364.441Z" transform="translate(-215.013 -338.01)" fill="#fff"/>
          <path id="Trazado_21494" data-name="Trazado 21494" d="M261.31,370.7H233.62a1.692,1.692,0,0,1-1.705-1.837h0a2.011,2.011,0,0,1,1.968-1.837h27.691a1.692,1.692,0,0,1,1.705,1.837h0A2.01,2.01,0,0,1,261.31,370.7Z" transform="translate(-215.235 -334.918)" fill="#fff"/>
          <path id="Trazado_21495" data-name="Trazado 21495" d="M278.3,411.595H237.365a7.235,7.235,0,0,1-7.293-7.856l1.541-21.506a8.6,8.6,0,0,1,8.419-7.854h40.934a7.234,7.234,0,0,1,7.293,7.854l-1.542,21.506A8.6,8.6,0,0,1,278.3,411.595Z" transform="translate(-216.153 -331.281)" fill="#fff" opacity="0.5"/>
        </g>
        <g id="Grupo_26788" data-name="Grupo 26788" transform="translate(40.971 172.946)">
          <path id="Trazado_21496" data-name="Trazado 21496" d="M305.809,425.618H254.878a3.137,3.137,0,0,1-3.162-3.406h0a3.73,3.73,0,0,1,3.651-3.407H306.3a3.139,3.139,0,0,1,3.162,3.407h0A3.73,3.73,0,0,1,305.809,425.618Z" transform="translate(-246.418 -418.805)" fill="#5b4997" opacity="0.4"/>
          <path id="Trazado_21497" data-name="Trazado 21497" d="M292.783,434.564H260.464a3.138,3.138,0,0,1-3.162-3.406h0a3.73,3.73,0,0,1,3.651-3.407h32.319a3.138,3.138,0,0,1,3.162,3.407h0A3.73,3.73,0,0,1,292.783,434.564Z" transform="translate(-243.657 -414.382)" fill="#fff" opacity="0.8"/>
          <path id="Trazado_21498" data-name="Trazado 21498" d="M304.039,450.3H253.108a3.138,3.138,0,0,1-3.162-3.406h0a3.729,3.729,0,0,1,3.651-3.406h50.931a3.136,3.136,0,0,1,3.162,3.406h0A3.729,3.729,0,0,1,304.039,450.3Z" transform="translate(-247.294 -406.6)" fill="#5b4997" opacity="0.4"/>
          <path id="Trazado_21499" data-name="Trazado 21499" d="M291.012,459.25H258.7a3.136,3.136,0,0,1-3.162-3.406h0a3.729,3.729,0,0,1,3.649-3.406H291.5a3.136,3.136,0,0,1,3.162,3.406h0A3.729,3.729,0,0,1,291.012,459.25Z" transform="translate(-244.531 -402.177)" fill="#fff" opacity="0.8"/>
          <path id="Trazado_21500" data-name="Trazado 21500" d="M302.27,474.991H251.339a3.136,3.136,0,0,1-3.162-3.406h0a3.73,3.73,0,0,1,3.649-3.406h50.933a3.136,3.136,0,0,1,3.161,3.406h0A3.728,3.728,0,0,1,302.27,474.991Z" transform="translate(-248.168 -394.395)" fill="#5b4997" opacity="0.4"/>
          <path id="Trazado_21501" data-name="Trazado 21501" d="M289.244,483.937H256.925a3.136,3.136,0,0,1-3.162-3.406h0a3.729,3.729,0,0,1,3.651-3.406h32.319a3.138,3.138,0,0,1,3.162,3.406h0A3.729,3.729,0,0,1,289.244,483.937Z" transform="translate(-245.407 -389.972)" fill="#fff" opacity="0.8"/>
        </g>
        <g id="Grupo_26790" data-name="Grupo 26790" transform="translate(128.746 173.569)">
          <path id="Trazado_21502" data-name="Trazado 21502" d="M562.112,451.212c2.207-3.368,7.269-1.944,6.989,1.956l-4.9,68.368c-.253,3.522-2.911,6.384-5.931,6.384H311.941c-3.02,0-5.269-2.862-5.017-6.384l2.911-40.62c.393-5.478,5.969-9.424,11.094-7.826,13.883,4.328,25.779,1.786,36.835-3.694,23.647-11.74,43.431-36.934,70.617-36.934,1.042,0,2.068.027,3.066.093,40.438,2.44,52.757,52.668,84.084,52.668,9.261,0,17.711-4,25.071-9.694C549.617,468.557,556.977,459.041,562.112,451.212Z" transform="translate(-306.905 -412.676)" fill="#5b4997" opacity="0.5"/>
          <path id="Trazado_21503" data-name="Trazado 21503" d="M567.221,485.925,564.2,528.081c-.253,3.522-2.911,6.384-5.931,6.384H311.941c-3.02,0-5.269-2.862-5.017-6.384l6-83.77c.411-5.738,7.932-8.152,10.976-3.509,7.859,11.989,19.951,27.476,33.86,35.139A34.617,34.617,0,0,0,374.4,480.65c19.9,0,36.83-23.611,57.045-41.55,12.4-11,26.025-19.878,42.327-19.878,34.031,0,39.051,55.295,66.828,62.852,5.356,1.464,11.551,1.148,18.97-1.689A5.518,5.518,0,0,1,567.221,485.925Z" transform="translate(-306.905 -419.222)" fill="#5b4997" opacity="0.5"/>
          <g id="Grupo_26789" data-name="Grupo 26789" transform="translate(1.502 46.162)" opacity="0.8">
            <path id="Trazado_21504" data-name="Trazado 21504" d="M482.079,453.26a.548.548,0,0,1-.359-.149.374.374,0,0,1-.1-.164.462.462,0,0,1-.046-.194.49.49,0,0,1,.151-.359.5.5,0,0,1,.716,0,.46.46,0,0,1,.151.359.8.8,0,0,1-.031.194.6.6,0,0,1-.12.164A.515.515,0,0,1,482.079,453.26Z" transform="translate(-222.057 -449.06)" fill="#fff"/>
            <path id="Trazado_21505" data-name="Trazado 21505" d="M326.773,489.324a.5.5,0,0,1-.508-.507h0a.5.5,0,0,1,.508-.495v-.013a.512.512,0,0,1,.507.508h0a.515.515,0,0,1-.507.523h0Zm-5.126-.282h.015a.5.5,0,0,1-.463-.553h0a.506.506,0,0,1,.568-.448h0a.5.5,0,0,1,.448.553h0a.517.517,0,0,1-.508.463h0A.11.11,0,0,1,321.647,489.042Zm9.669-.448a.508.508,0,0,1,.447-.568h0a.506.506,0,0,1,.568.448h0a.507.507,0,0,1-.447.568h-.061A.515.515,0,0,1,331.316,488.593Zm-14.72-.33a.535.535,0,0,1-.4-.611h0a.536.536,0,0,1,.613-.4h0a.539.539,0,0,1,.4.613h0a.525.525,0,0,1-.51.4h-.1Zm19.709-.507a.508.508,0,0,1,.374-.628h0a.522.522,0,0,1,.614.374h0a.528.528,0,0,1-.374.628h0v-.015h0a.376.376,0,0,1-.12.015h0A.488.488,0,0,1,336.306,487.757Zm163.441.209a.5.5,0,0,1-.508-.51h0a.513.513,0,0,1,.508-.507h0a.5.5,0,0,1,.507.507h0a.5.5,0,0,1-.507.51Zm4.558-.717a.494.494,0,0,1,.448-.553h0a.5.5,0,0,1,.568.447h0a.517.517,0,0,1-.463.568h-.045A.515.515,0,0,1,504.3,487.249Zm-9.669.4a.5.5,0,0,1-.433-.569h0a.508.508,0,0,1,.568-.447h0a.522.522,0,0,1,.447.566h0a.525.525,0,0,1-.507.465h0A.135.135,0,0,1,494.636,487.652Zm-183-.613a.518.518,0,0,1-.36-.628h0a.532.532,0,0,1,.644-.359h0a.523.523,0,0,1,.344.643h0a.5.5,0,0,1-.493.359h0A.409.409,0,0,1,311.635,487.039Zm197.691-.493a.493.493,0,0,1,.4-.6h0a.507.507,0,0,1,.6.4h0a.507.507,0,0,1-.4.6h0c-.03,0-.06.013-.09.013h0A.524.524,0,0,1,509.326,486.546Zm-19.712.179a.488.488,0,0,1-.374-.613h0a.507.507,0,0,1,.614-.374h0a.513.513,0,0,1,.374.613h0a.511.511,0,0,1-.493.389h0A.3.3,0,0,1,489.614,486.725Zm-148.465-.418a.5.5,0,0,1,.3-.659h0a.513.513,0,0,1,.656.285h0a.5.5,0,0,1-.3.656h0a.382.382,0,0,1-.179.046h0A.518.518,0,0,1,341.149,486.307Zm173.122-.882a.517.517,0,0,1,.36-.644h0a.517.517,0,0,1,.628.36h0a.514.514,0,0,1-.359.626h0a.4.4,0,0,1-.135.031h0A.515.515,0,0,1,514.271,485.425Zm-29.557-.179h0a.505.505,0,0,1-.314-.643h0a.522.522,0,0,1,.658-.314h0a.522.522,0,0,1,.314.657h0a.518.518,0,0,1-.493.327h0A.3.3,0,0,1,484.714,485.246ZM345.8,484.29a.512.512,0,0,1,.223-.689h0a.526.526,0,0,1,.687.239h0a.5.5,0,0,1-.223.674h0a.442.442,0,0,1-.239.06h0A.511.511,0,0,1,345.8,484.29Zm173.331-.359a.5.5,0,0,1,.3-.644l.013-.013a.52.52,0,0,1,.644.314h0a.517.517,0,0,1-.314.658h0a.633.633,0,0,1-.164.028h0A.514.514,0,0,1,519.128,483.931Zm-39.136-.628h0a.5.5,0,0,1-.254-.672h0a.522.522,0,0,1,.672-.254h0a.508.508,0,0,1,.254.687h0a.527.527,0,0,1-.463.3h0A.353.353,0,0,1,479.991,483.3Zm43.875-1.166a.5.5,0,0,1,.284-.659h0a.482.482,0,0,1,.658.271h0a.5.5,0,0,1-.271.672h0a.432.432,0,0,1-.193.03h0A.521.521,0,0,1,523.866,482.138Zm-173.646-.3a.527.527,0,0,1,.163-.717h0a.511.511,0,0,1,.7.163h0a.511.511,0,0,1-.164.7h0a.447.447,0,0,1-.269.09h0A.539.539,0,0,1,350.22,481.839Zm125.214-.822h0a.518.518,0,0,1-.211-.7h0a.525.525,0,0,1,.7-.194h0a.509.509,0,0,1,.194.687h0a.524.524,0,0,1-.448.269h0A.731.731,0,0,1,475.433,481.017Zm53.08-.927a.5.5,0,0,1,.239-.674h0a.52.52,0,0,1,.687.241h0a.508.508,0,0,1-.254.672h0l.015.015h0a.6.6,0,0,1-.224.045h0A.5.5,0,0,1,528.514,480.09Zm-174.081-1.061a.523.523,0,0,1,.12-.717h0a.521.521,0,0,1,.719.1h0a.523.523,0,0,1-.12.717h0a.559.559,0,0,1-.3.1h0A.525.525,0,0,1,354.432,479.029Zm116.593-.568v-.015h0a.49.49,0,0,1-.164-.687h0a.48.48,0,0,1,.687-.179h0a.5.5,0,0,1,.179.7h0a.522.522,0,0,1-.433.254h0A.56.56,0,0,1,471.025,478.462Zm62.032-.643a.5.5,0,0,1,.208-.687h0a.517.517,0,0,1,.689.209h0a.52.52,0,0,1-.209.7h0a.7.7,0,0,1-.241.06h0A.508.508,0,0,1,533.057,477.819ZM358.5,475.966a.5.5,0,0,1,.075-.719h0a.515.515,0,0,1,.716.076h0a.533.533,0,0,1-.073.731h0a.54.54,0,0,1-.329.106h0A.455.455,0,0,1,358.5,475.966Zm108.223-.224v-.015h0a.506.506,0,0,1-.149-.7h0a.528.528,0,0,1,.717-.151h0a.526.526,0,0,1,.149.7h0a.5.5,0,0,1-.435.238h0A.616.616,0,0,1,466.721,475.742Zm70.772-.374a.511.511,0,0,1,.181-.7h0a.528.528,0,0,1,.7.179h0a.528.528,0,0,1-.179.7h0a.607.607,0,0,1-.269.073h0A.5.5,0,0,1,537.493,475.368Zm-75-2.451a.524.524,0,0,1-.134-.719h0a.538.538,0,0,1,.717-.133h0a.537.537,0,0,1,.135.717h0a.525.525,0,0,1-.435.223h0A.525.525,0,0,1,462.492,472.917Zm79.336-.179a.533.533,0,0,1,.164-.719h0a.51.51,0,0,1,.7.166h0a.509.509,0,0,1-.164.7h0a.418.418,0,0,1-.269.091h0A.543.543,0,0,1,541.829,472.738Zm-179.4.028a.513.513,0,0,1,.06-.716h0a.534.534,0,0,1,.732.06h0a.5.5,0,0,1-.076.716h0a.438.438,0,0,1-.327.12h0A.524.524,0,0,1,362.429,472.767Zm183.657-2.809a.521.521,0,0,1,.12-.716h0a.511.511,0,0,1,.719.134h0a.5.5,0,0,1-.135.7h0a.518.518,0,0,1-.284.091h0A.5.5,0,0,1,546.086,469.957Zm-87.795.12a.494.494,0,0,1-.133-.7h0a.506.506,0,0,1,.7-.149h0a.51.51,0,0,1,.135.717h0a.481.481,0,0,1-.418.224h0A.526.526,0,0,1,458.291,470.077Zm-91.964-.566a.492.492,0,0,1,.06-.717h0a.518.518,0,0,1,.719.06h0a.516.516,0,0,1-.06.717h0a.475.475,0,0,1-.329.12h0A.485.485,0,0,1,366.328,469.51Zm87.751-2.242a.5.5,0,0,1-.151-.7h0a.5.5,0,0,1,.7-.151h0a.511.511,0,0,1,.149.7h0a.48.48,0,0,1-.418.223h0A.477.477,0,0,1,454.079,467.269Zm96.163-.241a.487.487,0,0,1,.1-.7h0a.516.516,0,0,1,.716.1h0a.52.52,0,0,1-.12.717h0a.531.531,0,0,1-.3.09h0A.458.458,0,0,1,550.242,467.028Zm-180.013-.761a.505.505,0,0,1,.073-.717h0a.517.517,0,0,1,.719.075h0a.5.5,0,0,1-.075.716h0a.446.446,0,0,1-.33.121h0A.494.494,0,0,1,370.229,466.267Zm79.589-1.733a.509.509,0,0,1-.163-.7h0a.511.511,0,0,1,.7-.166h0a.512.512,0,0,1,.164.7h0a.52.52,0,0,1-.433.254h0A.455.455,0,0,1,449.818,464.534ZM554.305,464a.505.505,0,0,1,.091-.717h0a.506.506,0,0,1,.717.09h0a.534.534,0,0,1-.09.717h-.015a.457.457,0,0,1-.3.1h0A.508.508,0,0,1,554.305,464Zm-180.1-.867a.518.518,0,0,1,.1-.717h0a.521.521,0,0,1,.717.1h0a.518.518,0,0,1-.106.716h0a.553.553,0,0,1-.3.106h0A.524.524,0,0,1,374.2,463.129Zm71.265-1.181a.51.51,0,0,1-.178-.7h0a.494.494,0,0,1,.687-.178h0a.486.486,0,0,1,.194.687h0a.526.526,0,0,1-.448.269h0A.642.642,0,0,1,445.47,461.949Zm112.8-1.121a.5.5,0,0,1,.075-.717h0a.5.5,0,0,1,.717.073h0a.518.518,0,0,1-.06.719h0a.593.593,0,0,1-.33.12h0A.5.5,0,0,1,558.267,460.828Zm-179.938-.658a.509.509,0,0,1,.133-.717h0a.528.528,0,0,1,.719.149h0a.507.507,0,0,1-.151.7h0a.486.486,0,0,1-.282.091h0A.521.521,0,0,1,378.329,460.17Zm62.7-.628a.508.508,0,0,1-.209-.687h0a.515.515,0,0,1,.687-.226h0a.552.552,0,0,1,.223.7h0a.545.545,0,0,1-.462.269h0A.47.47,0,0,1,441.033,459.543Zm121.118-1.988a.516.516,0,0,1,.046-.717h.015a.517.517,0,0,1,.717.043h0a.518.518,0,0,1-.06.719h0a.473.473,0,0,1-.329.135h0A.508.508,0,0,1,562.151,457.555Zm-179.533-.09a.508.508,0,0,1,.194-.7h0a.512.512,0,0,1,.687.2h0a.517.517,0,0,1-.194.7h.013a.563.563,0,0,1-.253.06h0A.508.508,0,0,1,382.618,457.466Zm53.872-.091h0a.508.508,0,0,1-.254-.672h0a.5.5,0,0,1,.672-.254h0a.5.5,0,0,1,.254.674h0a.511.511,0,0,1-.463.3h0A.494.494,0,0,1,436.49,457.374Zm-4.662-1.9a.5.5,0,0,1-.3-.658h0a.524.524,0,0,1,.657-.3h0a.53.53,0,0,1,.3.659h0a.5.5,0,0,1-.478.327h0A.394.394,0,0,1,431.828,455.478Zm-44.727-.359a.515.515,0,0,1,.254-.672h0a.512.512,0,0,1,.687.253h0a.517.517,0,0,1-.269.674h0a.479.479,0,0,1-.211.045h0A.5.5,0,0,1,387.1,455.119Zm39.945-1.21a.523.523,0,0,1-.344-.644h0a.523.523,0,0,1,.643-.342h0a.516.516,0,0,1,.344.643h0a.532.532,0,0,1-.493.359h0A.563.563,0,0,1,427.046,453.909Zm-35.254-.7a.508.508,0,0,1,.33-.641h0a.509.509,0,0,1,.643.327h0a.51.51,0,0,1-.329.644h0a.539.539,0,0,1-.164.03h0A.509.509,0,0,1,391.792,453.205Zm30.381-.536a.509.509,0,0,1-.387-.6h0a.494.494,0,0,1,.613-.389h0a.493.493,0,0,1,.389.6h0a.516.516,0,0,1-.508.4h0A.3.3,0,0,1,422.172,452.669Zm-25.524-.852a.513.513,0,0,1,.405-.613h0a.506.506,0,0,1,.6.387h0a.505.505,0,0,1-.387.614h0c-.03,0-.075.013-.1.013h0A.527.527,0,0,1,396.648,451.817Zm20.579-.015h0a.52.52,0,0,1-.433-.584h0a.5.5,0,0,1,.568-.433h.015a.525.525,0,0,1,.433.584h0a.527.527,0,0,1-.508.433h-.075Zm-15.586-.852a.5.5,0,0,1,.448-.553h0a.5.5,0,0,1,.568.447h0a.529.529,0,0,1-.465.569h-.043A.517.517,0,0,1,401.641,450.95Zm10.579.327h.016a.494.494,0,0,1-.478-.536h0a.5.5,0,0,1,.538-.478h0a.517.517,0,0,1,.478.553h0a.508.508,0,0,1-.508.478h0C412.251,451.294,412.236,451.277,412.22,451.277Zm-5.528-.656a.494.494,0,0,1,.508-.508h0a.5.5,0,0,1,.508.508h0a.506.506,0,0,1-.508.508h0A.5.5,0,0,1,406.692,450.621Z" transform="translate(-306.255 -450.112)" fill="#fff"/>
            <path id="Trazado_21506" data-name="Trazado 21506" d="M308.418,474.094a.441.441,0,0,1-.194-.046.409.409,0,0,1-.164-.12.306.306,0,0,1-.106-.163.432.432,0,0,1-.043-.194.549.549,0,0,1,.149-.359.374.374,0,0,1,.164-.1.444.444,0,0,1,.389,0,.306.306,0,0,1,.164.1.483.483,0,0,1,.149.359.392.392,0,0,1-.031.194.316.316,0,0,1-.118.163.409.409,0,0,1-.164.12A.4.4,0,0,1,308.418,474.094Z" transform="translate(-307.91 -438.766)" fill="#fff"/>
          </g>
        </g>
        <g id="Grupo_26793" data-name="Grupo 26793" transform="translate(146.019 33.573)">
          <g id="Grupo_26791" data-name="Grupo 26791" transform="translate(0 0.083)">
            <path id="Trazado_21507" data-name="Trazado 21507" d="M384.894,377.331h0l-3.491-3.76a34.208,34.208,0,0,1-23.258,9.352,29.225,29.225,0,0,1-29.16-23.671l-5.232,1.375h0l-4.782,1.257a38.607,38.607,0,0,0,9.548,18.881c15.166,16.338,42.053,16.338,59.563,0Z" transform="translate(-318.213 -308.957)" fill="#fff"/>
            <path id="Trazado_21508" data-name="Trazado 21508" d="M371.7,333.79l-4.567,4.26h0l-3.153,2.944a29.723,29.723,0,0,1,7.744,22.577,34.377,34.377,0,0,1-10.972,22.588l2.733,2.944h0l3.945,4.25A45.47,45.47,0,0,0,381.9,363.571,39.387,39.387,0,0,0,371.7,333.79Z" transform="translate(-297.559 -321.544)" fill="#1c262a"/>
            <path id="Trazado_21509" data-name="Trazado 21509" d="M392.6,337.841c-15.168-16.328-42.055-16.328-59.563,0-11.38,10.63-16.661,26.166-13.817,40.681l5.915-1.554h0l4.1-1.077a31.7,31.7,0,0,1-.48-8.268c1.264-17.631,16.588-31.929,34.218-31.929a29.575,29.575,0,0,1,21.908,9.352l4.039-3.77h0Z" transform="translate(-318.464 -325.595)" fill="#5b4997"/>
          </g>
          <g id="Grupo_26792" data-name="Grupo 26792" transform="translate(103.149)">
            <path id="Trazado_21510" data-name="Trazado 21510" d="M401.4,393.526h0l4.029-3.76a29.756,29.756,0,0,1-7.733-22.587c1.06-14.778,11.991-27.213,25.884-30.857l-1.007-5.135h0l-.921-4.691a46.133,46.133,0,0,0-19.661,10.9c-17.511,16.339-19.437,43.225-4.269,59.563Z" transform="translate(-387.488 -325.067)" fill="#fff"/>
            <path id="Trazado_21511" data-name="Trazado 21511" d="M453.9,376.031l-3.956-4.26h0l-2.732-2.942a34.178,34.178,0,0,1-23.248,9.362,29.6,29.6,0,0,1-21.918-9.352l-3.155,2.944h0l-4.553,4.249a39.152,39.152,0,0,0,28.9,12.338A45.262,45.262,0,0,0,453.9,376.031Z" transform="translate(-384.104 -304.139)" fill="#1c262a"/>
            <path id="Trazado_21512" data-name="Trazado 21512" d="M445.98,397.431c17.5-16.338,19.425-43.223,4.269-59.563-9.869-10.618-25.109-14.784-39.9-10.9l1.139,5.8h0l.789,4.023a33.187,33.187,0,0,1,8.345-1.073,29.327,29.327,0,0,1,29.641,31.93,34.358,34.358,0,0,1-10.97,22.577l3.5,3.77v0Z" transform="translate(-376.187 -325.54)" fill="#5b4997"/>
          </g>
        </g>
        <path id="Trazado_21513" data-name="Trazado 21513" d="M492.2,328.484a2.933,2.933,0,0,1,2.969,3.2l-1.847,25.776a3.754,3.754,0,0,1-3.631,3.391H463.915a2.931,2.931,0,0,1-2.968-3.2l1.847-25.775a3.753,3.753,0,0,1,3.631-3.392H492.2m0-1.318H466.425a5.054,5.054,0,0,0-4.946,4.615l-1.847,25.776a4.249,4.249,0,0,0,4.283,4.615h25.777a5.053,5.053,0,0,0,4.946-4.615l1.847-25.776a4.25,4.25,0,0,0-4.284-4.615Z" transform="translate(-102.66 -291.164)" fill="#5b4997" opacity="0.3"/>
        <path id="Trazado_21514" data-name="Trazado 21514" d="M490.074,358.166a2.931,2.931,0,0,1,2.968,3.2l-1.847,25.776a3.752,3.752,0,0,1-3.63,3.391H461.788a2.931,2.931,0,0,1-2.969-3.2l1.849-25.775a3.752,3.752,0,0,1,3.63-3.391h25.777m0-1.32H464.3a5.054,5.054,0,0,0-4.946,4.615L457.5,387.237a4.25,4.25,0,0,0,4.284,4.616h25.776a5.053,5.053,0,0,0,4.945-4.616l1.849-25.777a4.251,4.251,0,0,0-4.284-4.615Z" transform="translate(-103.712 -276.49)" fill="#5b4997" opacity="0.3"/>
        <path id="Trazado_21515" data-name="Trazado 21515" d="M455.5,453.609a2.451,2.451,0,0,1,2.494,2.69,3.145,3.145,0,0,1-3.081,2.88,2.451,2.451,0,0,1-2.494-2.69,3.144,3.144,0,0,1,3.081-2.88m0-1.32a4.482,4.482,0,0,0-4.4,4.1,3.77,3.77,0,0,0,3.811,4.1,4.478,4.478,0,0,0,4.4-4.1,3.768,3.768,0,0,0-3.809-4.1Z" transform="translate(-106.876 -229.306)" fill="#5b4997"/>
        <g id="Grupo_26794" data-name="Grupo 26794" transform="translate(348.296 158.259)">
          <path id="Trazado_21516" data-name="Trazado 21516" d="M454.479,452.755l-.657-.047.095-1.315.657.047Z" transform="translate(-453.822 -388.008)" fill="#5b4997"/>
          <path id="Trazado_21517" data-name="Trazado 21517" d="M454.671,468.382l-.656-.046.194-2.7.656.046Zm.387-5.4-.658-.048.194-2.7.657.046Zm.387-5.4-.657-.046.194-2.7.658.048Zm.386-5.4-.656-.046.194-2.7.656.046Zm.387-5.4-.656-.048.194-2.7.656.046Zm.389-5.4-.656-.046.193-2.7.656.048Zm.387-5.4-.658-.046.193-2.7.658.046Zm.387-5.4-.658-.048.193-2.7.658.046Zm.386-5.4-.656-.048.194-2.7.656.046Zm.387-5.4-.656-.046.194-2.7.656.046Zm.387-5.4-.658-.046.194-2.7.658.046Z" transform="translate(-453.727 -407.65)" fill="#5b4997"/>
          <rect id="Rectángulo_4310" data-name="Rectángulo 4310" width="1.318" height="0.658" transform="translate(4.544 1.315) rotate(-85.938)" fill="#5b4997"/>
        </g>
        <path id="Trazado_21518" data-name="Trazado 21518" d="M555.62,418.163H318.988a4.652,4.652,0,0,1-4.679-5.042l1.167-16.29a5.4,5.4,0,0,1,5.293-4.94H557.4a4.652,4.652,0,0,1,4.679,5.042l-1.167,16.292A5.4,5.4,0,0,1,555.62,418.163ZM320.77,393.32a3.947,3.947,0,0,0-3.869,3.612l-1.167,16.292a3.222,3.222,0,0,0,3.255,3.509H555.62a3.949,3.949,0,0,0,3.87-3.612l1.167-16.29a3.224,3.224,0,0,0-3.255-3.51Z" transform="translate(-174.505 -259.166)" fill="#5b4997"/>
        <path id="Trazado_21519" data-name="Trazado 21519" d="M547.275,400.386H322.964a2.042,2.042,0,0,1-2.058-2.218h0a2.427,2.427,0,0,1,2.375-2.216H547.592a2.041,2.041,0,0,1,2.058,2.216h0A2.427,2.427,0,0,1,547.275,400.386Z" transform="translate(-171.24 -257.157)" fill="#fff" fill-rule="evenodd" opacity="0.8"/>
        <path id="Trazado_21520" data-name="Trazado 21520" d="M510.114,406.641h-187.6a2.043,2.043,0,0,1-2.058-2.216h0a2.429,2.429,0,0,1,2.376-2.218h187.6a2.043,2.043,0,0,1,2.058,2.218h0A2.429,2.429,0,0,1,510.114,406.641Z" transform="translate(-171.462 -254.065)" fill="#fff" fill-rule="evenodd" opacity="0.8"/>
      </g>
    </g>
  </g>
</svg>
