<svg xmlns="http://www.w3.org/2000/svg" width="156" height="156" viewBox="0 0 156 156">
  <g id="Grupo_28185" data-name="Grupo 28185" transform="translate(-514 -4673)">
    <g id="Elipse_1009" data-name="Elipse 1009" transform="translate(514 4673)" fill="#fff" stroke="#7d58bd" stroke-width="7">
      <circle cx="78" cy="78" r="78" stroke="none"/>
      <circle cx="78" cy="78" r="74.5" fill="none"/>
    </g>
    <g id="qualitative-research" transform="translate(552 4709)">
      <path id="Trazado_22101" data-name="Trazado 22101" d="M29.548,25A14.548,14.548,0,1,0,44.1,39.548,14.566,14.566,0,0,0,29.548,25Zm0,26.452a11.9,11.9,0,1,1,11.9-11.9A11.917,11.917,0,0,1,29.548,51.452Z" transform="translate(4.516 7.742)"/>
      <path id="Trazado_22102" data-name="Trazado 22102" d="M61.839,51.258V57.7L71.5,51.258h2.244a6.62,6.62,0,0,0,6.613-6.613V28.774a6.62,6.62,0,0,0-6.613-6.613H66.667a7.923,7.923,0,0,0-14.945,0H44.645a6.607,6.607,0,0,0-1.323.134V12.9A6.62,6.62,0,0,0,36.71,6.29H29.634a7.923,7.923,0,0,0-14.945,0H7.613A6.62,6.62,0,0,0,1,12.9V28.774a6.62,6.62,0,0,0,6.613,6.613H18.231a19.706,19.706,0,0,0-.792,22.692l-1.89,1.89-1.323-1.323L2.758,70.116A6,6,0,0,0,11.241,78.6L22.709,67.129l-1.323-1.323,1.89-1.89A19.809,19.809,0,0,0,53.5,51.258Zm5.29-26.452h6.613a3.973,3.973,0,0,1,3.968,3.968V44.645a3.973,3.973,0,0,1-3.968,3.968H70.7l-6.212,4.142V48.613H53.836c.029-.439.067-.876.067-1.323s-.038-.883-.067-1.323H72.42V43.323a13.239,13.239,0,0,0-8.338-12.278A7.921,7.921,0,0,0,67.129,24.807ZM63.061,43.323,62.253,33.2a10.6,10.6,0,0,1,7.522,10.126Zm-3.5-10.562.844,10.562H57.981l.842-10.558c.124,0,.246-.022.37-.022S59.44,32.757,59.563,32.761ZM55.327,43.323H53.5a19.684,19.684,0,0,0-2.625-6.512,10.546,10.546,0,0,1,5.256-3.6Zm3.867-23.807a5.29,5.29,0,1,1-5.29,5.29A5.3,5.3,0,0,1,59.194,19.516Zm-7.936,5.29A7.922,7.922,0,0,0,54.3,31.043a13.208,13.208,0,0,0-5.026,3.535,19.9,19.9,0,0,0-8.582-5.962,3.964,3.964,0,0,1,3.952-3.809ZM30.1,8.936H36.71A3.973,3.973,0,0,1,40.678,12.9V23.518a6.579,6.579,0,0,0-2.554,4.355,19.59,19.59,0,0,0-2.736-.353v-.069A13.239,13.239,0,0,0,27.05,15.174,7.921,7.921,0,0,0,30.1,8.936ZM11.581,27.452A10.6,10.6,0,0,1,19.1,17.326l-.809,10.126ZM21.792,16.89c.123,0,.245-.019.369-.019s.246.015.369.019l.844,10.562H20.949Zm3.427.436a10.6,10.6,0,0,1,7.523,10.126H26.029ZM22.161,3.645a5.29,5.29,0,1,1-5.29,5.29A5.3,5.3,0,0,1,22.161,3.645ZM3.645,28.774V12.9A3.973,3.973,0,0,1,7.613,8.936h6.613a7.921,7.921,0,0,0,3.047,6.239A13.239,13.239,0,0,0,8.936,27.452V30.1H24.21a19.915,19.915,0,0,0-3.587,2.645H7.613A3.973,3.973,0,0,1,3.645,28.774ZM9.371,76.729a3.354,3.354,0,1,1-4.743-4.743l9.6-9.6,4.743,4.743ZM19.516,63.937l-2.1-2.1,1.625-1.625a20.134,20.134,0,0,0,2.1,2.1Zm14.548.548A17.194,17.194,0,1,1,51.258,47.291,17.214,17.214,0,0,1,34.065,64.484Z" transform="translate(0 0)"/>
      <path id="Trazado_22103" data-name="Trazado 22103" d="M66.774,45H42.968A3.973,3.973,0,0,0,39,48.968V64.839a3.973,3.973,0,0,0,3.968,3.968H66.774a3.973,3.973,0,0,0,3.968-3.968V48.968A3.973,3.973,0,0,0,66.774,45ZM68.1,64.839a1.324,1.324,0,0,1-1.323,1.323H42.968a1.324,1.324,0,0,1-1.323-1.323V48.968a1.324,1.324,0,0,1,1.323-1.323H66.774A1.324,1.324,0,0,1,68.1,48.968Z" transform="translate(12.258 14.194)"/>
      <path id="Trazado_22104" data-name="Trazado 22104" d="M61.516,51.645H58.871v7.936H56.226V54.29H53.581v5.29H50.936V56.936H48.29v2.645H45.645V49H43V62.226H64.161V59.581H61.516Z" transform="translate(13.549 15.484)"/>
      <path id="Trazado_22105" data-name="Trazado 22105" d="M55,21h2.645v2.645H55Z" transform="translate(17.42 6.452)"/>
      <path id="Trazado_22106" data-name="Trazado 22106" d="M55,25h2.645v2.645H55Z" transform="translate(17.42 7.742)"/>
      <path id="Trazado_22107" data-name="Trazado 22107" d="M5,9H7.645v2.645H5Z" transform="translate(1.29 2.581)"/>
      <path id="Trazado_22108" data-name="Trazado 22108" d="M5,13H7.645v2.645H5Z" transform="translate(1.29 3.871)"/>
    </g>
  </g>
</svg>
