<svg xmlns="http://www.w3.org/2000/svg" width="156" height="156" viewBox="0 0 156 156">
  <g id="Grupo_28186" data-name="Grupo 28186" transform="translate(-716 -4673)">
    <g id="Elipse_1010" data-name="Elipse 1010" transform="translate(716 4673)" fill="#fff" stroke="#7d58bd" stroke-width="7">
      <circle cx="78" cy="78" r="78" stroke="none"/>
      <circle cx="78" cy="78" r="74.5" fill="none"/>
    </g>
    <g id="statistics_1_" data-name="statistics (1)" transform="translate(747.866 4712.781)">
      <path id="Trazado_22109" data-name="Trazado 22109" d="M110.585,287.047a5.434,5.434,0,0,1-7.532,7.532l-1.5,2.269a8.156,8.156,0,0,0,11.3-11.3Zm0,0" transform="translate(-84.28 -236.981)"/>
      <path id="Trazado_22110" data-name="Trazado 22110" d="M88.163,266.721a5.407,5.407,0,0,1,2.995.9l1.5-2.268a8.156,8.156,0,0,0-11.3,11.3l2.269-1.5a5.435,5.435,0,0,1,4.536-8.44Zm0,0" transform="translate(-66.395 -219.102)"/>
      <path id="Trazado_22111" data-name="Trazado 22111" d="M288,336v8.163h5.442v-2.721h-2.721V336Zm0,0" transform="translate(-239.02 -278.857)"/>
      <path id="Trazado_22112" data-name="Trazado 22112" d="M249.783,288a15,15,0,0,0-9.471,3.379l1.725,2.107a12.252,12.252,0,0,1,6.385-2.679v2.635h2.721V290.8a12.261,12.261,0,0,1,10.8,10.8h-2.641v2.721h2.635a12.256,12.256,0,0,1-2.679,6.386l2.105,1.724A14.963,14.963,0,0,0,249.783,288Zm0,0" transform="translate(-199.443 -239.02)"/>
      <path id="Trazado_22113" data-name="Trazado 22113" d="M224.327,341.942v-2.635h-2.721v2.641a12.261,12.261,0,0,1-10.8-10.8h2.641v-2.721h-2.635a12.256,12.256,0,0,1,2.679-6.386l-2.105-1.724a14.964,14.964,0,0,0,21.056,21.057l-1.725-2.107A12.247,12.247,0,0,1,224.327,341.942Zm0,0" transform="translate(-172.626 -265.837)"/>
      <path id="Trazado_22114" data-name="Trazado 22114" d="M76.191,128.98H73.469v-38.1H65.306v25.627a20.518,20.518,0,0,0-2.721-2.46V97.688H54.422v12.655A20.467,20.467,0,0,0,51.7,110v-5.51H43.537v6.633a20.3,20.3,0,0,0-3.887,1.865,18.813,18.813,0,0,0-.94-2.212l2.151-3.013-7.4-7.4-3.014,2.152a18.945,18.945,0,0,0-2.835-1.17L27,97.688H16.534l-.608,3.656a18.945,18.945,0,0,0-2.835,1.17l-3.013-2.152-7.4,7.4,2.151,3.013a18.7,18.7,0,0,0-1.171,2.835L0,114.222v10.468l3.656.609a18.837,18.837,0,0,0,1.171,2.835l-2.151,3.012,7.4,7.4L13.09,136.4a18.946,18.946,0,0,0,2.835,1.17l.608,3.657H27l.608-3.656a18.945,18.945,0,0,0,2.835-1.17l.544.389A20.386,20.386,0,0,0,70.679,131.7H84.354V80H76.19ZM68.027,93.606h2.721V128.98h-.069a20.25,20.25,0,0,0-2.652-8.777Zm-10.884,6.8h2.721v11.9a20.238,20.238,0,0,0-2.721-1.181Zm-10.884,6.8H48.98V110a20.358,20.358,0,0,0-2.721.343ZM29.871,133.617a16.189,16.189,0,0,1-3.818,1.576l-.842.229L24.7,138.5H18.84l-.514-3.082-.842-.229a16.212,16.212,0,0,1-3.818-1.576l-.758-.434L10.37,135l-4.143-4.141,1.814-2.54-.434-.758a16.166,16.166,0,0,1-1.576-3.817L5.8,122.9l-3.082-.513v-5.858l3.082-.513.229-.842a16.208,16.208,0,0,1,1.576-3.817l.434-.758-1.814-2.54,4.143-4.141,2.537,1.814.758-.434a16.189,16.189,0,0,1,3.818-1.576l.842-.229.514-3.082H24.7l.514,3.082.842.229a16.212,16.212,0,0,1,3.818,1.576l.758.434,2.537-1.814,4.143,4.141L35.5,110.6l.434.758a16.183,16.183,0,0,1,1.394,3.28,20.648,20.648,0,0,0-2.214,2.166,13.658,13.658,0,1,0-5.178,13.5c0,.012,0,.025,0,.037a20.365,20.365,0,0,0,.26,3.092Zm2.748-13.36a20.3,20.3,0,0,0-2.235,5.831,10.87,10.87,0,1,1,2.269-6.633C32.653,119.728,32.638,119.993,32.619,120.258Zm17.721,27.77a17.687,17.687,0,1,1,17.687-17.687A17.708,17.708,0,0,1,50.34,148.028ZM78.912,82.722h2.721V128.98H78.912Zm0,0" transform="translate(0 -66.395)"/>
      <path id="Trazado_22115" data-name="Trazado 22115" d="M76.191,0V2.721h2.924l-9.625,7.7L65.306,6.239l-6.415,6.415a4.017,4.017,0,0,0-1.749-.409,4.087,4.087,0,0,0-4.082,4.082,4.035,4.035,0,0,0,.51,1.935l-7.112,7.9A4.06,4.06,0,0,0,44.9,25.85c-.026,0-.049.007-.075.008l-5.471-14.59A4.075,4.075,0,1,0,32.747,9.02L21.593,15.883a4.036,4.036,0,0,0-6.377,1.8h-7.3a4.082,4.082,0,1,0,0,2.721h7.3a4.071,4.071,0,0,0,7.819-2.218L34.19,11.328a4.033,4.033,0,0,0,2.544.917c.026,0,.049-.007.075-.008L42.28,26.826A4.091,4.091,0,1,0,48.469,28l7.112-7.9a4.077,4.077,0,0,0,5.643-3.769,4.017,4.017,0,0,0-.409-1.749l4.491-4.491,3.981,3.981L81.633,4.192V8.163h2.721V0ZM4.082,20.408a1.361,1.361,0,1,1,1.361-1.361A1.362,1.362,0,0,1,4.082,20.408Zm14.966,0a1.361,1.361,0,1,1,1.361-1.361A1.362,1.362,0,0,1,19.048,20.408ZM35.374,8.163a1.361,1.361,0,1,1,1.361,1.361A1.362,1.362,0,0,1,35.374,8.163ZM44.9,31.293a1.361,1.361,0,1,1,1.361-1.361A1.362,1.362,0,0,1,44.9,31.293ZM57.143,17.687A1.361,1.361,0,1,1,58.5,16.327,1.362,1.362,0,0,1,57.143,17.687Zm0,0" transform="translate(0)"/>
    </g>
  </g>
</svg>
