<svg xmlns="http://www.w3.org/2000/svg" width="156" height="156" viewBox="0 0 156 156">
  <g id="Grupo_28184" data-name="Grupo 28184" transform="translate(-315 -4673)">
    <g id="Elipse_993" data-name="Elipse 993" transform="translate(315 4673)" fill="#fff" stroke="#7d58bd" stroke-width="7">
      <circle cx="78" cy="78" r="78" stroke="none"/>
      <circle cx="78" cy="78" r="74.5" fill="none"/>
    </g>
    <g id="profits" transform="translate(352 4710)">
      <g id="Grupo_28174" data-name="Grupo 28174" transform="translate(0 30.196)">
        <g id="Grupo_28173" data-name="Grupo 28173">
          <path id="Trazado_22096" data-name="Trazado 22096" d="M79.781,238H78.509V191.59A1.589,1.589,0,0,0,76.92,190H64.206a1.589,1.589,0,0,0-1.589,1.589V208.6a1.589,1.589,0,0,0,3.179,0V193.18h9.536V238H65.8V224.168a1.589,1.589,0,0,0-3.179,0V238H58.8V202.079a1.589,1.589,0,0,0-1.589-1.589H44.5a1.589,1.589,0,0,0-1.589,1.589V238H38.46V211.933a1.589,1.589,0,0,0-1.589-1.589H24.157a1.589,1.589,0,0,0-1.589,1.589V238H18.753V222.1a1.589,1.589,0,0,0-1.589-1.589H4.45A1.589,1.589,0,0,0,2.861,222.1V238H1.589a1.589,1.589,0,0,0,0,3.179H79.781a1.589,1.589,0,0,0,0-3.179Zm-64.206,0H6.039v-14.3h9.536Zm19.707,0H25.746V213.522h9.536Zm20.342,0H46.088V203.669h9.536Z" transform="translate(0 -190.001)"/>
        </g>
      </g>
      <g id="Grupo_28176" data-name="Grupo 28176" transform="translate(62.617 54.655)">
        <g id="Grupo_28175" data-name="Grupo 28175">
          <path id="Trazado_22097" data-name="Trazado 22097" d="M396.713,344.365a1.59,1.59,0,1,0,.466,1.125A1.6,1.6,0,0,0,396.713,344.365Z" transform="translate(-394 -343.901)"/>
        </g>
      </g>
      <g id="Grupo_28178" data-name="Grupo 28178" transform="translate(57.213)">
        <g id="Grupo_28177" data-name="Grupo 28177">
          <path id="Trazado_22098" data-name="Trazado 22098" d="M372.079,0a12.078,12.078,0,1,0,12.078,12.078A12.092,12.092,0,0,0,372.079,0Zm0,16.7a1.67,1.67,0,0,1-1.8-1.489,1.589,1.589,0,1,0-3.178,0,4.712,4.712,0,0,0,3.392,4.422v1.2a8.9,8.9,0,0,1,0-17.51V4.635A4.712,4.712,0,0,0,367.1,9.057a4.837,4.837,0,0,0,4.981,4.667,1.67,1.67,0,0,1,1.8,1.489A1.67,1.67,0,0,1,372.079,16.7Zm1.589,4.131v-1.2a4.712,4.712,0,0,0,3.392-4.422,4.837,4.837,0,0,0-4.981-4.667,1.67,1.67,0,0,1-1.8-1.489,1.835,1.835,0,0,1,3.6,0,1.589,1.589,0,0,0,3.179,0,4.712,4.712,0,0,0-3.392-4.422V3.323a8.9,8.9,0,0,1,0,17.51Z" transform="translate(-360.001)"/>
        </g>
      </g>
      <g id="Grupo_28180" data-name="Grupo 28180" transform="translate(7.118 20.56)">
        <g id="Grupo_28179" data-name="Grupo 28179">
          <path id="Trazado_22099" data-name="Trazado 22099" d="M94.248,129.367H88.026a1.589,1.589,0,1,0,0,3.179h2.385L73.419,149.538,64.786,140.9a1.59,1.59,0,0,0-2.248,0L45.255,158.188a1.589,1.589,0,1,0,2.248,2.248l16.16-16.16,8.633,8.633a1.589,1.589,0,0,0,2.248,0l18.116-18.116v2.385a1.589,1.589,0,0,0,3.179,0v-6.222A1.589,1.589,0,0,0,94.248,129.367Z" transform="translate(-44.789 -129.367)"/>
        </g>
      </g>
      <g id="Grupo_28182" data-name="Grupo 28182" transform="translate(2.986 53.048)">
        <g id="Grupo_28181" data-name="Grupo 28181">
          <path id="Trazado_22100" data-name="Trazado 22100" d="M21.5,334.258a1.588,1.588,0,1,0,.466,1.124A1.6,1.6,0,0,0,21.5,334.258Z" transform="translate(-18.79 -333.792)"/>
        </g>
      </g>
    </g>
  </g>
</svg>
