<svg xmlns="http://www.w3.org/2000/svg" width="880" height="655.791" viewBox="0 0 880 655.791">
  <g id="Grupo_26767" data-name="Grupo 26767" transform="translate(-56.5 -209.696)">
    <g id="Grupo_26741" data-name="Grupo 26741" transform="translate(56.5 209.696)">
      <rect id="Rectángulo_4237" data-name="Rectángulo 4237" width="880" height="0.44" transform="translate(0 576.304)" fill="#e6e6e6"/>
      <rect id="Rectángulo_4238" data-name="Rectángulo 4238" width="171.77" height="0.44" transform="translate(584.516 588.289)" fill="#e6e6e6"/>
      <rect id="Rectángulo_4239" data-name="Rectángulo 4239" width="82.133" height="0.44" transform="translate(508.64 598.458)" fill="#e6e6e6"/>
      <rect id="Rectángulo_4240" data-name="Rectángulo 4240" width="33.779" height="0.44" transform="translate(758.047 604.633)" fill="#e6e6e6"/>
      <rect id="Rectángulo_4241" data-name="Rectángulo 4241" width="162.847" height="0.44" transform="translate(222.593 598.678)" fill="#e6e6e6"/>
      <rect id="Rectángulo_4242" data-name="Rectángulo 4242" width="35.03" height="0.44" transform="translate(171.893 598.678)" fill="#e6e6e6"/>
      <rect id="Rectángulo_4243" data-name="Rectángulo 4243" width="57.837" height="0.44" transform="translate(101.714 591.246)" fill="#e6e6e6"/>
      <path id="Trazado_21334" data-name="Trazado 21334" d="M444.607,707.507H104.753a10.058,10.058,0,0,1-10.046-10.046V219.74A10.057,10.057,0,0,1,104.753,209.7H444.607a10.057,10.057,0,0,1,10.044,10.044v477.72A10.058,10.058,0,0,1,444.607,707.507ZM104.753,210.136a9.616,9.616,0,0,0-9.606,9.6v477.72a9.616,9.616,0,0,0,9.606,9.606H444.607a9.617,9.617,0,0,0,9.6-9.606V219.74a9.616,9.616,0,0,0-9.6-9.6Z" transform="translate(-27.463 -209.696)" fill="#e6e6e6"/>
      <path id="Trazado_21335" data-name="Trazado 21335" d="M660.9,707.507H321.049a10.057,10.057,0,0,1-10.044-10.046V219.74A10.055,10.055,0,0,1,321.049,209.7H660.9A10.057,10.057,0,0,1,670.95,219.74v477.72A10.059,10.059,0,0,1,660.9,707.507ZM321.049,210.136a9.615,9.615,0,0,0-9.6,9.6v477.72a9.616,9.616,0,0,0,9.6,9.606H660.9a9.617,9.617,0,0,0,9.608-9.606V219.74a9.617,9.617,0,0,0-9.608-9.6Z" transform="translate(136.924 -209.696)" fill="#e6e6e6"/>
    </g>
    <g id="Grupo_26745" data-name="Grupo 26745" transform="translate(172.123 257.994)">
      <g id="Grupo_26742" data-name="Grupo 26742" transform="translate(0 151.211)">
        <path id="Trazado_21336" data-name="Trazado 21336" d="M690.812,683.65H159.222l-31.7-360.6h531.59Z" transform="translate(-118.145 -323.053)" fill="#ededec"/>
        <path id="Trazado_21337" data-name="Trazado 21337" d="M153.879,695.137l9.393-11.487-31.7-360.6-9.377,11.663Z" transform="translate(-122.195 -323.053)" fill="#d9d9d8"/>
        <path id="Trazado_21338" data-name="Trazado 21338" d="M162.144,666.407l-29.2-332.167a5.988,5.988,0,0,1,5.965-6.512H642.021a5.99,5.99,0,0,1,5.965,5.463l29.2,332.166a5.989,5.989,0,0,1-5.965,6.512H168.109A5.99,5.99,0,0,1,162.144,666.407Z" transform="translate(-114.043 -319.5)" fill="#f8fafa"/>
        <path id="Trazado_21339" data-name="Trazado 21339" d="M225.017,527.938H144.925l-5.664,16.2h80.092Z" transform="translate(-109.225 -167.341)" fill="#d9d9d8"/>
        <path id="Trazado_21340" data-name="Trazado 21340" d="M190.432,527.938H717.064l-5.664,16.2H184.768Z" transform="translate(-74.639 -167.341)" fill="#f2f3f3"/>
        <path id="Trazado_21341" data-name="Trazado 21341" d="M311.671,527.938H412.62l-1.086,10.606H310.585Z" transform="translate(20.982 -167.341)" fill="#d9d9d8"/>
      </g>
      <g id="Grupo_26743" data-name="Grupo 26743" transform="translate(356.639)">
        <path id="Trazado_21342" data-name="Trazado 21342" d="M418.451,309.607H546c10.569,69.971-38.312,127.547-108.281,127.547-22.389,0-45.276-5.894-66.356-17.088Z" transform="translate(-289.466 -182.062)" fill="#d9d9d8"/>
        <path id="Trazado_21343" data-name="Trazado 21343" d="M398.117,351.8l67.227-97.706a158.939,158.939,0,0,1,40.228,43.8,144.033,144.033,0,0,1,20.092,53.9Z" transform="translate(-269.132 -224.253)" fill="#e6e6e6"/>
        <path id="Trazado_21344" data-name="Trazado 21344" d="M406.436,364.683,387.171,237.138a137.592,137.592,0,0,1,44.785,7.691,154.239,154.239,0,0,1,41.707,22.148Z" transform="translate(-277.451 -237.138)" fill="#e0e0df"/>
        <path id="Trazado_21345" data-name="Trazado 21345" d="M453.815,364.683,406.726,475.143c-42.851-22.757-73.584-64.948-80.458-110.459C315.7,294.715,364.579,237.138,434.55,237.138Z" transform="translate(-324.83 -237.138)" fill="#ededec"/>
      </g>
      <g id="Grupo_26744" data-name="Grupo 26744" transform="translate(213.753 242.018)">
        <path id="Trazado_21346" data-name="Trazado 21346" d="M308.655,438.933H421.8a110.323,110.323,0,0,1,.568,29.283,98.773,98.773,0,0,1-7.183,27.287Z" transform="translate(-194.238 -325.791)" fill="#e6e6e6"/>
        <path id="Trazado_21347" data-name="Trazado 21347" d="M308.655,487.048l2.816-111.424c26.888,4.618,52.7,18.325,72.869,38.7s33.438,46.133,37.456,72.727Z" transform="translate(-194.238 -373.906)" fill="#d9d9d8"/>
        <path id="Trazado_21348" data-name="Trazado 21348" d="M358.062,487.79l-100.473,38.7a125.78,125.78,0,0,1-12.669-38.7c-9.376-62.068,33.984-113.142,96.052-113.142a117.792,117.792,0,0,1,19.906,1.718Z" transform="translate(-243.645 -374.648)" fill="#ededec"/>
        <path id="Trazado_21349" data-name="Trazado 21349" d="M352.041,438.933,458.569,495.5c-14.9,34.962-49.067,56.572-89.438,56.572-47.453,0-94.6-29.855-117.563-74.444Z" transform="translate(-237.624 -325.791)" fill="#fff"/>
      </g>
    </g>
    <ellipse id="_Path_" data-name="&lt;Path&gt;" cx="341.245" cy="19.929" rx="341.245" ry="19.929" transform="translate(155.256 825.628)" fill="#f2f3f3"/>
    <g id="Grupo_26758" data-name="Grupo 26758" transform="translate(186.48 242.67)">
      <g id="Grupo_26748" data-name="Grupo 26748" transform="translate(106.376 156.805)">
        <g id="Grupo_26746" data-name="Grupo 26746">
          <path id="Trazado_21350" data-name="Trazado 21350" d="M377.537,452.021H219.005a20.275,20.275,0,0,1-19.782-18.292l-7.936-97.479a16.657,16.657,0,0,1,16.8-18.292H366.624A20.273,20.273,0,0,1,386.4,336.25l7.936,97.479A16.656,16.656,0,0,1,377.537,452.021Z" transform="translate(-190.464 -317.196)" fill="#fff"/>
          <path id="Trazado_21351" data-name="Trazado 21351" d="M377.866,453.11H219.334a21.009,21.009,0,0,1-20.541-18.99l-7.936-97.478a17.418,17.418,0,0,1,17.563-19.117H366.953a21.012,21.012,0,0,1,20.541,18.992L395.43,434a17.415,17.415,0,0,1-17.563,19.114ZM208.421,319.047a15.9,15.9,0,0,0-16.044,17.47L200.312,434a19.46,19.46,0,0,0,19.022,17.591H377.866a15.9,15.9,0,0,0,16.044-17.468l-7.938-97.478a19.46,19.46,0,0,0-19.02-17.595Z" transform="translate(-190.794 -317.525)" fill="#5b4997"/>
        </g>
        <g id="Grupo_26747" data-name="Grupo 26747" transform="translate(47.738 13.256)">
          <path id="Trazado_21352" data-name="Trazado 21352" d="M283.835,411.266a49.165,49.165,0,0,1-23.3,14.115l-2.624-7.515c19.518-5.335,32.732-23.535,30.971-45.165a50.887,50.887,0,0,0-16.38-33.063l5.055-5.5C300.437,355.293,303.271,390.109,283.835,411.266Z" transform="translate(-187.523 -318.159)" fill="#d9d9d8"/>
          <path id="Trazado_21353" data-name="Trazado 21353" d="M302.379,341.033l-5.055,5.5a50.564,50.564,0,0,0-34.177-13.689,42.848,42.848,0,0,0-31.932,13.7l-5.968-5.518a50.229,50.229,0,0,1,37.266-15.976A59.141,59.141,0,0,1,302.379,341.033Z" transform="translate(-212.346 -325.057)" fill="#1c262a"/>
          <path id="Trazado_21354" data-name="Trazado 21354" d="M290.929,425.381c-18.387,5.03-38.947-.364-53.831-14.115-22.864-21.157-25.7-55.973-6.28-77.132l5.968,5.518a43.16,43.16,0,0,0-11,33.049c2.1,25.807,24.733,46.735,50.542,46.735a45.789,45.789,0,0,0,11.975-1.57Z" transform="translate(-217.917 -318.159)" fill="#5b4997"/>
        </g>
      </g>
      <g id="Grupo_26751" data-name="Grupo 26751">
        <rect id="Rectángulo_4244" data-name="Rectángulo 4244" width="12.711" height="1.523" transform="translate(64.793)" fill="#5b4997"/>
        <rect id="Rectángulo_4245" data-name="Rectángulo 4245" width="28.942" height="1.523" transform="translate(23.531)" fill="#5b4997"/>
        <g id="Grupo_26749" data-name="Grupo 26749" transform="translate(0 5.279)">
          <path id="Trazado_21355" data-name="Trazado 21355" d="M317.1,365.928H158.564a20.273,20.273,0,0,1-19.782-18.293l-7.936-97.478a16.657,16.657,0,0,1,16.8-18.293H306.181a20.275,20.275,0,0,1,19.782,18.293l7.936,97.478A16.657,16.657,0,0,1,317.1,365.928Z" transform="translate(-130.023 -231.102)" fill="#fff"/>
          <path id="Trazado_21356" data-name="Trazado 21356" d="M317.426,367.02H158.892a21.014,21.014,0,0,1-20.541-18.994l-7.934-97.478a17.418,17.418,0,0,1,17.561-19.117H306.51a21.014,21.014,0,0,1,20.543,18.992l7.936,97.479a17.42,17.42,0,0,1-17.563,19.117ZM147.978,232.955a15.895,15.895,0,0,0-16.042,17.468l7.936,97.479a19.458,19.458,0,0,0,19.02,17.593H317.426a15.893,15.893,0,0,0,16.042-17.47l-7.936-97.478a19.46,19.46,0,0,0-19.022-17.593Z" transform="translate(-130.353 -231.431)" fill="#5b4997"/>
        </g>
        <g id="Grupo_26750" data-name="Grupo 26750" transform="translate(14.485 25.714)">
          <path id="Trazado_21357" data-name="Trazado 21357" d="M139.258,251.341h84.009l-.676-8.3H138.583Z" transform="translate(-138.583 -243.042)" fill="#d9d9d8"/>
          <path id="Trazado_21358" data-name="Trazado 21358" d="M271,251.341H186.99l-.676-8.3h84.009Z" transform="translate(-102.306 -243.042)" fill="#5b4997"/>
          <path id="Trazado_21359" data-name="Trazado 21359" d="M140.258,263.617h23.966l-.676-8.3H139.582Z" transform="translate(-137.823 -233.712)" fill="#d9d9d8"/>
          <path id="Trazado_21360" data-name="Trazado 21360" d="M297.926,263.617H153.875l-.676-8.3H297.25Z" transform="translate(-127.474 -233.712)" fill="#5b4997"/>
          <path id="Trazado_21361" data-name="Trazado 21361" d="M141.257,275.892h74.778l-.676-8.3H140.581Z" transform="translate(-137.064 -224.383)" fill="#d9d9d8"/>
          <path id="Trazado_21362" data-name="Trazado 21362" d="M276.984,275.892h-93.24l-.676-8.3h93.24Z" transform="translate(-104.773 -224.383)" fill="#5b4997"/>
          <path id="Trazado_21363" data-name="Trazado 21363" d="M142.256,288.168H269.878l-.676-8.3H141.581Z" transform="translate(-136.304 -215.054)" fill="#d9d9d8"/>
          <path id="Trazado_21364" data-name="Trazado 21364" d="M255.164,288.168h-40.4l-.676-8.3h40.4Z" transform="translate(-81.195 -215.054)" fill="#5b4997"/>
          <path id="Trazado_21365" data-name="Trazado 21365" d="M143.256,300.443h59.026l-.676-8.3H142.58Z" transform="translate(-135.545 -205.724)" fill="#d9d9d8"/>
          <path id="Trazado_21366" data-name="Trazado 21366" d="M285.784,300.443H176.793l-.676-8.3H285.109Z" transform="translate(-110.056 -205.724)" fill="#5b4997"/>
        </g>
      </g>
      <g id="Grupo_26754" data-name="Grupo 26754" transform="translate(216.721 5.279)">
        <g id="Grupo_26752" data-name="Grupo 26752">
          <path id="Trazado_21367" data-name="Trazado 21367" d="M440.233,365.928H281.7a20.276,20.276,0,0,1-19.782-18.293l-7.936-97.478a16.658,16.658,0,0,1,16.8-18.293H429.32A20.273,20.273,0,0,1,449.1,250.157l7.936,97.478A16.656,16.656,0,0,1,440.233,365.928Z" transform="translate(-253.16 -231.102)" fill="#fff"/>
          <path id="Trazado_21368" data-name="Trazado 21368" d="M440.562,367.02H282.03a21.011,21.011,0,0,1-20.541-18.994l-7.936-97.478a17.418,17.418,0,0,1,17.561-19.117H429.649a21.011,21.011,0,0,1,20.541,18.992l7.936,97.479a17.42,17.42,0,0,1-17.563,19.117ZM271.115,232.955a15.9,15.9,0,0,0-16.042,17.468l7.936,97.479A19.461,19.461,0,0,0,282.03,365.5H440.562a15.9,15.9,0,0,0,16.042-17.47l-7.934-97.478a19.46,19.46,0,0,0-19.022-17.593Z" transform="translate(-253.49 -231.431)" fill="#5b4997"/>
        </g>
        <g id="Grupo_26753" data-name="Grupo 26753" transform="translate(21.36 20.435)">
          <path id="Trazado_21369" data-name="Trazado 21369" d="M319.167,337.761h-2.8l-7.711-94.719h2.8Z" transform="translate(-232.922 -243.042)" fill="#d9d9d8"/>
          <path id="Trazado_21370" data-name="Trazado 21370" d="M325.954,290.477H308.3l-3.013-37.008h17.656Z" transform="translate(-235.485 -235.117)" fill="#5b4997"/>
          <path id="Trazado_21371" data-name="Trazado 21371" d="M299.423,337.761h-2.8l-7.711-94.719h2.8Z" transform="translate(-247.927 -243.042)" fill="#d9d9d8"/>
          <path id="Trazado_21372" data-name="Trazado 21372" d="M306.43,293.174H288.774l-2.641-32.44h17.656Z" transform="translate(-250.04 -229.595)" fill="#5b4997"/>
          <path id="Trazado_21373" data-name="Trazado 21373" d="M279.68,337.761h-2.8l-7.711-94.719h2.8Z" transform="translate(-262.932 -243.042)" fill="#d9d9d8"/>
          <path id="Trazado_21374" data-name="Trazado 21374" d="M285.095,273.62H267.439l-1.813-22.272h17.656Z" transform="translate(-265.626 -236.729)" fill="#1c262a"/>
          <path id="Trazado_21375" data-name="Trazado 21375" d="M338.91,337.761h-2.8L328.4,243.042h2.8Z" transform="translate(-217.917 -243.042)" fill="#d9d9d8"/>
          <path id="Trazado_21376" data-name="Trazado 21376" d="M347.408,311.484H329.752l-4.723-58.015h17.656Z" transform="translate(-220.48 -235.117)" fill="#1c262a"/>
          <path id="Trazado_21377" data-name="Trazado 21377" d="M358.653,337.761h-2.8l-7.711-94.719h2.8Z" transform="translate(-202.912 -243.042)" fill="#d9d9d8"/>
          <path id="Trazado_21378" data-name="Trazado 21378" d="M367.066,310.445H349.41l-3.783-46.463h17.656Z" transform="translate(-204.824 -227.127)" fill="#5b4997"/>
        </g>
      </g>
      <g id="Grupo_26757" data-name="Grupo 26757" transform="translate(47.071 307.082)">
        <g id="Grupo_26755" data-name="Grupo 26755">
          <path id="Trazado_21379" data-name="Trazado 21379" d="M343.841,537.406H185.309a20.273,20.273,0,0,1-19.781-18.292l-7.938-97.479a16.657,16.657,0,0,1,16.8-18.292H332.928a20.273,20.273,0,0,1,19.781,18.292l7.936,97.479A16.656,16.656,0,0,1,343.841,537.406Z" transform="translate(-156.768 -402.581)" fill="#fff"/>
          <path id="Trazado_21380" data-name="Trazado 21380" d="M344.17,538.5H185.638A21.009,21.009,0,0,1,165.1,519.5l-7.936-97.479a17.417,17.417,0,0,1,17.563-19.115H333.257A21.012,21.012,0,0,1,353.8,421.9l7.936,97.479A17.415,17.415,0,0,1,344.17,538.5ZM174.725,404.432a15.9,15.9,0,0,0-16.044,17.47l7.936,97.479a19.463,19.463,0,0,0,19.022,17.591H344.17A15.9,15.9,0,0,0,360.213,519.5l-7.934-97.479a19.461,19.461,0,0,0-19.022-17.593Z" transform="translate(-157.098 -402.91)" fill="#5b4997"/>
        </g>
        <g id="Grupo_26756" data-name="Grupo 26756" transform="translate(30.056 21.5)">
          <path id="Trazado_21381" data-name="Trazado 21381" d="M183.194,449.159l34.168,39.478L256.545,428.2l24.231,31.234,5.913-9.121,39.606,47.47-152.121-.057Z" transform="translate(-174.175 -405.193)" fill="#5b4997"/>
          <path id="Trazado_21382" data-name="Trazado 21382" d="M297.257,461.543l-15.88,34.005-50.651-80.422L206.875,466.2l-7.643-12.136-25.054,53.649,152.11-.076Z" transform="translate(-174.172 -415.126)" fill="#d9d9d8"/>
        </g>
      </g>
    </g>
    <g id="Grupo_26766" data-name="Grupo 26766" transform="translate(531.36 308.935)">
      <path id="Trazado_21383" data-name="Trazado 21383" d="M437.5,316.086c4.24,7.959,7.883,15.821,11.313,24.012a223.273,223.273,0,0,1,8.851,25.316c.616,2.184,1.151,4.433,1.663,6.7a24.126,24.126,0,0,1,.7,4.771,24.76,24.76,0,0,1-.268,4.777,45.922,45.922,0,0,1-5.234,14.573,98.107,98.107,0,0,1-16.452,21.908,4.978,4.978,0,0,1-7.99-5.757l.125-.239a174.235,174.235,0,0,0,10.032-22.264c1.216-3.613,2.179-7.311,2.174-10.032a9.545,9.545,0,0,0-.139-1.665,1.668,1.668,0,0,0-.15-.517l-.326-1.037c-.588-1.9-1.188-3.791-1.892-5.7-2.666-7.644-5.963-15.315-9.384-22.928-3.411-7.591-7.081-15.307-10.708-22.644l-.074-.148a9.984,9.984,0,0,1,17.762-9.12Z" transform="translate(-256.088 -232.097)" fill="#5b4997"/>
      <path id="Trazado_21384" data-name="Trazado 21384" d="M429.878,368.039l-8.4,2.645,9.886,11.574a19.247,19.247,0,0,0,5.19-8.219,4.1,4.1,0,0,0-1.6-4.393l-1.4-1.012A4.152,4.152,0,0,0,429.878,368.039Z" transform="translate(-253.976 -188.741)" fill="#623a1d"/>
      <path id="Trazado_21385" data-name="Trazado 21385" d="M414.9,376.594,425.5,385l10.864-3.966-9.886-11.575Z" transform="translate(-258.972 -187.516)" fill="#623a1d"/>
      <path id="Trazado_21386" data-name="Trazado 21386" d="M395.439,281.285c-.211,1.042-.935,1.774-1.614,1.635s-1.061-1.095-.85-2.135.935-1.774,1.616-1.635S395.652,280.245,395.439,281.285Z" transform="translate(-275.683 -256.163)" fill="#1c262a"/>
      <path id="Trazado_21387" data-name="Trazado 21387" d="M396.8,281.375s-3.589,5.526-6.785,7.894c1.492,2.094,4.784,1.945,4.784,1.945Z" transform="translate(-277.885 -254.459)" fill="#4e2a0e"/>
      <path id="Trazado_21388" data-name="Trazado 21388" d="M399.5,278.874a.624.624,0,0,0,.459-1.047,6.186,6.186,0,0,0-5.31-2.064.624.624,0,0,0,.208,1.23h0a4.957,4.957,0,0,1,4.185,1.681A.62.62,0,0,0,399.5,278.874Z" transform="translate(-274.759 -258.759)" fill="#1c262a"/>
      <path id="Trazado_21389" data-name="Trazado 21389" d="M423.282,291.124c-1.888,9.638-3.029,22.989,3.714,29.42,0,0-2.635,9.777-20.543,9.777-19.691,0-9.472-8.58-9.472-8.58,8.184-2.54,8.114-11.864,6.241-19.351Z" transform="translate(-274.609 -247.05)" fill="#623a1d"/>
      <path id="Trazado_21390" data-name="Trazado 21390" d="M393.874,312.241s2.871-6.8,5.8-7.976,21.608-4.245,25.911-1.536S432.8,314.14,432.8,314.14Z" transform="translate(-274.955 -239.056)" fill="#5b4997"/>
      <path id="Trazado_21391" data-name="Trazado 21391" d="M406.846,565.093c-1.69,0-3.323-.234-3.87-.993a1.181,1.181,0,0,1,.026-1.364,1.554,1.554,0,0,1,.987-.73c2.193-.6,6.8,2.027,6.992,2.14a.312.312,0,0,1-.1.575A22.939,22.939,0,0,1,406.846,565.093Zm-2.089-2.555a2.312,2.312,0,0,0-.6.072.939.939,0,0,0-.611.437c-.22.387-.139.579-.06.69.612.85,3.942.871,6.392.525C408.653,563.634,406.3,562.538,404.756,562.538Z" transform="translate(-268.19 -41.247)" fill="#5b4997"/>
      <path id="Trazado_21392" data-name="Trazado 21392" d="M409.352,566.091a.3.3,0,0,1-.127-.028c-1.591-.713-4.74-3.562-4.5-5.051.056-.35.3-.785,1.162-.873a2.279,2.279,0,0,1,1.73.535c1.675,1.376,2.029,4.924,2.045,5.076a.311.311,0,0,1-.312.341Zm-3.214-5.34a1.647,1.647,0,0,0-.187.009c-.561.056-.6.278-.609.35-.144.894,2,3.133,3.617,4.108-.167-1.037-.637-3.159-1.737-4.062A1.659,1.659,0,0,0,406.138,560.751Z" transform="translate(-266.717 -42.609)" fill="#5b4997"/>
      <path id="Trazado_21393" data-name="Trazado 21393" d="M421.835,576.511H408.662L407.35,546h13.173Z" transform="translate(-264.714 -53.341)" fill="#623a1d"/>
      <path id="Trazado_21394" data-name="Trazado 21394" d="M419.437,562.471h14.386a1.15,1.15,0,0,1,1.123.9l2.6,11.709a1.916,1.916,0,0,1-1.9,2.343c-5.188-.088-12.688-.391-19.21-.391-7.626,0-8.55.415-17.493.415-5.409,0-6.91-5.468-4.646-5.963,10.3-2.255,13.056-2.5,21.961-7.987A6.1,6.1,0,0,1,419.437,562.471Z" transform="translate(-275.403 -40.826)" fill="#1c262a"/>
      <path id="Trazado_21395" data-name="Trazado 21395" d="M433.483,308.019c12.348,2.83,20.493,36.15,20.493,36.15l-20.615,15.484s-11.245-6.968-15.294-22.734C413.822,320.4,420.86,305.124,433.483,308.019Z" transform="translate(-257.51 -234.48)" fill="#1c262a"/>
      <path id="Trazado_21396" data-name="Trazado 21396" d="M422.649,321.036c6.707,6.635,11.04,17.109,11.56,27.616l-1.093.843s-11.255-6.977-15.308-22.739c-.25-.986-.466-1.973-.646-2.941Z" transform="translate(-257.257 -224.317)" fill="#030504" opacity="0.2"/>
      <g id="Grupo_26762" data-name="Grupo 26762" transform="translate(120.344 123.113)">
        <g id="Grupo_26759" data-name="Grupo 26759">
          <rect id="Rectángulo_4246" data-name="Rectángulo 4246" width="107.704" height="80.099" transform="translate(0 39.97) rotate(-21.784)" fill="#5b4997"/>
          <rect id="Rectángulo_4247" data-name="Rectángulo 4247" width="106.12" height="80.099" transform="matrix(0.929, -0.371, 0.371, 0.929, 0, 39.97)" fill="#fff" opacity="0.5"/>
        </g>
        <g id="Grupo_26760" data-name="Grupo 26760" transform="translate(8.724 9.606)" opacity="0.5">
          <rect id="Rectángulo_4248" data-name="Rectángulo 4248" width="10.047" height="7.122" transform="translate(0 34.512) rotate(-21.784)" fill="#5b4997"/>
          <rect id="Rectángulo_4249" data-name="Rectángulo 4249" width="10.047" height="7.122" transform="matrix(0.929, -0.371, 0.371, 0.929, 15.405, 28.355)" fill="#5b4997"/>
          <rect id="Rectángulo_4250" data-name="Rectángulo 4250" width="10.047" height="7.122" transform="translate(30.811 22.199) rotate(-21.784)" fill="#5b4997"/>
          <rect id="Rectángulo_4251" data-name="Rectángulo 4251" width="10.047" height="7.122" transform="translate(46.216 16.042) rotate(-21.784)" fill="#5b4997"/>
          <rect id="Rectángulo_4252" data-name="Rectángulo 4252" width="10.047" height="7.122" transform="translate(61.621 9.885) rotate(-21.784)" fill="#5b4997"/>
          <rect id="Rectángulo_4253" data-name="Rectángulo 4253" width="10.047" height="7.122" transform="translate(77.027 3.729) rotate(-21.785)" fill="#5b4997"/>
          <rect id="Rectángulo_4254" data-name="Rectángulo 4254" width="10.047" height="7.122" transform="translate(4.364 45.432) rotate(-21.783)" fill="#5b4997"/>
          <rect id="Rectángulo_4255" data-name="Rectángulo 4255" width="10.047" height="7.122" transform="translate(19.769 39.275) rotate(-21.784)" fill="#5b4997"/>
          <rect id="Rectángulo_4256" data-name="Rectángulo 4256" width="10.047" height="7.122" transform="translate(35.175 33.118) rotate(-21.784)" fill="#5b4997"/>
          <rect id="Rectángulo_4257" data-name="Rectángulo 4257" width="10.047" height="7.122" transform="matrix(0.929, -0.371, 0.371, 0.929, 50.58, 26.962)" fill="#5b4997"/>
          <rect id="Rectángulo_4258" data-name="Rectángulo 4258" width="10.047" height="7.122" transform="translate(65.985 20.805) rotate(-21.784)" fill="#5b4997"/>
          <rect id="Rectángulo_4259" data-name="Rectángulo 4259" width="10.047" height="7.122" transform="translate(81.391 14.648) rotate(-21.784)" fill="#5b4997"/>
          <rect id="Rectángulo_4260" data-name="Rectángulo 4260" width="10.047" height="7.122" transform="translate(8.728 56.352) rotate(-21.784)" fill="#5b4997"/>
          <rect id="Rectángulo_4261" data-name="Rectángulo 4261" width="10.047" height="7.122" transform="matrix(0.929, -0.371, 0.371, 0.929, 24.133, 50.195)" fill="#5b4997"/>
          <rect id="Rectángulo_4262" data-name="Rectángulo 4262" width="10.047" height="7.122" transform="matrix(0.929, -0.371, 0.371, 0.929, 39.539, 44.038)" fill="#5b4997"/>
          <rect id="Rectángulo_4263" data-name="Rectángulo 4263" width="10.047" height="7.122" transform="translate(54.944 37.882) rotate(-21.784)" fill="#5b4997"/>
          <rect id="Rectángulo_4264" data-name="Rectángulo 4264" width="10.047" height="7.122" transform="translate(70.349 31.725) rotate(-21.785)" fill="#5b4997"/>
          <rect id="Rectángulo_4265" data-name="Rectángulo 4265" width="10.047" height="7.122" transform="translate(85.755 25.568) rotate(-21.785)" fill="#5b4997"/>
          <rect id="Rectángulo_4266" data-name="Rectángulo 4266" width="10.047" height="7.122" transform="matrix(0.929, -0.371, 0.371, 0.929, 13.092, 67.271)" fill="#5b4997"/>
          <rect id="Rectángulo_4267" data-name="Rectángulo 4267" width="10.047" height="7.122" transform="translate(28.497 61.115) rotate(-21.784)" fill="#5b4997"/>
          <rect id="Rectángulo_4268" data-name="Rectángulo 4268" width="10.047" height="7.122" transform="translate(43.903 54.958) rotate(-21.783)" fill="#5b4997"/>
          <rect id="Rectángulo_4269" data-name="Rectángulo 4269" width="10.047" height="7.122" transform="translate(59.308 48.801) rotate(-21.784)" fill="#5b4997"/>
          <rect id="Rectángulo_4270" data-name="Rectángulo 4270" width="10.047" height="7.122" transform="translate(74.713 42.645) rotate(-21.784)" fill="#5b4997"/>
          <rect id="Rectángulo_4271" data-name="Rectángulo 4271" width="10.047" height="7.122" transform="translate(90.119 36.488) rotate(-21.784)" fill="#5b4997"/>
          <rect id="Rectángulo_4272" data-name="Rectángulo 4272" width="10.047" height="7.122" transform="translate(17.456 78.191) rotate(-21.783)" fill="#5b4997"/>
          <rect id="Rectángulo_4273" data-name="Rectángulo 4273" width="10.047" height="7.122" transform="translate(32.861 72.035) rotate(-21.784)" fill="#5b4997"/>
          <rect id="Rectángulo_4274" data-name="Rectángulo 4274" width="10.047" height="7.122" transform="matrix(0.929, -0.371, 0.371, 0.929, 48.267, 65.878)" fill="#5b4997"/>
          <rect id="Rectángulo_4275" data-name="Rectángulo 4275" width="10.047" height="7.122" transform="matrix(0.929, -0.371, 0.371, 0.929, 63.672, 59.721)" fill="#5b4997"/>
          <rect id="Rectángulo_4276" data-name="Rectángulo 4276" width="10.047" height="7.122" transform="matrix(0.929, -0.371, 0.371, 0.929, 79.077, 53.565)" fill="#5b4997"/>
          <rect id="Rectángulo_4277" data-name="Rectángulo 4277" width="10.047" height="7.122" transform="translate(94.483 47.408) rotate(-21.784)" fill="#5b4997"/>
          <rect id="Rectángulo_4278" data-name="Rectángulo 4278" width="10.047" height="7.122" transform="translate(21.82 89.111) rotate(-21.784)" fill="#5b4997"/>
          <rect id="Rectángulo_4279" data-name="Rectángulo 4279" width="10.047" height="7.122" transform="matrix(0.929, -0.371, 0.371, 0.929, 37.225, 82.954)" fill="#5b4997"/>
          <rect id="Rectángulo_4280" data-name="Rectángulo 4280" width="10.047" height="7.122" transform="translate(52.631 76.798) rotate(-21.784)" fill="#5b4997"/>
          <rect id="Rectángulo_4281" data-name="Rectángulo 4281" width="10.047" height="7.122" transform="translate(68.036 70.641) rotate(-21.784)" fill="#5b4997"/>
          <rect id="Rectángulo_4282" data-name="Rectángulo 4282" width="10.047" height="7.122" transform="translate(83.441 64.484) rotate(-21.783)" fill="#5b4997"/>
          <rect id="Rectángulo_4283" data-name="Rectángulo 4283" width="10.047" height="7.122" transform="matrix(0.929, -0.371, 0.371, 0.929, 98.847, 58.328)" fill="#5b4997"/>
        </g>
        <g id="Grupo_26761" data-name="Grupo 26761" transform="translate(31.972 19.777)">
          <path id="Trazado_21397" data-name="Trazado 21397" d="M446.9,351.1a2.791,2.791,0,1,1,3.627,1.556A2.79,2.79,0,0,1,446.9,351.1Z" transform="translate(-387.126 -347.269)" fill="#fff"/>
          <path id="Trazado_21398" data-name="Trazado 21398" d="M445.581,373.209a2.792,2.792,0,1,1,3.629,1.556A2.792,2.792,0,0,1,445.581,373.209Z" transform="translate(-388.125 -330.465)" fill="#fff"/>
          <path id="Trazado_21399" data-name="Trazado 21399" d="M425.6,374a2.791,2.791,0,1,1,3.627,1.558A2.791,2.791,0,0,1,425.6,374Z" transform="translate(-403.314 -329.863)" fill="#fff"/>
          <path id="Trazado_21400" data-name="Trazado 21400" d="M413.049,393.4a2.791,2.791,0,1,1,3.627,1.558A2.791,2.791,0,0,1,413.049,393.4Z" transform="translate(-412.849 -315.115)" fill="#fff"/>
          <path id="Trazado_21401" data-name="Trazado 21401" d="M414.881,424.8a1.035,1.035,0,0,1-.868-1.6L436.1,389.049a1.028,1.028,0,0,1,.827-.47l34.239-1.359,2.256-37.981a1.054,1.054,0,0,1,1.095-.972,1.037,1.037,0,0,1,.971,1.095l-2.313,38.917a1.032,1.032,0,0,1-.991.97l-34.64,1.375-21.791,33.7A1.032,1.032,0,0,1,414.881,424.8Z" transform="translate(-412.091 -346.511)" fill="#fff"/>
        </g>
      </g>
      <path id="Trazado_21402" data-name="Trazado 21402" d="M382.932,322.551c-2.693,14.231-4.377,43.456,3.441,101.332h70.46c-1.273-10.037-6.311-63.578,4.12-114.541a183.756,183.756,0,0,0-23.586-2.978c-9-.435-22.037-.722-29.952,0-3.3.3-6.547.78-9.437,1.29A18.642,18.642,0,0,0,382.932,322.551Z" transform="translate(-284.98 -235.802)" fill="#1c262a"/>
      <path id="Trazado_21403" data-name="Trazado 21403" d="M394.014,327.823l-13.235,1.056c-.475,17.125.7,42.117,5.6,78.355h.634C394.947,381.133,405.472,343.821,394.014,327.823Z" transform="translate(-284.981 -219.159)" fill="#030504" opacity="0.2"/>
      <g id="Grupo_26763" data-name="Grupo 26763" transform="translate(142.639 492.671)">
        <path id="Trazado_21404" data-name="Trazado 21404" d="M407.351,546.009l.674,15.725H421.2l-.674-15.725Z" transform="translate(-407.351 -546.009)" fill="#030504" opacity="0.2"/>
      </g>
      <path id="Trazado_21405" data-name="Trazado 21405" d="M431.313,292.9c-3.385,12.628-4.724,20.192-12.515,25.443-11.723,7.9-26.317-1.167-26.775-14.552-.41-12.047,5.194-30.675,18.746-33.22A17.831,17.831,0,0,1,431.313,292.9Z" transform="translate(-276.378 -262.923)" fill="#623a1d"/>
      <path id="Trazado_21406" data-name="Trazado 21406" d="M400.495,296.139l-6.845,1.779,6.37-16.519a18.626,18.626,0,0,1-.586-12.742,3.749,3.749,0,0,1,3.49-2.568c14.189-.276,29.019,7.688,36.494,13.71a3.675,3.675,0,0,1,.829,4.78c-1.637,2.68-3.756,4.731-6.426,7.447-.141,4.625-7.695,25.525-11.875,27.873s-12.174,1.392-14.3-2.42S398.332,308.605,400.495,296.139Z" transform="translate(-275.126 -266.082)" fill="#1c262a"/>
      <path id="Trazado_21407" data-name="Trazado 21407" d="M405.867,285.956a14.784,14.784,0,0,1-5.1,8c-3.356,2.642-5.986.2-5.847-3.682.123-3.5,2.021-9.085,5.773-10.224C404.389,278.933,406.747,282.14,405.867,285.956Z" transform="translate(-274.164 -255.636)" fill="#623a1d"/>
      <path id="Trazado_21408" data-name="Trazado 21408" d="M469.582,562.9c-.011-1.691.211-3.325.968-3.877a1.183,1.183,0,0,1,1.364.018,1.555,1.555,0,0,1,.736.984c.611,2.189-1.984,6.809-2.094,7a.312.312,0,0,1-.577-.092A22.994,22.994,0,0,1,469.582,562.9Zm2.541-2.1a2.3,2.3,0,0,0-.076-.6.936.936,0,0,0-.44-.607c-.389-.218-.581-.137-.69-.056-.848.618-.847,3.948-.484,6.394C471.052,564.7,472.134,562.333,472.124,560.8Z" transform="translate(-217.417 -43.602)" fill="#5b4997"/>
      <path id="Trazado_21409" data-name="Trazado 21409" d="M469.8,565.415a.324.324,0,0,1,.026-.129c.7-1.595,3.532-4.763,5.023-4.53.35.055.787.3.88,1.156a2.278,2.278,0,0,1-.524,1.734c-1.366,1.684-4.91,2.061-5.062,2.077a.312.312,0,0,1-.343-.308Zm5.32-3.249c0-.062-.005-.125-.01-.187-.062-.561-.283-.6-.356-.607-.894-.139-3.12,2.015-4.085,3.645,1.035-.176,3.156-.658,4.052-1.765A1.657,1.657,0,0,0,475.123,562.166Z" transform="translate(-217.249 -42.139)" fill="#5b4997"/>
      <path id="Trazado_21410" data-name="Trazado 21410" d="M478.586,576.726l-12.855.91-7.221-30.751,12.855-.91Z" transform="translate(-225.833 -53.363)" fill="#623a1d"/>
      <path id="Trazado_21411" data-name="Trazado 21411" d="M478.2,562.318l-14.332-1.267a1.147,1.147,0,0,0-1.2.8l-3.626,11.435a1.917,1.917,0,0,0,1.683,2.5c5.176.37,12.672.727,19.17,1.3,7.6.672,2.677.655,11.586,1.443,5.387.477,7.364-4.836,5.153-5.53-10.067-3.154-11.891-5.333-15.37-9.379A4.5,4.5,0,0,0,478.2,562.318Z" transform="translate(-225.492 -41.909)" fill="#1c262a"/>
      <g id="Grupo_26764" data-name="Grupo 26764" transform="translate(232.681 492.619)">
        <path id="Trazado_21412" data-name="Trazado 21412" d="M458.512,546.89l3.72,15.851,12.86-.911-3.72-15.851Z" transform="translate(-458.512 -545.979)" fill="#030504" opacity="0.2"/>
      </g>
      <path id="Trazado_21413" data-name="Trazado 21413" d="M398.117,372.946s30.3,101.188,41.8,138.75c12.589,41.131,60.495,177.589,60.495,177.589l23.227-5.1s-32.813-117.242-46.422-174.606c-10.451-44.062-33.634-136.629-33.634-136.629Z" transform="translate(-271.731 -184.865)" fill="#5b4997"/>
      <path id="Trazado_21414" data-name="Trazado 21414" d="M453.922,549.566c-.106.011,2.284,9.073,2.284,9.073l27.94-3-.128-8.3Z" transform="translate(-229.321 -52.329)" fill="#1c262a"/>
      <path id="Trazado_21415" data-name="Trazado 21415" d="M408.8,399.621c16.766,2.211,23.443,60.644,25.953,94.936-.319-1.086-.651-2.116-.943-3.091-6.274-20.508-18.156-60.025-27.657-91.657A5.874,5.874,0,0,1,408.8,399.621Z" transform="translate(-265.626 -164.644)" fill="#030504" opacity="0.3"/>
      <path id="Trazado_21416" data-name="Trazado 21416" d="M383.916,372.946s10.162,98.549,14.541,138.667c4.553,41.73,21.648,178.6,21.648,178.6H442.42s-2.705-134.376-3.6-175.414c-.98-44.737-8.587-141.856-8.587-141.856Z" transform="translate(-282.523 -184.865)" fill="#5b4997"/>
      <path id="Trazado_21417" data-name="Trazado 21417" d="M402.507,548.163c-.1,0,1.258,9.265,1.258,9.265h27.146l.734-8.268Z" transform="translate(-268.398 -51.7)" fill="#1c262a"/>
      <g id="Grupo_26765" data-name="Grupo 26765" transform="translate(0 209.501)">
        <path id="Trazado_21418" data-name="Trazado 21418" d="M332.4,451.776a39.492,39.492,0,1,0,12.346-54.47A39.492,39.492,0,0,0,332.4,451.776Zm61.528-38.789a33.242,33.242,0,1,1-45.848-10.4A33.243,33.243,0,0,1,393.923,412.988Z" transform="translate(-326.307 -380.48)" fill="#1c262a"/>
        <path id="Trazado_21419" data-name="Trazado 21419" d="M391.614,433.552a30.463,30.463,0,1,1-22.973-36.446A30.461,30.461,0,0,1,391.614,433.552Z" transform="translate(-322.41 -376.582)" fill="#5b4997" opacity="0.2"/>
        <path id="Trazado_21420" data-name="Trazado 21420" d="M369.867,399.357l3.7,5.871a1.91,1.91,0,0,1-.6,2.635h0a1.909,1.909,0,0,1-2.633-.6l-3.7-5.871a1.911,1.911,0,0,1,.6-2.633h0A1.91,1.91,0,0,1,369.867,399.357Z" transform="translate(-295.88 -374.972)" fill="#1c262a"/>
        <path id="Trazado_21421" data-name="Trazado 21421" d="M393.208,392.81q-6.418,4.382-12.72,8.953c-4.192,3.061-8.349,6.179-12.383,9.49a2.624,2.624,0,0,0,2.777,4.405c4.727-2.212,9.332-4.618,13.9-7.08s9.082-5.016,13.564-7.617q5.721-3.329,11.359-6.783a2.28,2.28,0,0,0,.739-3.159l-3.05-4.837a2.279,2.279,0,0,0-3.17-.7Q398.681,389.091,393.208,392.81Z" transform="translate(-295.27 -385.117)" fill="#1c262a"/>
      </g>
      <path id="Trazado_21422" data-name="Trazado 21422" d="M408.656,323.348c-2.154,10.565-4.467,21.094-6.866,31.6l-7.3,31.425c-2.36,10.245-4.382,20.634-6.236,31.17l-5.539,31.689-.012.072a4.968,4.968,0,0,1-9.859-.685c-.38-11-.211-21.879.4-32.827a322.068,322.068,0,0,1,3.462-32.88c1.714-10.769,3.643-21.416,5.706-32.051s4.291-21.217,6.728-31.756a9.985,9.985,0,0,1,19.511,4.247Z" transform="translate(-291.092 -231.669)" fill="#5b4997"/>
      <path id="Trazado_21423" data-name="Trazado 21423" d="M381.828,388.558a3.651,3.651,0,0,0-3.492-1.033l-2.862.683a3.631,3.631,0,0,0-2.76,3.062l-.827,6.354a8.1,8.1,0,0,0,1.1,5.24l3.928,6.5a4.42,4.42,0,0,0,4.446,1.66l4.1-.869a4.422,4.422,0,0,0,3.289-5.69l-1.072-3.312S387.611,394.672,381.828,388.558Z" transform="translate(-291.717 -173.861)" fill="#623a1d"/>
      <path id="Trazado_21424" data-name="Trazado 21424" d="M419.8,320.525c6.4,16.991-15.749,41.221-15.749,41.221l-28.031-9.272s2.145-23.183,11.875-36.253C399.913,300.078,414.924,307.593,419.8,320.525Z" transform="translate(-288.525 -234.956)" fill="#1c262a"/>
    </g>
  </g>
</svg>
