<svg id="Layer_1" data-name="Layer 1" xmlns="http://www.w3.org/2000/svg" viewBox="0 0 432.43 276.1"><defs><style>.cls-1{fill:#c6c6e4;}.cls-2{fill:#f5f5fa;}.cls-3{fill:#0e2e4e;}.cls-4{fill:#74b8d4;}.cls-5{fill:#0c2032;}.cls-6{fill:#eeb124;}.cls-7{fill:#804099;}.cls-18,.cls-8{fill:#fff;}.cls-9{fill:#ffc83e;}.cls-10{fill:#8f84bf;}.cls-11{fill:none;stroke:#0e2e4e;stroke-miterlimit:10;stroke-width:4px;}.cls-12{fill:#746fb3;}.cls-13{fill:#4192ad;}.cls-14{fill:#f8a27b;}.cls-15{fill:#e6795d;}.cls-16{fill:#8f85bf;}.cls-17{fill:#988dc4;}.cls-18{opacity:0.2;}.cls-19{fill:#736db2;}.cls-20{fill:#756fb3;}.cls-21{fill:#8e84bf;}.cls-22{fill:#b7a8d2;}</style></defs><polygon class="cls-1" points="389.84 188.03 389.84 119.4 384.35 119.4 384.35 112.86 380.04 112.86 380.04 106.33 375.93 106.33 375.93 99.79 360.64 99.79 360.64 106.33 360.64 112.86 360.64 119.4 360.64 160.44 354.45 160.44 354.45 76.1 325.25 76.1 325.25 160.44 318.64 160.44 318.64 55.22 259.99 55.22 259.99 99.79 245.39 99.79 245.39 106.33 245.39 112.86 245.39 119.4 245.39 142 218.65 142 218.65 119.4 213.16 119.4 213.16 112.86 208.85 112.86 208.85 106.33 204.74 106.33 204.74 99.79 189.45 99.79 189.45 89.41 145.4 89.41 145.4 155.49 139.46 155.49 139.46 123.46 110.27 123.46 110.27 155.49 103.39 155.49 103.39 119.4 97.91 119.4 97.91 112.86 93.6 112.86 93.6 106.33 89.48 106.33 89.48 99.79 74.2 99.79 74.2 106.33 74.2 112.86 74.2 119.4 74.2 142 45 142 45 188.57 15.81 188.57 15.81 253.13 45 253.13 74.2 253.13 88.8 253.13 103.39 253.13 110.27 253.13 139.46 253.13 145.4 253.13 147.45 253.13 187 253.13 189.45 253.13 218.65 253.13 245.39 253.13 247.84 253.13 259.99 253.13 274.59 253.13 316.59 253.13 318.64 253.13 325.25 253.13 354.45 253.13 360.64 253.13 372.07 253.13 389.84 253.13 416.12 253.13 416.12 188.03 389.84 188.03"/><path class="cls-2" d="M309.85,20.94c.17-1-1.19-3.11-2.68-3.08-.6,0-1.18.17-1.77.14-1.58-.08-2.4-1.31-3-2.33A3.48,3.48,0,0,0,299,13.75c-2.21.37-3.33,3.3-5.85,1.1-1.64-1.43-1.77-3.44-3.63-4.83a6.09,6.09,0,0,0-5.09-1c-2.24.69-3.07,2.91-5.46,3.3-2.64.43-4.54-1.58-5.39-3-1-1.76-1.4-3.67-2.28-5.46S268.89,0,266,0c-2.47,0-3.56,1.61-4.78,2.85-1.58,1.62-4.86,7.42-8.54,6.72-1.43-.27-2.15-1.41-3.45-1.92-2.08-.82-4.73.31-6,1.73s-1.75,3.13-3.16,4.47a3.33,3.33,0,0,1-1.39.83c-2,.54-3.82-1.12-5.94-1.25A5,5,0,0,0,229,14.87a18.78,18.78,0,0,0-1.94,2.75,2,2,0,0,1-.7.69c-.93.5-2.24.08-3.38-.12-2.82-.48-6,.81-6.81,2.75Z"/><path class="cls-3" d="M271.35,203.08c-10.19,3.61-22.49,3.24-31.77-2.71-9.12-5.85-17.42-10.07-28.64-9.87-10,.18-18.32,5.6-28,6.76-7.7.91-15.53-2.45-21.11-7.83s-9.07-13.27-6.7-20.46c1.24-3.77,4-6.87,5.5-10.52,3.57-8.42-5.83-13.5-3.49-22.36,2-7.53,10.26-12.91,10.13-20.7-.09-5.7-4.5-10.12-6.06-15.4a20.92,20.92,0,0,1,1.55-16.15,19.3,19.3,0,0,1,9.08-8.11c3.4-1.45,7.2-1.48,9.83-4.45,4.68-5.29,6.4-11,12.83-14.9,5.44-3.28,12.63-3.49,18.87-2.92,13.88,1.28,27.34,8.6,35.15,20.26,2.77,4.13,4.77,8.36,4.84,13.28.08,5.36.08,10.77,3.37,15.33,2.76,3.83,7.19,6.08,11.59,7.81s9,3.13,12.86,5.85,6.93,7.17,6.48,11.87c-.38,3.94-3.1,7.36-3.47,11.3-.66,7.16,6.24,12.36,10.49,18.16a28.2,28.2,0,0,1,2.46,28.61c-5.16,10.38-14.53,12.72-24.35,16.63C272.29,202.74,271.83,202.92,271.35,203.08Z"/><path class="cls-4" d="M197.22,69.21a24,24,0,0,1,11.19-3A41.73,41.73,0,0,1,220,67.48a35.8,35.8,0,0,1,19.37,12.68,32,32,0,0,1,5.34,10.49,40.61,40.61,0,0,1,1.28,11.7c0,3.91-.32,7.8-.19,11.64a21,21,0,0,0,.9,5.6,8.78,8.78,0,0,0,3,4.48,10.54,10.54,0,0,0,5.18,1.79c1.88.22,3.85.23,5.81.49A26.61,26.61,0,0,1,272,130a9,9,0,0,1,4,10.65,40.48,40.48,0,0,1-2.48,5.35A17,17,0,0,0,272,151.5a25.49,25.49,0,0,0,2,11.22,104.59,104.59,0,0,1,3.86,11.05,23.85,23.85,0,0,1,.7,5.83,18.3,18.3,0,0,1-1,5.78,19.74,19.74,0,0,1-6.81,9.32,19.22,19.22,0,0,0,6.6-20.8,106.09,106.09,0,0,0-4-10.93,26.15,26.15,0,0,1-2.17-11.54,17.81,17.81,0,0,1,1.45-5.78,42.68,42.68,0,0,0,2.41-5.24,8,8,0,0,0-3.63-9.54,25.4,25.4,0,0,0-10.78-3.46c-1.9-.25-3.84-.25-5.82-.47a11.64,11.64,0,0,1-5.72-2,9.83,9.83,0,0,1-3.39-5,22.07,22.07,0,0,1-.93-5.9c-.11-3.93.18-7.82.24-11.69a39.46,39.46,0,0,0-1.2-11.43,32.21,32.21,0,0,0-5.09-10.24A35.1,35.1,0,0,0,219.89,68a41.23,41.23,0,0,0-11.48-1.55A23.87,23.87,0,0,0,197.22,69.21Z"/><path class="cls-2" d="M138.72,50.53c.17-1-1.21-3.14-2.71-3.11-.6,0-1.19.17-1.78.14-1.6-.07-2.42-1.31-3-2.34a3.49,3.49,0,0,0-3.39-1.93c-2.23.37-3.36,3.32-5.9,1.1-1.66-1.44-1.79-3.47-3.67-4.87a6.12,6.12,0,0,0-5.12-1c-2.26.7-3.1,2.94-5.51,3.33-2.66.43-4.58-1.6-5.43-3.06-1-1.77-1.42-3.69-2.3-5.5s-2.47-3.91-5.42-3.86c-2.49,0-3.59,1.62-4.81,2.87-1.6,1.63-4.9,7.49-8.62,6.78-1.44-.27-2.16-1.42-3.47-1.94-2.1-.83-4.77.31-6,1.74S69.76,42,68.33,43.38a3.33,3.33,0,0,1-1.4.84c-2,.55-3.86-1.13-6-1.26a5,5,0,0,0-3.7,1.45,18.37,18.37,0,0,0-2,2.78,2.17,2.17,0,0,1-.72.69c-.93.5-2.25.08-3.4-.12-2.84-.49-6.06.82-6.86,2.77Z"/><path class="cls-5" d="M246.3,155.51c.36,8.8-1.68,15.41-9.72,19.76-6.41,3.47-14.09,4.61-21.16,4.78-11.86.29-25.08-2.77-33.95-11.1-1.61-1.51-3.16-3.37-3.27-5.57-.11-2,1-3.9,1.09-5.9.17-3.38-2.46-6.19-3.64-9.36-1.55-4.2-.5-8.88.9-13.13s3.14-8.54,2.93-13c-.27-5.79-3.76-10.85-6.54-15.94s-5-11.28-2.6-16.57a11.82,11.82,0,0,1,9.14-6.59c4-.45,7.67,4.17,10.26,6.71a63.06,63.06,0,0,0,11.54,9c5.78,3.51,12.12,6.09,17.55,10.11,3.29,2.43,6.82,5.76,8.39,9.64,1.76,4.36-1.33,8.58,2.41,12.59,2.42,2.59,6.13,3.47,9.05,5.47C244.93,140.67,246,148.57,246.3,155.51Z"/><path class="cls-6" d="M180.79,204.75c8.33-12.84,13.52-28.59,6.28-43.08-.73-1.47-1.62-3.07-3.17-3.59-3.35-1.11-7.9.08-10.81,1.79-10.11,5.93-16.29,17.09-22,27-5.9,10.31-11,21.05-17,31.34-2.4,4.17-4.82,8.4-6.11,13a20.57,20.57,0,0,0,.29,12.68c6.65,17.18,25-3.86,30.52-10.22A255,255,0,0,0,180.79,204.75Z"/><path class="cls-7" d="M380.82,29.9h-85a10.65,10.65,0,0,0-10.62,10.63V83.79a10.65,10.65,0,0,0,10.62,10.62h3.36v17l23.22-17h58.41a10.65,10.65,0,0,0,10.62-10.62V40.53A10.65,10.65,0,0,0,380.82,29.9Z"/><rect class="cls-8" x="301.39" y="59.43" width="52.59" height="5.63" rx="2.33"/><rect class="cls-8" x="358.02" y="59.43" width="17.24" height="5.63" rx="2.33"/><rect class="cls-8" x="322.67" y="46.65" width="52.59" height="5.63" rx="2.33" transform="translate(697.93 98.93) rotate(180)"/><rect class="cls-8" x="301.39" y="46.65" width="17.24" height="5.63" rx="2.33" transform="translate(620.01 98.93) rotate(180)"/><rect class="cls-8" x="301.39" y="71.12" width="36.94" height="5.63" rx="2.33"/><path class="cls-9" d="M254.36,162.26c-2.45-3.12-6.81-5.29-10.38-6.83-5-2.15-10-4.82-15.18-6.65a40.35,40.35,0,0,0-6.37-1.73c-7.87-1.38-16.61-2.23-24.45-.26a42.23,42.23,0,0,0-5.78,2,77.55,77.55,0,0,0-8.31,4.15c-3.86,2.18-8.6,4.05-10.47,8.1a274.19,274.19,0,0,0-11.92,30.36C158.7,200,155.63,209,160,217.71c1.42,2.82,3.5,5.24,5.13,7.94a19.39,19.39,0,0,1,2.74,9.31c.25,3.62.34,7.24.36,10.87,0,4.31,0,8.62-.05,12.92a15.25,15.25,0,0,0,1,6.72c2,4,7.33,4.1,11.19,4.1l38.19-.07a65.45,65.45,0,0,1,14.31,1.66c4.19.86,7.78-1.25,9.79-5.14,1.9-3.69,2-8,2.25-12.13A261.75,261.75,0,0,1,251.79,206c.58-2.4,1.38-5.2,2.23-8.23.72-2.58,1.47-5.32,2.13-8.14C258.55,179.54,259.79,169.16,254.36,162.26Z"/><path class="cls-6" d="M191.74,162.71a14,14,0,0,0,8.61,6.22,29.79,29.79,0,0,0,17.84-1.11,18.59,18.59,0,0,0,8.48-7.64,15.51,15.51,0,0,0,2.13-11.4,40.35,40.35,0,0,0-6.37-1.73c-7.87-1.38-16.61-2.23-24.45-.26a42.23,42.23,0,0,0-5.78,2,10.9,10.9,0,0,0-1.52,2.55A12.5,12.5,0,0,0,191.74,162.71Z"/><path class="cls-6" d="M168.22,258.75a15.25,15.25,0,0,0,1,6.72c2,4,7.33,4.1,11.19,4.1l38.19-.07a65.45,65.45,0,0,1,14.31,1.66c4.19.86,7.78-1.25,9.79-5.14,1.9-3.69,2-8,2.25-12.13A261.75,261.75,0,0,1,251.79,206c.58-2.4,1.38-5.2,2.23-8.23-.5.95-.93,1.95-1.33,2.93-3.07,7.47-5.64,19.42-12,24.65s-16.47,7.55-24.54,8.83c-9.42,1.49-19,1.6-28.52,2.18-6.15.37-12.95,1.26-17,5.92a18,18,0,0,0-2.34,3.51C168.3,250.14,168.24,254.45,168.22,258.75Z"/><path class="cls-10" d="M173.85,104.12c-6.94,7.14-.64,24.6,10.43,22.08,11.9-2.72,10.11-21.27-.65-24.31C179.43,100.7,176.09,101.82,173.85,104.12Z"/><path class="cls-11" d="M268.66,201.91c7,.89,14.3.28,20.51-3,7.92-4.14,11.88-11.74,12-20.47.12-6.34-1.1-12.93-4.92-18-4.16-5.49-11.12-8.87-13.71-15.25-1.67-4.13-1.27-9.76,2-12.95,2.11-2,3.75-4.33,3.48-7.38-.39-4.49-3.68-8.81-7.35-11.23-5.37-3.56-12.07-4.86-18.36-5.66-4.26-.54-8.51-1.74-9.83-6.33-.71-2.47-.57-5.09-.7-7.63-.28-5.43-.68-10.86-1.49-16.24-.94-6.2-5-12.19-9.45-16.46-.65-.62-1.32-1.2-2-1.76-11.57-9.38-33-12.7-45.77-4a19.79,19.79,0,0,0-8.37,12.68c-.65,3.46-1.59,4.21-5,5.26-6.15,1.91-13.13,3.26-18,7.77a16.88,16.88,0,0,0-5.07,14c.65,6.54,5.22,9.67,8.5,14.86s.71,12-3.17,16.33c-3,3.36-7.24,5.82-8.93,10-1.55,3.84-.52,8.28,1.36,12,.76,1.5,1.65,2.93,2.32,4.46a17.29,17.29,0,0,1-.55,14.8"/><rect class="cls-12" x="132.65" y="243.33" width="52.01" height="10.18"/><path class="cls-12" d="M141.58,244.32,128.45,177.5a3.75,3.75,0,0,0-3.69-3H37.51a3.75,3.75,0,0,0-3,1.55h0l-4,4.76L34,180l12.92,65.79a3.77,3.77,0,0,0,3.69,3h87.25A3.77,3.77,0,0,0,141.58,244.32Z"/><path class="cls-3" d="M46.64,253.51H133.9a3.77,3.77,0,0,0,3.69-4.49L124.46,182.2a3.75,3.75,0,0,0-3.69-3H33.52a3.77,3.77,0,0,0-3.7,4.48L43,250.47A3.76,3.76,0,0,0,46.64,253.51Z"/><path class="cls-12" d="M74.09,214.68a10.19,10.19,0,0,0,9.62,8.17c4.5,0,7.45-3.66,6.58-8.17a10.31,10.31,0,0,0-9.62-8.16C76.23,206.52,73.28,210.18,74.09,214.68Z"/><path class="cls-13" d="M29.75,182.27"/><path class="cls-14" d="M213.91,123.3h0Z"/><path class="cls-15" d="M214.3,123.3h0Z"/><path class="cls-15" d="M223,145.39c-.27-3-.19-8.1-.19-8.58l0,0c0-.45,0-.9.06-1.35a63.73,63.73,0,0,0,.25-6.78c-3.59,7-9,12.58-16.53,14.59a17.63,17.63,0,0,1-11.13-.75,19.37,19.37,0,0,1-1.16,5.55c-.13.35-.26.71-.38,1.07-2,5.69-.13,11.1,6,13.7a24.29,24.29,0,0,0,15.82.65c3.81-1.22,7-3.59,8.13-7.36C225,152.69,223.32,148.84,223,145.39Z"/><path class="cls-14" d="M226.53,89.37c-5.82-17.81-28.05-22.22-41.43-9.43-14.93,14.27-9.22,48.37,6.5,60.35a17.06,17.06,0,0,0,3.9,2.21,17.63,17.63,0,0,0,11.13.75c7.51-2,12.94-7.55,16.53-14.59,3.79-7.43,5.52-16.53,5.47-24.94A48,48,0,0,0,226.53,89.37Z"/><path class="cls-14" d="M225.71,104.16c6.84-3.74,8.94,5.73,7.77,10.44a15.21,15.21,0,0,1-2.46,5.45c-1.63,2.15-6.28,5.73-9,3.37-1.22-1.07-1.35-2.89-1.38-4.51C220.58,114.57,221.08,106.7,225.71,104.16Z"/><path class="cls-8" d="M327.1,213.62a7.89,7.89,0,0,0,.19-6,23.52,23.52,0,0,0-2.75-5.43,25,25,0,0,1-3-6.12,13.22,13.22,0,0,1,.15-7.33c1.44-4.62,4.37-8,6.39-11.5a16.21,16.21,0,0,0,2.17-5.53,9.46,9.46,0,0,0-.72-6,8.69,8.69,0,0,1,2.59,6.12,15.51,15.51,0,0,1-1.37,6.74c-1.75,4.19-4.38,7.59-5.41,11.28a9.9,9.9,0,0,0-.31,5.35,29.66,29.66,0,0,0,2.14,5.62,19.57,19.57,0,0,1,2,6.48C329.31,209.57,328.79,212.13,327.1,213.62Z"/><path class="cls-16" d="M315,216.16H341a0,0,0,0,1,0,0v30.66a6.48,6.48,0,0,1-6.48,6.48h-13a6.48,6.48,0,0,1-6.48-6.48V216.16A0,0,0,0,1,315,216.16Z"/><path class="cls-17" d="M342.78,224.56A11.43,11.43,0,1,0,354,236,11.34,11.34,0,0,0,342.78,224.56Zm0,18.77A7.35,7.35,0,1,1,350,236,7.3,7.3,0,0,1,342.78,243.33Z"/><path class="cls-18" d="M318.91,239.2h0a1.4,1.4,0,0,1-1.4-1.4V219.72a1.4,1.4,0,0,1,1.4-1.4h0a1.4,1.4,0,0,1,1.4,1.4V237.8A1.4,1.4,0,0,1,318.91,239.2Z"/><path class="cls-19" d="M335,216.16v30.57a6.57,6.57,0,0,1-6.57,6.57h6a6.57,6.57,0,0,0,6.56-6.57V216.16Z"/><path class="cls-20" d="M203.44,135.35a34.56,34.56,0,0,1-5.06-.37l.3-2a31.17,31.17,0,0,0,17.71-2.48,22.56,22.56,0,0,0,3.83-2.2,18.15,18.15,0,0,0,5-5.47l1.79,1a20.08,20.08,0,0,1-5.54,6.1,24.44,24.44,0,0,1-4.17,2.4A32.76,32.76,0,0,1,203.44,135.35Z"/><path class="cls-20" d="M192.39,131.29c2.5-2.14,8.06-2,9.89.27a3.64,3.64,0,0,1-.55,5.14c-1.77,1.65-4,1.56-6.17,1.06C192.8,137.14,189.37,133.88,192.39,131.29Z"/><path class="cls-15" d="M228.67,90.11c-6.13-18.76-29.53-23.4-43.62-9.93a27.62,27.62,0,0,0-6.86,11,13.47,13.47,0,0,0,1.09,1.46,20.9,20.9,0,0,0,7.28,4.94c7.85,3.63,16.3,5.76,24.8,7.35l1.88.36a20.92,20.92,0,0,1,6.71,2.24c5.77,3.4,3.29,10.89,7.51,14.17a4.38,4.38,0,0,0,1.16.62,63,63,0,0,0,2.26-17.16A50.43,50.43,0,0,0,228.67,90.11Z"/><path class="cls-3" d="M213.85,103.19a21.07,21.07,0,0,1,6.26,3.29c5.15,4.28,1.51,11.27,5.16,15.18,3.24,3.47,8.15-1.11,9.44-4.31,2.37-5.9,2.23-12.47,2.06-18.82A39.54,39.54,0,0,0,235.52,88a25.76,25.76,0,0,0-6-9.83,38.28,38.28,0,0,0-30.13-11.75c-8.67.54-23.88,7.83-17.09,18.87a21,21,0,0,0,6.41,6c7.17,4.84,15.17,8.29,23.31,11.21Z"/><path class="cls-10" d="M228.58,101.47c-9.65,2.47-13.38,20.66-2.61,24.28,11.57,3.89,19.72-12.87,12.12-21.08C235.13,101.46,231.69,100.67,228.58,101.47Z"/><path class="cls-12" d="M231.75,103.8c-6.67,1.07-10.77,15.23-3.9,19.12,7.38,4.19,14.3-8.42,10-15.68C236.12,104.41,233.89,103.46,231.75,103.8Z"/><path class="cls-21" d="M233.09,102.74l-2.57-.3c1.74-15.09,1-34.37-12.46-40.53-6.38-2.92-24.63-6.16-32.67,4.69-1,1.08-1.61,2-1.61,2,5-15.37,28.48-12.19,35.36-9C234,66.36,234.94,86.79,233.09,102.74Z"/><rect class="cls-22" y="253.51" width="432.43" height="22.59" rx="11.29"/><path class="cls-9" d="M301,242.51c-.2-6.58-3.86-14.36-6.3-18.92-2.08-3.87-4.2-7.71-6.33-11.55-3.66-6.62-7.37-13.21-11-19.88-5.85-10.79-12.44-21.42-21.68-29.67A24.87,24.87,0,0,0,251,159a15.55,15.55,0,0,0-12.49-.92c-12.81,4.64-2.26,24.95,1.71,32.74a265.75,265.75,0,0,0,26.11,41.31c-6.91,1-13.78,2.38-20.62,3.87q-7.81,1.69-15.71,2.94c-1.08.17-2.16.34-3.24.53-4.08.69-8.13,1.48-12.2,2.23a5.17,5.17,0,0,0-2.47.9c-1.32,1.07-1.66,3.16-1.53,4.88.24,3.32,1.75,7.56,4.26,9.56a10.29,10.29,0,0,0,6.36,1.84c5.08,0,10.23-.71,15.3-1.07l15.92-1.09,32.16-2.16c1.66-.11,3.32-.23,5-.49a13.55,13.55,0,0,0,4.73-.85c4.73-1.63,6.56-5.13,6.78-9.28A9.76,9.76,0,0,0,301,242.51Z"/><path class="cls-14" d="M214.71,255.8c-2.59.54-4.62,2.82-7.2,3.58a8.91,8.91,0,0,1-5.58-.41c-1.62-.61-3.28-.94-5-1.47-1.3-.42-3.06-1.3-4.46-1-3.66.77-7.32,3.37-10.64,5.07a3.82,3.82,0,0,1-2.39.61c-.82-.15-1.51-1.15-1-1.85-.95.9-2.22,2.68-3.76,2a1.29,1.29,0,0,1-.66-1.72,5,5,0,0,1-1.82,1.47,1.77,1.77,0,0,1-2.12-.49,2,2,0,0,1-.28-1.06,8,8,0,0,1,.85-3.69c2.61-5.71,8.53-9.94,13.56-13.34a10.5,10.5,0,0,1,2.83-1.53,10.17,10.17,0,0,1,2.86-.32,56.7,56.7,0,0,1,18.4,3,8,8,0,0,0,4-.18,6.25,6.25,0,0,1,2.85-.08,4.91,4.91,0,0,1,2.47,2,9.29,9.29,0,0,1,1.9,5.75c-.1,1.53-.22,3.18-2,3.5-.73.13-1.48,0-2.22.13Z"/></svg>