<svg xmlns="http://www.w3.org/2000/svg" xmlns:xlink="http://www.w3.org/1999/xlink" width="854.835" height="482.42" viewBox="0 0 854.835 482.42">
  <defs>
    <clipPath id="clip-path">
      <path id="Trazado_22446" data-name="Trazado 22446" d="M-1222.179,3331.8s-245.985-288.363-18-334.361,469.557-200.782,570.551-123.787,94.983,166.52,148,248.177c77.333,119.113-89.588,209.97-89.588,209.97Z" transform="translate(1337.04 -2852.529)" fill="none"/>
    </clipPath>
    <linearGradient id="linear-gradient" x1="4.892" y1="0.716" x2="3.001" y2="0.094" gradientUnits="objectBoundingBox">
      <stop offset="0" stop-color="#4460d0"/>
      <stop offset="1" stop-color="#719dfc"/>
    </linearGradient>
    <linearGradient id="linear-gradient-2" x1="32.993" y1="-1.571" x2="37.922" y2="2.389" xlink:href="#linear-gradient"/>
  </defs>
  <g id="Grupo_28385" data-name="Grupo 28385" transform="translate(1369.755 -2852.529)">
    <g id="Grupo_28355" data-name="Grupo 28355" transform="translate(-1357.837 2852.529)" opacity="0.8">
      <g id="Grupo_28354" data-name="Grupo 28354" transform="translate(0 0)" clip-path="url(#clip-path)">
        <path id="Trazado_22439" data-name="Trazado 22439" d="M-1222.179,3309.182s-245.985-288.363-18-334.361,465.557-215.061,566.552-138.066,151.13,152.007,189.331,241.557c81.333,190.657-126.92,230.869-126.92,230.869l-607.964,6.9Z" transform="translate(1337.04 -2829.906)" fill="#dee9ff"/>
        <g id="Grupo_28352" data-name="Grupo 28352" transform="translate(564.57 425.112)">
          <path id="Trazado_22440" data-name="Trazado 22440" d="M216.147,4118.614S224.053,4038,253.921,4026s63.249-7.221,61.492,12.352-29.867,92.449-29.867,92.449l-72.826-1.309Z" transform="translate(-212.719 -4019.472)" fill="#92bfff"/>
          <path id="Trazado_22441" data-name="Trazado 22441" d="M353.534,4134.484c1.757-2.551,31.961-70.487,26.69-92.534-1.723-7.206-23.039-17.235-48.515-6.315s19.482-.7,13.919,29.456-27.673,69.456-13.617,71.3S353.534,4134.484,353.534,4134.484Z" transform="translate(-283.354 -4026.678)" fill="#a3c9ff"/>
        </g>
        <path id="Trazado_22442" data-name="Trazado 22442" d="M-1140.526,3666.427V3308.019h231.033v90.49h41.123v-55.352h318.312V3532.08h46.635V3360.726h92.892v320.969h-729.994v-15.268Z" transform="translate(1212.115 -3142.086)" fill="#bcd2ff"/>
        <rect id="Rectángulo_4424" data-name="Rectángulo 4424" width="203.801" height="390.911" transform="translate(85.645 180.866)" fill="#cdddff"/>
        <rect id="Rectángulo_4425" data-name="Rectángulo 4425" width="287.254" height="348.745" transform="translate(358.843 217.761)" fill="#cdddff"/>
        <rect id="Rectángulo_4426" data-name="Rectángulo 4426" width="115.096" height="348.745" transform="translate(720.765 229.104)" fill="#cdddff"/>
        <rect id="Rectángulo_4427" data-name="Rectángulo 4427" width="219.613" height="11.429" transform="translate(79.495 299.457)" fill="#bcd2ff"/>
        <rect id="Rectángulo_4428" data-name="Rectángulo 4428" width="219.613" height="13.822" transform="translate(79.495 426.555)" fill="#bcd2ff"/>
        <rect id="Rectángulo_4429" data-name="Rectángulo 4429" width="296.917" height="12.581" transform="translate(354.451 344.84)" fill="#bcd2ff"/>
        <rect id="Rectángulo_4430" data-name="Rectángulo 4430" width="42.558" height="106.159" transform="translate(239.965 190.956)" fill="#bcd2ff"/>
        <rect id="Rectángulo_4431" data-name="Rectángulo 4431" width="42.558" height="106.159" transform="translate(192.712 190.956)" fill="#bcd2ff"/>
        <rect id="Rectángulo_4432" data-name="Rectángulo 4432" width="42.558" height="106.159" transform="translate(151.153 186.913) rotate(19.13)" fill="#bcd2ff"/>
        <circle id="Elipse_1026" data-name="Elipse 1026" cx="8.004" cy="8.004" r="8.004" transform="translate(251.628 219.573) rotate(-76.844)" fill="#cdddff"/>
        <rect id="Rectángulo_4433" data-name="Rectángulo 4433" width="42.558" height="106.159" transform="translate(724.736 252.891) rotate(-17.822)" fill="#bcd2ff"/>
        <path id="Trazado_22443" data-name="Trazado 22443" d="M720.662,3571.6a8,8,0,1,1-10.07-5.17A8,8,0,0,1,720.662,3571.6Z" transform="translate(38.883 -3306.115)" fill="#cdddff"/>
        <rect id="Rectángulo_4434" data-name="Rectángulo 4434" width="146.356" height="11.429" transform="translate(714.08 355.181)" fill="#bcd2ff"/>
        <rect id="Rectángulo_4435" data-name="Rectángulo 4435" width="42.558" height="106.159" transform="translate(801.293 246.679)" fill="#bcd2ff"/>
        <circle id="Elipse_1027" data-name="Elipse 1027" cx="8.004" cy="8.004" r="8.004" transform="matrix(0.383, -0.924, 0.924, 0.383, 812.114, 273.657)" fill="#cdddff"/>
        <rect id="Rectángulo_4436" data-name="Rectángulo 4436" width="33.188" height="106.159" transform="translate(369.982 236.462)" fill="#bcd2ff"/>
        <circle id="Elipse_1028" data-name="Elipse 1028" cx="8.004" cy="8.004" r="8.004" transform="translate(376.85 253.316) rotate(-14.23)" fill="#cdddff"/>
        <rect id="Rectángulo_4437" data-name="Rectángulo 4437" width="33.188" height="106.159" transform="translate(408.01 236.462)" fill="#bcd2ff"/>
        <circle id="Elipse_1029" data-name="Elipse 1029" cx="8.004" cy="8.004" r="8.004" transform="translate(414.122 263.38) rotate(-67.178)" fill="#cdddff"/>
        <rect id="Rectángulo_4438" data-name="Rectángulo 4438" width="33.188" height="106.159" transform="translate(638.026 309.518) rotate(90)" fill="#bcd2ff"/>
        <circle id="Elipse_1030" data-name="Elipse 1030" cx="8.004" cy="8.004" r="8.004" transform="translate(604.061 326.112) rotate(-45)" fill="#cdddff"/>
        <rect id="Rectángulo_4439" data-name="Rectángulo 4439" width="33.188" height="106.159" transform="translate(630.263 274.67) rotate(90)" fill="#bcd2ff"/>
        <circle id="Elipse_1031" data-name="Elipse 1031" cx="8.004" cy="8.004" r="8.004" transform="translate(597.989 297.215) rotate(-76.717)" fill="#cdddff"/>
        <rect id="Rectángulo_4440" data-name="Rectángulo 4440" width="42.558" height="106.159" transform="translate(91.987 316.987)" fill="#bcd2ff"/>
        <circle id="Elipse_1032" data-name="Elipse 1032" cx="8.004" cy="8.004" r="8.004" transform="matrix(0.29, -0.957, 0.957, 0.29, 103.286, 344.974)" fill="#cdddff"/>
        <rect id="Rectángulo_4441" data-name="Rectángulo 4441" width="42.558" height="106.159" transform="translate(140.793 317.734)" fill="#bcd2ff"/>
        <circle id="Elipse_1033" data-name="Elipse 1033" cx="8.004" cy="8.004" r="8.004" transform="matrix(0.811, -0.585, 0.585, 0.811, 150.899, 338.567)" fill="#cdddff"/>
        <rect id="Rectángulo_4442" data-name="Rectángulo 4442" width="42.558" height="106.159" transform="translate(248.205 315.296) rotate(19.325)" fill="#bcd2ff"/>
        <circle id="Elipse_1034" data-name="Elipse 1034" cx="8.004" cy="8.004" r="8.004" transform="translate(250.575 348.581) rotate(-70.503)" fill="#cdddff"/>
        <circle id="Elipse_1035" data-name="Elipse 1035" cx="8.004" cy="8.004" r="8.004" transform="matrix(0.969, -0.247, 0.247, 0.969, 204.26, 207.818)" fill="#cdddff"/>
        <circle id="Elipse_1036" data-name="Elipse 1036" cx="8.004" cy="8.004" r="8.004" transform="translate(154.79 219.552) rotate(-76.718)" fill="#cdddff"/>
        <g id="Grupo_28353" data-name="Grupo 28353" transform="translate(543.415 36.183)">
          <circle id="Elipse_1037" data-name="Elipse 1037" cx="55.999" cy="55.999" r="55.999" transform="translate(0)" fill="#bcd2ff"/>
          <circle id="Elipse_1038" data-name="Elipse 1038" cx="46.333" cy="46.333" r="46.333" transform="translate(9.667 9.667)" fill="#cdddff"/>
          <circle id="Elipse_1039" data-name="Elipse 1039" cx="43.166" cy="43.166" r="43.166" transform="translate(14.167 11.5)" fill="#dee9ff"/>
          <path id="Trazado_22444" data-name="Trazado 22444" d="M300.643,3061.438c-1.048-1.167-.574-3.258,1-4.6l29.626-25.287a1.8,1.8,0,0,1,2.378,2.649l-28.322,26.739C303.82,3062.359,301.691,3062.6,300.643,3061.438Z" transform="translate(-247.102 -3002.309)" fill="#bcd2ff"/>
          <path id="Trazado_22445" data-name="Trazado 22445" d="M283.915,3077.612c-1.78,1.471-4.484.951-5.183-.014l-12.522-17.286c-.283-.391.38-1.438,1.467-2.338s2.241-1.353,2.572-1l15.393,16.361C286.459,3074.2,285.694,3076.14,283.915,3077.612Z" transform="translate(-225.528 -3018.602)" fill="#bcd2ff"/>
          <circle id="Elipse_1040" data-name="Elipse 1040" cx="4.333" cy="4.333" r="4.333" transform="translate(51.666 51.666)" fill="#cdddff"/>
        </g>
      </g>
    </g>
    <path id="Trazado_22447" data-name="Trazado 22447" d="M-1084.617,2969.58c-140.345,46.977-238.664,74.666-204,30.667s207.586-94.666,275.125-89.333S-1029.874,2951.256-1084.617,2969.58Z" transform="translate(-47.135 -36.869)" fill="#dee9ff" opacity="0.7"/>
    <path id="Trazado_22448" data-name="Trazado 22448" d="M-452.892,4152.695H-1073.6a6.9,6.9,0,0,1-6.9-6.9,6.9,6.9,0,0,1,6.9-6.9h620.709a6.9,6.9,0,0,1,6.9,6.9A6.9,6.9,0,0,1-452.892,4152.695Z" transform="translate(-183.879 -817.746)" fill="#0f2771"/>
    <g id="Grupo_28360" data-name="Grupo 28360" transform="translate(-1166.957 2988.943)">
      <path id="Trazado_22449" data-name="Trazado 22449" d="M-374.822,3982.121l-122.257,28,10.033,31.4,103.087-.516Z" transform="translate(612.192 -3707.03)" fill="#0f2771"/>
      <path id="Trazado_22450" data-name="Trazado 22450" d="M-106.082,3569.808c2.417.324,53.167,14.061,83.406,47.594C20.466,3665.243,16.476,3781,16.476,3781l-221.844.252s6.766-38.422,13.159-93.327c8.682-74.57,61.487-101.33,61.487-101.33Z" transform="translate(426.75 -3444.921)" fill="#1a2f88"/>
      <path id="Trazado_22451" data-name="Trazado 22451" d="M-176.887,3752.891a148.374,148.374,0,0,0-15.322,51.42c-6.392,54.9-13.159,93.327-13.159,93.327l19.852.016Z" transform="translate(426.75 -3561.308)" fill="#0f2771"/>
      <path id="Trazado_22452" data-name="Trazado 22452" d="M-73.656,3574.84c-13.726,7-17.322,9.468-16.621,14.531.428,3.094,2.949,17.778-1.8,24.052s16.182-6.179,17.484-9.982,4.725-23.576,4.725-23.576Z" transform="translate(355.179 -3448.12)" fill="#a4bef2"/>
      <path id="Trazado_22453" data-name="Trazado 22453" d="M-22.772,3512.155c-4-5.882-61.321,31.352-59.218,33.77,15.959,18.352,20.533,49.706,20.533,49.706s37.762-64.9,38.685-67.057S-22.772,3512.155-22.772,3512.155Z" transform="translate(348.354 -3407.87)" fill="#c1d1f7"/>
      <g id="Grupo_28358" data-name="Grupo 28358" transform="translate(203.214 0)">
        <g id="Grupo_28356" data-name="Grupo 28356" transform="translate(18.741 98.159)">
          <path id="Trazado_22454" data-name="Trazado 22454" d="M-202.527,3528.259a1.269,1.269,0,0,1-1.206-.877,1.268,1.268,0,0,1,.814-1.6c.165-.054,16.822-5.753,27.168-28.6a1.269,1.269,0,0,1,1.679-.632,1.269,1.269,0,0,1,.632,1.679c-10.836,23.928-27.971,29.731-28.7,29.967A1.278,1.278,0,0,1-202.527,3528.259Z" transform="translate(203.796 -3496.437)" fill="#4460d0"/>
        </g>
        <path id="Trazado_22455" data-name="Trazado 22455" d="M-252.325,3267.829c-12.917,27.458,19.913,60.558,43.49,69.785s65.93,22.895,65.93,22.895,15.3-57.455,7.571-69.7c-11.526-18.279-5-39.015-31.814-43.6s-35.826,4.225-49.976,5.415S-246.949,3256.4-252.325,3267.829Z" transform="translate(255.239 -3239.006)" fill="#1a2f88"/>
        <path id="Trazado_22456" data-name="Trazado 22456" d="M-61.526,3409.747l35.634,85.191L-63.439,3552.7s-2.8-54.408-23.377-98.549S-61.526,3409.747-61.526,3409.747Z" transform="translate(151.546 -3343.169)" fill="#ffb0b5"/>
        <path id="Trazado_22457" data-name="Trazado 22457" d="M-53.346,3429.3l-8.18-19.556s-45.864.265-25.29,44.4c7.62,16.349,12.8,34.1,16.305,49.983A234.078,234.078,0,0,0-53.346,3429.3Z" transform="translate(151.546 -3343.169)" fill="#fd949b"/>
        <path id="Trazado_22458" data-name="Trazado 22458" d="M-206.19,3348.9a46.184,46.184,0,0,0-7.554,18.455c15.943,6.61,33.057-6.465,42.506-13.192,9.811-6.985,16.771-4.8,16.771-4.8l-15.789-12.531Z" transform="translate(228.86 -3296.817)" fill="#ed9ca1"/>
        <g id="Grupo_28357" data-name="Grupo 28357" transform="translate(15.116 36.878)">
          <path id="Trazado_22459" data-name="Trazado 22459" d="M-138.728,3362.3c10.338,24.635-14.038,55.419-34.25,60.912s-32.5-17.313-38.942-41.02,4.718-47.378,24.929-52.872S-148.234,3339.643-138.728,3362.3Z" transform="translate(213.744 -3328.222)" fill="#ffb0b5"/>
          <path id="Trazado_22460" data-name="Trazado 22460" d="M-201.775,3463.279c.594,2.48,2.36,4.183,3.944,3.8s2.388-2.7,1.794-5.177-2.359-4.183-3.944-3.8S-202.369,3460.8-201.775,3463.279Z" transform="translate(206.26 -3410.754)" fill="#1a2f88"/>
          <path id="Trazado_22461" data-name="Trazado 22461" d="M-134.05,3460.054c.057,2.708,1.506,4.874,3.236,4.837s3.086-2.261,3.029-4.969-1.506-4.874-3.236-4.837S-134.107,3457.346-134.05,3460.054Z" transform="translate(163.083 -3408.869)" fill="#1a2f88"/>
          <path id="Trazado_22462" data-name="Trazado 22462" d="M-169.115,3517.4s-14.464,1.475-13.543-.726,7.087-1.026,10.315-.15Z" transform="translate(194.009 -3447.22)" fill="#ed9ca1"/>
          <path id="Trazado_22463" data-name="Trazado 22463" d="M-164.729,3537.41c7.812-.3,19.459-8.381,19.459-8.381s3.864,9.551-2.871,13.007S-164.729,3537.41-164.729,3537.41Z" transform="translate(182.585 -3455.876)" fill="#fff"/>
        </g>
        <path id="Trazado_22464" data-name="Trazado 22464" d="M-239.893,3301.52c-2.816,12.557,5.566,37.574,30.449,26.551s23.442-16.263,30.436-10.866c5.434,4.192,2.4,37.435,9.6,36.148s5.727-13.229,4.477-14.54,10.408,6.1,10.408,6.1a101.087,101.087,0,0,0,8.816,12.43,76.327,76.327,0,0,0,14.165,12.587s-1.535-38.69-1.58-39.226-29.621-56.08-29.621-56.08l-52.028,15.667Z" transform="translate(245.815 -3257.269)" fill="#1a2f88"/>
        <ellipse id="Elipse_1041" data-name="Elipse 1041" cx="19.258" cy="15.052" rx="19.258" ry="15.052" transform="translate(68.658 92.976) rotate(-83.044)" fill="#4460d0"/>
        <ellipse id="Elipse_1042" data-name="Elipse 1042" cx="14.062" cy="10.224" rx="14.062" ry="10.224" transform="translate(73.823 87.03) rotate(-70.87)" fill="#516ddb"/>
        <path id="Trazado_22465" data-name="Trazado 22465" d="M-209.579,3570.942c.825,2.016-.986,4.665-4.045,5.917s-6.208.631-7.033-1.385.986-4.666,4.045-5.917S-210.4,3568.925-209.579,3570.942Z" transform="translate(233.382 -3444.35)" fill="#4460d0"/>
        <path id="Trazado_22466" data-name="Trazado 22466" d="M-138.2,3239.986s6.671-13.366,24.154-12.989,27.256,26.247,27.064,41.046-1.2,19.926-1.2,19.926l-6.055-1.658s3.586-18.78-3.018-35.882-16.834-19.116-23.086-17.769-8.726,5.038-8.726,5.038-4.338,1.255-6.187,1.692C-136.969,3239.8-138.2,3239.986-138.2,3239.986Z" transform="translate(180.835 -3226.989)" fill="#4460d0"/>
      </g>
      <path id="Trazado_22467" data-name="Trazado 22467" d="M-93.319,3671.728l-7.919,10.363,9.228,8.613-10.459,6.767s-2.306,60.9-5.075,98.739-6,49.831-6,49.831h9.535s13.226-107.829,17.07-131.652c3.344-20.726,1.392-25.932,1.392-25.932Z" transform="translate(368.376 -3509.712)" fill="#2c4096"/>
      <path id="Trazado_22468" data-name="Trazado 22468" d="M-54.206,3688.7s-4.574,15.682-8,9.169c-11.329,52.956-19.1,135.216-17.37,134.767l29.92-133.6Z" transform="translate(346.935 -3520.5)" fill="#eef4ff"/>
      <path id="Trazado_22469" data-name="Trazado 22469" d="M21.916,3513.253c-4.067,17.052-23.276,34.469-29.776,39.966a6.432,6.432,0,0,0-2.275,4.649l-1.614,38.86s38.5-48.586,41.465-57.668S21.916,3513.253,21.916,3513.253Z" transform="translate(303.666 -3408.969)" fill="#eef4ff"/>
      <path id="Trazado_22470" data-name="Trazado 22470" d="M-9.24,3602.807l-25.276,32.572,12.638,13.227s-27.487,23.685-47.9,87.666l-20.413,63.981-7.909.177,35.569-141.673,48.01-59.059Z" transform="translate(358.56 -3463.922)" fill="#0f2771"/>
      <path id="Trazado_22471" data-name="Trazado 22471" d="M-25.836,3549.6l15.26,20.149s-11.7,15.94-16.108,21.785-10.555,12.3-10.555,12.3l6.759,7.689a245.639,245.639,0,0,0-35.511,63.417c-7.428,20-22.933,91.613-22.933,91.613h-8.151s17.271-96.289,25.784-128.428,18.971-48.749,30.66-63.822S-25.836,3549.6-25.836,3549.6Z" transform="translate(357.908 -3432.077)" fill="#2c4096"/>
      <path id="Trazado_22472" data-name="Trazado 22472" d="M.577,3663.87c-23.378,38.757-28.277,58.219-35.055,85.861s-9.547,38.361-9.547,38.361l-69.517,16.043,147.032-8Z" transform="translate(368.376 -3504.717)" fill="#0f2771"/>
      <path id="Trazado_22473" data-name="Trazado 22473" d="M-254.222,4051.191s-12.735,2.716-14.471,2.227-20.067-3.963-23.154-3.963-37.432,20.26-37.432,20.26l36.468,10.227,37.625-4.825Z" transform="translate(505.522 -3749.834)" fill="#ffb0b5"/>
      <path id="Trazado_22474" data-name="Trazado 22474" d="M-291,4079.162c-6.938,1.614-24.758-1.525-39.173-4.619-.148.087-.87,6.74-.87,6.74l37.111,3.62,33.032-4.236v-23.406c-3.664.686-7.956,1.389-8.913,1.119C-272.191,4073.663-278.558,4076.268-291,4079.162Z" transform="translate(506.644 -3754.797)" fill="#fd949b"/>
      <path id="Trazado_22475" data-name="Trazado 22475" d="M-138.37,4049.054l-13.314,2.508-1.93,27.206s23.564,1.737,24.227.771S-138.37,4049.054-138.37,4049.054Z" transform="translate(393.849 -3749.58)" fill="#c4d6fe"/>
      <path id="Trazado_22476" data-name="Trazado 22476" d="M-4,3649.641c33.386-10.668,78.914,96.441,92.679,139.44s-11.059,42.449-33.821,42.449H-117.4s-6.718-32.605-7.051-36.3c0,0,67.22-11.107,86.041-13.429,1.587-.2,45.279-3.489,45.279-3.489s-23.07-27.933-26.761-62.18S-15.016,3653.16-4,3649.641Z" transform="translate(375.311 -3495.199)" fill="#1a2f88"/>
      <path id="Trazado_22477" data-name="Trazado 22477" d="M-82.906,3616.812c4.753-7.977,1.765-23.567,2.974-22.427s6.346-10.207,6.346-10.207-10.556,4.8-9.8,9.869c.654,4.361,2,12.306,1.236,17.535Z" transform="translate(349.228 -3454.056)" fill="#c1d1f7"/>
      <path id="Trazado_22478" data-name="Trazado 22478" d="M3.319,3627.825c-5.133,2.968-3.859,11.714-3.831,17.038a87.631,87.631,0,0,0,1.171,11.964s4.608-9.7,5.25-10.642S3.319,3627.825,3.319,3627.825Z" transform="translate(296.624 -3481.803)" fill="#a4bef2"/>
      <path id="Trazado_22479" data-name="Trazado 22479" d="M-.233,3580.368c2.5-.25.979,12.675,7.97,23.841,2.232,3.564,6.508,11.272,6.508,8.991s2.856-19.439,11.456-33.067c11.335-17.963,10.026-30.528,10.026-30.528Z" transform="translate(296.345 -3432.077)" fill="#eef4ff"/>
      <path id="Trazado_22480" data-name="Trazado 22480" d="M-81.068,3605.651c3.258-1.34,7.725,5.232,11.623,14.833s9.126,29.064,8.841,28.649a27.7,27.7,0,0,0-3.27-2.194,108.666,108.666,0,0,0-4.62-16.588c-5.843-15.286-8.968-19.785-11.408-21.275S-82.042,3606.052-81.068,3605.651Z" transform="translate(348.189 -3467.596)" fill="#eef4ff"/>
      <g id="Grupo_28359" data-name="Grupo 28359" transform="translate(0 226.667)">
        <path id="Trazado_22481" data-name="Trazado 22481" d="M-730.256,4135.7h235.118a6.25,6.25,0,0,0,6.25-6.25,6.25,6.25,0,0,0-6.25-6.25H-730.256a6.25,6.25,0,0,0-6.25,6.25A6.25,6.25,0,0,0-730.256,4135.7Z" transform="translate(764.397 -4023.384)" fill="#3b57c4"/>
        <path id="Trazado_22482" data-name="Trazado 22482" d="M-779.51,3954.116l148.64,3.644a3.9,3.9,0,0,0,3.852-4.926l-27.552-100.768a3.9,3.9,0,0,0-3.933-2.867l-150.836,6.934a3.9,3.9,0,0,0-3.53,5.116l29.749,90.19A3.9,3.9,0,0,0-779.51,3954.116Z" transform="translate(813.068 -3849.195)" fill="#3b57c4"/>
        <path id="Trazado_22483" data-name="Trazado 22483" d="M-779.725,3957.8l139.7,3.541a4.41,4.41,0,0,0,4.37-5.538l-25.888-97.662a4.409,4.409,0,0,0-4.464-3.275l-141.751,6.737c-2.9.132-4.42,2.317-3.536,5.082l27.48,88.049A4.41,4.41,0,0,0-779.725,3957.8Z" transform="translate(812.102 -3852.799)" fill="url(#linear-gradient)"/>
        <ellipse id="Elipse_1043" data-name="Elipse 1043" cx="9.89" cy="13.132" rx="9.89" ry="13.132" transform="translate(64.285 53.969) rotate(-25.232)" fill="url(#linear-gradient-2)"/>
      </g>
    </g>
    <g id="Grupo_28367" data-name="Grupo 28367" transform="translate(-1369.755 3006.208)">
      <g id="Grupo_28366" data-name="Grupo 28366">
        <path id="Trazado_22484" data-name="Trazado 22484" d="M-1129.377,3583.663s5.9,29.552,2.663,79.93c-.124,1.935,2.859-2.688,4.684-3.346,3.9-24.559,8.107-116.82-39.36-156.29-57.34-47.679-63.729-83.445-63.729-83.445s-30.906,68.084,4.818,116.122C-1187.062,3581.33-1129.377,3583.663-1129.377,3583.663Z" transform="translate(1285.7 -3367.277)" fill="#798fe8"/>
        <g id="Grupo_28362" data-name="Grupo 28362" transform="translate(0 203.572)">
          <path id="Trazado_22485" data-name="Trazado 22485" d="M-1208.429,3899.7s-21.992-54.384-58.481-62.76-49.929-2.1-62.794,12.684-40.051,33.92-40.051,33.92,23.9,24.727,56.154,20.952c30.666-3.588,44.3-23.175,44.3-23.175s46.669,25.347,54.974,26.611C-1210.451,3908.524-1208.429,3899.7-1208.429,3899.7Z" transform="translate(1369.755 -3833.193)" fill="#798fe8"/>
          <path id="Trazado_22486" data-name="Trazado 22486" d="M-957.428,4022.288c7.683,3.012,9.261,10.9,9.261,10.9l.644-17.448Z" transform="translate(1107.637 -3949.242)" fill="#798fe8"/>
          <g id="Grupo_28361" data-name="Grupo 28361" transform="translate(11.193 0.733)">
            <path id="Trazado_22487" data-name="Trazado 22487" d="M-1284.528,3892.632a1,1,0,0,0,.664.252,1,1,0,0,0,.748-.336c18.327-20.643,17.762-52.375,17.68-55.017a49.914,49.914,0,0,1,10.013-.982q-4.575-.851-8.625-1.345c-17.058,2.776-24.5,13.756-31.735,24.455-3.921,5.8-7.624,11.276-12.777,15.348-17.206,13.6-29.157,11.459-29.273,11.435a1,1,0,0,0-1.178.782,1,1,0,0,0,.782,1.178,14.259,14.259,0,0,0,2.63.2c4.6,0,14.886-1.439,28.28-12.023,5.4-4.264,9.359-10.127,13.193-15.8,6.408-9.477,12.984-19.182,26.7-22.781.085,4.371-.014,33.881-17.187,53.223A1,1,0,0,0-1284.528,3892.632Z" transform="translate(1339.031 -3835.204)" fill="#fff"/>
            <path id="Trazado_22488" data-name="Trazado 22488" d="M-1108.656,3841.112c-.73-.158-1.446-.308-2.158-.454.343,1.339,3.747,16.062-5.814,37.549a1,1,0,0,0,.507,1.32.99.99,0,0,0,.406.086,1,1,0,0,0,.914-.594C-1105.956,3859.144-1107.842,3845.061-1108.656,3841.112Z" transform="translate(1197.703 -3838.671)" fill="#fff"/>
          </g>
          <path id="Trazado_22489" data-name="Trazado 22489" d="M-1085.106,3888.4s22.05,11.679,26.068,35.375l-1.3,10.143c-13.845-7.007-33.653-17.5-33.653-17.5C-1085.141,3904.649-1085.106,3888.4-1085.106,3888.4Z" transform="translate(1194.453 -3868.29)" fill="#516ddb"/>
        </g>
        <g id="Grupo_28363" data-name="Grupo 28363" transform="translate(59.51 115.157)">
          <path id="Trazado_22490" data-name="Trazado 22490" d="M-1103.237,3763.721a.879.879,0,0,1-.094,0,1,1,0,0,1-.9-1.087c3.068-32.956-.27-78.1-14.644-104.676-6.923-12.8-15.569-26.632-17.167-29.173-4.7-.51-40.786-5.384-70.082-36.608a1,1,0,0,1,.045-1.413,1,1,0,0,1,1.413.044c30.713,32.734,68.9,36,69.285,36.033a1,1,0,0,1,.768.462c.1.154,9.844,15.555,17.5,29.7,14.574,26.941,17.972,72.556,14.877,105.812A1,1,0,0,1-1103.237,3763.721Z" transform="translate(1206.398 -3590.489)" fill="#fff"/>
        </g>
        <g id="Grupo_28364" data-name="Grupo 28364" transform="translate(59.51 67.946)">
          <path id="Trazado_22491" data-name="Trazado 22491" d="M-1135.46,3546.45a1,1,0,0,1-.837-.452c-.047-.071-4.818-7.224-18.16-18.907-4.94-4.326-9.424-7.825-13.761-11.208-15.918-12.421-27.419-21.4-38.13-53.673a1,1,0,0,1,.634-1.264,1,1,0,0,1,1.264.634c10.52,31.7,21.821,40.521,37.462,52.726,4.359,3.4,8.865,6.917,13.848,11.28,13.583,11.894,18.32,19.018,18.515,19.315a1,1,0,0,1-.287,1.383A.992.992,0,0,1-1135.46,3546.45Z" transform="translate(1206.399 -3460.894)" fill="#fff"/>
        </g>
        <g id="Grupo_28365" data-name="Grupo 28365" transform="translate(65.53 155.163)">
          <path id="Trazado_22492" data-name="Trazado 22492" d="M-1103.8,3741.177a115.481,115.481,0,0,1-29.268-4.6c-15.47-4.379-37.838-13.936-56.546-34.6a1,1,0,0,1,.07-1.413,1,1,0,0,1,1.413.07c35.2,38.871,83.988,38.539,84.465,38.54a1.024,1.024,0,0,1,1.016.984,1,1,0,0,1-.984,1.016Z" transform="translate(1189.873 -3700.307)" fill="#fff"/>
        </g>
        <path id="Trazado_22493" data-name="Trazado 22493" d="M-910.737,3585.6c-3.734-145.89-10.86-188.556,34.7-244.556s45.358-66.666,45.358-66.666,11.758,70-8.685,104-63.471,34.666-63.471,34.666a168.616,168.616,0,0,0-7.9,62c2.266,33.995,2.948,62.985,2.932,65.749-.067,11.8,2,49.03,2,49.03h-7.723Z" transform="translate(1079.729 -3274.381)" fill="#798fe8"/>
      </g>
      <path id="Rectángulo_4443" data-name="Rectángulo 4443" d="M0,0H49.351a0,0,0,0,1,0,0V9.536A24.675,24.675,0,0,1,24.675,34.212h0A24.675,24.675,0,0,1,0,9.536V0A0,0,0,0,1,0,0Z" transform="translate(139.986 285.386)" fill="#fd949b"/>
      <path id="Trazado_22494" data-name="Trazado 22494" d="M-985.49,4057.772v16.552a17.632,17.632,0,0,0,7.341,14.328,17.721,17.721,0,0,0,4.1.482h14.031a17.66,17.66,0,0,0,17.66-17.659v-13.7Z" transform="translate(1125.476 -3772.386)" fill="#ffb0b5"/>
      <rect id="Rectángulo_4444" data-name="Rectángulo 4444" width="49.186" height="5.489" transform="translate(140.151 289.389)" fill="#fd949b"/>
    </g>
    <g id="Grupo_28368" data-name="Grupo 28368" transform="translate(-1242.799 2881.949)">
      <circle id="Elipse_1044" data-name="Elipse 1044" cx="39.62" cy="39.62" r="39.62" transform="translate(167.173 0)" fill="#b0c6f5"/>
      <circle id="Elipse_1045" data-name="Elipse 1045" cx="39.62" cy="39.62" r="39.62" transform="translate(0 52.625)" fill="#b0c6f5"/>
      <ellipse id="Elipse_1046" data-name="Elipse 1046" cx="10.535" cy="13.536" rx="10.535" ry="13.536" transform="translate(196.258 9.893)" fill="#fff"/>
      <path id="Trazado_22495" data-name="Trazado 22495" d="M-470.016,3061.224c0,7.239-9.863,12.379-22.03,12.379s-22.03-5.406-22.03-12.379c0-13.006,9.863-23.55,22.03-23.55S-470.016,3048.218-470.016,3061.224Z" transform="translate(698.839 -2999.647)" fill="#fff"/>
      <circle id="Elipse_1047" data-name="Elipse 1047" cx="8.113" cy="8.113" r="8.113" transform="translate(134.894 52.27) rotate(-7.477)" fill="#b0c6f5"/>
      <circle id="Elipse_1048" data-name="Elipse 1048" cx="8.113" cy="8.113" r="8.113" transform="translate(110.067 53.248) rotate(-13.413)" fill="#b0c6f5"/>
      <circle id="Elipse_1049" data-name="Elipse 1049" cx="8.113" cy="8.113" r="8.113" transform="translate(87.17 52.203) rotate(-7.056)" fill="#b0c6f5"/>
      <path id="Trazado_22496" data-name="Trazado 22496" d="M-955.06,3135.822a3.755,3.755,0,0,0,3.176-.265l5.053-3.071c1.954-1.188,2.344-4.149.866-6.581l-3.821-6.287a5.468,5.468,0,0,0-4.245-2.753c.279-.488-6.442,2.616-7.628,4.016a4.633,4.633,0,0,0-.985,1.662c-3.561,7-2.453,17.873,3.531,27.718,5.885,9.682,14.825,15.635,22.587,15.889a6.465,6.465,0,0,0,3.317-.334c1.585-.507,6.715-4.72,6.191-4.694a5.5,5.5,0,0,0-.534-4.927l-3.822-6.286c-1.478-2.432-4.286-3.45-6.24-2.262l-5.053,3.072a3.747,3.747,0,0,0-1.691,2.659,39.86,39.86,0,0,1-6.5-8.132A39.877,39.877,0,0,1-955.06,3135.822Z" transform="translate(985.284 -3049.957)" fill="#fff"/>
    </g>
    <g id="Grupo_28376" data-name="Grupo 28376" transform="translate(-902.7 2863.53)">
      <rect id="Rectángulo_4445" data-name="Rectángulo 4445" width="159.21" height="66.156" rx="21.509" transform="translate(74.239 102.95)" fill="#b0c6f5"/>
      <path id="Trazado_22497" data-name="Trazado 22497" d="M148.789,3331.967l-22.666,38.865,65.2-38.865Z" transform="translate(-48.237 -3168.311)" fill="#b0c6f5"/>
      <rect id="Rectángulo_4446" data-name="Rectángulo 4446" width="131.987" height="66.156" rx="19.584" transform="translate(0 0)" fill="#b0c6f5"/>
      <path id="Trazado_22498" data-name="Trazado 22498" d="M-10.643,3049.146l50.807,29.244-12.877-29.244Z" transform="translate(38.706 -2988.52)" fill="#b0c6f5"/>
      <path id="Trazado_22499" data-name="Trazado 22499" d="M222.1,3204.721h-57.67a1.338,1.338,0,0,1,0-2.676H222.1a1.338,1.338,0,0,1,0,2.676Z" transform="translate(-71.741 -3085.719)" fill="#fff"/>
      <path id="Trazado_22500" data-name="Trazado 22500" d="M222.1,3225.095h-57.67a1.338,1.338,0,1,1,0-2.675H222.1a1.338,1.338,0,1,1,0,2.675Z" transform="translate(-71.741 -3098.671)" fill="#fff"/>
      <rect id="Rectángulo_4447" data-name="Rectángulo 4447" width="44.887" height="2.675" rx="1.338" transform="translate(91.356 131.023)" fill="#fff"/>
      <path id="Trazado_22501" data-name="Trazado 22501" d="M133.048,2963.208H75.379a1.338,1.338,0,0,1,0-2.676h57.67a1.338,1.338,0,0,1,0,2.676Z" transform="translate(-15.128 -2932.188)" fill="#fff"/>
      <path id="Trazado_22502" data-name="Trazado 22502" d="M133.048,2983.583H75.379a1.337,1.337,0,1,1,0-2.675h57.67a1.337,1.337,0,1,1,0,2.675Z" transform="translate(-15.128 -2945.141)" fill="#fff"/>
      <rect id="Rectángulo_4448" data-name="Rectángulo 4448" width="44.887" height="2.675" rx="1.338" transform="translate(58.913 43.041)" fill="#fff"/>
      <rect id="Rectángulo_4449" data-name="Rectángulo 4449" width="44.887" height="2.675" rx="1.338" transform="translate(74.239 19.854)" fill="#fff"/>
      <g id="Grupo_28375" data-name="Grupo 28375" transform="translate(159.601 108.67)">
        <path id="Trazado_22503" data-name="Trazado 22503" d="M430.688,3198.616l3.471-1.534a17.186,17.186,0,0,0-.61-3.552l-3.784-.282a13.756,13.756,0,0,0-.714-1.551l2.238-3.063a17.334,17.334,0,0,0-2.31-2.766l-3.417,1.647a13.814,13.814,0,0,0-1.392-.985l.407-3.774a17.119,17.119,0,0,0-3.38-1.246l-2.137,3.137a13.854,13.854,0,0,0-1.7-.149l-1.534-3.471a17.145,17.145,0,0,0-3.552.61l-.282,3.783a13.786,13.786,0,0,0-1.551.714l-3.063-2.238a17.331,17.331,0,0,0-2.766,2.31l1.647,3.417a13.767,13.767,0,0,0-.985,1.392l-3.774-.407a17.108,17.108,0,0,0-1.246,3.38l3.137,2.136a13.786,13.786,0,0,0-.149,1.7l-3.471,1.534a17.16,17.16,0,0,0,.61,3.552l3.784.282a13.731,13.731,0,0,0,.714,1.551l-2.238,3.063a17.325,17.325,0,0,0,2.31,2.766l3.417-1.647a13.777,13.777,0,0,0,1.392.985l-.407,3.774a17.128,17.128,0,0,0,3.38,1.246l2.137-3.137a13.812,13.812,0,0,0,1.7.149l1.534,3.471a17.177,17.177,0,0,0,3.552-.609l.282-3.784a13.572,13.572,0,0,0,1.551-.714l3.063,2.238a17.317,17.317,0,0,0,2.766-2.31l-1.647-3.417a13.719,13.719,0,0,0,.985-1.392l3.774.407a17.105,17.105,0,0,0,1.246-3.379l-3.137-2.136A13.81,13.81,0,0,0,430.688,3198.616Zm-13.722,6.54a6.936,6.936,0,1,1,6.936-6.937A6.937,6.937,0,0,1,416.966,3205.157Z" transform="translate(-381.798 -3181.027)" fill="#fff"/>
        <path id="Trazado_22504" data-name="Trazado 22504" d="M374.32,3272.62l2.683-1.186a13.27,13.27,0,0,0-.471-2.745l-2.924-.218a10.627,10.627,0,0,0-.552-1.2l1.729-2.366a13.4,13.4,0,0,0-1.785-2.138l-2.64,1.273a10.571,10.571,0,0,0-1.076-.762l.315-2.916a13.192,13.192,0,0,0-2.612-.963l-1.651,2.424a10.662,10.662,0,0,0-1.313-.115l-1.185-2.683a13.256,13.256,0,0,0-2.745.471l-.218,2.924a10.56,10.56,0,0,0-1.2.552l-2.366-1.729a13.379,13.379,0,0,0-2.137,1.785l1.273,2.64a10.629,10.629,0,0,0-.761,1.076l-2.916-.315a13.238,13.238,0,0,0-.962,2.612l2.424,1.651a10.666,10.666,0,0,0-.115,1.313l-2.683,1.186a13.267,13.267,0,0,0,.471,2.745l2.924.218a10.57,10.57,0,0,0,.552,1.2l-1.729,2.367a13.377,13.377,0,0,0,1.785,2.137l2.64-1.273a10.74,10.74,0,0,0,1.076.762l-.315,2.916a13.21,13.21,0,0,0,2.612.962l1.651-2.424a10.751,10.751,0,0,0,1.313.115l1.185,2.683a13.287,13.287,0,0,0,2.745-.471l.218-2.924a10.527,10.527,0,0,0,1.2-.551l2.367,1.729a13.372,13.372,0,0,0,2.137-1.785l-1.273-2.641a10.606,10.606,0,0,0,.761-1.075l2.916.314a13.227,13.227,0,0,0,.963-2.612l-2.424-1.651A10.67,10.67,0,0,0,374.32,3272.62Zm-10.6,5.053a5.36,5.36,0,1,1,5.359-5.36A5.36,5.36,0,0,1,363.717,3277.673Z" transform="translate(-350.431 -3230.612)" fill="#fff"/>
        <g id="Grupo_28369" data-name="Grupo 28369" transform="translate(42.724 8.304)">
          <path id="Trazado_22505" data-name="Trazado 22505" d="M470.949,3217.709a.668.668,0,0,1-.618-.915,10.976,10.976,0,0,0-2.426-11.834.667.667,0,1,1,.943-.942,12.308,12.308,0,0,1,2.72,13.274A.667.667,0,0,1,470.949,3217.709Z" transform="translate(-467.71 -3203.822)" fill="#bcd2ff"/>
        </g>
        <g id="Grupo_28370" data-name="Grupo 28370" transform="translate(36.444 5.059)">
          <path id="Trazado_22506" data-name="Trazado 22506" d="M454.718,3197.48a.668.668,0,0,1-.317-.08,10.846,10.846,0,0,0-3.374-1.16.667.667,0,0,1,.221-1.316,12.219,12.219,0,0,1,3.788,1.3.667.667,0,0,1-.318,1.253Z" transform="translate(-450.471 -3194.915)" fill="#bcd2ff"/>
        </g>
        <g id="Grupo_28371" data-name="Grupo 28371" transform="translate(37.556 24.789)">
          <path id="Trazado_22507" data-name="Trazado 22507" d="M454.189,3253.368a.667.667,0,0,1-.174-1.311,10.978,10.978,0,0,0,4.835-2.792.667.667,0,0,1,.938.947,12.31,12.31,0,0,1-5.424,3.131A.678.678,0,0,1,454.189,3253.368Z" transform="translate(-453.522 -3249.072)" fill="#bcd2ff"/>
        </g>
        <g id="Grupo_28372" data-name="Grupo 28372" transform="translate(7.255 47.177)">
          <path id="Trazado_22508" data-name="Trazado 22508" d="M376.376,3313.876a8.816,8.816,0,0,1-5.8-2.177.667.667,0,1,1,.878-1,7.482,7.482,0,0,0,4.926,1.848c.23,0,.458-.011.683-.031a.667.667,0,1,1,.119,1.328Q376.782,3313.875,376.376,3313.876Z" transform="translate(-370.345 -3310.53)" fill="#bcd2ff"/>
        </g>
        <g id="Grupo_28373" data-name="Grupo 28373" transform="translate(10.924 32.879)">
          <path id="Trazado_22509" data-name="Trazado 22509" d="M386.376,3273.448a.658.658,0,0,1-.294-.069,7.537,7.537,0,0,0-4.859-.6.667.667,0,1,1-.276-1.3,8.876,8.876,0,0,1,1.833-.19,8.735,8.735,0,0,1,3.891.9.667.667,0,0,1-.3,1.265Z" transform="translate(-380.418 -3271.281)" fill="#bcd2ff"/>
        </g>
        <g id="Grupo_28374" data-name="Grupo 28374" transform="translate(4.464 36.035)">
          <path id="Trazado_22510" data-name="Trazado 22510" d="M363.97,3289.4a.667.667,0,0,1-.616-.411,8.834,8.834,0,0,1,1.182-8.785.667.667,0,0,1,1.053.819,7.5,7.5,0,0,0-1,7.455.667.667,0,0,1-.616.922Z" transform="translate(-362.685 -3279.943)" fill="#bcd2ff"/>
        </g>
      </g>
      <path id="Trazado_22511" data-name="Trazado 22511" d="M-42.231,2905.835l5.054,18.728,13.377-4.617,8.918,28.7-11.846-18.146-15.5,8.04-7.134-24.079Z" transform="translate(63.322 -2897.417)" fill="#fff"/>
    </g>
    <g id="Grupo_28377" data-name="Grupo 28377" transform="translate(-587.059 2865.757)">
      <rect id="Rectángulo_4450" data-name="Rectángulo 4450" width="17.377" height="17.377" rx="8.689" transform="translate(0 0)" fill="#b0c6f5"/>
      <rect id="Rectángulo_4451" data-name="Rectángulo 4451" width="17.377" height="17.377" rx="8.689" transform="translate(0 34.792)" fill="#b0c6f5"/>
    </g>
    <g id="Grupo_28378" data-name="Grupo 28378" transform="translate(-1105.37 3115.286)">
      <path id="Trazado_22512" data-name="Trazado 22512" d="M-641.567,3649.83a2.452,2.452,0,0,1-2.444-2.445v-42.9a2.451,2.451,0,0,1,2.444-2.444,2.451,2.451,0,0,1,2.444,2.444v42.9A2.452,2.452,0,0,1-641.567,3649.83Z" transform="translate(644.011 -3591.756)" fill="#fff"/>
      <path id="Trazado_22513" data-name="Trazado 22513" d="M-389.02,3649.83a2.452,2.452,0,0,1-2.444-2.445v-42.9a2.451,2.451,0,0,1,2.444-2.444,2.451,2.451,0,0,1,2.444,2.444v42.9A2.452,2.452,0,0,1-389.02,3649.83Z" transform="translate(483.466 -3591.756)" fill="#fff"/>
      <path id="Trazado_22514" data-name="Trazado 22514" d="M-613.506,3642.165a2.452,2.452,0,0,1-2.445-2.445v-63.472a2.452,2.452,0,0,1,2.445-2.444,2.452,2.452,0,0,1,2.444,2.444v63.472A2.452,2.452,0,0,1-613.506,3642.165Z" transform="translate(626.173 -3573.804)" fill="#fff"/>
      <path id="Trazado_22515" data-name="Trazado 22515" d="M-585.445,3649.83a2.452,2.452,0,0,1-2.445-2.445v-42.9a2.451,2.451,0,0,1,2.445-2.444,2.452,2.452,0,0,1,2.444,2.444v42.9A2.452,2.452,0,0,1-585.445,3649.83Z" transform="translate(608.335 -3591.756)" fill="#fff"/>
      <path id="Trazado_22516" data-name="Trazado 22516" d="M-557.385,3657.562a2.452,2.452,0,0,1-2.444-2.444v-22.14a2.452,2.452,0,0,1,2.444-2.444,2.452,2.452,0,0,1,2.445,2.444v22.14A2.452,2.452,0,0,1-557.385,3657.562Z" transform="translate(590.496 -3609.867)" fill="#fff"/>
      <path id="Trazado_22517" data-name="Trazado 22517" d="M-529.324,3655.244a2.451,2.451,0,0,1-2.444-2.444v-28.361a2.452,2.452,0,0,1,2.444-2.445,2.452,2.452,0,0,1,2.445,2.445V3652.8A2.452,2.452,0,0,1-529.324,3655.244Z" transform="translate(572.658 -3604.438)" fill="#fff"/>
      <path id="Trazado_22518" data-name="Trazado 22518" d="M-417.081,3655.244a2.452,2.452,0,0,1-2.444-2.444v-28.361a2.452,2.452,0,0,1,2.444-2.445,2.452,2.452,0,0,1,2.445,2.445V3652.8A2.452,2.452,0,0,1-417.081,3655.244Z" transform="translate(501.304 -3604.438)" fill="#fff"/>
      <path id="Trazado_22519" data-name="Trazado 22519" d="M-501.263,3649.83a2.452,2.452,0,0,1-2.444-2.445v-42.9a2.451,2.451,0,0,1,2.444-2.444,2.451,2.451,0,0,1,2.444,2.444v42.9A2.452,2.452,0,0,1-501.263,3649.83Z" transform="translate(554.819 -3591.756)" fill="#fff"/>
      <path id="Trazado_22520" data-name="Trazado 22520" d="M-473.2,3644.483a2.452,2.452,0,0,1-2.445-2.445v-57.25a2.452,2.452,0,0,1,2.445-2.444,2.452,2.452,0,0,1,2.444,2.444v57.25A2.452,2.452,0,0,1-473.2,3644.483Z" transform="translate(536.981 -3579.233)" fill="#fff"/>
      <path id="Trazado_22521" data-name="Trazado 22521" d="M-445.142,3651.768a2.451,2.451,0,0,1-2.444-2.444v-37.694a2.452,2.452,0,0,1,2.444-2.445,2.452,2.452,0,0,1,2.445,2.445v37.694A2.451,2.451,0,0,1-445.142,3651.768Z" transform="translate(519.143 -3596.295)" fill="#fff"/>
    </g>
    <g id="Grupo_28380" data-name="Grupo 28380" transform="translate(-618.667 3023.078)">
      <circle id="Elipse_1050" data-name="Elipse 1050" cx="42.973" cy="42.973" r="42.973" transform="translate(0 0)" fill="#b0c6f5"/>
      <g id="Grupo_28379" data-name="Grupo 28379" transform="translate(13.625 13.625)">
        <path id="Trazado_22522" data-name="Trazado 22522" d="M758.752,3416.788A29.348,29.348,0,1,1,788.1,3387.44,29.381,29.381,0,0,1,758.752,3416.788Zm0-55.363a26.015,26.015,0,1,0,26.015,26.015A26.045,26.045,0,0,0,758.752,3361.425Z" transform="translate(-729.404 -3358.092)" fill="#fff"/>
      </g>
      <path id="Trazado_22523" data-name="Trazado 22523" d="M808.093,3409.964a3.1,3.1,0,0,1,0,5.37l-10.217,5.9-10.217,5.9a3.1,3.1,0,0,1-4.65-2.685v-23.594a3.1,3.1,0,0,1,4.65-2.685l10.217,5.9Z" transform="translate(-749.856 -3369.676)" fill="#fff"/>
    </g>
    <g id="Grupo_28383" data-name="Grupo 28383" transform="translate(-636.467 3104.166)">
      <circle id="Elipse_1051" data-name="Elipse 1051" cx="42.973" cy="42.973" r="42.973" transform="translate(0 60.773) rotate(-45)" fill="#b0c6f5"/>
      <g id="Grupo_28381" data-name="Grupo 28381" transform="translate(52.118 45.871)">
        <path id="Trazado_22524" data-name="Trazado 22524" d="M789.2,3699a3,3,0,0,1-2.989-2.989v-23.826a2.989,2.989,0,1,1,5.978,0v23.826A3,3,0,0,1,789.2,3699Z" transform="translate(-786.206 -3669.197)" fill="#fff"/>
        <path id="Trazado_22525" data-name="Trazado 22525" d="M820.3,3699a3,3,0,0,1-2.989-2.989v-23.826a2.989,2.989,0,1,1,5.978,0v23.826A3,3,0,0,1,820.3,3699Z" transform="translate(-805.983 -3669.197)" fill="#fff"/>
      </g>
      <g id="Grupo_28382" data-name="Grupo 28382" transform="translate(31.425 31.425)">
        <path id="Trazado_22526" data-name="Trazado 22526" d="M758.752,3688.238a29.348,29.348,0,1,1,29.348-29.348A29.381,29.381,0,0,1,758.752,3688.238Zm0-55.363a26.015,26.015,0,1,0,26.015,26.015A26.045,26.045,0,0,0,758.752,3632.874Z" transform="translate(-729.404 -3629.541)" fill="#fff"/>
      </g>
    </g>
    <g id="Grupo_28384" data-name="Grupo 28384" transform="translate(-1316.759 2881.949)">
      <path id="Trazado_22527" data-name="Trazado 22527" d="M-1164.3,2943.213h-55.016a4.977,4.977,0,0,1-4.962-4.962,4.977,4.977,0,0,1,4.962-4.963h55.016a4.977,4.977,0,0,1,4.963,4.962A4.977,4.977,0,0,1-1164.3,2943.213Z" transform="translate(1224.279 -2933.288)" fill="#b0c6f5"/>
      <path id="Trazado_22528" data-name="Trazado 22528" d="M-1196.771,2993.9h-22.545a4.977,4.977,0,0,1-4.962-4.962,4.977,4.977,0,0,1,4.962-4.963h22.545a4.977,4.977,0,0,1,4.963,4.962A4.977,4.977,0,0,1-1196.771,2993.9Z" transform="translate(1224.279 -2965.513)" fill="#b0c6f5"/>
    </g>
  </g>
</svg>
