<svg xmlns="http://www.w3.org/2000/svg" xmlns:xlink="http://www.w3.org/1999/xlink" width="835.216" height="585.59" viewBox="0 0 835.216 585.59">
  <defs>
    <linearGradient id="linear-gradient" x1="-0.098" y1="0.43" x2="0.855" y2="0.214" gradientUnits="objectBoundingBox">
      <stop offset="0" stop-color="#878af1"/>
      <stop offset="0.232" stop-color="#8680ef"/>
      <stop offset="0.619" stop-color="#8566ea"/>
      <stop offset="0.964" stop-color="#854ae5"/>
    </linearGradient>
    <linearGradient id="linear-gradient-2" x1="0.249" y1="0.428" x2="1.114" y2="0.888" xlink:href="#linear-gradient"/>
    <linearGradient id="linear-gradient-3" x1="-8.855" y1="-15.076" x2="-9.157" y2="-16.905" xlink:href="#linear-gradient"/>
    <linearGradient id="linear-gradient-4" x1="-22.349" y1="3.088" x2="-23.378" y2="3.064" xlink:href="#linear-gradient"/>
    <linearGradient id="linear-gradient-5" x1="0.247" y1="0.801" x2="0.848" y2="0.026" gradientUnits="objectBoundingBox">
      <stop offset="0" stop-color="#edb79a"/>
      <stop offset="0.055" stop-color="#f1bca0"/>
      <stop offset="0.204" stop-color="#f9c7ac"/>
      <stop offset="0.415" stop-color="#fdcdb3"/>
      <stop offset="1" stop-color="#ffcfb5"/>
    </linearGradient>
    <linearGradient id="linear-gradient-6" x1="-11.539" y1="-2.073" x2="-11.238" y2="-2.457" xlink:href="#linear-gradient-5"/>
    <linearGradient id="linear-gradient-7" x1="-11.877" y1="-1.869" x2="-11.574" y2="-2.252" xlink:href="#linear-gradient-5"/>
    <linearGradient id="linear-gradient-8" x1="-5.346" y1="-0.933" x2="-5.123" y2="-1.397" xlink:href="#linear-gradient-5"/>
    <linearGradient id="linear-gradient-9" y1="0.5" x2="1" y2="0.5" gradientUnits="objectBoundingBox">
      <stop offset="0.12" stop-color="#bfccd9"/>
      <stop offset="0.83" stop-color="#e6edf7"/>
    </linearGradient>
    <linearGradient id="linear-gradient-10" y1="0.5" x2="1" y2="0.5" gradientUnits="objectBoundingBox">
      <stop offset="0.02" stop-color="#94f7db"/>
      <stop offset="0.113" stop-color="#93efdc"/>
      <stop offset="0.257" stop-color="#90d9e0"/>
      <stop offset="0.433" stop-color="#8cb6e8"/>
      <stop offset="0.617" stop-color="#878af1"/>
      <stop offset="0.701" stop-color="#8680ef"/>
      <stop offset="0.84" stop-color="#8566ea"/>
      <stop offset="0.964" stop-color="#854ae5"/>
    </linearGradient>
    <linearGradient id="linear-gradient-11" y1="0.5" x2="0.299" y2="0.5" gradientUnits="objectBoundingBox">
      <stop offset="0.609" stop-color="#bfccd9"/>
      <stop offset="0.834" stop-color="#d5dfea"/>
      <stop offset="0.971" stop-color="#e6edf7"/>
    </linearGradient>
    <linearGradient id="linear-gradient-12" x1="0.259" y1="0.058" x2="0.817" y2="0.964" gradientUnits="objectBoundingBox">
      <stop offset="0.399" stop-color="#f2e6df"/>
      <stop offset="0.869" stop-color="#f2d8c9"/>
    </linearGradient>
    <linearGradient id="linear-gradient-13" x1="0.779" y1="-0.105" x2="0.273" y2="0.774" gradientUnits="objectBoundingBox">
      <stop offset="0.325" stop-color="#f7f9fc"/>
      <stop offset="0.494" stop-color="#edf1f5"/>
      <stop offset="0.776" stop-color="#d3dce5"/>
      <stop offset="0.96" stop-color="#bfccd9"/>
    </linearGradient>
    <linearGradient id="linear-gradient-14" x1="0.43" y1="0.713" x2="0.744" y2="-0.513" gradientUnits="objectBoundingBox">
      <stop offset="0.02" stop-color="#784df1"/>
      <stop offset="0.054" stop-color="#7450f2"/>
      <stop offset="0.337" stop-color="#5a6afb"/>
      <stop offset="0.506" stop-color="#5174ff"/>
    </linearGradient>
    <linearGradient id="linear-gradient-15" x1="0.247" y1="0.717" x2="0.714" y2="0.017" gradientUnits="objectBoundingBox">
      <stop offset="0.267" stop-color="#7275cc"/>
      <stop offset="0.294" stop-color="#878ad5"/>
      <stop offset="0.35" stop-color="#bec0ed"/>
      <stop offset="0.359" stop-color="#c8c9f1"/>
    </linearGradient>
    <linearGradient id="linear-gradient-16" y1="0.5" x2="1" y2="0.5" gradientUnits="objectBoundingBox">
      <stop offset="0.414" stop-color="#bfccd9"/>
      <stop offset="0.643" stop-color="#d5dfea"/>
      <stop offset="0.783" stop-color="#e6edf7"/>
    </linearGradient>
    <radialGradient id="radial-gradient" cx="0.5" cy="0.5" r="0.707" gradientTransform="matrix(0.408, -0.707, 0.408, 0.707, -18.226, -6.208)" gradientUnits="objectBoundingBox">
      <stop offset="0.045" stop-color="#e6edf7"/>
      <stop offset="0.183" stop-color="#abb1b8"/>
      <stop offset="0.342" stop-color="#6f7277"/>
      <stop offset="0.487" stop-color="#3f4144"/>
      <stop offset="0.612" stop-color="#1c1d1f"/>
      <stop offset="0.713" stop-color="#070708"/>
      <stop offset="0.777"/>
    </radialGradient>
  </defs>
  <g id="Grupo_28479" data-name="Grupo 28479" transform="translate(-3234.596 -490.77)">
    <g id="shape" transform="translate(3234.596 494.578)">
      <path id="Trazado_22813" data-name="Trazado 22813" d="M4069.785,1004c1.493,70.532-58.643,129.3-134.319,131.26a143.2,143.2,0,0,1-74.808-18.512c-100.009-55.77-170.27-46.6-291.146-2.487-35.283,12.875-141.693,52.048-211.615,44.095-37.488-4.264-111.22-31.152-122.006-96.588-7.62-46.226,20.707-116.375,24.654-127.914,27.839-81.381,5.313-133.564-16.025-201.985-11.91-38.187,1.873-86.767,44.583-106.051,33.078-14.935,73.244-1.659,99.234,20.143,29.771,24.974,65.983,40.629,70.784,42.16C3549.76,715.7,3642.96,691.5,3719.894,638c26.037-18.106,57.069-29.649,80.8-27.185,50.006,5.192,71.924,27.375,82.225,104.136,10.563,78.726,44.456,141.466,117.856,181.158C4041.194,917.385,4068.8,957.431,4069.785,1004Z" transform="translate(-3234.596 -577.626)" opacity="0.19" fill="url(#linear-gradient)"/>
      <path id="Trazado_22814" data-name="Trazado 22814" d="M5566.144,1102.3c-33.558,11.778-84.733-19.847-107.858-68s-20.055-91.68,3.831-87.624c29.722,5.047-10.733,52.236,59.923,63.055C5584.84,1019.35,5608.771,1087.337,5566.144,1102.3Z" transform="translate(-4766.255 -810.671)" opacity="0.4" fill="url(#linear-gradient-2)"/>
      <path id="Trazado_22815" data-name="Trazado 22815" d="M4598.058,2204.177c13.083-17.717,40.389-29.363,99.354-21.413,10.33,1.393,47.415,10.066,31.264,28.124-10.29,11.505-26.812,15.831-57.927,22.052C4648.394,2237.409,4571.221,2240.518,4598.058,2204.177Z" transform="translate(-4176.578 -1666.588)" opacity="0.4" fill="url(#linear-gradient-3)"/>
      <path id="Trazado_22816" data-name="Trazado 22816" d="M3698.508,551.1c7.52,7.7,23.044,19.029,37.967,20.271,22.91,1.907,36.283-20.736,24.96-26.8-27.881-14.928,1.241-33.743-24.844-40.461S3677.411,529.51,3698.508,551.1Z" transform="translate(-3551.769 -503.204)" opacity="0.4" fill="url(#linear-gradient-4)"/>
    </g>
    <ellipse id="circle" cx="285.05" cy="164.578" rx="285.05" ry="164.578" transform="translate(3292.463 661.119)" fill="#878af1" opacity="0.43"/>
    <g id="hand_with_smart" data-name="hand with smart" transform="translate(3359.805 659.762)">
      <path id="Trazado_22817" data-name="Trazado 22817" d="M4084.275,1305.48a38.049,38.049,0,0,0-17.195-2.625l-8.076-3.932-.015.031c-7.161-4.012-16.594-3.427-26.735,2.5a59.21,59.21,0,0,1-14.91-12.591,72,72,0,0,0-12.6-11.8l.049-13.32c0,.006,0,.012,0,.018.016-1.743-1.13-3.491-3.436-4.821l-18.652-10.769-39.415-22.756-103.255-59.611-38.144-22.024-19.669-11.357c-4.563-2.634-11.932-2.634-16.465,0l-3.133,1.819s-11.725,6.815-11.728,6.815-99.871,55.834-102.263,57.767c-15.02,12.144,6.913,22.836,9.209,24.162l101.73,58.732a14.715,14.715,0,0,0-2.772,4.475,15.75,15.75,0,0,0-.839,4.594c.11,2.815,4.3,6.962,8.931,10.591,2.934,2.3,6.588,4.873,10.058,9.58,6.646,9.023,10.854,17.7,16.606,20.738,17.979,9.485,40.03,34.836,50.977,39.069a71.084,71.084,0,0,0,7.268,2.334c8.466,2.64,22.432,6.735,31.323,7.975,40.11,5.6,90.569-3.415,115.935,11.568,3,6.432,7.654,10.671,13.363,12.435l5.151,2.441a50.29,50.29,0,0,0,3.234,6.689l151.4,74.722a145.245,145.245,0,0,0,48.86,7.038,148.472,148.472,0,0,0,18.977-1.712c42.291-6.582,78-31.093,98.033-64.664Z" transform="translate(-3643.406 -1103.522)" fill="#bfccd9" style="mix-blend-mode: multiply;isolation: isolate"/>
      <g id="Grupo_28441" data-name="Grupo 28441" transform="translate(127.919 24.293)">
        <path id="Trazado_22818" data-name="Trazado 22818" d="M4551.98,1332.351c-1.534-2.279-2.894-4.879-7.28-12.839a118.027,118.027,0,0,1-8.759-20.294c-.705-2.325-5.231-9.452-6.138-11.271-3.826-7.687-6.358-16.435-8.2-19.531-1.544-2.6-5.348-7.271-7.6-12.53-1.746-4.077-3.268-7.85-4.7-11.268-.65-1.544-1.281-3.014-1.908-4.407q-.358-.809-.72-1.581c-4.453-9.54,9.991-19.592,22.5-6.521,2.187,2.282,5.289,7.133,8.867,13.05,2.294,3.792,4.875,8.873,8.747,14.631,1.075,1.6,2.254,3.256,3.553,4.949,1.51,1.969,2.894,3.917,4.239,5.945,2.165,3.262,4.223,6.726,6.517,10.787,3.776,6.7,7.547,15.259,11.5,22.717,3.9,7.351,6.462,10.561,8.732,15.828C4586.786,1332.679,4564.921,1351.616,4551.98,1332.351Z" transform="translate(-4369.624 -1194.009)" fill="url(#linear-gradient-5)"/>
        <path id="Trazado_22819" data-name="Trazado 22819" d="M4458.073,1258.283c3.9,7.351,3.507,10.175,5.776,15.442,5.456,12.661-16.409,31.6-29.351,12.334-1.532-2.281-2.893-4.88-7.281-12.841a117.939,117.939,0,0,1-8.758-20.294c-.7-2.325-5.231-9.45-6.137-11.27-3.828-7.687-6.36-16.435-8.2-19.531-1.544-2.6-5.349-7.272-7.6-12.531-2.837-6.627-5.491-13.294-7.8-18.07-6.706-13.878,12.6-19.1,22.062-9.652,2.237,2.234,7.476,10.453,11.054,16.373,2.93,4.848,5.056,12.429,11.018,20.2a136.043,136.043,0,0,1,10.755,16.734C4447.395,1241.875,4454.118,1250.825,4458.073,1258.283Z" transform="translate(-4287.41 -1160.168)" fill="url(#linear-gradient-6)"/>
        <path id="Trazado_22820" data-name="Trazado 22820" d="M4345.307,1201.386c3.9,7.351,3.508,10.175,5.777,15.443,5.455,12.66-16.41,31.6-29.352,12.334-1.532-2.281-2.893-4.88-7.28-12.841a117.98,117.98,0,0,1-8.759-20.294c-.7-2.325-5.231-9.45-6.137-11.27-3.828-7.688-6.359-16.435-8.2-19.531A100.723,100.723,0,0,1,4285,1153.1c-2.837-6.626-6.557-13.022-8.027-18.119-3.526-12.222,11.744-17.748,21.931-8.52,3.974,3.6,6.6,8.964,10.172,14.884,2.931,4.848,5.057,12.429,11.019,20.2a136.112,136.112,0,0,1,10.756,16.734C4334.629,1184.977,4341.353,1193.928,4345.307,1201.386Z" transform="translate(-4210.486 -1121.849)" fill="url(#linear-gradient-7)"/>
        <path id="Trazado_22821" data-name="Trazado 22821" d="M4150.089,1272.977c6.185,5.565,6.789,8.352,10.729,12.519,9.472,10.017-4.559,35.312-23.33,21.664-2.223-1.616-4.393-3.59-11.248-9.56a117.949,117.949,0,0,1-15.2-16.051c-1.46-1.941-8.159-7.079-9.634-8.476-6.235-5.906-11.618-13.252-14.405-15.528-2.344-1.913-7.521-4.993-11.442-9.159-4.94-5.249-9.286-9.921-12.235-14.33-6.554-9.8,1.857-23.948,15.774-16.358a157.1,157.1,0,0,1,16.339,11.335c4.417,3.547,9.017,9.936,17.286,15.19a136.075,136.075,0,0,1,15.849,12.022C4134.425,1261.234,4143.814,1267.332,4150.089,1272.977Z" transform="translate(-4061.065 -1186.848)" fill="url(#linear-gradient-8)"/>
        <path id="Trazado_22822" data-name="Trazado 22822" d="M4471.379,1494.031c-7.087,7.841-12.512,12.361-14.306,10.6-22.187-21.813-78.548-10.407-122.483-16.539-13.262-1.85-37.81-10.049-38.572-10.3a.044.044,0,0,1-.019-.006c-1.044-.606-1.755-4.037-2.141-8.683-1.007-12.171.214-32.7,3.541-32.7,13.819,0,31.485-8.251,32.918-10.012,1.592-1.948,2.671-4.683,4.426-5.945,1.378-.992,2.974-1.534,1.5-4.707-4.793-10.306-11.746-15.819-25.887-26.726-.113-.086-13.653-9.384-13.77-9.467-2.518-1.8-12.012-23.666,27.7-42.943,31.4-15.243,42.364-14.288,48.658-11.268,4.989,2.4,32.493,26.625,49.617,40.508,22.762,18.453,27.127,5.985,48.26,30.033,25.069,28.53,47.326,13.831,56.009,17.666C4530.252,1415.055,4493.045,1470.062,4471.379,1494.031Z" transform="translate(-4222.321 -1261.756)" fill="#ffcfb5"/>
        <path id="Trazado_22823" data-name="Trazado 22823" d="M4709.6,1521.34s8.72,7.46,4.405,12.413-58.186,26.537-58.186,26.537Z" transform="translate(-4473.66 -1398.985)" fill="#ebb394"/>
        <path id="Trazado_22824" data-name="Trazado 22824" d="M4395.462,1215.405l-45.295-26.153-73.712-42.554c1.176-1.584,5.888-.663,17.656,7.7,13.063,9.288,16.858,8.2,17.382,8.489,2.031,5.207,21.77,13.481,26,16.379,11.346,7.77,9.219.869,9.219.869a33.789,33.789,0,0,0,19.425,14.652c7.146,2.248,23.768,12.89,25.066,14.584,1.51,1.969,2.894,3.917,4.239,5.945Z" transform="translate(-4210.486 -1138.643)" fill="#ebb394"/>
      </g>
      <g id="smart" transform="translate(13.468)">
        <path id="Trazado_22825" data-name="Trazado 22825" d="M4034.385,1337.79l-108.037,62.123a17.36,17.36,0,0,1-16.086,0l-219.378-125.937c-2.3-1.325-3.442-3.065-3.437-4.8l-.067,16.065c0,3.2,1.142,5.731,3.438,7.057l219.136,126.519c4.563,2.634,11.932,2.634,16.465,0l107.9-62.7c2.252-1.309,3.452-3.476,3.4-7.791l.056-15.264C4037.764,1334.769,4036.637,1336.481,4034.385,1337.79Z" transform="translate(-3687.38 -1199.758)" fill="url(#linear-gradient-9)"/>
        <path id="Trazado_22826" data-name="Trazado 22826" d="M4034.538,1180.561l-107.9,62.7a17.824,17.824,0,0,1-16.312.049l-17.164-9.868c-.006.006-182.443-105.323-182.443-105.323s-19.681-11.375-19.681-11.375c-4.563-2.634-4.588-6.9-.055-9.537l93.041-54.07s11.727-6.815,11.727-6.815l3.133-1.819c4.533-2.634,11.9-2.634,16.465,0l19.669,11.357,38.144,22.024,103.255,59.611,39.415,22.756,18.653,10.769C4039.046,1173.657,4039.071,1177.927,4034.538,1180.561Z" transform="translate(-3687.531 -1042.531)" fill="#f7f9fc"/>
        <path id="Trazado_22827" data-name="Trazado 22827" d="M3926.933,1248.659a13.464,13.464,0,0,1-6.508-1.511L3701.29,1120.632c-.9-.6-1.241-1.151-1.241-1.795a2.163,2.163,0,0,1,1.195-1.732l104.769-60.885,3.132-1.818a14.73,14.73,0,0,1,12.986,0l219.135,126.516c1.169.675,1.459,1.239,1.459,1.758,0,.569-.39,1.178-1.412,1.769l-107.9,62.7A13.33,13.33,0,0,1,3926.933,1248.659Z" transform="translate(-3696.168 -1049.721)" fill="url(#linear-gradient-10)"/>
        <path id="Trazado_22828" data-name="Trazado 22828" d="M3891.591,1124.39l-54.368,31.391a1.894,1.894,0,0,1-1.9,0l-.948-.547a.762.762,0,0,1,0-1.32l54.5-31.314a1.9,1.9,0,0,1,1.892,0l.813.469A.761.761,0,0,1,3891.591,1124.39Z" transform="translate(-3789.093 -1097.902)" fill="#bfccd9" style="mix-blend-mode: multiply;isolation: isolate"/>
        <path id="Trazado_22829" data-name="Trazado 22829" d="M3893.736,1429.346l-19.728-12.493c-1.771-1.022-4.684-6.152-4.684-6.152s1.135-.4,1.516-.6a2.437,2.437,0,0,1,2.717-.168L3892.9,1421.1a6.234,6.234,0,0,1,2.883,4.145,2.787,2.787,0,0,1-.281,2.163Z" transform="translate(-3813.599 -1297.166)" fill="#f7f9fc"/>
        <path id="Trazado_22830" data-name="Trazado 22830" d="M3889.085,1431.439l-19.342-11.167a7.083,7.083,0,0,1-3.205-5.552v-.075c0-2.044,1.435-2.873,3.206-1.85l19.342,11.167a7.086,7.086,0,0,1,3.206,5.552v.075C3892.291,1431.633,3890.855,1432.462,3889.085,1431.439Z" transform="translate(-3811.666 -1299.088)" fill="#e6edf7"/>
        <path id="Trazado_22831" data-name="Trazado 22831" d="M3809.781,1238.641a1.086,1.086,0,0,1,0,2.057,3.937,3.937,0,0,1-3.563,0,1.086,1.086,0,0,1,0-2.057A3.937,3.937,0,0,1,3809.781,1238.641Z" transform="translate(-3769.309 -1178.281)" fill="#bfccd9" style="mix-blend-mode: multiply;isolation: isolate"/>
        <g id="Grupo_28448" data-name="Grupo 28448" transform="translate(36.202 56.399)" style="mix-blend-mode: multiply;isolation: isolate">
          <g id="Grupo_28442" data-name="Grupo 28442">
            <path id="Trazado_22832" data-name="Trazado 22832" d="M3827.662,1260.782a5.542,5.542,0,0,1-2.722-.661l-18.091-10.445a1.985,1.985,0,0,1,0-3.7l32.281-18.638a5.935,5.935,0,0,1,5.444,0l18.091,10.445a1.985,1.985,0,0,1,0,3.7l-32.281,18.638A5.544,5.544,0,0,1,3827.662,1260.782Zm14.19-33.131a4.593,4.593,0,0,0-2.236.525l-32.282,18.638a1.044,1.044,0,0,0,0,2.022l18.091,10.445a5.027,5.027,0,0,0,4.473,0l32.281-18.638a1.044,1.044,0,0,0,0-2.022l-18.091-10.445A4.6,4.6,0,0,0,3841.852,1227.651Z" transform="translate(-3805.579 -1226.674)" fill="#bfccd9"/>
          </g>
          <g id="Grupo_28447" data-name="Grupo 28447" transform="translate(10.069 5.129)">
            <g id="Grupo_28443" data-name="Grupo 28443" transform="translate(21.869)">
              <path id="Trazado_22833" data-name="Trazado 22833" d="M3923.979,1251.741l-1.983,1.145-5.331-7.4-4.973,2.871-1.835-1.059,6.343-3.662a1.977,1.977,0,0,1,1.169-.2,1.36,1.36,0,0,1,.945.447Z" transform="translate(-3909.858 -1243.42)" fill="#bfccd9"/>
            </g>
            <g id="Grupo_28445" data-name="Grupo 28445" transform="translate(0 11.061)">
              <g id="Grupo_28444" data-name="Grupo 28444" transform="translate(0 3.894)">
                <path id="Trazado_22834" data-name="Trazado 22834" d="M3853.934,1297.725l-5.586,3.225a2.074,2.074,0,0,1-1.88,0l-1.44-.837c-1.147-.667-1.447-1.685-.747-2.533,1.284-1.554,1.49-2.6.63-3.195a2.72,2.72,0,0,0-3.214-.143c-.588.34-.729.706-.456,1.188a2.553,2.553,0,0,0,.676.717l-2.01,1a4.161,4.161,0,0,1-1.19-1.243c-.581-1.026-.189-2,1.1-2.748a6.785,6.785,0,0,1,3.573-.9,6.538,6.538,0,0,1,3.557,1.15,2.233,2.233,0,0,1,1.071,2.483,6.087,6.087,0,0,1-1.344,2.353c-.219.266-.125.584.234.793l.5.292,4.644-2.681Z" transform="translate(-3838.455 -1292.249)" fill="#bfccd9"/>
              </g>
              <path id="Trazado_22835" data-name="Trazado 22835" d="M3871.325,1281.486l-.856.494-4.236-2.446-1.877,1.084,4.236,2.446-2.133,1.231-4.107-3.7-2.248.816,4.992,4.516a1.627,1.627,0,0,0,.976.354,1.982,1.982,0,0,0,1.087-.22l3.309-1.91,3.361,1.941,1.877-1.084-3.361-1.941.856-.494Z" transform="translate(-3853.474 -1279.534)" fill="#bfccd9"/>
            </g>
            <g id="Grupo_28446" data-name="Grupo 28446" transform="translate(15.491 3.481)">
              <path id="Trazado_22836" data-name="Trazado 22836" d="M3903.1,1268.011l-2.308.684-11.755-13.226,2.308-.684Z" transform="translate(-3889.033 -1254.785)" fill="#bfccd9"/>
            </g>
          </g>
        </g>
        <g id="Grupo_28450" data-name="Grupo 28450" transform="translate(195.401 64.906)">
          <path id="Trazado_22837" data-name="Trazado 22837" d="M4458.267,1375.357l-92.162,53.209a7.669,7.669,0,0,1-6.956,0l-32.352-18.8c-1.915-1.112-1.9-2.916.021-4.028l92.033-53.136Z" transform="translate(-4325.368 -1322.54)" fill="#bfccd9" style="mix-blend-mode: multiply;isolation: isolate"/>
          <path id="Trazado_22838" data-name="Trazado 22838" d="M4331.816,1366.963l32.354,18.8a7.666,7.666,0,0,0,6.955,0l101.571-58.642a2.461,2.461,0,0,0,1.452-2.028l.02,5.4a2.46,2.46,0,0,1-1.452,2.028l-101.57,58.642a7.665,7.665,0,0,1-6.955,0l-32.354-18.8a2.439,2.439,0,0,1-1.428-2l-.021-5.4A2.441,2.441,0,0,0,4331.816,1366.963Z" transform="translate(-4328.85 -1303.458)" fill="url(#linear-gradient-11)"/>
          <path id="Trazado_22839" data-name="Trazado 22839" d="M4331.838,1313.927l101.571-58.642a7.663,7.663,0,0,1,6.955,0l32.354,18.8c1.913,1.112,1.9,2.915-.023,4.029l-101.57,58.642a7.667,7.667,0,0,1-6.955,0l-32.354-18.8C4329.9,1316.843,4329.912,1315.039,4331.838,1313.927Z" transform="translate(-4328.85 -1254.451)" fill="#fff"/>
          <g id="Grupo_28449" data-name="Grupo 28449" transform="translate(35.22 15.909)">
            <path id="Trazado_22840" data-name="Trazado 22840" d="M4447.719,1437.733l.958.553-1.878,1.171-.865-.5a2.222,2.222,0,0,0-2.38-.047c-.747.431-.77.883-.07,1.286l5.8,3.351a2.14,2.14,0,0,0,2.228-.041c.747-.431.77-.883-.082-1.374l-1.185-.684,2.03-1.084,1.276.737c1.61.93,1.385,2.148-.607,3.3a5.633,5.633,0,0,1-5.675.329l-5.834-3.368c-1.611-.93-1.4-2.137.569-3.276A5.684,5.684,0,0,1,4447.719,1437.733Z" transform="translate(-4440.363 -1397.081)" fill="#878af1"/>
            <path id="Trazado_22841" data-name="Trazado 22841" d="M4473.927,1422.658l5.561,3.21c1.672.965,1.445,2.271-.585,3.443a6.008,6.008,0,0,1-5.964.338l-5.561-3.211c-1.671-.965-1.444-2.271.586-3.443A6.007,6.007,0,0,1,4473.927,1422.658Zm-4.5,2.618,5.531,3.193a2.364,2.364,0,0,0,2.46-.017c.8-.465.819-.964.029-1.421l-5.53-3.193a2.363,2.363,0,0,0-2.46.017C4468.647,1424.321,4468.632,1424.82,4469.422,1425.277Z" transform="translate(-4458.332 -1386.604)" fill="#878af1"/>
            <path id="Trazado_22842" data-name="Trazado 22842" d="M4506.682,1409.3l-1.992,1.15-9.712-2.533-.039.022,7.05,4.07-1.915,1.106-10.636-6.141,2.26-1.3,8.729,2.276.039-.022-6.335-3.658,1.915-1.106Z" transform="translate(-4474.408 -1373.52)" fill="#878af1"/>
            <path id="Trazado_22843" data-name="Trazado 22843" d="M4527.106,1391.766l.274.158-1.8,1.215-.395-.228a1.881,1.881,0,0,0-1.961.062c-.671.387-.715.781-.108,1.132l.137.079c.624.36,1.5.468,3.771.209,3.1-.353,4.675-.243,5.95.494l.532.307c1.52.877,1.255,2.03-.755,3.191s-4.007,1.314-5.527.436l-.714-.412,1.8-1.215.76.439a2.028,2.028,0,0,0,2.152-.084q1.149-.664.146-1.243l-.349-.2c-.668-.386-1.6-.461-3.874-.2-3.1.354-4.617.209-5.862-.51l-.229-.132c-1.52-.878-1.294-2.008.641-3.124A5.342,5.342,0,0,1,4527.106,1391.766Z" transform="translate(-4495.65 -1365.22)" fill="#878af1"/>
            <path id="Trazado_22844" data-name="Trazado 22844" d="M4554.811,1379.179c1.672.965,1.331,2.161-.622,3.29a5.6,5.6,0,0,1-5.659.337l-8.25-4.763,1.954-1.127,8.2,4.737a2.064,2.064,0,0,0,2.212-.049c.709-.409.861-.83.086-1.277l-8.2-4.737,2.03-1.172Z" transform="translate(-4509.677 -1353.583)" fill="#878af1"/>
            <path id="Trazado_22845" data-name="Trazado 22845" d="M4578.69,1371.952l3.39-1.957,1.52.877-5.42,3.129-10.635-6.14,2.03-1.172Z" transform="translate(-4528.591 -1348.222)" fill="#878af1"/>
            <path id="Trazado_22846" data-name="Trazado 22846" d="M4591.119,1350.344l-2.164,1.249,9.116,5.263-2.03,1.172-9.116-5.263-2.164,1.249-1.519-.877,6.359-3.671Z" transform="translate(-4539.48 -1336.275)" fill="#878af1"/>
            <path id="Trazado_22847" data-name="Trazado 22847" d="M4626.794,1345.207l-2.068,1.194-2.856-1.141-2.24,1.294,1.975,1.649-2.03,1.172-8.318-7.478,2.586-1.493Zm-12.015-2.713,3.659,3.063,1.7-.984-5.306-2.112Z" transform="translate(-4558.916 -1329.989)" fill="#878af1"/>
            <path id="Trazado_22848" data-name="Trazado 22848" d="M4649.26,1326.977l-1.992,1.15-9.712-2.533-.039.022,7.05,4.07-1.916,1.106-10.636-6.14,2.26-1.3,8.729,2.276.038-.022-6.335-3.658,1.916-1.106Z" transform="translate(-4573.318 -1316.413)" fill="#878af1"/>
            <path id="Trazado_22849" data-name="Trazado 22849" d="M4665.723,1307.272l-2.164,1.25,9.116,5.263-2.03,1.172-9.117-5.263-2.164,1.249-1.519-.878,6.358-3.671Z" transform="translate(-4591.236 -1306.395)" fill="#878af1"/>
          </g>
        </g>
      </g>
      <g id="Grupo_28454" data-name="Grupo 28454" transform="translate(115.024 145.356)">
        <path id="Trazado_22850" data-name="Trazado 22850" d="M4208.843,1612.8c-9.908,6.218-73.537,10.8-103.307-.72-10.947-4.233-33-29.583-50.977-39.069-5.752-3.038-9.96-11.715-16.606-20.738-3.47-4.707-7.124-7.283-10.058-9.58-4.634-3.63-8.821-7.776-8.931-10.591a15.744,15.744,0,0,1,.839-4.594c3.118-8.11,15.214-15.3,32.041-6.031,8.447,4.649,19.99,14.292,31.4,24.993l.015.015a13.167,13.167,0,0,0,1.415,1.148c10.487,7.492,42.2,11.813,72.878,7.4,21.492-3.093,44.94,4.505,52.973,11.4C4227,1580.569,4231.376,1598.66,4208.843,1612.8Z" transform="translate(-4018.964 -1517.12)" fill="#ffcfb5"/>
        <path id="Trazado_22851" data-name="Trazado 22851" d="M4280.917,1662.248c-7.087,7.841-12.512,12.361-14.306,10.6-22.187-21.813-78.548-10.407-122.483-16.539-13.262-1.85-37.05-9.6-37.813-9.859-.006,0-3.256-1.166-3.262-1.169-10.729-4.76-30.514-28.865-48.492-38.35-5.752-3.038-9.96-11.715-16.607-20.738-3.47-4.708-7.124-7.283-10.058-9.58-4.634-3.629-8.821-7.776-8.931-10.591-.009-.266,3.077,5.008,5.714,7.072,2.937,2.3,8.365,0,11.835,4.711,6.646,9.023,10.854,17.7,16.606,20.738,17.6,9.286,39.109,33.782,50.275,38.775.239.107.472.205.7.294,29.77,11.519,86.281,10.179,97.556,7.066,10.708-2.957,23.25-13.418,22.676-20.009,1.341,15.391,3.93,28.42,13.209,25.311,14.25-4.775,15.184-43.811,40.915-58.7C4289.573,1584.846,4285.331,1641.222,4280.917,1662.248Z" transform="translate(-4018.965 -1551.036)" fill="#ebb394"/>
        <path id="Trazado_22852" data-name="Trazado 22852" d="M4042.624,1551.38c-.808,3.283-7.016,10.431-10.073,9.8-4.744-3.474-9.359-7.785-9.733-9.671.379-2.227,4.813-7.49,7.73-8.968,1.187-.6,4.827-1.582,6.632-.519,1.3.763,3.579,4.073,4.587,5.313A5.24,5.24,0,0,1,4042.624,1551.38Z" transform="translate(-4021.638 -1534.065)" fill="#ebb394"/>
        <path id="Trazado_22853" data-name="Trazado 22853" d="M4039.061,1548.01c-.609,3.326-7.076,10.906-10.132,10.272-4.953-3.479-9.59-8.536-9.963-10.422.379-2.227,4.416-8,8.431-9.131,1.281-.361,4.269-.57,6.073.492,1.3.763,3.612,4.148,4.474,5.493C4039.082,1546.492,4039.165,1547.44,4039.061,1548.01Z" transform="translate(-4018.965 -1531.907)" fill="url(#linear-gradient-12)"/>
        <g id="Grupo_28452" data-name="Grupo 28452" transform="translate(237.383 20.58)">
          <g id="Grupo_28451" data-name="Grupo 28451">
            <path id="Trazado_22854" data-name="Trazado 22854" d="M4829.563,1591.538c11.409-7.9,22.163-9.108,30.111-4.655l.015-.03L4926.9,1619.6l16.083,7.39c-7.776-3.522-18.148-2.749-28.856,4.667-21.682,15.016-37.5,48.5-35.34,74.783.942,11.441,5.137,19.631,11.362,24l-79.05-37.422c-9.211-2.849-15.68-12.133-16.878-26.689C4792.058,1640.035,4807.88,1606.554,4829.563,1591.538Z" transform="translate(-4794.024 -1584.315)" fill="url(#linear-gradient-13)"/>
            <path id="Trazado_22855" data-name="Trazado 22855" d="M5182.463,1736.031c-15.632,45.053-57.308,79.543-108.713,87.543L4856.986,1716.6s-21.89-35.446,2.944-77.663c27.865-47.381,62.526-31.066,62.526-31.066Z" transform="translate(-4831.52 -1598.775)" fill="url(#linear-gradient-14)"/>
          </g>
        </g>
        <path id="Trazado_22856" data-name="Trazado 22856" d="M4223.926,1614.407a10.979,10.979,0,0,0-3.852,4.4,4.128,4.128,0,0,1,.915-3.88,5.446,5.446,0,0,1,1.85-1.391C4222.845,1613.537,4223.4,1614.033,4223.926,1614.407Z" transform="translate(-4158.372 -1584.003)" fill="#ebb394"/>
        <g id="Grupo_28453" data-name="Grupo 28453" transform="translate(32.591 42.479)">
          <path id="Trazado_22857" data-name="Trazado 22857" d="M4125.375,1663.447s.748-6.433,4.424-7.632Z" transform="translate(-4125.375 -1655.815)" fill="#ebb394"/>
          <path id="Trazado_22858" data-name="Trazado 22858" d="M4131.307,1671.928s1.289-5.953,4.793-7.83Z" transform="translate(-4129.49 -1661.561)" fill="#ebb394"/>
          <path id="Trazado_22859" data-name="Trazado 22859" d="M4140.612,1676.031s4.92-4.357,4.011-7.433Z" transform="translate(-4135.945 -1664.683)" fill="#ebb394"/>
        </g>
      </g>
    </g>
    <g id="woman" transform="translate(3452.484 490.77)">
      <path id="Trazado_22860" data-name="Trazado 22860" d="M4123.987,1263.472c-5.342-16.3-30.492-20.788-69.469-14.773-20.5,3.164-53.9,15.318-58.758,35.552-3.2,13.306,27.932,33.387,81.6,18.61C4106.916,1294.723,4129.3,1279.686,4123.987,1263.472Z" transform="translate(-3980.366 -1014.792)" fill="#bfccd9" style="mix-blend-mode: multiply;isolation: isolate"/>
      <g id="Grupo_28455" data-name="Grupo 28455" transform="translate(7.795 224.846)">
        <path id="Trazado_22861" data-name="Trazado 22861" d="M4229.437,1353.236a34.612,34.612,0,0,1-7.37,9.686,62,62,0,0,1-9.732,7.429,107.78,107.78,0,0,1-22.175,10.263q-5.793,1.956-11.718,3.462c-3.953.98-7.935,1.848-11.954,2.507a118.314,118.314,0,0,1-24.3,1.655,159.919,159.919,0,0,0,24.07-2.915c3.957-.8,7.9-1.691,11.791-2.751s7.769-2.2,11.581-3.51c1.911-.644,3.805-1.333,5.687-2.053s3.74-1.5,5.585-2.306,3.672-1.654,5.467-2.565,3.565-1.866,5.305-2.877,3.428-2.105,5.082-3.249a57.462,57.462,0,0,0,4.773-3.684A37.84,37.84,0,0,0,4229.437,1353.236Z" transform="translate(-4089.897 -1313.929)" fill="#94f7db"/>
        <path id="Trazado_22862" data-name="Trazado 22862" d="M4185.254,1228.282a171.9,171.9,0,0,1,20.873-2.954,117.327,117.327,0,0,1,21.146.091c1.76.183,3.515.434,5.261.736s3.485.672,5.2,1.118a50.709,50.709,0,0,1,5.084,1.615,37.536,37.536,0,0,1,4.868,2.207,33.781,33.781,0,0,1,4.5,2.9,27.123,27.123,0,0,1,3.89,3.666,23.827,23.827,0,0,1,4.979,9.284,25.666,25.666,0,0,0-5.573-8.739,30.2,30.2,0,0,0-8.381-5.971,47.063,47.063,0,0,0-9.746-3.454,73.984,73.984,0,0,0-10.256-1.729c-1.727-.2-3.463-.321-5.2-.428q-2.608-.136-5.223-.177c-3.487-.078-6.98.02-10.473.157C4199.218,1226.905,4192.239,1227.554,4185.254,1228.282Z" transform="translate(-4119.773 -1224.896)" fill="#94f7db"/>
        <path id="Trazado_22863" data-name="Trazado 22863" d="M3993.451,1380.684a43.5,43.5,0,0,1-10.035-4.013,33.231,33.231,0,0,1-4.544-3.049,23.354,23.354,0,0,1-3.9-3.928,20.324,20.324,0,0,1-1.549-2.328,17.953,17.953,0,0,1-1.158-2.566,14.837,14.837,0,0,1-.79-5.539,17.494,17.494,0,0,1,.336-2.747,15.732,15.732,0,0,1,.749-2.66,16.008,16.008,0,0,1,2.863-4.611,20.2,20.2,0,0,0-2.1,4.866,15.28,15.28,0,0,0-.45,2.566,20.009,20.009,0,0,0-.109,2.6,14.9,14.9,0,0,0,.962,4.994,17.483,17.483,0,0,0,1.1,2.3,19.285,19.285,0,0,0,1.439,2.127,24.868,24.868,0,0,0,3.592,3.735,40.945,40.945,0,0,0,4.217,3.143A81.135,81.135,0,0,0,3993.451,1380.684Z" transform="translate(-3971.458 -1311.158)" fill="#94f7db"/>
      </g>
      <path id="Trazado_22864" data-name="Trazado 22864" d="M4091.811,1295.527c2.645-1.136,5.249-2.364,7.792-3.705a83.287,83.287,0,0,0,7.424-4.366,55.391,55.391,0,0,0,6.773-5.273,40.107,40.107,0,0,0,2.97-3.078,29.691,29.691,0,0,0,2.518-3.429,17.939,17.939,0,0,0,2.74-7.885,14.605,14.605,0,0,0-.3-4.156l-.106-.512-.147-.5a9.9,9.9,0,0,0-.321-1l-.375-.982c-.128-.326-.3-.634-.444-.951a19.752,19.752,0,0,0-1.017-1.833c-.194-.291-.4-.572-.6-.858l-.3-.427-.337-.4-.676-.8-.738-.747-.37-.372-.4-.344-.794-.689a29.187,29.187,0,0,0-7.337-4.14,46.451,46.451,0,0,0-8.173-2.348,75.95,75.95,0,0,0-8.47-1.157c-2.846-.232-5.7-.356-8.566-.351s-5.725.069-8.584.243c-5.721.312-11.429.925-17.114,1.7-1.422.188-2.839.416-4.259.621s-2.808.474-4.2.767c-2.791.587-5.559,1.307-8.3,2.118a130.648,130.648,0,0,0-16.095,5.92,100.433,100.433,0,0,0-15.03,8.177,59.119,59.119,0,0,0-6.737,5.21,33.6,33.6,0,0,0-5.558,6.333,20.393,20.393,0,0,0-1.941,3.685,15.646,15.646,0,0,0-1,3.988,9.3,9.3,0,0,0,.49,3.965,11.851,11.851,0,0,0,.821,1.877,14.573,14.573,0,0,0,1.1,1.755,24.407,24.407,0,0,0,6.118,5.728,41.315,41.315,0,0,0,7.518,3.98,66.991,66.991,0,0,0,16.57,4.231,100.083,100.083,0,0,0,17.178.752c2.871-.11,5.738-.326,8.6-.63s5.713-.684,8.553-1.155q-4.238.828-8.524,1.4-4.285.555-8.606.818a100.706,100.706,0,0,1-17.3-.388,67.472,67.472,0,0,1-16.858-4.068,42.357,42.357,0,0,1-7.769-3.987,25.582,25.582,0,0,1-6.5-5.937,15.9,15.9,0,0,1-1.216-1.884,13.111,13.111,0,0,1-.933-2.062,10.625,10.625,0,0,1-.612-4.53,16.7,16.7,0,0,1,1.061-4.368,21.83,21.83,0,0,1,2.048-3.956,35.049,35.049,0,0,1,5.754-6.654,60.63,60.63,0,0,1,6.875-5.393,100.317,100.317,0,0,1,15.247-8.354,131.768,131.768,0,0,1,16.284-6.028c2.78-.817,5.589-1.541,8.433-2.132,1.421-.3,2.854-.558,4.291-.773s2.854-.43,4.287-.616,2.861-.385,4.3-.545l2.152-.248,2.155-.22c1.437-.152,2.878-.257,4.317-.383,1.442-.094,2.883-.209,4.328-.267,2.887-.157,5.782-.208,8.676-.188s5.792.159,8.68.414a58.453,58.453,0,0,1,16.991,3.769,30.388,30.388,0,0,1,7.589,4.418l.828.736.413.369.386.4.769.8.705.857.35.43.315.457c.208.306.425.606.625.917a20.426,20.426,0,0,1,1.052,1.952c.15.338.324.665.455,1.011l.382,1.04a10.781,10.781,0,0,1,.326,1.061l.149.536.107.546a15.593,15.593,0,0,1,.258,4.43,18.628,18.628,0,0,1-2.98,8.235,30.484,30.484,0,0,1-2.662,3.469,40.8,40.8,0,0,1-3.088,3.069,55.98,55.98,0,0,1-6.951,5.179,82.467,82.467,0,0,1-7.549,4.223C4097.128,1293.313,4094.488,1294.468,4091.811,1295.527Z" transform="translate(-3978.134 -1013.113)" fill="#94f7db"/>
      <path id="Trazado_22865" data-name="Trazado 22865" d="M4295.062,935.366c4.315-.476,14.648,4.481,17.172,17.971,1.489,7.953,5,56.706,5.475,75.594.236,9.3,1.852,18.6,1.425,21.3-.783,4.973-19.273,12.8-22.945,1.094-10-31.88-9.63-43.027-8.985-70.909.278-12.249-1.464-27.428-1.608-33.18C4285.455,941.631,4284.18,936.565,4295.062,935.366Z" transform="translate(-4181.506 -799.175)" fill="#e6edf7"/>
      <g id="Grupo_28465" data-name="Grupo 28465" transform="translate(0 45.176)">
        <path id="Trazado_22866" data-name="Trazado 22866" d="M4095.662,1082.632c-6.455-.047-20.861-.839-31.211-6.115-.36-.184-4.9-103.862-3.749-105.348,5.763-7.412,15.594-16.951,24.579-21.025,18.068-8.192,49.823-16.142,53.292-15.279,5.46,1.369,9.961,12.6,12.077,21.9,2.139,9.45,1.058,13.121,4.783,23.03,5.4,14.373,9.193,26.654,3.476,34.921-3.1,4.472-4.394,10.414-5.662,15.664-4.161,17.39-2.106,21.253-1.484,26.458C4153.643,1072.563,4107.726,1082.718,4095.662,1082.632Z" transform="translate(-4025.443 -843.981)" fill="#f7f9fc"/>
        <path id="Trazado_22867" data-name="Trazado 22867" d="M4080.842,1122.245c-12.74,4.5-21.86,19.16-21.729,36.474,0,0-18.154-5.013-18.185-5.55-1.984-34.68-.241-91.581-.412-92.141-.21-.692,1.355-8.086,5.239-10.394,7.46-4.432,17.51,6.754,17.658,19.346.233,19.965-2.875,20.921-1.327,33.544C4064.263,1121.242,4085.127,1120.737,4080.842,1122.245Z" transform="translate(-4011.191 -923.651)" fill="#bfccd9" style="mix-blend-mode: multiply;isolation: isolate"/>
        <g id="Grupo_28458" data-name="Grupo 28458" transform="translate(83.205 5.142)">
          <g id="Grupo_28456" data-name="Grupo 28456" transform="translate(0 21.821)">
            <path id="Trazado_22868" data-name="Trazado 22868" d="M4277.185,749.935c-.41,10-7.916,8.982-7.916,8.982-6.174-3.564-14.546-17.36-14.546-24.489,0,0,3.161-7.437,11.284-3.854C4272.529,733.45,4277.476,742.812,4277.185,749.935Z" transform="translate(-4243.375 -728.589)" fill="#e6edf7"/>
            <path id="Trazado_22869" data-name="Trazado 22869" d="M4266.575,743.707a30.862,30.862,0,0,0-6.65-11.645,22.4,22.4,0,0,0-5.2-4.265c-7.1-4.1-12.683,1.546-12.683,1.546,0,2.8,1.327,6.84,3.357,11.1.93,1.955,2.008,3.957,3.175,5.91s2.418,3.852,3.7,5.607c2.813,3.854,5.758,7,8.2,8.412a10.618,10.618,0,0,0,7.105-10.326A22.149,22.149,0,0,0,4266.575,743.707Z" transform="translate(-4234.579 -726.305)" fill="#bfccd9"/>
            <path id="Trazado_22870" data-name="Trazado 22870" d="M4254.31,755.91c0,4.6-1.444,7.15-3,8.566-1.834,1.664-6.265,2.527-6.265,2.527-7.1-4.1-17.553-23.348-17.552-31.538a26.75,26.75,0,0,1,4.577-2.982c2-.93,5.064-1.216,9.39,1.175C4248.63,737.623,4254.31,747.719,4254.31,755.91Z" transform="translate(-4224.481 -730.119)" fill="#222838"/>
            <path id="Trazado_22871" data-name="Trazado 22871" d="M4243.38,763.3c0,8.191-5.755,11.508-12.854,7.409s-12.855-14.061-12.854-22.252,5.755-11.508,12.854-7.41S4243.38,755.107,4243.38,763.3Z" transform="translate(-4217.672 -735.312)" fill="#191d29"/>
            <path id="Trazado_22872" data-name="Trazado 22872" d="M4242.08,782.128a6.72,6.72,0,0,1-3.22-1.2,21.6,21.6,0,0,1-7.328-7.918,20.936,20.936,0,0,1-3.155-10.135,5.6,5.6,0,0,1,.853-3.614,1.755,1.755,0,0,1,1.547-.828,6.064,6.064,0,0,1,3.413.941,23.961,23.961,0,0,1,10.6,18.343,6.626,6.626,0,0,1-.987,3.945C4243.521,782.008,4243,782.128,4242.08,782.128Z" transform="translate(-4225.099 -748.59)" fill="#bfccd9"/>
            <path id="Trazado_22873" data-name="Trazado 22873" d="M4237.093,772.607q-.255-.442-.491-.889a24.887,24.887,0,0,1-2.057-5.2,17.029,17.029,0,0,1-.612-4.318,9.9,9.9,0,0,1,.218-2.144,6.357,6.357,0,0,1,.191-.688q-.384-.256-.769-.479a7.155,7.155,0,0,0-3.489-1.152,1.833,1.833,0,0,0-1.609.708,6.636,6.636,0,0,0-.988,3.945,14.2,14.2,0,0,0,.079,1.467,21.155,21.155,0,0,0,1.536,5.8,26.454,26.454,0,0,0,1.545,3.132q.516.893,1.09,1.73a20.655,20.655,0,0,0,6.348,6.21,7.155,7.155,0,0,0,3.488,1.152,1.832,1.832,0,0,0,1.609-.708,3.713,3.713,0,0,0,.578-1.112A22.806,22.806,0,0,1,4237.093,772.607Z" transform="translate(-4224.481 -748.112)" fill="#222838"/>
          </g>
          <g id="Grupo_28457" data-name="Grupo 28457" transform="translate(13.358)">
            <path id="Trazado_22874" data-name="Trazado 22874" d="M4270.394,658.415a11.775,11.775,0,0,0-6.518-3.355l-2.591.631c2.4,2.921,4.035,7.767,4.036,14.3l.02-.012.017,7.246a11.464,11.464,0,0,1,2.717,1.147,22.4,22.4,0,0,1,5.2,4.265l-.023.013.023.016.938-12.721Z" transform="translate(-4261.285 -655.06)" fill="#bfccd9"/>
            <path id="Trazado_22875" data-name="Trazado 22875" d="M4281.467,659.6c3.659,2.417,6.013,7.352,6.072,15.385l-.266,9.752,1.368,1.637.366-11.892-.014.011c-.205-8.567-2.837-13.831-6.832-16.405Z" transform="translate(-4275.286 -657.162)" fill="#e6edf7"/>
          </g>
        </g>
        <g id="Grupo_28459" data-name="Grupo 28459" transform="translate(0 0.218)">
          <path id="Trazado_22876" data-name="Trazado 22876" d="M4154.97,674.18c5.294,7.355,12.709,17.954,6.676,27.873-9.62,15.817-2.92,34.823-4.705,31.784-12.79-21.773-1.643-42.1-9.468-44.663-4.774-1.566-24.643,47.847-29.467,44.288-4.439-3.263-7.593-9.412-11.49-14.552-18.377-24.257-19.127-48.829-.228-56.985S4145.106,660.476,4154.97,674.18Z" transform="translate(-4047.578 -652.442)" fill="#2a3145"/>
          <path id="Trazado_22877" data-name="Trazado 22877" d="M3975.625,691.494s-12.365-1.284-16.329,19.964,3.587,23.094-.024,42.576A16.531,16.531,0,0,1,3947.6,766.5c-7.419,2.177,12.927,10.712,22.516,6.655,7.326-3.1,12.64-7.6,14.011-27.646C3985.382,727.177,3989.238,695.42,3975.625,691.494Z" transform="translate(-3946.006 -675.4)" fill="#2a3145"/>
          <path id="Trazado_22878" data-name="Trazado 22878" d="M4127.744,909.531a3.188,3.188,0,0,0,.877,2.341c4.293,4.5,22.419,22.241,35.978,16,6.543-3.011-3.521-21.433-3.521-21.433l-3.159-13.961-36.187-16.383s5.156,14.515,5.929,19.514C4128.144,898.693,4127.877,906.418,4127.744,909.531Z" transform="translate(-4067.911 -803.471)" fill="#edc5ac"/>
          <path id="Trazado_22879" data-name="Trazado 22879" d="M4157.338,688.69c1.823,4.868,2.555,12.265,2.381,20.487-.033,1.392-1.88,3.983-2.2,6.566-.3,2.4,1.048,5.325,1.034,8.847-.069,18.808-12.558,35.427-16.2,36.083a35.081,35.081,0,0,1-18.741-1.153c-4.776-1.567-8.378-4.74-13.2-8.3-4.438-3.262-3.625-9.782-7.52-14.917-18.378-24.257-14.252-48.746,4.644-56.9S4151.4,672.882,4157.338,688.69Z" transform="translate(-4046.615 -663.68)" fill="#fbd1b8"/>
          <ellipse id="Elipse_1076" data-name="Elipse 1076" cx="13.14" cy="11.802" rx="13.14" ry="11.802" transform="translate(24.523 31.716) rotate(-81.58)" fill="#333a52"/>
          <path id="Trazado_22880" data-name="Trazado 22880" d="M4124.809,653.275c9.113,8.246,8.624,23.935.043,25.9-21.051,4.828-27.411,9.032-27.55,21.925-.024,2.25-1.078,14.675-5.786,22.547-1.484,2.481.291-18.963-4.7-29.839-5.141-11.212-14.272.344-10.462,27.156-6.224-.693-15.975-12.768-20.792-23.958-8.222-19.1-2.073-35,3.314-42.362C4078.35,628.023,4110.953,640.735,4124.809,653.275Z" transform="translate(-4019.236 -638.98)" fill="#3d4663"/>
        </g>
        <g id="Grupo_28464" data-name="Grupo 28464" transform="translate(41.701)">
          <path id="Trazado_22881" data-name="Trazado 22881" d="M4150.149,826.456a1.715,1.715,0,0,0-1.516-.738l-6.205,1.033a.986.986,0,0,0-.941.678,2.479,2.479,0,0,0-.19.711l-8.022.514a6.073,6.073,0,0,1-3.516-.854l-8.416-5.048a9.683,9.683,0,0,0,1.794-6.379,29.493,29.493,0,0,0-.493-5.34,28.2,28.2,0,0,0-2.22-6.3.189.189,0,0,0-.01-.023c-.01-.02-.018-.04-.027-.06a29.24,29.24,0,0,0-3.6-5.584,21.365,21.365,0,0,0-4.818-4.373c-6.567-4.222-12.171,1.1-12.171,1.1-1.988,1.334-3.28,3.87-3.445,7.287-.376,7.794,4.644,17.535,11.212,21.758,3.241,2.084,5.876,1.788,8.439,1.311a9.609,9.609,0,0,0,2.779-1.12l9.3,5.577a9.313,9.313,0,0,0,5.408,1.313l8.791-.563c.039,0,.074-.014.113-.019a1.082,1.082,0,0,0,.833.272c0,.01,5.87-.992,5.87-.992.9-.182,1.359-.324,1.525-.877A3.948,3.948,0,0,0,4150.149,826.456Z" transform="translate(-4091.988 -745.656)" fill="#edddd3" style="mix-blend-mode: multiply;isolation: isolate"/>
          <g id="Grupo_28460" data-name="Grupo 28460" transform="translate(0 44.629)">
            <path id="Trazado_22882" data-name="Trazado 22882" d="M4137.736,807.033c-.16,3.308-1.151,5.181-2.329,6.23a49.79,49.79,0,0,1-5.423,3.9c-.762-2.23-16.679-23.171-16.3-30.965a26.549,26.549,0,0,1,7.82-2.2,8.879,8.879,0,0,1,5.886,1.9C4133.712,790.478,4138.112,799.238,4137.736,807.033Z" transform="translate(-4104.022 -783.983)" fill="#222838"/>
            <path id="Trazado_22883" data-name="Trazado 22883" d="M4120.436,811.181a29.449,29.449,0,0,0-.494-5.34,28.166,28.166,0,0,0-2.22-6.3c0-.008-.007-.015-.01-.023s-.018-.04-.028-.06a29.264,29.264,0,0,0-3.6-5.584,21.392,21.392,0,0,0-4.817-4.373c-6.568-4.222-12.172,1.1-12.172,1.1-1.987,1.334-3.28,3.87-3.445,7.287-.375,7.794,4.644,17.535,11.212,21.758,3.241,2.084,5.877,1.787,8.439,1.311C4114.253,820.756,4120.712,819.059,4120.436,811.181Z" transform="translate(-4090.114 -786.683)" fill="#bfccd9"/>
            <path id="Trazado_22884" data-name="Trazado 22884" d="M4112.562,823.711c-.362,7.513-6.2,8.866-6.2,8.866-6-3.858-15.866-19.419-15.523-26.539,0,0,4.2-6.023,11.486-2.2C4108.644,807.141,4112.905,816.591,4112.562,823.711Z" transform="translate(-4088.176 -796.874)" fill="#e6edf7"/>
            <path id="Trazado_22885" data-name="Trazado 22885" d="M4108.559,826.032c-.891,9.968-8.339,8.59-8.339,8.59-6-3.857-13.694-18.041-13.351-25.161,0,0,2.056-4.582,6.589-4.483a11.3,11.3,0,0,1,6.852,2.413C4105.541,811.46,4109.125,819.694,4108.559,826.032Z" transform="translate(-4085.419 -798.547)" fill="#f7f9fc"/>
            <path id="Trazado_22886" data-name="Trazado 22886" d="M4102.227,827.74a24.423,24.423,0,0,0-2.433-6.512,23.6,23.6,0,0,0-4.02-5.451,16.913,16.913,0,0,0-2.754-2.241c-5.625-3.619-10.445-1.137-10.767,5.542a16.886,16.886,0,0,0,.224,3.544,23.6,23.6,0,0,0,2.1,6.439,24.444,24.444,0,0,0,3.888,5.763,17.553,17.553,0,0,0,3.386,2.9c5.624,3.618,10.445,1.137,10.767-5.542A17.537,17.537,0,0,0,4102.227,827.74Z" transform="translate(-4082.213 -803.33)" fill="#e6edf7"/>
            <path id="Trazado_22887" data-name="Trazado 22887" d="M4094.869,844.229a7.7,7.7,0,0,1-3.642-1.358c-5.205-3.349-9.351-11.4-9.053-17.585.078-1.622.611-5.378,3.863-5.221a7.7,7.7,0,0,1,3.642,1.358c5.2,3.349,9.351,11.4,9.053,17.585C4098.654,840.63,4098.121,844.386,4094.869,844.229Z" transform="translate(-4082.159 -809.011)" fill="#bfccd9"/>
            <path id="Trazado_22888" data-name="Trazado 22888" d="M4095.1,844.5c-4.1-2.635-7.357-8.969-7.123-13.833.051-1.056.348-3.26,1.9-3.919-.057-.005-.112-.009-.167-.012-2.559-.123-2.978,2.832-3.04,4.108-.234,4.863,3.028,11.2,7.123,13.832a6.06,6.06,0,0,0,2.866,1.068,2.559,2.559,0,0,0,1.141-.188A6.28,6.28,0,0,1,4095.1,844.5Z" transform="translate(-4085.281 -813.64)" fill="#f7f9fc"/>
          </g>
          <g id="Grupo_28462" data-name="Grupo 28462" transform="translate(25.098 73.026)">
            <path id="Trazado_22889" data-name="Trazado 22889" d="M4258.454,894.015a1.711,1.711,0,0,0-1.515-.738l-6.308,1.05.895,4.85,5.868-1c.9-.183,1.2-.35,1.412-.889A4.2,4.2,0,0,0,4258.454,894.015Z" transform="translate(-4224.13 -888.196)" fill="#3d4663"/>
            <path id="Trazado_22890" data-name="Trazado 22890" d="M4249.87,900.847c-.431.936-1.337.907-2.023-.064a3.868,3.868,0,0,1-.465-3.453c.431-.936,1.337-.907,2.024.064A3.871,3.871,0,0,1,4249.87,900.847Z" transform="translate(-4221.72 -890.539)" fill="#616b8c"/>
            <g id="Grupo_28461" data-name="Grupo 28461">
              <path id="Trazado_22891" data-name="Trazado 22891" d="M4180.54,887.574a9.3,9.3,0,0,1-4.8-1.332l-10.839-6.5a1.635,1.635,0,1,1,1.682-2.8l10.839,6.5a6.05,6.05,0,0,0,3.516.854l8.791-.563a1.635,1.635,0,1,1,.209,3.263l-8.791.563Q4180.842,887.575,4180.54,887.574Z" transform="translate(-4164.104 -876.702)" fill="#e6edf7"/>
            </g>
          </g>
          <path id="Trazado_22892" data-name="Trazado 22892" d="M4170.287,661.734s1.69.94,3.549,2.231,4.109,3.088,4.109,3.088-34.667-5.363-39.236,37.619c-3.886-.972-8.6,1.426-8.6,1.426s3.2-36.622,23.249-43.393C4165.886,658.475,4170.287,661.734,4170.287,661.734Z" transform="translate(-4115.424 -653.716)" fill="#bfccd9" style="mix-blend-mode: multiply;isolation: isolate"/>
          <g id="Grupo_28463" data-name="Grupo 28463" transform="translate(6.959)">
            <path id="Trazado_22893" data-name="Trazado 22893" d="M4148.722,638.87c-14.33-4.242-43.875,14.2-43.816,49.017l-.025,1.511a11.481,11.481,0,0,1,3.454.221,12.1,12.1,0,0,1,5.284,2.805l.611-.985.245-7.108c1.971-29.211,30.8-47.571,45.184-39.992C4159.659,644.34,4152.281,639.924,4148.722,638.87Z" transform="translate(-4104.881 -638.27)" fill="#f7f9fc"/>
            <path id="Trazado_22894" data-name="Trazado 22894" d="M4178.213,653.47c-17.527-8.891-44.5,12.287-46.471,44.081-.084,1.352-.124,2.141-.115,3.53l1.322,1.2s.076.272.207-3.267c1.275-34.515,29.455-51.613,44.363-44.03Z" transform="translate(-4123.434 -647.4)" fill="#e6edf7"/>
          </g>
        </g>
      </g>
      <g id="Grupo_28466" data-name="Grupo 28466" transform="translate(18.856 171.06)">
        <path id="Trazado_22895" data-name="Trazado 22895" d="M4034.048,1054.027c3.662,5.622,4.518,10.217,4.069,19.147-.647,12.827-2.12,71.045-1.48,85.295.288,6.425-27.528,7.495-28.125-10.494-.541-16.293-1.815-38.814,0-54.314,1.484-12.668,1.741-17.917,2.94-26.088,1.279-8.727,7.34-17.182,14.651-18.261C4027.639,1049.085,4031.579,1050.237,4034.048,1054.027Z" transform="translate(-4007.571 -1049.284)" fill="#e6edf7"/>
      </g>
      <g id="Grupo_28471" data-name="Grupo 28471" transform="translate(125.93)" style="isolation: isolate">
        <path id="Trazado_22896" data-name="Trazado 22896" d="M4435.875,491.057a3,3,0,0,0-3.025.3l-56.957,35.623a12.573,12.573,0,0,0-5.705,9.891l-.2,19.355c.3,6.091-5.511,28.232-12.814,37.538l5.4,3.136c7.3-9.3,13.114-31.446,12.815-37.537l.606-19.077c-.014-3.633,2.136-8.342,5.3-10.169l56.957-35.623a3,3,0,0,1,3.025-.3Z" transform="translate(-4357.171 -490.77)" fill="url(#linear-gradient-15)"/>
        <path id="Trazado_22897" data-name="Trazado 22897" d="M4454.735,504.023c-.007-2.7-1.918-3.785-4.265-2.43l-56.957,35.623a12.572,12.572,0,0,0-5.705,9.891l-.2,19.355c.3,6.091-5.512,28.232-12.815,37.537.616-.284,1.232-.607,1.848-.963,8.4-4.851,16.1-15.16,16.5-15.7l55.783-30.261a13.088,13.088,0,0,0,5.934-10.28Z" transform="translate(-4369.395 -497.873)" fill="#878af1"/>
        <g id="Grupo_28470" data-name="Grupo 28470" transform="translate(31.299 23.753)">
          <g id="Grupo_28467" data-name="Grupo 28467">
            <path id="Trazado_22898" data-name="Trazado 22898" d="M4461.1,595.3a1.737,1.737,0,0,1-.87-3.24l40.707-23.5a1.736,1.736,0,0,1,1.737,3.007l-40.707,23.5A1.73,1.73,0,0,1,4461.1,595.3Z" transform="translate(-4459.364 -568.323)" fill="#94f7db"/>
          </g>
          <g id="Grupo_28468" data-name="Grupo 28468" transform="translate(0 10.307)">
            <path id="Trazado_22899" data-name="Trazado 22899" d="M4461.1,628.951a1.737,1.737,0,0,1-.87-3.24l40.707-23.5a1.736,1.736,0,0,1,1.737,3.007l-40.707,23.5A1.728,1.728,0,0,1,4461.1,628.951Z" transform="translate(-4459.364 -601.975)" fill="#94f7db"/>
          </g>
          <g id="Grupo_28469" data-name="Grupo 28469" transform="translate(0 20.614)">
            <path id="Trazado_22900" data-name="Trazado 22900" d="M4461.1,662.6a1.737,1.737,0,0,1-.87-3.24l40.707-23.5a1.737,1.737,0,0,1,1.737,3.008l-40.707,23.5A1.728,1.728,0,0,1,4461.1,662.6Z" transform="translate(-4459.364 -635.627)" fill="#94f7db"/>
          </g>
        </g>
      </g>
    </g>
    <g id="icons" transform="translate(3641.051 564.882)">
      <g id="Grupo_28472" data-name="Grupo 28472" transform="translate(57.99)" style="isolation: isolate">
        <path id="Trazado_22901" data-name="Trazado 22901" d="M4819.88,825.136c-15.673,9.109-41.172,9.109-56.949,0-7.939-4.584-11.9-10.6-11.887-16.609l-.025,8.988c-.017,6.008,3.948,12.025,11.887,16.608,15.777,9.109,41.275,9.109,56.95,0,7.786-4.525,11.684-10.446,11.7-16.377l.026-8.988C4831.564,814.69,4827.667,820.612,4819.88,825.136Z" transform="translate(-4751.019 -785.318)" fill="url(#linear-gradient-16)"/>
        <path id="Trazado_22902" data-name="Trazado 22902" d="M4819.75,739.58c-15.777-9.109-41.273-9.11-56.947,0s-15.591,23.878.186,32.987,41.275,9.108,56.948,0S4835.527,748.689,4819.75,739.58Z" transform="translate(-4751.076 -732.748)" fill="#fff"/>
        <path id="Trazado_22903" data-name="Trazado 22903" d="M4853.4,782.309a.526.526,0,0,0,.1-.421.834.834,0,0,0-.459-.574l-9.078-4.066a2.218,2.218,0,0,0-.947-.263,2.382,2.382,0,0,0-.771.047,3.292,3.292,0,0,0-.588.295l-1.407.812a.231.231,0,0,0-.1.1c-.857,1.771-3.722,1.471-6.257.349a10.752,10.752,0,0,1-1.931-1.1c-.708-.508-2.373-1.65-5.187-3.274s-4.791-2.586-5.672-2.995a10.552,10.552,0,0,1-1.9-1.115c-1.943-1.464-2.464-3.117.6-3.612a.5.5,0,0,0,.169-.056l1.407-.812a2.74,2.74,0,0,0,.51-.34.5.5,0,0,0,.081-.445.862.862,0,0,0-.455-.547l-7.043-5.241a2.221,2.221,0,0,0-.995-.265,2.436,2.436,0,0,0-.73.059,3.639,3.639,0,0,0-.592.28l-2.49,1.438a4.666,4.666,0,0,0-1.039,1.028,3.873,3.873,0,0,0-.645,4.224,24.086,24.086,0,0,0,2.6,4.547,18.606,18.606,0,0,0,3.618,3.481c.822.623,3.529,2.274,6.406,3.932s5.732,3.224,6.812,3.7a36.093,36.093,0,0,0,6.03,2.089c2.316.608,5.2,1.089,7.875,1.5a18.093,18.093,0,0,0,7.315-.372,9.685,9.685,0,0,0,1.78-.6l2.491-1.438A2.752,2.752,0,0,0,4853.4,782.309Z" transform="translate(-4790.29 -750.805)" fill="#878af1"/>
      </g>
      <g id="Grupo_28473" data-name="Grupo 28473" transform="translate(132.615 43.012)" style="isolation: isolate">
        <path id="Trazado_22904" data-name="Trazado 22904" d="M5063.533,965.57c-15.674,9.109-41.173,9.109-56.95,0-7.939-4.584-11.9-10.6-11.887-16.609l-.025,8.988c-.017,6.008,3.948,12.025,11.887,16.608,15.777,9.109,41.275,9.109,56.949,0,7.787-4.525,11.684-10.446,11.7-16.377l.025-8.988C5075.216,955.124,5071.319,961.046,5063.533,965.57Z" transform="translate(-4994.671 -925.752)" fill="url(#linear-gradient-16)"/>
        <path id="Trazado_22905" data-name="Trazado 22905" d="M5063.4,880.013c-15.777-9.109-41.273-9.11-56.947,0s-15.591,23.879.186,32.988,41.275,9.108,56.949,0S5079.179,889.122,5063.4,880.013Z" transform="translate(-4994.729 -873.181)" fill="#fff"/>
        <path id="Trazado_22906" data-name="Trazado 22906" d="M5054.4,897.335c-9.782,5.647-9.782,14.8,0,20.45,5.158,2.978,12.005,4.386,18.761,4.223l-.25,5.54,16.91-9.763c9.781-5.647,9.781-14.8,0-20.45S5064.18,891.688,5054.4,897.335Zm11.689,15.631a5.914,5.914,0,0,1-5.351,0c-1.478-.853-1.478-2.236,0-3.089a5.915,5.915,0,0,1,5.351,0C5067.565,910.729,5067.565,912.113,5066.088,912.966Zm7.691-4.441a5.912,5.912,0,0,1-5.351,0c-1.478-.853-1.478-2.236,0-3.089a5.913,5.913,0,0,1,5.351,0C5075.257,906.289,5075.257,907.672,5073.779,908.525Zm7.692-4.441a5.912,5.912,0,0,1-5.351,0c-1.478-.853-1.478-2.236,0-3.089a5.914,5.914,0,0,1,5.351,0C5082.949,901.848,5082.949,903.231,5081.471,904.084Z" transform="translate(-5031.016 -886.999)" fill="#878af1"/>
      </g>
      <g id="Grupo_28474" data-name="Grupo 28474" transform="translate(207.24 86.023)" style="isolation: isolate">
        <path id="Trazado_22907" data-name="Trazado 22907" d="M5307.186,1106c-15.675,9.109-41.173,9.109-56.95,0-7.938-4.583-11.9-10.6-11.887-16.608l-.025,8.988c-.017,6.008,3.948,12.025,11.887,16.608,15.777,9.109,41.275,9.109,56.95,0,7.786-4.525,11.683-10.446,11.7-16.377l.025-8.988C5318.869,1095.558,5314.971,1101.479,5307.186,1106Z" transform="translate(-5238.323 -1066.186)" fill="url(#linear-gradient-16)"/>
        <path id="Trazado_22908" data-name="Trazado 22908" d="M5307.054,1020.448c-15.776-9.109-41.273-9.11-56.947,0s-15.591,23.879.186,32.987,41.275,9.109,56.949,0S5322.832,1029.556,5307.054,1020.448Z" transform="translate(-5238.38 -1013.615)" fill="#fff"/>
        <path id="Trazado_22909" data-name="Trazado 22909" d="M5331.718,1056.767a33.133,33.133,0,0,1-6.733,4.684c-10.593,5.337-18.99,4.393-27.189-.34q-1.114-.644-2.227-1.379c-7.225-4.77-8.114-10.29,1.215-14.991,9.149-4.609,16.661-3.813,23.813.317q.921.532,1.838,1.138c2.2,1.453,4.971,3.744,2.3,5.092a3.322,3.322,0,0,1-3.479-.222c-.235-.136-.469-.286-.705-.442l-11.462-7.569-6.784,3.418,2.52,1.667a6.729,6.729,0,0,0-6.464.109c-6.12,3.083-2.808,7.523,2.117,10.775q.372.246.766.473a17.127,17.127,0,0,0,16.02.493c2.411-1.215,2.478-2.776,1.947-3.989a17.148,17.148,0,0,0,9.871-1.966c6.755-3.4,5.49-7.724.143-11.255q-.828-.547-1.68-1.039c-9.841-5.682-22.078-5.879-34.628.443-12.9,6.5-14.032,14.423-4.124,20.966q1.187.783,2.379,1.473c11.255,6.5,23.145,6.72,37.7-.612a60.668,60.668,0,0,0,9.3-5.886Zm-17.534-.166c-2.179,1.1-4.418.481-6.282-.6-.221-.127-.437-.262-.646-.4-2.825-1.866-6.165-4.011-2.511-5.852a2.667,2.667,0,0,1,2.46-.043l8.134,5.371C5315.837,1055.534,5315.324,1056.027,5314.184,1056.6Z" transform="translate(-5268.747 -1030.156)" fill="#878af1"/>
      </g>
      <g id="Grupo_28478" data-name="Grupo 28478" transform="translate(0 54.679)">
        <ellipse id="Elipse_1077" data-name="Elipse 1077" cx="5.12" cy="2.956" rx="5.12" ry="2.956" transform="translate(52.87 97.194)" fill="#f7f9fc"/>
        <ellipse id="Elipse_1078" data-name="Elipse 1078" cx="5.12" cy="2.956" rx="5.12" ry="2.956" transform="translate(52.176)" fill="#f7f9fc"/>
        <ellipse id="Elipse_1079" data-name="Elipse 1079" cx="5.12" cy="2.956" rx="5.12" ry="2.956" transform="translate(128.798 41.014)" fill="#f7f9fc"/>
        <ellipse id="Elipse_1080" data-name="Elipse 1080" cx="5.12" cy="2.956" rx="5.12" ry="2.956" transform="translate(202.937 84.026)" fill="#f7f9fc"/>
        <ellipse id="Elipse_1081" data-name="Elipse 1081" cx="5.12" cy="2.956" rx="5.12" ry="2.956" transform="translate(64.215 103.666)" fill="#f7f9fc"/>
        <ellipse id="Elipse_1082" data-name="Elipse 1082" cx="5.12" cy="2.956" rx="5.12" ry="2.956" transform="translate(75.484 110.058)" fill="#f7f9fc"/>
        <g id="Grupo_28475" data-name="Grupo 28475" transform="translate(0 3.624)">
          <path id="Trazado_22910" data-name="Trazado 22910" d="M4620.832,1019.916l-.324-.565,12.522-7.183a6.709,6.709,0,0,0-.089-11.688l-66.857-37.011a8.537,8.537,0,0,1,.313-15.1l50.47-25.258.291.582-50.47,25.259a7.886,7.886,0,0,0-.29,13.952l66.857,37.011a7.36,7.36,0,0,1,.1,12.822Z" transform="translate(-4561.681 -923.107)" fill="#f7f9fc"/>
        </g>
        <g id="Grupo_28476" data-name="Grupo 28476" transform="translate(80.438 86.703)">
          <path id="Trazado_22911" data-name="Trazado 22911" d="M4891.267,1228.429a17.715,17.715,0,0,1-8.889-2.388l-27.708-16.057a11.4,11.4,0,0,0-11.483.042l-18.543,10.928-.331-.561,18.543-10.928a12.047,12.047,0,0,1,12.141-.045l27.708,16.057a17.084,17.084,0,0,0,17.339-.126l51.721-30.989.334.559-51.721,30.989A17.724,17.724,0,0,1,4891.267,1228.429Z" transform="translate(-4824.313 -1194.362)" fill="#f7f9fc"/>
        </g>
        <g id="Grupo_28477" data-name="Grupo 28477" transform="translate(69.163 43.684)">
          <path id="Trazado_22912" data-name="Trazado 22912" d="M4787.845,1117.12l-.344-.553,36.658-22.826a4.756,4.756,0,0,0-.313-8.254l-4.641-2.424a6.357,6.357,0,0,1-.094-11.22l32.989-17.938.311.572-32.989,17.938a5.706,5.706,0,0,0,.085,10.071l4.641,2.424a5.407,5.407,0,0,1,.355,9.383Z" transform="translate(-4787.501 -1053.906)" fill="#f7f9fc"/>
        </g>
      </g>
      <ellipse id="Elipse_1084" data-name="Elipse 1084" cx="18.032" cy="10.411" rx="18.032" ry="10.411" transform="translate(39.958 144.419)" fill="url(#radial-gradient)" style="mix-blend-mode: screen;isolation: isolate"/>
    </g>
  </g>
</svg>
