<svg xmlns="http://www.w3.org/2000/svg" width="892.106" height="719.79" viewBox="0 0 892.106 719.79">
  <g id="Grupo_28351" data-name="Grupo 28351" transform="translate(-254 -5924)">
    <g id="Grupo_28350" data-name="Grupo 28350" transform="translate(100.511 5902.581)">
      <g id="Office">
        <path id="Trazado_22226" data-name="Trazado 22226" d="M769.475,88.514c331.268-6.464,445.262,550.474-282.9,648.971C248.039,769.75,168,585.279,379.2,459.031,530.692,368.474,512.793,93.523,769.475,88.514Z" fill="#eeedf5"/>
        <path id="Trazado_22227" data-name="Trazado 22227" d="M167.679,303.66c18.59-23.765,66.315-30.024,98-50.741s44.48-108.46,104.8-108.459c84.088,0,174.349,190.251,5.484,280.9C244.994,495.664,108.575,379.216,167.679,303.66Z" fill="#eeedf5"/>
        <g id="Grupo_28236" data-name="Grupo 28236">
          <path id="Trazado_22228" data-name="Trazado 22228" d="M668.813,693.164H605.9a1.25,1.25,0,0,1-1.242-1.112l-12-108.555a1.25,1.25,0,0,1,1.242-1.388h86.918a1.25,1.25,0,0,1,1.243,1.388l-12,108.555A1.25,1.25,0,0,1,668.813,693.164Zm-61.8-2.5h60.679l11.724-106.055H595.291Z" fill="#fff"/>
          <g id="Grupo_28234" data-name="Grupo 28234">
            <path id="Trazado_22229" data-name="Trazado 22229" d="M677.688,608.33H596.169a1.25,1.25,0,0,1,0-2.5h81.519a1.25,1.25,0,0,1,0,2.5Z" fill="#fff"/>
          </g>
          <g id="Grupo_28235" data-name="Grupo 28235">
            <path id="Trazado_22230" data-name="Trazado 22230" d="M658.482,693.164a1.136,1.136,0,0,1-.131-.007,1.25,1.25,0,0,1-1.114-1.373L668.57,583.229a1.25,1.25,0,0,1,2.487.26L659.724,692.044A1.251,1.251,0,0,1,658.482,693.164Z" fill="#fff"/>
          </g>
          <path id="Trazado_22231" data-name="Trazado 22231" d="M632.853,683.677s.055,7.137-1.781,7.049-6.553-1.312-8.5-3.132-4.963,4.32-4.963,4.32-6.374-6.985-4.451-8.733c.862-.784,4.615-1.475,6.972-3.891a8.847,8.847,0,0,1,4.4-7.681l8.278,5.952Z" fill="#fff"/>
        </g>
      </g>
      <g id="Information">
        <g id="Grupo_28279" data-name="Grupo 28279">
          <g id="Grupo_28237" data-name="Grupo 28237">
            <path id="Trazado_22232" data-name="Trazado 22232" d="M782.156,65.909a2.217,2.217,0,1,1,2.454,1.95A2.217,2.217,0,0,1,782.156,65.909Z" fill="#7754cc"/>
          </g>
          <g id="Grupo_28238" data-name="Grupo 28238">
            <path id="Trazado_22233" data-name="Trazado 22233" d="M794.742,64.47a2.217,2.217,0,1,1,2.454,1.95A2.217,2.217,0,0,1,794.742,64.47Z" fill="#7754cc"/>
          </g>
          <g id="Grupo_28239" data-name="Grupo 28239">
            <path id="Trazado_22234" data-name="Trazado 22234" d="M807.328,63.031a2.217,2.217,0,1,1,2.454,1.95A2.216,2.216,0,0,1,807.328,63.031Z" fill="#7754cc"/>
          </g>
          <g id="Grupo_28240" data-name="Grupo 28240">
            <path id="Trazado_22235" data-name="Trazado 22235" d="M819.913,61.592a2.217,2.217,0,1,1,2.455,1.951A2.217,2.217,0,0,1,819.913,61.592Z" fill="#7754cc"/>
          </g>
          <g id="Grupo_28241" data-name="Grupo 28241">
            <path id="Trazado_22236" data-name="Trazado 22236" d="M832.5,61.915a2.217,2.217,0,1,1,1.949,2.456A2.218,2.218,0,0,1,832.5,61.915Z" fill="#7754cc"/>
          </g>
          <g id="Grupo_28242" data-name="Grupo 28242">
            <path id="Trazado_22237" data-name="Trazado 22237" d="M845.083,63.364a2.217,2.217,0,1,1,1.949,2.456A2.217,2.217,0,0,1,845.083,63.364Z" fill="#7754cc"/>
          </g>
          <g id="Grupo_28243" data-name="Grupo 28243">
            <path id="Trazado_22238" data-name="Trazado 22238" d="M857.667,64.814a2.217,2.217,0,1,1,1.949,2.456A2.218,2.218,0,0,1,857.667,64.814Z" fill="#7754cc"/>
          </g>
          <g id="Grupo_28244" data-name="Grupo 28244">
            <path id="Trazado_22239" data-name="Trazado 22239" d="M870.293,66.09a2.217,2.217,0,1,1,1.341,2.833A2.216,2.216,0,0,1,870.293,66.09Z" fill="#7754cc"/>
          </g>
          <g id="Grupo_28245" data-name="Grupo 28245">
            <path id="Trazado_22240" data-name="Trazado 22240" d="M882.221,70.353a2.217,2.217,0,1,1,1.342,2.834A2.217,2.217,0,0,1,882.221,70.353Z" fill="#7754cc"/>
          </g>
          <g id="Grupo_28246" data-name="Grupo 28246">
            <path id="Trazado_22241" data-name="Trazado 22241" d="M894.15,74.617a2.217,2.217,0,1,1,1.341,2.833A2.217,2.217,0,0,1,894.15,74.617Z" fill="#7754cc"/>
          </g>
          <g id="Grupo_28247" data-name="Grupo 28247">
            <path id="Trazado_22242" data-name="Trazado 22242" d="M906.079,78.88a2.217,2.217,0,1,1,1.341,2.834A2.216,2.216,0,0,1,906.079,78.88Z" fill="#7754cc"/>
          </g>
          <g id="Grupo_28248" data-name="Grupo 28248">
            <path id="Trazado_22243" data-name="Trazado 22243" d="M917.534,84.112a2.217,2.217,0,1,1,.681,3.06A2.217,2.217,0,0,1,917.534,84.112Z" fill="#7754cc"/>
          </g>
          <g id="Grupo_28249" data-name="Grupo 28249">
            <path id="Trazado_22244" data-name="Trazado 22244" d="M928.224,90.909a2.217,2.217,0,1,1,.681,3.06A2.217,2.217,0,0,1,928.224,90.909Z" fill="#7754cc"/>
          </g>
          <g id="Grupo_28250" data-name="Grupo 28250">
            <path id="Trazado_22245" data-name="Trazado 22245" d="M938.914,97.706a2.217,2.217,0,1,1,.681,3.06A2.216,2.216,0,0,1,938.914,97.706Z" fill="#7754cc"/>
          </g>
          <g id="Grupo_28251" data-name="Grupo 28251">
            <circle id="Elipse_1016" data-name="Elipse 1016" cx="2.217" cy="2.217" r="2.217" transform="translate(949.159 103.598)" fill="#7754cc"/>
          </g>
          <g id="Grupo_28252" data-name="Grupo 28252">
            <path id="Trazado_22246" data-name="Trazado 22246" d="M958.766,113.205a2.217,2.217,0,1,1,0,3.135A2.216,2.216,0,0,1,958.766,113.205Z" fill="#7754cc"/>
          </g>
          <g id="Grupo_28253" data-name="Grupo 28253">
            <path id="Trazado_22247" data-name="Trazado 22247" d="M967.723,122.162a2.217,2.217,0,1,1,0,3.135A2.218,2.218,0,0,1,967.723,122.162Z" fill="#7754cc"/>
          </g>
          <g id="Grupo_28254" data-name="Grupo 28254">
            <path id="Trazado_22248" data-name="Trazado 22248" d="M976.681,131.12a2.217,2.217,0,1,1,0,3.135A2.216,2.216,0,0,1,976.681,131.12Z" fill="#7754cc"/>
          </g>
          <g id="Grupo_28255" data-name="Grupo 28255">
            <path id="Trazado_22249" data-name="Trazado 22249" d="M984.778,140.767a2.217,2.217,0,1,1-.682,3.06A2.216,2.216,0,0,1,984.778,140.767Z" fill="#7754cc"/>
          </g>
          <g id="Grupo_28256" data-name="Grupo 28256">
            <path id="Trazado_22250" data-name="Trazado 22250" d="M991.574,151.457a2.217,2.217,0,1,1-.681,3.061A2.218,2.218,0,0,1,991.574,151.457Z" fill="#7754cc"/>
          </g>
          <g id="Grupo_28257" data-name="Grupo 28257">
            <path id="Trazado_22251" data-name="Trazado 22251" d="M998.371,162.148a2.217,2.217,0,1,1-.682,3.06A2.217,2.217,0,0,1,998.371,162.148Z" fill="#7754cc"/>
          </g>
          <g id="Grupo_28258" data-name="Grupo 28258">
            <path id="Trazado_22252" data-name="Trazado 22252" d="M1005.426,172.711a2.217,2.217,0,1,1-1.342,2.834A2.217,2.217,0,0,1,1005.426,172.711Z" fill="#7754cc"/>
          </g>
          <g id="Grupo_28259" data-name="Grupo 28259">
            <path id="Trazado_22253" data-name="Trazado 22253" d="M1009.689,184.64a2.217,2.217,0,1,1-1.341,2.834A2.218,2.218,0,0,1,1009.689,184.64Z" fill="#7754cc"/>
          </g>
          <g id="Grupo_28260" data-name="Grupo 28260">
            <path id="Trazado_22254" data-name="Trazado 22254" d="M1013.953,196.569a2.217,2.217,0,1,1-1.342,2.833A2.216,2.216,0,0,1,1013.953,196.569Z" fill="#7754cc"/>
          </g>
          <g id="Grupo_28261" data-name="Grupo 28261">
            <path id="Trazado_22255" data-name="Trazado 22255" d="M1018.216,208.5a2.216,2.216,0,1,1-1.341,2.833A2.216,2.216,0,0,1,1018.216,208.5Z" fill="#7754cc"/>
          </g>
          <g id="Grupo_28262" data-name="Grupo 28262">
            <path id="Trazado_22256" data-name="Trazado 22256" d="M1021.517,220.651a2.217,2.217,0,1,1-1.949,2.456A2.217,2.217,0,0,1,1021.517,220.651Z" fill="#7754cc"/>
          </g>
          <g id="Grupo_28263" data-name="Grupo 28263">
            <path id="Trazado_22257" data-name="Trazado 22257" d="M1022.966,233.235a2.217,2.217,0,1,1-1.948,2.456A2.216,2.216,0,0,1,1022.966,233.235Z" fill="#7754cc"/>
          </g>
          <g id="Grupo_28264" data-name="Grupo 28264">
            <path id="Trazado_22258" data-name="Trazado 22258" d="M1024.416,245.82a2.217,2.217,0,1,1-1.949,2.456A2.217,2.217,0,0,1,1024.416,245.82Z" fill="#7754cc"/>
          </g>
          <g id="Grupo_28265" data-name="Grupo 28265">
            <path id="Trazado_22259" data-name="Trazado 22259" d="M1025.865,258.4a2.217,2.217,0,1,1-1.948,2.456A2.219,2.219,0,0,1,1025.865,258.4Z" fill="#7754cc"/>
          </g>
          <g id="Grupo_28266" data-name="Grupo 28266">
            <path id="Trazado_22260" data-name="Trazado 22260" d="M1025.487,271a2.217,2.217,0,1,1-2.429,1.982A2.217,2.217,0,0,1,1025.487,271Z" fill="#7754cc"/>
          </g>
          <g id="Grupo_28267" data-name="Grupo 28267">
            <path id="Trazado_22261" data-name="Trazado 22261" d="M1024.209,283.605a2.217,2.217,0,1,1-2.429,1.981A2.216,2.216,0,0,1,1024.209,283.605Z" fill="#7754cc"/>
          </g>
          <g id="Grupo_28268" data-name="Grupo 28268">
            <path id="Trazado_22262" data-name="Trazado 22262" d="M1022.932,296.208a2.217,2.217,0,1,1-2.429,1.982A2.217,2.217,0,0,1,1022.932,296.208Z" fill="#7754cc"/>
          </g>
          <g id="Grupo_28269" data-name="Grupo 28269">
            <path id="Trazado_22263" data-name="Trazado 22263" d="M1020.785,308.632a2.217,2.217,0,1,1-2.78,1.451A2.217,2.217,0,0,1,1020.785,308.632Z" fill="#7754cc"/>
          </g>
          <g id="Grupo_28270" data-name="Grupo 28270">
            <path id="Trazado_22264" data-name="Trazado 22264" d="M1016.988,320.717a2.217,2.217,0,1,1-2.78,1.451A2.217,2.217,0,0,1,1016.988,320.717Z" fill="#7754cc"/>
          </g>
          <g id="Grupo_28271" data-name="Grupo 28271">
            <path id="Trazado_22265" data-name="Trazado 22265" d="M1013.19,332.8a2.216,2.216,0,1,1-2.779,1.45A2.217,2.217,0,0,1,1013.19,332.8Z" fill="#7754cc"/>
          </g>
          <g id="Grupo_28272" data-name="Grupo 28272">
            <path id="Trazado_22266" data-name="Trazado 22266" d="M1009.1,344.761a2.217,2.217,0,1,1-3.014.864A2.217,2.217,0,0,1,1009.1,344.761Z" fill="#7754cc"/>
          </g>
          <g id="Grupo_28273" data-name="Grupo 28273">
            <path id="Trazado_22267" data-name="Trazado 22267" d="M1002.954,355.839a2.217,2.217,0,1,1-3.014.863A2.217,2.217,0,0,1,1002.954,355.839Z" fill="#7754cc"/>
          </g>
          <g id="Grupo_28274" data-name="Grupo 28274">
            <path id="Trazado_22268" data-name="Trazado 22268" d="M996.808,366.916a2.217,2.217,0,1,1-3.014.863A2.217,2.217,0,0,1,996.808,366.916Z" fill="#7754cc"/>
          </g>
          <g id="Grupo_28275" data-name="Grupo 28275">
            <path id="Trazado_22269" data-name="Trazado 22269" d="M990.737,378.045a2.217,2.217,0,1,1-3.125.244A2.218,2.218,0,0,1,990.737,378.045Z" fill="#7754cc"/>
          </g>
          <g id="Grupo_28276" data-name="Grupo 28276">
            <path id="Trazado_22270" data-name="Trazado 22270" d="M982.505,387.673a2.217,2.217,0,1,1-3.125.245A2.217,2.217,0,0,1,982.505,387.673Z" fill="#7754cc"/>
          </g>
          <g id="Grupo_28277" data-name="Grupo 28277">
            <path id="Trazado_22271" data-name="Trazado 22271" d="M974.273,397.3a2.217,2.217,0,1,1-3.126.245A2.218,2.218,0,0,1,974.273,397.3Z" fill="#7754cc"/>
          </g>
          <g id="Grupo_28278" data-name="Grupo 28278">
            <path id="Trazado_22272" data-name="Trazado 22272" d="M966.041,406.93a2.217,2.217,0,1,1-3.126.244A2.216,2.216,0,0,1,966.041,406.93Z" fill="#7754cc"/>
          </g>
        </g>
        <g id="Grupo_28295" data-name="Grupo 28295">
          <rect id="Rectángulo_4399" data-name="Rectángulo 4399" width="78.5" height="44.25" rx="5.375" transform="translate(725.645 322.879)" fill="#afdff9"/>
          <path id="Trazado_22273" data-name="Trazado 22273" d="M726.939,342.647a2.217,2.217,0,1,1,.812,3.029A2.218,2.218,0,0,1,726.939,342.647Z" fill="#89d3f4" opacity="0.3" style="mix-blend-mode: multiply;isolation: isolate"/>
          <path id="Trazado_22274" data-name="Trazado 22274" d="M737.91,348.982a2.217,2.217,0,1,1,.811,3.029A2.217,2.217,0,0,1,737.91,348.982Z" fill="#89d3f4" opacity="0.3" style="mix-blend-mode: multiply;isolation: isolate"/>
          <path id="Trazado_22275" data-name="Trazado 22275" d="M749.9,352.517a2.217,2.217,0,1,1,1.795,2.57A2.217,2.217,0,0,1,749.9,352.517Z" fill="#89d3f4" opacity="0.3" style="mix-blend-mode: multiply;isolation: isolate"/>
          <path id="Trazado_22276" data-name="Trazado 22276" d="M762.374,354.73a2.217,2.217,0,1,1,1.795,2.57A2.216,2.216,0,0,1,762.374,354.73Z" fill="#89d3f4" opacity="0.3" style="mix-blend-mode: multiply;isolation: isolate"/>
          <path id="Trazado_22277" data-name="Trazado 22277" d="M774.853,355.5a2.217,2.217,0,1,1,2.554,1.819A2.216,2.216,0,0,1,774.853,355.5Z" fill="#89d3f4" opacity="0.3" style="mix-blend-mode: multiply;isolation: isolate"/>
          <path id="Trazado_22278" data-name="Trazado 22278" d="M787.345,353.4a2.217,2.217,0,1,1,2.554,1.819A2.218,2.218,0,0,1,787.345,353.4Z" fill="#89d3f4" opacity="0.3" style="mix-blend-mode: multiply;isolation: isolate"/>
          <path id="Trazado_22279" data-name="Trazado 22279" d="M799.692,350.879a2.217,2.217,0,1,1,3.006.892A2.217,2.217,0,0,1,799.692,350.879Z" fill="#89d3f4" opacity="0.3" style="mix-blend-mode: multiply;isolation: isolate"/>
          <g id="Grupo_28294" data-name="Grupo 28294">
            <g id="Grupo_28280" data-name="Grupo 28280">
              <path id="Trazado_22280" data-name="Trazado 22280" d="M699.632,307.88a2.217,2.217,0,1,1-.24,3.126A2.216,2.216,0,0,1,699.632,307.88Z" fill="#7754cc"/>
            </g>
            <g id="Grupo_28281" data-name="Grupo 28281">
              <path id="Trazado_22281" data-name="Trazado 22281" d="M707.878,317.5a2.217,2.217,0,1,1-.239,3.126A2.217,2.217,0,0,1,707.878,317.5Z" fill="#7754cc"/>
            </g>
            <g id="Grupo_28282" data-name="Grupo 28282">
              <path id="Trazado_22282" data-name="Trazado 22282" d="M715.969,327.3a2.217,2.217,0,1,1,.812,3.029A2.218,2.218,0,0,1,715.969,327.3Z" fill="#7754cc"/>
            </g>
            <g id="Grupo_28283" data-name="Grupo 28283">
              <path id="Trazado_22283" data-name="Trazado 22283" d="M726.939,333.634a2.217,2.217,0,1,1,.812,3.029A2.218,2.218,0,0,1,726.939,333.634Z" fill="#7754cc"/>
            </g>
            <g id="Grupo_28284" data-name="Grupo 28284">
              <path id="Trazado_22284" data-name="Trazado 22284" d="M737.91,339.969a2.217,2.217,0,1,1,.811,3.028A2.217,2.217,0,0,1,737.91,339.969Z" fill="#7754cc"/>
            </g>
            <g id="Grupo_28285" data-name="Grupo 28285">
              <path id="Trazado_22285" data-name="Trazado 22285" d="M749.9,343.5a2.217,2.217,0,1,1,1.795,2.57A2.217,2.217,0,0,1,749.9,343.5Z" fill="#7754cc"/>
            </g>
            <g id="Grupo_28286" data-name="Grupo 28286">
              <path id="Trazado_22286" data-name="Trazado 22286" d="M762.374,345.717a2.217,2.217,0,1,1,1.795,2.57A2.216,2.216,0,0,1,762.374,345.717Z" fill="#7754cc"/>
            </g>
            <g id="Grupo_28287" data-name="Grupo 28287">
              <path id="Trazado_22287" data-name="Trazado 22287" d="M774.853,346.489a2.217,2.217,0,1,1,2.554,1.819A2.217,2.217,0,0,1,774.853,346.489Z" fill="#7754cc"/>
            </g>
            <g id="Grupo_28288" data-name="Grupo 28288">
              <path id="Trazado_22288" data-name="Trazado 22288" d="M787.345,344.388a2.217,2.217,0,1,1,2.554,1.819A2.217,2.217,0,0,1,787.345,344.388Z" fill="#7754cc"/>
            </g>
            <g id="Grupo_28289" data-name="Grupo 28289">
              <path id="Trazado_22289" data-name="Trazado 22289" d="M799.692,341.866a2.217,2.217,0,1,1,3.006.891A2.218,2.218,0,0,1,799.692,341.866Z" fill="#7754cc"/>
            </g>
            <g id="Grupo_28290" data-name="Grupo 28290">
              <path id="Trazado_22290" data-name="Trazado 22290" d="M810.827,335.825a2.217,2.217,0,1,1,3.006.892A2.217,2.217,0,0,1,810.827,335.825Z" fill="#7754cc"/>
            </g>
            <g id="Grupo_28291" data-name="Grupo 28291">
              <path id="Trazado_22291" data-name="Trazado 22291" d="M822.067,329.921a2.217,2.217,0,1,1,3.134-.1A2.217,2.217,0,0,1,822.067,329.921Z" fill="#7754cc"/>
            </g>
            <g id="Grupo_28292" data-name="Grupo 28292">
              <path id="Trazado_22292" data-name="Trazado 22292" d="M830.728,320.677a2.217,2.217,0,1,1,3.134-.1A2.218,2.218,0,0,1,830.728,320.677Z" fill="#7754cc"/>
            </g>
            <g id="Grupo_28293" data-name="Grupo 28293">
              <path id="Trazado_22293" data-name="Trazado 22293" d="M839.389,311.432a2.217,2.217,0,1,1,3.133-.1A2.217,2.217,0,0,1,839.389,311.432Z" fill="#7754cc"/>
            </g>
          </g>
        </g>
        <g id="Grupo_28296" data-name="Grupo 28296">
          <rect id="Rectángulo_4400" data-name="Rectángulo 4400" width="116" height="64.667" rx="7.875" transform="translate(657.979 42.44)" fill="#afdff9"/>
          <rect id="Rectángulo_4401" data-name="Rectángulo 4401" width="10.316" height="42.433" transform="translate(700.108 54.371)" fill="#89d3f4"/>
          <rect id="Rectángulo_4402" data-name="Rectángulo 4402" width="10.316" height="42.433" transform="translate(722.285 54.371)" fill="#89d3f4"/>
          <rect id="Rectángulo_4403" data-name="Rectángulo 4403" width="10.316" height="48.967" transform="translate(744.461 47.836)" fill="#89d3f4"/>
          <rect id="Rectángulo_4404" data-name="Rectángulo 4404" width="10.316" height="16.579" transform="translate(677.932 80.225)" fill="#89d3f4"/>
          <path id="Trazado_22294" data-name="Trazado 22294" d="M707.714,43.327a2.218,2.218,0,1,1,.1,3.134A2.218,2.218,0,0,1,707.714,43.327Z" fill="#89d3f4" opacity="0.3" style="mix-blend-mode: multiply;isolation: isolate"/>
          <path id="Trazado_22295" data-name="Trazado 22295" d="M716.955,52a2.218,2.218,0,1,1,.1,3.134A2.217,2.217,0,0,1,716.955,52Z" fill="#89d3f4" opacity="0.3" style="mix-blend-mode: multiply;isolation: isolate"/>
          <path id="Trazado_22296" data-name="Trazado 22296" d="M724.663,61.932a2.218,2.218,0,1,1-.7,3.058A2.217,2.217,0,0,1,724.663,61.932Z" fill="#89d3f4" opacity="0.3" style="mix-blend-mode: multiply;isolation: isolate"/>
          <path id="Trazado_22297" data-name="Trazado 22297" d="M731.406,72.66a2.218,2.218,0,1,1-.7,3.058A2.219,2.219,0,0,1,731.406,72.66Z" fill="#89d3f4" opacity="0.3" style="mix-blend-mode: multiply;isolation: isolate"/>
          <path id="Trazado_22298" data-name="Trazado 22298" d="M737.418,83.725a2.217,2.217,0,1,1-1.464,2.774A2.219,2.219,0,0,1,737.418,83.725Z" fill="#89d3f4" opacity="0.3" style="mix-blend-mode: multiply;isolation: isolate"/>
          <path id="Trazado_22299" data-name="Trazado 22299" d="M741.16,95.832a2.217,2.217,0,1,1-1.464,2.774A2.218,2.218,0,0,1,741.16,95.832Z" fill="#89d3f4" opacity="0.3" style="mix-blend-mode: multiply;isolation: isolate"/>
        </g>
        <g id="Grupo_28325" data-name="Grupo 28325">
          <g id="Grupo_28297" data-name="Grupo 28297">
            <path id="Trazado_22300" data-name="Trazado 22300" d="M514.9,104.763a2.217,2.217,0,1,1,2.851-1.3A2.217,2.217,0,0,1,514.9,104.763Z" fill="#7754cc"/>
          </g>
          <g id="Grupo_28298" data-name="Grupo 28298">
            <path id="Trazado_22301" data-name="Trazado 22301" d="M519.324,92.892a2.217,2.217,0,1,1,2.851-1.3A2.215,2.215,0,0,1,519.324,92.892Z" fill="#7754cc"/>
          </g>
          <g id="Grupo_28299" data-name="Grupo 28299">
            <path id="Trazado_22302" data-name="Trazado 22302" d="M524.394,81.368a2.217,2.217,0,1,1,3.1-.5A2.216,2.216,0,0,1,524.394,81.368Z" fill="#7754cc"/>
          </g>
          <g id="Grupo_28300" data-name="Grupo 28300">
            <path id="Trazado_22303" data-name="Trazado 22303" d="M531.811,71.1a2.217,2.217,0,1,1,3.1-.5A2.217,2.217,0,0,1,531.811,71.1Z" fill="#7754cc"/>
          </g>
          <g id="Grupo_28301" data-name="Grupo 28301">
            <path id="Trazado_22304" data-name="Trazado 22304" d="M539.229,60.83a2.217,2.217,0,1,1,3.095-.5A2.216,2.216,0,0,1,539.229,60.83Z" fill="#7754cc"/>
          </g>
          <g id="Grupo_28302" data-name="Grupo 28302">
            <path id="Trazado_22305" data-name="Trazado 22305" d="M548.618,52.427a2.217,2.217,0,1,1,3.118.327A2.217,2.217,0,0,1,548.618,52.427Z" fill="#7754cc"/>
          </g>
          <g id="Grupo_28303" data-name="Grupo 28303">
            <path id="Trazado_22306" data-name="Trazado 22306" d="M558.462,44.454a2.217,2.217,0,1,1,3.118.327A2.217,2.217,0,0,1,558.462,44.454Z" fill="#7754cc"/>
          </g>
          <g id="Grupo_28304" data-name="Grupo 28304">
            <path id="Trazado_22307" data-name="Trazado 22307" d="M569.032,37.673a2.217,2.217,0,1,1,2.921,1.139A2.216,2.216,0,0,1,569.032,37.673Z" fill="#7754cc"/>
          </g>
          <g id="Grupo_28305" data-name="Grupo 28305">
            <path id="Trazado_22308" data-name="Trazado 22308" d="M580.633,32.584a2.217,2.217,0,1,1,2.92,1.139A2.217,2.217,0,0,1,580.633,32.584Z" fill="#7754cc"/>
          </g>
          <g id="Grupo_28306" data-name="Grupo 28306">
            <path id="Trazado_22309" data-name="Trazado 22309" d="M592.217,27.436a2.217,2.217,0,1,1,2.5,1.89A2.217,2.217,0,0,1,592.217,27.436Z" fill="#7754cc"/>
          </g>
          <g id="Grupo_28307" data-name="Grupo 28307">
            <path id="Trazado_22310" data-name="Trazado 22310" d="M604.763,25.689a2.217,2.217,0,1,1,2.5,1.89A2.217,2.217,0,0,1,604.763,25.689Z" fill="#7754cc"/>
          </g>
          <g id="Grupo_28308" data-name="Grupo 28308">
            <path id="Trazado_22311" data-name="Trazado 22311" d="M617.31,23.942a2.217,2.217,0,1,1,2.5,1.891A2.217,2.217,0,0,1,617.31,23.942Z" fill="#7754cc"/>
          </g>
          <g id="Grupo_28309" data-name="Grupo 28309">
            <path id="Trazado_22312" data-name="Trazado 22312" d="M629.861,23.8a2.217,2.217,0,1,1,1.9,2.493A2.217,2.217,0,0,1,629.861,23.8Z" fill="#7754cc"/>
          </g>
          <g id="Grupo_28310" data-name="Grupo 28310">
            <path id="Trazado_22313" data-name="Trazado 22313" d="M642.416,25.484a2.217,2.217,0,1,1,1.9,2.493A2.217,2.217,0,0,1,642.416,25.484Z" fill="#7754cc"/>
          </g>
          <g id="Grupo_28311" data-name="Grupo 28311">
            <path id="Trazado_22314" data-name="Trazado 22314" d="M654.939,27.287a2.217,2.217,0,1,1,1.181,2.9A2.217,2.217,0,0,1,654.939,27.287Z" fill="#7754cc"/>
          </g>
          <g id="Grupo_28312" data-name="Grupo 28312">
            <path id="Trazado_22315" data-name="Trazado 22315" d="M666.61,32.212a2.217,2.217,0,1,1,1.181,2.9A2.218,2.218,0,0,1,666.61,32.212Z" fill="#7754cc"/>
          </g>
          <g id="Grupo_28313" data-name="Grupo 28313">
            <path id="Trazado_22316" data-name="Trazado 22316" d="M678.281,37.137a2.217,2.217,0,1,1,1.181,2.9A2.216,2.216,0,0,1,678.281,37.137Z" fill="#7754cc"/>
          </g>
          <g id="Grupo_28314" data-name="Grupo 28314">
            <path id="Trazado_22317" data-name="Trazado 22317" d="M688.823,44a2.217,2.217,0,1,1,.4,3.11A2.218,2.218,0,0,1,688.823,44Z" fill="#7754cc"/>
          </g>
          <g id="Grupo_28315" data-name="Grupo 28315">
            <path id="Trazado_22318" data-name="Trazado 22318" d="M698.847,51.741a2.217,2.217,0,1,1,.4,3.11A2.218,2.218,0,0,1,698.847,51.741Z" fill="#7754cc"/>
          </g>
          <g id="Grupo_28316" data-name="Grupo 28316">
            <path id="Trazado_22319" data-name="Trazado 22319" d="M708.033,60.325a2.217,2.217,0,1,1-.4,3.11A2.216,2.216,0,0,1,708.033,60.325Z" fill="#7754cc"/>
          </g>
          <g id="Grupo_28317" data-name="Grupo 28317">
            <path id="Trazado_22320" data-name="Trazado 22320" d="M715.778,70.35a2.216,2.216,0,1,1-.4,3.109A2.215,2.215,0,0,1,715.778,70.35Z" fill="#7754cc"/>
          </g>
          <g id="Grupo_28318" data-name="Grupo 28318">
            <path id="Trazado_22321" data-name="Trazado 22321" d="M723.381,80.457a2.217,2.217,0,1,1-1.181,2.9A2.216,2.216,0,0,1,723.381,80.457Z" fill="#7754cc"/>
          </g>
          <g id="Grupo_28319" data-name="Grupo 28319">
            <path id="Trazado_22322" data-name="Trazado 22322" d="M728.306,92.128a2.217,2.217,0,1,1-1.181,2.9A2.216,2.216,0,0,1,728.306,92.128Z" fill="#7754cc"/>
          </g>
          <g id="Grupo_28320" data-name="Grupo 28320">
            <path id="Trazado_22323" data-name="Trazado 22323" d="M733.231,103.8a2.217,2.217,0,1,1-1.181,2.9A2.216,2.216,0,0,1,733.231,103.8Z" fill="#7754cc"/>
          </g>
          <g id="Grupo_28321" data-name="Grupo 28321">
            <path id="Trazado_22324" data-name="Trazado 22324" d="M735.888,116.089a2.217,2.217,0,1,1-1.9,2.493A2.217,2.217,0,0,1,735.888,116.089Z" fill="#7754cc"/>
          </g>
          <g id="Grupo_28322" data-name="Grupo 28322">
            <path id="Trazado_22325" data-name="Trazado 22325" d="M737.575,128.644a2.217,2.217,0,1,1-1.9,2.492A2.217,2.217,0,0,1,737.575,128.644Z" fill="#7754cc"/>
          </g>
          <g id="Grupo_28323" data-name="Grupo 28323">
            <path id="Trazado_22326" data-name="Trazado 22326" d="M738.537,141.219a2.217,2.217,0,1,1-2.384,2.035A2.217,2.217,0,0,1,738.537,141.219Z" fill="#7754cc"/>
          </g>
          <g id="Grupo_28324" data-name="Grupo 28324">
            <path id="Trazado_22327" data-name="Trazado 22327" d="M737.539,153.847a2.217,2.217,0,1,1-2.384,2.035A2.218,2.218,0,0,1,737.539,153.847Z" fill="#7754cc"/>
          </g>
        </g>
        <g id="Grupo_28342" data-name="Grupo 28342">
          <path id="Trazado_22328" data-name="Trazado 22328" d="M757.929,295.716h-178.5a10.6,10.6,0,0,1-10.583-10.583V181.3a10.594,10.594,0,0,1,10.583-10.583h178.5A10.6,10.6,0,0,1,768.513,181.3V285.133A10.6,10.6,0,0,1,757.929,295.716Zm-178.5-122.5a8.092,8.092,0,0,0-8.083,8.083V285.133a8.092,8.092,0,0,0,8.083,8.083h178.5a8.092,8.092,0,0,0,8.084-8.083V181.3a8.092,8.092,0,0,0-8.084-8.083Z" fill="#afdff9"/>
          <rect id="Rectángulo_4405" data-name="Rectángulo 4405" width="197.167" height="122.5" rx="9.333" transform="translate(561.979 179)" fill="#afdff9"/>
          <g id="Grupo_28333" data-name="Grupo 28333">
            <g id="Grupo_28326" data-name="Grupo 28326">
              <path id="Trazado_22329" data-name="Trazado 22329" d="M485.773,252.285a2.217,2.217,0,1,1-.936,2.992A2.217,2.217,0,0,1,485.773,252.285Z" fill="#7754cc"/>
            </g>
            <g id="Grupo_28327" data-name="Grupo 28327">
              <path id="Trazado_22330" data-name="Trazado 22330" d="M491.866,263.347a2.217,2.217,0,1,1,.011,3.135A2.216,2.216,0,0,1,491.866,263.347Z" fill="#7754cc"/>
            </g>
            <g id="Grupo_28328" data-name="Grupo 28328">
              <path id="Trazado_22331" data-name="Trazado 22331" d="M500.855,272.273a2.217,2.217,0,1,1,.011,3.135A2.216,2.216,0,0,1,500.855,272.273Z" fill="#7754cc"/>
            </g>
            <g id="Grupo_28329" data-name="Grupo 28329">
              <path id="Trazado_22332" data-name="Trazado 22332" d="M510.649,280.092a2.217,2.217,0,1,1,.957,2.985A2.216,2.216,0,0,1,510.649,280.092Z" fill="#7754cc"/>
            </g>
            <g id="Grupo_28330" data-name="Grupo 28330">
              <path id="Trazado_22333" data-name="Trazado 22333" d="M521.913,285.887a2.217,2.217,0,1,1,.957,2.985A2.216,2.216,0,0,1,521.913,285.887Z" fill="#7754cc"/>
            </g>
            <g id="Grupo_28331" data-name="Grupo 28331">
              <path id="Trazado_22334" data-name="Trazado 22334" d="M533.949,289.332a2.217,2.217,0,1,1,1.837,2.541A2.216,2.216,0,0,1,533.949,289.332Z" fill="#7754cc"/>
            </g>
            <g id="Grupo_28332" data-name="Grupo 28332">
              <path id="Trazado_22335" data-name="Trazado 22335" d="M546.456,291.34a2.217,2.217,0,1,1,1.838,2.541A2.218,2.218,0,0,1,546.456,291.34Z" fill="#7754cc"/>
            </g>
          </g>
          <path id="Trazado_22336" data-name="Trazado 22336" d="M571.312,179a9.333,9.333,0,0,0-9.333,9.333v57.574h72.173a10.167,10.167,0,0,0,10.167-10.167V179Z" fill="#89d3f4"/>
          <path id="Trazado_22337" data-name="Trazado 22337" d="M629.69,116.333H423.812A10.167,10.167,0,0,0,413.645,126.5v105a10.167,10.167,0,0,0,10.167,10.167h5.833c6.667,25.5,38.667,27.833,38.667,27.833s-14.5-10.878-14.833-27.833H629.69A10.167,10.167,0,0,0,639.857,231.5v-105A10.167,10.167,0,0,0,629.69,116.333Z" fill="#afdff9"/>
          <g id="Grupo_28334" data-name="Grupo 28334">
            <path id="Trazado_22338" data-name="Trazado 22338" d="M746.587,266.551c-.5,1.219-1.009,2.436-1.505,3.657-.509,1.252-1.007,2.508-1.511,3.762a1.645,1.645,0,0,1-2.054,1.092c-1.484-.289-2.969-.567-4.452-.86a2.326,2.326,0,0,0-2.185.693c-1.075,1.063-2.123,2.154-3.175,3.241a2.414,2.414,0,0,0-.681,2.318c.317,1.448.626,2.9.938,4.346a1.679,1.679,0,0,1-1.126,2.153q-3.411,1.444-6.816,2.9a1.669,1.669,0,0,1-2.325-.686q-1.231-1.827-2.469-3.648a2.462,2.462,0,0,0-2.182-1.134c-1.454.011-2.908.034-4.362.048a2.528,2.528,0,0,0-2.252,1.25c-.776,1.229-1.587,2.436-2.35,3.672a2.33,2.33,0,0,1-1.209.933h-.611c-.411-.176-.819-.361-1.234-.528-2.1-.846-4.209-1.684-6.31-2.533a1.6,1.6,0,0,1-1.041-1.765c.293-1.572.6-3.14.91-4.71a2.115,2.115,0,0,0-.5-1.943c-1.2-1.244-2.421-2.468-3.7-3.629a2.129,2.129,0,0,0-1.957-.49c-1.515.344-3.036.667-4.556.991a1.628,1.628,0,0,1-2-1.045q-1.492-3.486-2.979-6.976a1.642,1.642,0,0,1,.654-2.229q1.844-1.246,3.686-2.491a2.484,2.484,0,0,0,1.149-2.22c-.02-1.454-.029-2.909-.045-4.363a2.483,2.483,0,0,0-1.2-2.193c-1.286-.823-2.572-1.645-3.851-2.478a1.581,1.581,0,0,1-.68-1.935q1.464-3.711,2.968-7.4a1.569,1.569,0,0,1,1.81-.955q2.248.426,4.495.866a2.467,2.467,0,0,0,2.385-.735q1.521-1.562,3.048-3.117a2.541,2.541,0,0,0,.714-2.514c-.326-1.416-.624-2.839-.927-4.26a1.637,1.637,0,0,1,1.067-2.064q3.445-1.478,6.894-2.947a1.659,1.659,0,0,1,2.322.7q1.224,1.8,2.443,3.613a2.479,2.479,0,0,0,2.212,1.157c1.455-.016,2.91-.024,4.364-.041a2.514,2.514,0,0,0,2.225-1.223q1.029-1.622,2.076-3.229c1-1.536,1.293-1.646,2.986-.99,2.18.845,4.349,1.718,6.521,2.585a1.645,1.645,0,0,1,1.143,2.1q-.434,2.226-.855,4.454a2.292,2.292,0,0,0,.657,2.121q1.658,1.674,3.371,3.293a2.273,2.273,0,0,0,2.092.62q2.262-.462,4.515-.971a1.676,1.676,0,0,1,2.056,1.015c.122.279.218.569.339.849.868,2.012,1.745,4.02,2.607,6.034a1.68,1.68,0,0,1-.726,2.42q-1.809,1.217-3.613,2.442a2.364,2.364,0,0,0-1.1,2.023c-.007,1.542,0,3.084.039,4.625a2.42,2.42,0,0,0,1.17,2.075c1.127.721,2.239,1.465,3.377,2.167a2.741,2.741,0,0,1,1.3,1.389ZM714.52,281.573a23.327,23.327,0,1,0-23.309-23.283A23.35,23.35,0,0,0,714.52,281.573Z" fill="#89d3f4"/>
            <path id="Trazado_22339" data-name="Trazado 22339" d="M657.2,220.812a1.494,1.494,0,0,1,1.242-.885c.859-.144,1.706-.358,2.56-.536a1.712,1.712,0,0,0,1.327-1.134q.508-1.323,1.03-2.64a1.642,1.642,0,0,0-.193-1.652q-.822-1.155-1.641-2.312a1.126,1.126,0,0,1,.114-1.673q1.689-1.763,3.385-3.522a1.1,1.1,0,0,1,1.564-.177q1.214.774,2.416,1.564a1.663,1.663,0,0,0,1.7.139c.877-.39,1.759-.767,2.635-1.156a1.621,1.621,0,0,0,1.009-1.272c.163-.96.335-1.918.5-2.878a1.106,1.106,0,0,1,1.22-1.042c.9-.017,1.8-.028,2.705-.049a4.787,4.787,0,0,0,.514-.066h2.094a1.473,1.473,0,0,1,.888,1.24c.149.873.367,1.734.551,2.6a1.644,1.644,0,0,0,1.085,1.26c.88.342,1.763.679,2.638,1.036a1.681,1.681,0,0,0,1.728-.205c.757-.543,1.518-1.078,2.279-1.614a1.126,1.126,0,0,1,1.672.116q1.747,1.677,3.49,3.359a1.12,1.12,0,0,1,.179,1.632q-.783,1.207-1.568,2.415a1.568,1.568,0,0,0-.154,1.538q.6,1.4,1.224,2.8a1.577,1.577,0,0,0,1.216.955c.973.174,1.947.34,2.92.512a1.088,1.088,0,0,1,1.033,1.182q.053,2.443.1,4.887a1.1,1.1,0,0,1-1.047,1.3c-.937.205-1.875.4-2.813.6a1.6,1.6,0,0,0-1.2,1.033c-.358.89-.7,1.787-1.055,2.676a1.713,1.713,0,0,0,.227,1.767c.565.776,1.116,1.562,1.661,2.352a1.051,1.051,0,0,1-.1,1.464q-1.746,1.83-3.507,3.645c-.542.6-1.07.718-1.491.168-.833-.533-1.66-1.075-2.491-1.611a1.6,1.6,0,0,0-1.579-.142c-.92.4-1.843.79-2.756,1.2a1.583,1.583,0,0,0-.96,1.215c-.174.987-.343,1.976-.519,2.963a1.064,1.064,0,0,1-1.126.994q-2.531.063-5.062.1a1.052,1.052,0,0,1-1.141-.918q-.316-1.425-.613-2.856a1.717,1.717,0,0,0-1.132-1.329c-.853-.331-1.712-.647-2.557-1a1.759,1.759,0,0,0-1.845.23c-.763.558-1.538,1.1-2.314,1.638a1.062,1.062,0,0,1-1.5-.121q-1.813-1.734-3.619-3.475a1.069,1.069,0,0,1-.172-1.492c.523-.822,1.048-1.643,1.586-2.455a1.674,1.674,0,0,0,.143-1.7q-.574-1.319-1.158-2.634a1.63,1.63,0,0,0-1.272-1.01c-.96-.166-1.919-.338-2.879-.5a1.1,1.1,0,0,1-1.046-1.175c-.01-.2,0-.408-.01-.611q-.054-1.5-.109-3Zm9.251,2.422a12.488,12.488,0,1,0,12.476-12.468A12.522,12.522,0,0,0,666.455,223.234Z" fill="#89d3f4"/>
            <path id="Trazado_22340" data-name="Trazado 22340" d="M693.427,258.3a21.115,21.115,0,1,1,21.186,21.063A21.112,21.112,0,0,1,693.427,258.3Zm21.061,11.425a11.485,11.485,0,1,0-11.443-11.5A11.469,11.469,0,0,0,714.488,269.72Z" fill="#89d3f4"/>
            <path id="Trazado_22341" data-name="Trazado 22341" d="M687.311,223.267a8.369,8.369,0,1,0-8.36,8.354A8.361,8.361,0,0,0,687.311,223.267Z" fill="#89d3f4"/>
          </g>
          <g id="Grupo_28335" data-name="Grupo 28335">
            <path id="Trazado_22342" data-name="Trazado 22342" d="M665.679,287.761H576.1a3.5,3.5,0,0,1,0-7h89.58a3.5,3.5,0,0,1,0,7Z" fill="#89d3f4"/>
          </g>
          <g id="Grupo_28336" data-name="Grupo 28336">
            <path id="Trazado_22343" data-name="Trazado 22343" d="M665.679,272.025H576.1a3.5,3.5,0,0,1,0-7h89.58a3.5,3.5,0,0,1,0,7Z" fill="#89d3f4"/>
          </g>
          <g id="Grupo_28337" data-name="Grupo 28337">
            <path id="Trazado_22344" data-name="Trazado 22344" d="M501.75,143H428.5a3.5,3.5,0,0,1,0-7h73.25a3.5,3.5,0,0,1,0,7Z" fill="#89d3f4"/>
          </g>
          <g id="Grupo_28338" data-name="Grupo 28338">
            <path id="Trazado_22345" data-name="Trazado 22345" d="M501.75,160.389H428.5a3.5,3.5,0,0,1,0-7h73.25a3.5,3.5,0,0,1,0,7Z" fill="#89d3f4"/>
          </g>
          <g id="Grupo_28339" data-name="Grupo 28339">
            <path id="Trazado_22346" data-name="Trazado 22346" d="M501.75,177.778H428.5a3.5,3.5,0,0,1,0-7h73.25a3.5,3.5,0,0,1,0,7Z" fill="#89d3f4"/>
          </g>
          <g id="Grupo_28340" data-name="Grupo 28340">
            <path id="Trazado_22347" data-name="Trazado 22347" d="M744.047,199.56H705.794a3.5,3.5,0,0,1,0-7h38.253a3.5,3.5,0,0,1,0,7Z" fill="#89d3f4"/>
          </g>
          <g id="Grupo_28341" data-name="Grupo 28341">
            <path id="Trazado_22348" data-name="Trazado 22348" d="M744.047,213.185H705.794a3.5,3.5,0,0,1,0-7h38.253a3.5,3.5,0,0,1,0,7Z" fill="#89d3f4"/>
          </g>
          <path id="Trazado_22349" data-name="Trazado 22349" d="M639.857,126.5a10.167,10.167,0,0,0-10.167-10.167H597.752L456.523,241.667h68.749L639.857,137.1Z" fill="#89d3f4" opacity="0.15" style="mix-blend-mode: multiply;isolation: isolate"/>
          <path id="Trazado_22350" data-name="Trazado 22350" d="M548.776,205.475s-41.513,3.541-48.2,36.2h95.908s15.035-8.284,6.983-16.673c-6.312-6.578-15.141-13.22-26.554-15.987C550.94,202.721,548.776,205.475,548.776,205.475Z" fill="#afdff9"/>
          <path id="Trazado_22351" data-name="Trazado 22351" d="M585.525,212.008a48.3,48.3,0,0,0-8.615-2.992c-25.97-6.3-28.134-3.541-28.134-3.541a60.081,60.081,0,0,0-6.1.965v35.236H552.7Z" fill="#c5edff"/>
          <path id="Trazado_22352" data-name="Trazado 22352" d="M528.355,154.085c-.434,9.287-2.992,55.718,20.421,45.094v34.037l28.134-24.2-.655-20.986-12.33-26.823-9.05-16.723Z" fill="#fff"/>
          <path id="Trazado_22353" data-name="Trazado 22353" d="M529.3,154.977c5.509,4.722,20.829-3.8,23.715-3.017s-3.385,15.478,2.78,16.133c7.044.75,2.623,6.821,5.771,7.346s14.691,12.591,14.691,12.591,7.082-27.544,2.1-35.492c-3.028-4.829-10.807-2.763-11.411-3.332-2.23-2.1-1.18-9.837-6.952-11.8-4.228-1.441-8.656,4.2-11.017,2.624s2.076-10.17-2.886-12.067C537.168,124.547,516.61,144.1,529.3,154.977Z" fill="#89d3f4"/>
          <circle id="Elipse_1017" data-name="Elipse 1017" cx="6.493" cy="6.493" r="6.493" transform="translate(560.056 168.88)" fill="#fff"/>
          <path id="Trazado_22354" data-name="Trazado 22354" d="M548.776,199.179s5.017-1.377,14.887-6.3c-4.46,6.3-14.887,18.494-14.887,18.494Z" fill="#afdff9"/>
          <path id="Trazado_22355" data-name="Trazado 22355" d="M639.857,231.5V171.333l-73.308,70.334H629.69A10.167,10.167,0,0,0,639.857,231.5Z" fill="#89d3f4" opacity="0.15" style="mix-blend-mode: multiply;isolation: isolate"/>
          <path id="Trazado_22356" data-name="Trazado 22356" d="M629.469,203.2a13.385,13.385,0,0,0-3.559-8.551c-1.49-1.62-3.594-1.587-5.562-1.734-.4-.03-.99.617-1.268,1.085-1.513,2.549-2.951,5.143-4.425,7.716a1.916,1.916,0,0,0,.341,2.626c1.164,1.041,2.364,2.042,3.555,3.054a2.381,2.381,0,0,1,.52,3.3,31.4,31.4,0,0,1-13.535,13.736,2.253,2.253,0,0,1-3.146-.508c-.952-1.1-1.927-2.187-2.9-3.275a2.069,2.069,0,0,0-2.994-.431c-2.423,1.512-4.891,2.955-7.375,4.364a2.06,2.06,0,0,0-1.1,2.54,10.1,10.1,0,0,0,11.691,7.532c8.82-1.878,15.678-6.857,21.513-13.55a37.078,37.078,0,0,0,8.034-16.373A13.749,13.749,0,0,0,629.469,203.2Z" fill="#fff"/>
          <circle id="Elipse_1018" data-name="Elipse 1018" cx="3.5" cy="3.5" r="3.5" transform="translate(446.146 188.03)" fill="#89d3f4"/>
          <circle id="Elipse_1019" data-name="Elipse 1019" cx="3.5" cy="3.5" r="3.5" transform="translate(462.438 188.03)" fill="#89d3f4"/>
          <circle id="Elipse_1020" data-name="Elipse 1020" cx="3.5" cy="3.5" r="3.5" transform="translate(477.104 188.03)" fill="#89d3f4"/>
        </g>
        <g id="Grupo_28345" data-name="Grupo 28345">
          <path id="Trazado_22357" data-name="Trazado 22357" d="M724.951,443.024H657.2a6.632,6.632,0,0,1-6.625-6.625V402.9a6.633,6.633,0,0,1,6.625-6.625h67.75a6.633,6.633,0,0,1,6.625,6.625v33.5A6.632,6.632,0,0,1,724.951,443.024Zm-67.75-44.25a4.13,4.13,0,0,0-4.125,4.125v33.5a4.13,4.13,0,0,0,4.125,4.125h67.75a4.129,4.129,0,0,0,4.125-4.125V402.9a4.13,4.13,0,0,0-4.125-4.125Z" fill="#afdff9"/>
          <path id="Trazado_22358" data-name="Trazado 22358" d="M830.909,443.024h-67.75a6.632,6.632,0,0,1-6.625-6.625V402.9a6.633,6.633,0,0,1,6.625-6.625h67.75a6.633,6.633,0,0,1,6.625,6.625v33.5A6.632,6.632,0,0,1,830.909,443.024Zm-67.75-44.25a4.13,4.13,0,0,0-4.125,4.125v33.5a4.13,4.13,0,0,0,4.125,4.125h67.75a4.129,4.129,0,0,0,4.125-4.125V402.9a4.13,4.13,0,0,0-4.125-4.125Z" fill="#afdff9"/>
          <path id="Trazado_22359" data-name="Trazado 22359" d="M936.868,443.024h-67.75a6.632,6.632,0,0,1-6.625-6.625V402.9a6.633,6.633,0,0,1,6.625-6.625h67.75a6.633,6.633,0,0,1,6.625,6.625v33.5A6.632,6.632,0,0,1,936.868,443.024Zm-67.75-44.25a4.13,4.13,0,0,0-4.125,4.125v33.5a4.13,4.13,0,0,0,4.125,4.125h67.75a4.129,4.129,0,0,0,4.125-4.125V402.9a4.13,4.13,0,0,0-4.125-4.125Z" fill="#afdff9"/>
          <rect id="Rectángulo_4406" data-name="Rectángulo 4406" width="78.5" height="44.25" rx="5.375" transform="translate(657.979 391.776)" fill="#afdff9"/>
          <rect id="Rectángulo_4407" data-name="Rectángulo 4407" width="78.5" height="44.25" rx="5.375" transform="translate(763.937 391.776)" fill="#afdff9"/>
          <rect id="Rectángulo_4408" data-name="Rectángulo 4408" width="78.5" height="44.25" rx="5.375" transform="translate(869.895 391.776)" fill="#afdff9"/>
          <g id="Grupo_28343" data-name="Grupo 28343">
            <path id="Trazado_22360" data-name="Trazado 22360" d="M780.03,429.272c-14.913,0-32.5-3.244-54.863-12.521-36.683-15.213-55.7-7.209-75.829,1.268-3.861,1.626-7.854,3.306-11.979,4.822a1.25,1.25,0,0,1-.861-2.348c4.07-1.494,8.035-3.164,11.87-4.778,20.626-8.686,40.109-16.89,77.756-1.273,47.989,19.9,73.586,11.537,98.341,3.445,4.842-1.582,9.847-3.219,14.887-4.583,5.173-1.4,10.374-3.072,15.4-4.688,24.835-7.984,50.517-16.239,89.584.934,45.41,19.963,76.044-7.627,98.412-27.77l.76-.684a1.25,1.25,0,0,1,1.672,1.858l-.759.683c-22.874,20.6-54.2,48.812-101.091,28.2-38.2-16.793-63.422-8.685-87.813-.843-5.056,1.625-10.284,3.306-15.514,4.722-4.977,1.347-9.952,2.972-14.764,4.546C811.588,424.726,797.681,429.272,780.03,429.272Z" fill="#89d3f4"/>
          </g>
          <circle id="Elipse_1021" data-name="Elipse 1021" cx="4.5" cy="4.5" r="4.5" transform="translate(686.179 402.87)" fill="#fff"/>
          <circle id="Elipse_1022" data-name="Elipse 1022" cx="4.5" cy="4.5" r="4.5" transform="translate(775.179 422.782)" fill="#fff"/>
          <circle id="Elipse_1023" data-name="Elipse 1023" cx="4.5" cy="4.5" r="4.5" transform="translate(897.179 396.007)" fill="#fff"/>
          <path id="Trazado_22361" data-name="Trazado 22361" d="M736.454,430.9c-4.657-1.518-9.538-3.319-14.683-5.453-12.042-4.995-22.219-7.545-31.176-8.43a4.483,4.483,0,0,0-8.427-.356,76.126,76.126,0,0,0-24.189,4.546v2.652A75.108,75.108,0,0,1,681.91,419.2a4.484,4.484,0,0,0,8.736.36c8.68.88,18.533,3.363,30.168,8.189,5.235,2.171,10.2,4.005,14.938,5.549A5.324,5.324,0,0,0,736.454,430.9Z" fill="#89d3f4" opacity="0.25" style="mix-blend-mode: multiply;isolation: isolate"/>
          <g id="Grupo_28344" data-name="Grupo 28344" opacity="0.3" style="mix-blend-mode: multiply;isolation: isolate">
            <path id="Trazado_22362" data-name="Trazado 22362" d="M842.437,421.981c-2.471.76-4.956,1.5-7.437,2.166-5.04,1.364-10.047,3-14.89,4.583-8.537,2.791-17.177,5.611-26.8,7.295h11.5c5.529-1.476,10.826-3.2,16.08-4.918,4.812-1.573,9.789-3.2,14.765-4.546,2.268-.614,4.532-1.282,6.785-1.969Z" fill="#89d3f4" opacity="0.25" style="mix-blend-mode: multiply;isolation: isolate"/>
            <path id="Trazado_22363" data-name="Trazado 22363" d="M779.283,436.025a4.461,4.461,0,0,0-7.913,0Z" fill="#89d3f4" opacity="0.25" style="mix-blend-mode: multiply;isolation: isolate"/>
          </g>
          <path id="Trazado_22364" data-name="Trazado 22364" d="M948.4,423.614q-4.119-1.343-8.41-3.221c-14.348-6.307-26.886-9.176-38.245-9.9a4.492,4.492,0,0,0-8.793-.146A109.622,109.622,0,0,0,869.9,413.7v2.585a108.227,108.227,0,0,1,23.215-3.41,4.482,4.482,0,0,0,8.39.136c11.142.692,23.431,3.492,37.479,9.668a93.67,93.67,0,0,0,9.416,3.559Z" fill="#89d3f4" opacity="0.25" style="mix-blend-mode: multiply;isolation: isolate"/>
        </g>
        <g id="Grupo_28346" data-name="Grupo 28346">
          <rect id="Rectángulo_4409" data-name="Rectángulo 4409" width="116" height="64.667" rx="7.875" transform="translate(804.145 236.833)" fill="#afdff9"/>
          <path id="Trazado_22365" data-name="Trazado 22365" d="M919.02,295.716H818.77a9.135,9.135,0,0,1-9.125-9.125V237.674a9.136,9.136,0,0,1,9.125-9.125H919.02a9.135,9.135,0,0,1,9.125,9.125v48.917A9.135,9.135,0,0,1,919.02,295.716ZM818.77,231.049a6.633,6.633,0,0,0-6.625,6.625v48.917a6.633,6.633,0,0,0,6.625,6.625H919.02a6.632,6.632,0,0,0,6.625-6.625V237.674a6.632,6.632,0,0,0-6.625-6.625Z" fill="#afdff9"/>
          <rect id="Rectángulo_4410" data-name="Rectángulo 4410" width="60.636" height="35.422" transform="translate(831.668 251.41)" fill="#fff"/>
          <path id="Trazado_22366" data-name="Trazado 22366" d="M895.974,292.529H827.879V265.555L862.757,281.5l33.216-15.947Z" fill="#89d3f4"/>
          <path id="Trazado_22367" data-name="Trazado 22367" d="M895.974,292.529V265.555l-56.184,26.974Z" fill="#c5edff"/>
          <path id="Trazado_22368" data-name="Trazado 22368" d="M885.333,249.833A5.667,5.667,0,1,0,891,244.167,5.667,5.667,0,0,0,885.333,249.833Z" fill="#89d3f4"/>
        </g>
      </g>
      <g id="Girl">
        <path id="Trazado_22369" data-name="Trazado 22369" d="M253.626,352.473H314l51.718,125.855-29.1,65.68-65.1-10.526,17.513-51.811-36.577-87.115Z" fill="#0e62a8"/>
        <path id="Trazado_22370" data-name="Trazado 22370" d="M263.008,524.951l16.876-44.869s-31.822-76.167-32.066-76.772l-.183-.453-.32-.809-.018-.058-.073-.231-.147-.463-.073-.231-.134-.485a20.457,20.457,0,0,1-.5-2.644l-.07-1.007-.123-1.886c-.081-1.248-1.5-40.437-1.506-41.629A2.266,2.266,0,0,1,247.4,351.2l7.579,1.6a2.257,2.257,0,0,1,1.744,1.72l.154.695c.3,1.379,6.82,39.234,6.913,39.862l.137.892a1.7,1.7,0,0,0-.153-.754l-.043-.088c-.023-.048.019.052.025.07l.087.226.175.452.087.227.022.057c-.5-1.258-.123-.317-.227-.584l.053.11.21.441.849,1.776q.854,1.788,1.728,3.617c1.165,2.439,28.431,61.335,33.117,71.639a19.011,19.011,0,0,1,1.231,4.736l.127,1.217.046.607c.009.247-.008.575-.016.847a17.353,17.353,0,0,1-.282,2.8l-.176.915-.065.249-.131.5-.13.5-.033.124-.35,1.084-.088.24q-.354.961-.7,1.912c-.931,2.536-18.452,49-18.452,49Z" fill="#1e7ff0"/>
        <path id="Trazado_22371" data-name="Trazado 22371" d="M368.345,539.443a2.188,2.188,0,0,1-.808-.153,2.219,2.219,0,0,1-1.259-2.875L388.821,478.8c.015-.038.031-.076.049-.114a11.615,11.615,0,0,0-10.563-16.444H332.619a19.789,19.789,0,0,0-18.559,12.7l-9.293,23.906a2.219,2.219,0,0,1-4.137-1.608l9.294-23.906A24.2,24.2,0,0,1,332.619,457.8h45.688a16.054,16.054,0,0,1,14.626,22.67l-22.521,57.563A2.22,2.22,0,0,1,368.345,539.443Z" fill="#2274c6"/>
        <path id="Trazado_22372" data-name="Trazado 22372" d="M309.474,255.23c9.814-5.58,31.328-.59,38.672,0s46.758-6.017,51.786,16.813c7.428,33.726-24.089,44.246-20.55,50.441s12.979,5.162,15.339,11.636c1.992,5.466-5.605,19.314-2.95,23.749s17.7,9.156,15.339,28.034-46.016,74.333-46.016,74.333l-29.281-4.72S314.931,480,289.563,476.759s-41.866-22.077-33.922-39.826c6.932-15.486,21.976-12.2,21.976-12.2s-20.206-10.766,0-20.746c0,0-38.642-10.413-27.924-46.116,9.518-31.708,48.768-25.848,48.768-25.848S275.06,274.8,309.474,255.23Z" fill="#6a3db2"/>
        <path id="Trazado_22373" data-name="Trazado 22373" d="M362.271,359.935l-16.7,88.612-9.714-12.076,67.291,9.819a5.914,5.914,0,0,1-.889,11.766l-68-.407a9.932,9.932,0,0,1-9.872-9.992c0-.29.016-.577.042-.861l.116-1.223,8.525-89.769a14.764,14.764,0,0,1,29.4,2.792C362.418,359.041,362.351,359.5,362.271,359.935Z" fill="#eb8b8d"/>
        <path id="Trazado_22374" data-name="Trazado 22374" d="M443.223,586.542c-11.211,24.928-21.442,47.488-21.8,55.666-.827,18.6-1.034,38.448,12.505,46.2,0,0-19.533,6.511-25.114,0s-1.106-17.673-4.894-22.324-10.454-7.752-9.369-16.9c.834-7.035,14.883-18.139,14.883-18.139,4.406-18.827,3.878-39.038,6.6-58.337C418.54,554.917,457.515,554.764,443.223,586.542Z" fill="#eb8b8d"/>
        <path id="Trazado_22375" data-name="Trazado 22375" d="M362.272,359.493s-.9,5.586-2.364,13.948c-.75,4.179-1.625,9.055-2.562,14.278s-1.986,10.788-3.043,16.352c-1.036,5.566-2.127,11.125-3.141,16.338s-1.964,10.077-2.809,14.242c-1.67,8.334-2.784,13.889-2.784,13.889a10.637,10.637,0,0,1-21.031-2.96l1.158-14.118c.338-4.236.758-9.175,1.231-14.464s.95-10.934,1.491-16.571c.52-5.639,1.054-11.276,1.588-16.556s1.047-10.206,1.479-14.43c.9-8.441,1.578-14.059,1.578-14.059a14.751,14.751,0,0,1,29.291,3.527C362.333,359.086,362.3,359.319,362.272,359.493Z" fill="#d80971"/>
        <path id="Trazado_22376" data-name="Trazado 22376" d="M293.977,510.683c2.28-29.705,31.435-55.694,27.591-72.644s-39.492-98.181,12.683-94.612c40.453,34.02,40.453,40.313,39.215,76.279-.469,13.644-7.591,49.467,6.175,65.323S293.977,510.683,293.977,510.683Z" fill="#f2b9bf"/>
        <path id="Trazado_22377" data-name="Trazado 22377" d="M344.113,487.981c19.84-3.7,126.707-9.484,128.361,16.561,1.2,18.825-25.961,72.474-40.826,108.05-4.252,10.177-19.28,1.475-18.553-7.223,2.422-28.978,2-58.753,25.169-81.913,0,0-42.168,8.992-73.484,5.271S344.113,487.981,344.113,487.981Z" fill="#1a2575"/>
        <path id="Trazado_22378" data-name="Trazado 22378" d="M340.525,329.492c-2.144,4.3-3.127,20.424-.964,25.93s-14.355,0-14.355,0-6.46-23.308,3.259-40.069S340.525,329.492,340.525,329.492Z" fill="#f2b9bf"/>
        <path id="Trazado_22379" data-name="Trazado 22379" d="M293.977,510.683c1.1-14.38,8.505-27.888,15.412-39.922,7.362-12.826,60.05-20.461,62.882-3.489,1.153,6.91,3.387,13.169,7.37,17.757C379.641,505.268,293.977,510.683,293.977,510.683Z" fill="#222c8e"/>
        <path id="Trazado_22380" data-name="Trazado 22380" d="M309.826,469.55c6.972-12.343,13.178-23.092,11.256-31.567-3.278-14.454-29.329-75.611-4.577-91.1,4.274-2.674,13.518,18.313,22.859,17.947s7.06-10.621,4.627-13.054c30.7,27,30.605,35.115,29.475,67.926-.333,9.7-3.871,30.569-1.2,47.566C374.368,480.589,302.855,481.893,309.826,469.55Z" fill="#ec1b79"/>
        <path id="Trazado_22381" data-name="Trazado 22381" d="M329.526,313.672c-.344.5-.7,1.052-1.061,1.681-5.581,9.625-5.848,21.162-5.045,29.452,6.022-1.718,12.642-4.692,16.223-12.642a13,13,0,0,1,.882-2.671,81.828,81.828,0,0,0-1.222-8.735C336.931,317.414,332.782,315.088,329.526,313.672Z" fill="#eb8b8d"/>
        <path id="Trazado_22382" data-name="Trazado 22382" d="M344.28,259.8c14.717-.972,27.433,2.36,27.925,25.417.251,11.8-12.783,20.845,2.163,25.171,2.019,6.194-5.7,10.422-5.7,10.422s-2.753,13.962-7.866,14.552-25.171,0-35.593-27.137S328.647,260.834,344.28,259.8Z" fill="#f2b9bf"/>
        <path id="Trazado_22383" data-name="Trazado 22383" d="M362.063,262.551c1.686,4.478-8.27,20.628-12.4,22.4,0,7.816-6.824,17.031-12.814,18.655s4.923-32.74,4.923-32.74Z" fill="#eb8b8d"/>
        <path id="Trazado_22384" data-name="Trazado 22384" d="M362.569,260.638c-.787,4.129-9.636,31.66-44.738,28.711s3.756-28.711,3.756-28.711l31.543-3.54Z" fill="#6a3db2"/>
        <path id="Trazado_22385" data-name="Trazado 22385" d="M384.913,321.378a2.065,2.065,0,1,1-2.065-2.065A2.065,2.065,0,0,1,384.913,321.378Z" fill="#6a3db2"/>
        <circle id="Elipse_1024" data-name="Elipse 1024" cx="5.309" cy="5.309" r="5.309" transform="translate(393.688 349.179)" fill="#6a3db2"/>
        <path id="Trazado_22386" data-name="Trazado 22386" d="M346.117,283.357c0,19.364-18.144,23.285-17.652,32s6.966,33.31-15.157,30.8c-29.124-3.3-6.587-60.936-6.587-60.936Z" fill="#6a3db2"/>
        <path id="Trazado_22387" data-name="Trazado 22387" d="M363.275,371.081a79.408,79.408,0,0,1,16.543,22.15c4.185,8.7-1.1,17.373-6.053,20.934S363.275,371.081,363.275,371.081Z" fill="#ec1b79"/>
        <rect id="Rectángulo_4411" data-name="Rectángulo 4411" width="65.68" height="13.569" transform="translate(307.179 547.316)" fill="#1e7ff0"/>
        <rect id="Rectángulo_4412" data-name="Rectángulo 4412" width="31.611" height="14.405" transform="translate(341.248 546.48)" fill="#2274c6"/>
        <rect id="Rectángulo_4413" data-name="Rectángulo 4413" width="52.455" height="10.836" transform="translate(314.136 556.488)" fill="#1e7ff0"/>
        <rect id="Rectángulo_4414" data-name="Rectángulo 4414" width="25.246" height="11.504" transform="translate(341.345 555.821)" fill="#2274c6"/>
        <path id="Trazado_22388" data-name="Trazado 22388" d="M420.8,552.208l-6.372-2.6a5.438,5.438,0,0,0-2.31-.4l-85.361,4.01a5.465,5.465,0,0,1-1.431-.123l-52.575-11.653a5.436,5.436,0,0,1-4.13-6.483l.712-3.211a5.435,5.435,0,0,1,6.482-4.13l50.732,11.245a5.384,5.384,0,0,0,1.432.123l86.6-4.068a5.431,5.431,0,0,1,2.31.4l9.267,3.785a5.435,5.435,0,0,1,2.977,7.086l-1.244,3.045A5.434,5.434,0,0,1,420.8,552.208Z" fill="#1e7ff0"/>
        <path id="Trazado_22389" data-name="Trazado 22389" d="M372.859,554.917l50.934-2.392-7.668-17.45-51.342,2.275Z" fill="#0e62a8"/>
        <path id="Trazado_22390" data-name="Trazado 22390" d="M369.97,554.584l-6.372-2.6a5.439,5.439,0,0,0-2.311-.4l-34.528,1.622-51.042-11.967a5.384,5.384,0,0,0,1.432.123l86.6-4.068a5.42,5.42,0,0,1,2.31.4l9.267,3.785a5.434,5.434,0,0,1,2.977,7.086l-1.244,3.045A5.434,5.434,0,0,1,369.97,554.584Z" fill="#1e7ff0"/>
        <rect id="Rectángulo_4415" data-name="Rectángulo 4415" width="52.455" height="2.556" transform="translate(314.136 560.884)" fill="#1e7ff0" opacity="0.5" style="mix-blend-mode: multiply;isolation: isolate"/>
        <rect id="Rectángulo_4416" data-name="Rectángulo 4416" width="20.009" height="61.305" transform="translate(329.007 567.325)" fill="#1e7ff0"/>
        <rect id="Rectángulo_4417" data-name="Rectángulo 4417" width="15.756" height="46.114" transform="translate(331.133 628.63)" fill="#1e7ff0"/>
        <path id="Trazado_22391" data-name="Trazado 22391" d="M255.461,686.543h7.276V684.48l42.672-12.1,25.724-1.77V656.455c-23.954,2.95-75.672,22.222-75.672,22.222Z" fill="#1e7ff0"/>
        <rect id="Rectángulo_4418" data-name="Rectángulo 4418" width="3.835" height="5.506" transform="translate(257.034 686.543)" fill="#1e7ff0"/>
        <rect id="Rectángulo_4419" data-name="Rectángulo 4419" width="20.796" height="3.466" transform="translate(248.553 690.869)" fill="#1e7ff0"/>
        <path id="Trazado_22392" data-name="Trazado 22392" d="M422.562,686.543h-7.276V684.48l-42.672-12.1-25.724-1.77V656.455c23.954,2.95,75.672,22.222,75.672,22.222Z" fill="#1e7ff0"/>
        <rect id="Rectángulo_4420" data-name="Rectángulo 4420" width="3.835" height="5.506" transform="translate(417.155 686.543)" fill="#1e7ff0"/>
        <rect id="Rectángulo_4421" data-name="Rectángulo 4421" width="20.796" height="3.466" transform="translate(408.674 690.869)" fill="#1e7ff0"/>
        <path id="Trazado_22393" data-name="Trazado 22393" d="M263.008,524.951c-.656,1.744-5.571,13.1,10.076,16.563s4.008-12.29,4.008-12.29Z" fill="#1e7ff0"/>
        <path id="Trazado_22394" data-name="Trazado 22394" d="M328.552,298.633a2.463,2.463,0,0,1-.45-.041,2.5,2.5,0,0,1-2.013-2.907c.081-.447.176-1.041.289-1.759,1.376-8.672,5.032-31.706,20.495-40.848a2.5,2.5,0,0,1,2.545,4.3c-13.439,7.945-16.948,30.06-18.1,37.327-.122.764-.222,1.395-.309,1.871A2.5,2.5,0,0,1,328.552,298.633Z" fill="#fff"/>
        <path id="Trazado_22395" data-name="Trazado 22395" d="M420.126,590.429c9.48,14.9,37.258,38.55,36.845,42.271s-9.87,28.577,1.271,31.962c18.121,5.505,23.524,16.043,30.562,19.094,17.518,7.6,25.218-4.134,25.218-4.134S496.038,671.147,488.8,660.4c-2.519-3.741-15.028-18.4-23.565-39.067-6.117-14.808-12.189-31.943-17.682-47.853C438.7,547.815,409.274,573.375,420.126,590.429Z" fill="#f2b9bf"/>
        <path id="Trazado_22396" data-name="Trazado 22396" d="M319.1,358.665l-31.3,91.4-9.384-13.6,67.291,9.819a5.914,5.914,0,0,1-.889,11.766l-68-.407a10.036,10.036,0,0,1-9.684-12.4l.3-1.193,23.374-93.741a14.762,14.762,0,0,1,28.647,7.142C319.353,357.857,319.227,358.279,319.1,358.665Z" fill="#f2b9bf"/>
        <path id="Trazado_22397" data-name="Trazado 22397" d="M357.457,331.008h-.047c-20.389-.527-32.041-7.4-32.527-7.695a1.769,1.769,0,0,1-.847-1.707l1.18-10.914a1.77,1.77,0,1,1,3.519.381l-1.052,9.729c3.13,1.583,13.669,6.25,29.819,6.668a1.77,1.77,0,0,1-.045,3.539Z" fill="#fff"/>
        <circle id="Elipse_1025" data-name="Elipse 1025" cx="9.636" cy="9.636" r="9.636" transform="translate(315.868 312.921) rotate(-76.661)" fill="#ec1b79"/>
        <path id="Trazado_22398" data-name="Trazado 22398" d="M357.457,331.6h-.062c-2.469-.064-4.937-.226-7.336-.482a2.36,2.36,0,1,1,.5-4.693c2.274.243,4.615.4,6.958.457a2.36,2.36,0,0,1-.06,4.719Z" fill="#ec1b79"/>
        <g id="Grupo_28348" data-name="Grupo 28348">
          <path id="Trazado_22399" data-name="Trazado 22399" d="M345.264,457.984c11.11,1.269,20.451-4.022,29.367-9.138,10.06-5.772-15.022-17.916-15.022-17.916s-6.138,9.139-7.291,10.354-3.5,4.94-7.972,4.7S345.264,457.984,345.264,457.984Z" fill="#f2b9bf"/>
          <g id="Grupo_28347" data-name="Grupo 28347">
            <path id="Trazado_22400" data-name="Trazado 22400" d="M352.746,465.9a1.249,1.249,0,0,1-.9-2.116l46.96-48.851a1.25,1.25,0,1,1,1.8,1.732l-46.959,48.852A1.251,1.251,0,0,1,352.746,465.9Z" fill="#1e7ff0"/>
          </g>
          <path id="Trazado_22401" data-name="Trazado 22401" d="M365.671,429.164s11.338-3.339,12.805-2.683c6.388,2.854,12.3,11.143,12.3,11.143a5.192,5.192,0,0,1-5.557.3,83.414,83.414,0,0,1-8.141-5.972l-3.509,1.937Z" fill="#f2b9bf"/>
          <path id="Trazado_22402" data-name="Trazado 22402" d="M359.609,430.93c.537-1.466,2.658-3.6,4.693-3.076s13.118,7.268,13.674,8.092a64.887,64.887,0,0,1,8.009,17.514s-2.378,1.233-4.241-.164S359.609,430.93,359.609,430.93Z" fill="#f2b9bf"/>
          <path id="Trazado_22403" data-name="Trazado 22403" d="M359.609,430.93c1.069-.062,11.363,5.492,14.373,9.205s10.439,17.147,10.439,17.147-3.274,2.051-5.23-.951c-5.386-8.262-15.808-16.614-15.808-16.614Z" fill="#f2b9bf"/>
          <path id="Trazado_22404" data-name="Trazado 22404" d="M358.826,436.355c1.894.712,8.442,4.615,9.3,6.426,4.11,8.69,2.886,14.918,2.886,14.918s-2.329,1.311-3.106-1.692a28.386,28.386,0,0,0-6.617-11.777Z" fill="#f2b9bf"/>
        </g>
        <g id="Grupo_28349" data-name="Grupo 28349">
          <path id="Trazado_22405" data-name="Trazado 22405" d="M403.865,446.435c8.228,1.338,18.21-7.493,20.886-7.394,6.3.232,16.918-1.212,16.918-1.212s2.252,5.162-3.041,5.717c-6.7.7-9.32,3.168-9.32,3.168l-.059,15.889s-10.382.561-15.951-1.108-10.682-3.767-10.682-3.767Z" fill="#eb8b8d"/>
          <path id="Trazado_22406" data-name="Trazado 22406" d="M436.386,459.791c4.735-.416,14.732-3.918,16.615-4.1s9.367-.52,9.367-.52a1.537,1.537,0,0,0,.151-2.481c-1.427-1.3-8.6-1.5-10.643-1.139s-10.742,2.869-10.742,2.869Z" fill="#eb8b8d"/>
          <path id="Trazado_22407" data-name="Trazado 22407" d="M429.249,462.6c2.427.136,11.289-5.11,13.3-6.2s13.787-7.152,13.787-7.152a2.877,2.877,0,0,0-2.408-2.768c-2.513-.675-12.683,5.818-12.683,5.818Z" fill="#eb8b8d"/>
          <path id="Trazado_22408" data-name="Trazado 22408" d="M458.922,455.337c2.134.343,1.837,1.982,1.837,1.982l-12.973-.25,5.335-3.316Z" fill="#eb8b8d"/>
          <path id="Trazado_22409" data-name="Trazado 22409" d="M423.974,457.918c1.034-1.5,9.985-5.061,13-5.7,3.04-.648,8.115-8.224,11.815-2.587L429.249,462.6Z" fill="#eb8b8d"/>
          <path id="Trazado_22410" data-name="Trazado 22410" d="M429.308,446.714c1.253,1.626,5.55,4.99,9.508,4.577s-9.994,7.357-9.994,7.357Z" fill="#eb8b8d"/>
        </g>
        <path id="Trazado_22411" data-name="Trazado 22411" d="M319.232,358.692l-24.338,70.66-23.589-.831,19.5-78.209a14.832,14.832,0,0,1,28.784,7.169C319.489,357.884,319.363,358.306,319.232,358.692Z" fill="#ec1b79"/>
        <path id="Trazado_22412" data-name="Trazado 22412" d="M300.219,496.185c-9.83,9.39-12.333,38.95,20.326,42.257s84.437-2.873,84.437-2.873,4.1,38.378,14.955,55.431c4.474,7.031,13.075,15.585,20.813,23.5,8.659,8.857,20.891-2.09,19.111-6.763-14.014-36.8-26.938-80.484-32.139-86.761C418.73,510.123,329.61,468.111,300.219,496.185Z" fill="#222c8e"/>
        <path id="Trazado_22413" data-name="Trazado 22413" d="M319.493,541.593a2.22,2.22,0,0,1-2.064-3.034l23.584-59.769c.015-.036.03-.072.047-.108A11.615,11.615,0,0,0,330.5,462.238H284.809a19.789,19.789,0,0,0-18.559,12.7l-9.294,23.906a2.219,2.219,0,1,1-4.136-1.608l9.294-23.906A24.2,24.2,0,0,1,284.809,457.8H330.5a16.054,16.054,0,0,1,14.624,22.673l-23.563,59.716A2.222,2.222,0,0,1,319.493,541.593Z" fill="#1e7ff0"/>
        <path id="Trazado_22414" data-name="Trazado 22414" d="M342.117,416.776a19.883,19.883,0,0,1-19.861-19.861,1.18,1.18,0,1,1,2.36,0,17.5,17.5,0,1,0,28.072-13.95,1.18,1.18,0,1,1,1.427-1.88,19.863,19.863,0,0,1-12,35.691Z" fill="#d80971"/>
        <path id="Trazado_22415" data-name="Trazado 22415" d="M367.78,416.776a1.18,1.18,0,1,1,0-2.359c5.2,0,8.275-3.649,9.642-5.824,2.873-4.57,3.408-10.537,1.333-14.85a71.672,71.672,0,0,0-8.714-13.551,1.18,1.18,0,0,1,1.837-1.48,73.914,73.914,0,0,1,9,14.008c2.414,5.015,1.826,11.9-1.461,17.129C376.653,414.252,372.41,416.776,367.78,416.776Z" fill="#d80971"/>
        <path id="Trazado_22416" data-name="Trazado 22416" d="M294.894,430.533a1.181,1.181,0,0,1-1.116-1.564l18.975-55.09a1.18,1.18,0,0,1,2.232.769l-18.976,55.088A1.179,1.179,0,0,1,294.894,430.533Z" fill="#d80971"/>
        <path id="Trazado_22417" data-name="Trazado 22417" d="M308.263,393.9a1.164,1.164,0,0,1-.4-.072,1.181,1.181,0,0,1-.705-1.513c.689-1.89,5.166-7.9,8.152-9.166a1.18,1.18,0,0,1,.921,2.172c-2.108.895-6.276,6.211-6.856,7.8A1.179,1.179,0,0,1,308.263,393.9Z" fill="#d80971"/>
        <path id="Trazado_22418" data-name="Trazado 22418" d="M294.894,335.37a1.247,1.247,0,0,1-1.154-.77c-10.151-24.371-11.8-44.381-4.892-59.473a40.458,40.458,0,0,1,24.63-21.527,1.25,1.25,0,1,1,.782,2.375,37.989,37.989,0,0,0-23.139,20.192c-6.6,14.434-4.946,33.77,4.926,57.472a1.252,1.252,0,0,1-1.153,1.731Z" fill="#6a3db2"/>
        <path id="Trazado_22419" data-name="Trazado 22419" d="M291.777,411.636a1.167,1.167,0,0,1-.132-.007c-33.681-3.536-44.669-20.291-48.222-29.963-5.209-14.186-1.336-30.935,9.869-42.669,12.221-12.8,29.843-16.793,48.35-10.951a1.25,1.25,0,0,1-.753,2.384c-17.559-5.54-34.25-1.79-45.789,10.293-10.551,11.051-14.213,26.783-9.33,40.081,5.788,15.759,22.172,25.823,46.136,28.339a1.25,1.25,0,0,1-.129,2.493Z" fill="#6a3db2"/>
        <path id="Trazado_22420" data-name="Trazado 22420" d="M369.328,485.51l3.381,8.815c10.213,1.012,39.808-6.755,95.872,2.935C454.058,484.235,402.3,483.613,369.328,485.51Z" fill="#222c8e"/>
        <path id="Trazado_22421" data-name="Trazado 22421" d="M453.621,646.7h0c-1.4,7.759-1.5,16.106,4.621,17.967,18.121,5.505,23.524,16.043,30.562,19.094,17.518,7.6,25.218-4.134,25.218-4.134a96.543,96.543,0,0,1-16.362-10.161C485.141,677.673,457.429,650.5,453.621,646.7Z" fill="#222c8e"/>
        <path id="Trazado_22422" data-name="Trazado 22422" d="M403.915,666.083c3.788,4.651-.688,15.813,4.894,22.324s25.114,0,25.114,0c-4.712-2.7-7.755-6.862-9.691-11.927h0c-15.782,7.98-20.385-30.981-21.584-39.347h0c-3.721,3.711-7.668,8.421-8.1,12.05C393.461,658.331,400.127,661.432,403.915,666.083Z" fill="#1a2575"/>
      </g>
      <g id="Mac">
        <path id="Trazado_22423" data-name="Trazado 22423" d="M530.917,429.306a2.082,2.082,0,0,1-.42-.044,2.024,2.024,0,0,1-1.561-2.4L564.59,258.2a2.023,2.023,0,0,1,3.958.837L532.894,427.7A2.025,2.025,0,0,1,530.917,429.306Z" fill="#7754cc"/>
        <path id="Trazado_22424" data-name="Trazado 22424" d="M564.332,419.145a2.082,2.082,0,0,1-.42-.044,2.024,2.024,0,0,1-1.561-2.4l29.565-139.861a2.023,2.023,0,0,1,3.959.837l-29.566,139.86A2.024,2.024,0,0,1,564.332,419.145Z" fill="#6a3db2"/>
        <path id="Trazado_22425" data-name="Trazado 22425" d="M611.332,464.79H555.523a2.023,2.023,0,1,1,0-4.045h55.809a10.641,10.641,0,0,0,10.134-13.887l-27.2-84.923a12,12,0,0,0-5.036-5.983,2.023,2.023,0,0,1,2.039-3.495,15.928,15.928,0,0,1,6.855,8.258l27.195,84.909a14.686,14.686,0,0,1-13.987,19.166Z" fill="#6a3db2"/>
        <path id="Trazado_22426" data-name="Trazado 22426" d="M542.319,427.282l40.193-41.836a66.585,66.585,0,0,0,5.37-15.879l7.025-34.678a66.534,66.534,0,0,0,1.3-11.551l-18.239-64.716Z" fill="#6a3db2"/>
        <path id="Trazado_22427" data-name="Trazado 22427" d="M566.569,256.631h27.775a3.408,3.408,0,0,1,3.407,3.491l-1.539,63.216H564.945Z" fill="#6a3db2"/>
        <path id="Trazado_22428" data-name="Trazado 22428" d="M530.686,429.294l20.559-43.848h31.267L563.1,427.32a3.409,3.409,0,0,1-3.093,1.974Z" fill="#6a3db2"/>
        <path id="Trazado_22429" data-name="Trazado 22429" d="M611.368,464.791H524.256a2.023,2.023,0,0,1,0-4.046h55.809A10.641,10.641,0,0,0,590.2,446.858L563,361.935a12,12,0,0,0-5.036-5.983h37.452a15.328,15.328,0,0,1,2.744,4.765l27.2,84.908a14.685,14.685,0,0,1-13.986,19.167Z" fill="#6a3db2"/>
        <path id="Trazado_22430" data-name="Trazado 22430" d="M579.908,464.791H524.1a2.023,2.023,0,0,1,0-4.046h55.81a10.642,10.642,0,0,0,10.133-13.887l-27.2-84.923a12.039,12.039,0,0,0-3.663-5.037l.877-4.316a15.925,15.925,0,0,1,6.643,8.134l27.2,84.908a14.688,14.688,0,0,1-13.987,19.167Z" fill="#7754cc"/>
        <path id="Trazado_22431" data-name="Trazado 22431" d="M530.915,428.807l20.33-43.361a66.628,66.628,0,0,0,5.37-15.879l7.025-34.678a66.534,66.534,0,0,0,1.3-11.551l1.624-64.716Z" fill="#7754cc"/>
      </g>
      <g id="Table">
        <path id="Trazado_22432" data-name="Trazado 22432" d="M546.439,695.685h-7.864a1.25,1.25,0,0,1-1.249-1.192l-9.961-215.488a1.25,1.25,0,1,1,2.5-.115l9.906,214.295h5.478l9.906-214.295a1.262,1.262,0,0,1,1.306-1.192,1.249,1.249,0,0,1,1.191,1.307l-9.961,215.488A1.25,1.25,0,0,1,546.439,695.685Z" fill="#7754cc"/>
        <path id="Trazado_22433" data-name="Trazado 22433" d="M814.86,695.685H807a1.25,1.25,0,0,1-1.249-1.192l-9.962-215.488a1.25,1.25,0,1,1,2.5-.115l9.906,214.295h5.478l9.906-214.295a1.25,1.25,0,1,1,2.5.115l-9.962,215.488A1.25,1.25,0,0,1,814.86,695.685Z" fill="#7754cc"/>
        <rect id="Rectángulo_4422" data-name="Rectángulo 4422" width="335.256" height="14.156" transform="translate(417.969 464.791)" fill="#7754cc"/>
        <path id="Trazado_22434" data-name="Trazado 22434" d="M435.8,478.947l9.962,215.488h7.865l9.962-215.488Z" fill="#6a3db2"/>
        <path id="Trazado_22435" data-name="Trazado 22435" d="M704.216,478.947l9.962,215.488h7.865L732,478.947Z" fill="#6a3db2"/>
        <rect id="Rectángulo_4423" data-name="Rectángulo 4423" width="335.256" height="14.156" transform="translate(510.787 464.791)" fill="#6a3db2"/>
        <path id="Trazado_22436" data-name="Trazado 22436" d="M462.674,498.621l.91-19.674H435.8l.909,19.674Z" fill="#4d328e"/>
        <path id="Trazado_22437" data-name="Trazado 22437" d="M731.095,498.621,732,478.947H704.216l.909,19.674Z" fill="#4d328e"/>
        <path id="Trazado_22438" data-name="Trazado 22438" d="M900.632,695.664H219.146a1.25,1.25,0,0,1,0-2.5H900.632a1.25,1.25,0,0,1,0,2.5Z" fill="#6a3db2"/>
      </g>
    </g>
  </g>
</svg>
