<svg xmlns="http://www.w3.org/2000/svg" width="803.922" height="511.135" viewBox="0 0 803.922 511.135">
  <g id="Grupo_28409" data-name="Grupo 28409" transform="translate(-294.881 -207.269)">
    <path id="Trazado_22529" data-name="Trazado 22529" d="M479.467,1509.34h-9.952v-3.927a14.765,14.765,0,0,1-4.5-2.6l-3.4,1.966-4.978-8.619,3.4-1.964a14.607,14.607,0,0,1,0-5.2l-3.4-1.964,4.978-8.62,3.4,1.967a14.79,14.79,0,0,1,4.5-2.6v-3.925h9.952v3.924a14.789,14.789,0,0,1,4.5,2.605l3.406-1.967,4.974,8.62-3.4,1.964a14.6,14.6,0,0,1,0,5.2l3.4,1.964-4.974,8.619-3.406-1.966a14.737,14.737,0,0,1-4.5,2.6Zm-7.807-2.145h5.661v-3.358l.767-.227a12.556,12.556,0,0,0,5.006-2.9l.581-.548,2.911,1.68,2.83-4.9-2.905-1.678.183-.776a12.514,12.514,0,0,0,0-5.788l-.183-.776,2.905-1.678-2.829-4.9-2.912,1.681-.581-.549a12.605,12.605,0,0,0-5.008-2.9l-.765-.229V1476h-5.661v3.352l-.764.229a12.613,12.613,0,0,0-5.008,2.9l-.581.55-2.909-1.682-2.831,4.9,2.907,1.678-.183.776a12.514,12.514,0,0,0,0,5.788l.183.776-2.907,1.678,2.831,4.9,2.909-1.68.581.548a12.567,12.567,0,0,0,5.007,2.9l.766.229Zm2.832-8.583a7.017,7.017,0,1,1,7.016-7.016A7.026,7.026,0,0,1,474.493,1498.611Zm0-11.889a4.872,4.872,0,1,0,4.87,4.873A4.879,4.879,0,0,0,474.493,1486.722Z" transform="translate(-109.702 -858.994)" fill="#e9e6ff"/>
    <g id="Grupo_28388" data-name="Grupo 28388" transform="translate(402.115 610.242)">
      <g id="Grupo_28386" data-name="Grupo 28386" transform="translate(1.073 0)">
        <path id="Trazado_22530" data-name="Trazado 22530" d="M721.737,1500.912a40.792,40.792,0,0,0-5.488-13.237l7.209-7.2-12.511-12.5-7.2,7.2a41.047,41.047,0,0,0-13.226-5.488v-10.177H672.835v10.177a41.052,41.052,0,0,0-13.227,5.488l-7.2-7.2-12.5,12.5,7.2,7.2a40.8,40.8,0,0,0-5.488,13.237H631.444v17.677H666.1a17.7,17.7,0,0,1-2.334-8.838,17.91,17.91,0,1,1,35.821,0,17.7,17.7,0,0,1-2.334,8.838h34.658v-17.677Z" transform="translate(-631.444 -1459.511)" fill="#e9e6ff"/>
      </g>
      <g id="Grupo_28387" data-name="Grupo 28387" transform="translate(0 6.949)">
        <path id="Trazado_22531" data-name="Trazado 22531" d="M697.9,1528.756l-2.089-.49A16.843,16.843,0,1,0,662.922,1521l-2.1-.429a18.988,18.988,0,1,1,37.079,8.186Zm-67.643-.265H628.11v-14.006h10.4a41.74,41.74,0,0,1,4.98-12.01l-7.354-7.354,14.018-14.017,7.354,7.353a42.16,42.16,0,0,1,8.458-3.951l.687,2.032a40.009,40.009,0,0,0-8.723,4.185l-.726.464-7.05-7.05-10.984,10.983,7.05,7.05-.464.726a39.631,39.631,0,0,0-5.344,12.89l-.185.844h-9.966Z" transform="translate(-628.11 -1481.104)" fill="#ccc2ff"/>
      </g>
    </g>
    <g id="Grupo_28389" data-name="Grupo 28389" transform="translate(856.802 627.802)">
      <path id="Trazado_22532" data-name="Trazado 22532" d="M2104.5,1543.17a28.663,28.663,0,0,0-3.856-9.3l5.066-5.059-8.791-8.783-5.059,5.059a28.846,28.846,0,0,0-9.294-3.856v-7.151H2070.14v7.151a28.847,28.847,0,0,0-9.293,3.856l-5.059-5.059L2047,1528.81l5.059,5.059a28.659,28.659,0,0,0-3.856,9.3h-7.15v12.421h24.353a12.435,12.435,0,0,1-1.64-6.21,12.585,12.585,0,1,1,25.17,0,12.435,12.435,0,0,1-1.64,6.21h24.353V1543.17Z" transform="translate(-2041.056 -1514.079)" fill="#f2f0ff"/>
    </g>
    <g id="Grupo_28390" data-name="Grupo 28390" transform="translate(855.729 626.729)">
      <path id="Trazado_22533" data-name="Trazado 22533" d="M2037.722,1553.336v-13.5h7.373a29.635,29.635,0,0,1,3.347-8.071l-5.216-5.217,10.3-10.3,5.217,5.217a29.839,29.839,0,0,1,8.063-3.346v-7.375h14.573v7.375a29.85,29.85,0,0,1,8.063,3.346l5.216-5.217,10.309,10.3-5.224,5.217a29.638,29.638,0,0,1,3.346,8.071h7.373v13.493h-2.146v-11.348h-6.941l-.185-.844a27.537,27.537,0,0,0-3.712-8.954l-.465-.727,4.916-4.909-7.272-7.267-4.91,4.911-.726-.464a27.722,27.722,0,0,0-8.949-3.714l-.841-.186v-6.939h-10.282v6.939l-.84.186a27.717,27.717,0,0,0-8.948,3.714l-.727.464-4.91-4.911-7.267,7.267,4.91,4.91-.464.726a27.534,27.534,0,0,0-3.712,8.954l-.185.844h-6.941v11.353Zm49.45-2.27-2.054-.62a11.517,11.517,0,0,0-21.834-7.3l-2.013-.742a13.663,13.663,0,0,1,25.9,8.664Z" transform="translate(-2037.722 -1510.745)" fill="#ddd6ff"/>
    </g>
    <path id="Trazado_22534" data-name="Trazado 22534" d="M2236.881,1423.448a15.372,15.372,0,0,0-.414-3.534l3.537-2.042-4.391-7.61-3.543,2.046a15.311,15.311,0,0,0-6.118-3.54v-4.082h-8.785v4.082a15.328,15.328,0,0,0-6.118,3.54l-3.54-2.046-4.394,7.61,3.54,2.042a15.278,15.278,0,0,0,0,7.068l-3.54,2.042,4.394,7.61,3.54-2.046a15.284,15.284,0,0,0,6.118,3.537v4.085h8.785v-4.085a15.268,15.268,0,0,0,6.118-3.537l3.543,2.046,4.391-7.61-3.537-2.042A15.374,15.374,0,0,0,2236.881,1423.448Zm-15.321,6.689a6.69,6.69,0,1,1,6.688-6.689A6.69,6.69,0,0,1,2221.56,1430.137Z" transform="translate(-1294.161 -812.087)" fill="#f2f0ff"/>
    <path id="Trazado_22535" data-name="Trazado 22535" d="M2223.935,1441.024H2213v-4.38a16.45,16.45,0,0,1-5.183-3l-3.8,2.194-5.467-9.468,3.8-2.19a16.306,16.306,0,0,1,0-5.987l-3.8-2.19,5.467-9.468,3.8,2.193a16.526,16.526,0,0,1,5.183-3v-4.376h10.93v4.376a16.506,16.506,0,0,1,5.183,3l3.8-2.193,5.464,9.468-3.792,2.19a16.306,16.306,0,0,1,0,5.987l3.792,2.19-5.464,9.468-3.8-2.194a16.437,16.437,0,0,1-5.184,3Zm-8.785-2.145h6.64v-3.812l.766-.229a14.268,14.268,0,0,0,5.688-3.289l.581-.549,3.306,1.909,3.319-5.751-3.3-1.905.183-.776a14.2,14.2,0,0,0,0-6.575l-.183-.776,3.3-1.905-3.319-5.751-3.306,1.909-.581-.548a14.318,14.318,0,0,0-5.69-3.294l-.765-.229V1403.5h-6.64v3.807l-.765.229a14.322,14.322,0,0,0-5.69,3.294l-.581.548-3.3-1.909-3.321,5.751,3.3,1.905-.183.776a14.212,14.212,0,0,0,0,6.575l.183.776-3.3,1.905,3.321,5.751,3.3-1.909.581.549a14.273,14.273,0,0,0,5.688,3.289l.766.229Zm3.322-9.929a7.763,7.763,0,1,1,7.761-7.761A7.772,7.772,0,0,1,2218.471,1428.95Zm0-13.38a5.617,5.617,0,1,0,5.616,5.619A5.625,5.625,0,0,0,2218.471,1415.57Z" transform="translate(-1291.072 -809.827)" fill="#ddd6ff"/>
    <g id="Grupo_28396" data-name="Grupo 28396" transform="translate(294.881 347.033)">
      <path id="Trazado_22536" data-name="Trazado 22536" d="M416.319,839.132a76.133,76.133,0,0,0,59.4,74.266c.536.123,1.071.234,1.613.344a76.673,76.673,0,0,0,15.1,1.5,75.906,75.906,0,0,0,27.645-5.178c.443-.173.887-.351,1.33-.53a76.12,76.12,0,1,0-105.088-70.4Z" transform="translate(-377.24 -723.942)" fill="#f0edff"/>
      <path id="Trazado_22537" data-name="Trazado 22537" d="M544.689,1276.351q-1.835-.536-3.644-1.13l10.04-30.573q1.3.428,2.621.812Z" transform="translate(-461.829 -1050.583)" fill="#ccc2ff"/>
      <path id="Trazado_22538" data-name="Trazado 22538" d="M439.47,1229.857a115.935,115.935,0,0,1-42.962-27.818l23.041-22.465a83.55,83.55,0,0,0,30.961,20.056Z" transform="translate(-363.804 -1006.449)" fill="#ddd6ff"/>
      <path id="Trazado_22539" data-name="Trazado 22539" d="M323.527,1022.884A115.387,115.387,0,0,1,297.6,921.872l31.419,6.958a83.205,83.205,0,0,0,18.673,72.807Z" transform="translate(-294.881 -831.676)" fill="#f2f0ff"/>
      <path id="Trazado_22540" data-name="Trazado 22540" d="M361.135,833.975l-28.8-14.362c1.641-3.29,3.464-6.542,5.417-9.666l27.283,17.064C363.63,829.262,362.317,831.606,361.135,833.975Z" transform="translate(-320.284 -755.77)" fill="#ddd6ff"/>
      <path id="Trazado_22541" data-name="Trazado 22541" d="M570.506,778.7l-31.6-6.095a83.02,83.02,0,0,0-148.335-65.065l-25.891-19.111A115.221,115.221,0,0,1,570.506,778.7Z" transform="translate(-342.22 -641.588)" fill="#f2f0ff"/>
      <path id="Trazado_22542" data-name="Trazado 22542" d="M930.1,1074.976l-30.75-9.486c.491-1.591.94-3.221,1.334-4.845l31.271,7.594C931.409,1070.5,930.785,1072.763,930.1,1074.976Z" transform="translate(-704.833 -925.792)" fill="#ddd6ff"/>
      <path id="Trazado_22543" data-name="Trazado 22543" d="M599.554,1185a115.562,115.562,0,0,1-25.282-2.787l7.05-31.4a83.017,83.017,0,0,0,94.269-47.651l29.463,12.943a116.108,116.108,0,0,1-63.658,61.052A114.678,114.678,0,0,1,599.554,1185Z" transform="translate(-484.364 -954.628)" fill="#f2f0ff"/>
      <path id="Trazado_22544" data-name="Trazado 22544" d="M568.4,839.5a76.073,76.073,0,0,1-42.179,68.1c-1.608.8-3.24,1.545-4.912,2.231-.441.181-.883.363-1.324.536a76.443,76.443,0,0,1-42.7,3.674c-.544-.11-1.08-.221-1.616-.347a75.261,75.261,0,0,1-19.914-7.545A76.018,76.018,0,0,1,492.366,763.46,76.017,76.017,0,0,1,568.4,839.5Z" transform="translate(-377.24 -724.241)" fill="#f0edff"/>
      <path id="Trazado_22545" data-name="Trazado 22545" d="M578.127,852.222a75.357,75.357,0,0,1-8.908,18.164,76.4,76.4,0,0,1-29.375,25.866,160.275,160.275,0,0,1-31.212-3.287l-.039-.182.039,1.853s-20.222,2.854-39.253.166a76.266,76.266,0,0,1-32.97-35.919c3.713-14.948,18.259-26.482,21.625-32.276,9.264-15.91-4.746-34.4,10.139-51.284a32.335,32.335,0,0,1,11.321-8.436,24.871,24.871,0,0,1,9.342-12.835,39.4,39.4,0,0,1,14.853-6.473c10.769-2.475,29-.095,39.915,14.483,6.008,8.018,9.8,19.717,8.917,36.328-1.017,19.157,2.815,28.035,6.449,35.051C561,837.361,571.939,842.911,578.127,852.222Z" transform="translate(-390.865 -712.895)" fill="#4a3c81"/>
      <path id="Trazado_22546" data-name="Trazado 22546" d="M513.306,954.07c-3.876-16.162,2.365-25.622,10.117-31.535,25.813-19.688,1.643-46.054,16.819-37.974,12.631,6.725,37.459-16.859,40.782,13.879,2.956,27.347,26.066,26.066,22.617,53.363-3.037,24.037-32.521,33.276-58.011,20.925S514.081,957.3,513.306,954.07Z" transform="translate(-442.214 -804.762)" fill="#40327a"/>
      <path id="Trazado_22547" data-name="Trazado 22547" d="M582.627,1071.278a76.321,76.321,0,0,1-34.287,28.1c-.441.181-.883.363-1.324.536a76.444,76.444,0,0,1-42.7,3.674c-.544-.11-1.08-.221-1.616-.347a76.154,76.154,0,0,1-46.522-31.921l.883-1.829a47.115,47.115,0,0,1,42.391-26.544h39.915a47.129,47.129,0,0,1,42.368,26.505Z" transform="translate(-404.273 -913.787)" fill="#ffd4cc"/>
      <path id="Trazado_22548" data-name="Trazado 22548" d="M614.031,1054.684l8.048,26.4a6.594,6.594,0,0,1-2.772,7.192h0a6.246,6.246,0,0,1-6.6-.114c-5.894-3.809-17.711-11.448-17.711-11.448l-17.707,11.45a6.241,6.241,0,0,1-6.595.114h0a6.241,6.241,0,0,1-2.758-7.2l8.153-26.4Z" transform="translate(-479.88 -921.749)" fill="#ffc7bd"/>
      <g id="Grupo_28391" data-name="Grupo 28391" transform="translate(86.379 130.713)">
        <path id="Trazado_22549" data-name="Trazado 22549" d="M613.33,1048.886l8.381,24.129a4.822,4.822,0,0,1-1.463,5.282h0a4.822,4.822,0,0,1-4.833.8l-21.117-8.178-21.123,8.181a4.811,4.811,0,0,1-4.822-.795h0a4.81,4.81,0,0,1-1.453-5.288l8.491-24.127Z" transform="translate(-565.559 -1048.53)" fill="#ffd4cc"/>
        <path id="Trazado_22550" data-name="Trazado 22550" d="M569.186,1079.742a5.882,5.882,0,0,1-5.55-7.836l8.491-24.127,2.024.712-8.491,24.126a3.737,3.737,0,0,0,4.875,4.726l21.511-8.331,21.5,8.329a3.748,3.748,0,0,0,4.9-4.725l-8.381-24.129,2.026-.7,8.381,24.129a5.894,5.894,0,0,1-7.7,7.43l-20.729-8.03-20.736,8.031A5.867,5.867,0,0,1,569.186,1079.742Z" transform="translate(-563.306 -1047.78)" fill="#fff"/>
      </g>
      <rect id="Rectángulo_4452" data-name="Rectángulo 4452" width="2.145" height="26.222" transform="translate(114.047 149.176)" fill="#fff"/>
      <path id="Trazado_22551" data-name="Trazado 22551" d="M639.878,980.692v24.739a11.506,11.506,0,1,1-23.013,0V980.692Z" transform="translate(-513.25 -871.568)" fill="#ff95a9"/>
      <path id="Trazado_22552" data-name="Trazado 22552" d="M639.878,990.492v12.3a24.092,24.092,0,0,1-23.013-6.134v-6.165Z" transform="translate(-513.25 -878.214)" fill="#e5659b"/>
      <path id="Trazado_22553" data-name="Trazado 22553" d="M591.248,786.336h0a24.086,24.086,0,0,0-24.086,24.086V830h-.251a4.781,4.781,0,1,0,0,9.563h.667a24.088,24.088,0,0,0,23.67,19.645h0a24.086,24.086,0,0,0,24.086-24.086v-24.7A24.086,24.086,0,0,0,591.248,786.336Z" transform="translate(-476.128 -739.756)" fill="#ff95a9"/>
      <path id="Trazado_22554" data-name="Trazado 22554" d="M568.7,794.858s51.09,4.358,51.09,30.179c5.236,5.524,15.373,12.534,15.373,12.534L625.6,783.842l-11.779-12.58-28.75-3.013Z" transform="translate(-480.587 -727.489)" fill="#4a3c81"/>
      <g id="Grupo_28392" data-name="Grupo 28392" transform="translate(85.372 72.525)">
        <path id="Trazado_22555" data-name="Trazado 22555" d="M669.537,895.923a14.482,14.482,0,1,1,14.482-14.482A14.5,14.5,0,0,1,669.537,895.923Zm0-26.818a12.336,12.336,0,1,0,12.336,12.336A12.351,12.351,0,0,0,669.537,869.105Z" transform="translate(-624.523 -866.96)" fill="#fff"/>
        <path id="Trazado_22556" data-name="Trazado 22556" d="M574.658,895.923a14.482,14.482,0,1,1,14.482-14.482A14.5,14.5,0,0,1,574.658,895.923Zm0-26.818a12.336,12.336,0,1,0,12.337,12.336A12.35,12.35,0,0,0,574.658,869.105Z" transform="translate(-560.176 -866.96)" fill="#fff"/>
      </g>
      <path id="Trazado_22557" data-name="Trazado 22557" d="M647.013,963.425a5.061,5.061,0,1,1-10.122,0Z" transform="translate(-526.832 -859.858)" fill="#fff"/>
      <g id="Grupo_28395" data-name="Grupo 28395" transform="translate(98.086 87.367)">
        <g id="Grupo_28393" data-name="Grupo 28393">
          <circle id="Elipse_1052" data-name="Elipse 1052" cx="2.661" cy="2.661" r="2.661" transform="translate(0.712 4.192) rotate(-45)" fill="#8b77e8"/>
          <path id="Trazado_22558" data-name="Trazado 22558" d="M599.685,917.075a2.373,2.373,0,0,1,.072-.568,4.083,4.083,0,0,1,.535-1.249A4.537,4.537,0,0,1,601.528,914a4.392,4.392,0,0,1,.846-.472,5.963,5.963,0,0,1,.939-.316,7.407,7.407,0,0,1,.977-.127,6.356,6.356,0,0,1,.953.053,4.794,4.794,0,0,1,1.631.567,4.352,4.352,0,0,1,1.037.82,3.173,3.173,0,0,1,.351.428l-.028.235-.383-.012c-.243-.008-.59-.022-1-.012a13.785,13.785,0,0,0-1.412.068l-.788.112-.8.172a10.956,10.956,0,0,0-2.834,1.022,8.367,8.367,0,0,0-1.168.716Z" transform="translate(-599.684 -913.081)" fill="#7760db"/>
        </g>
        <g id="Grupo_28394" data-name="Grupo 28394" transform="translate(25.491)">
          <circle id="Elipse_1053" data-name="Elipse 1053" cx="2.661" cy="2.661" r="2.661" transform="translate(0.626 5.632) rotate(-67.5)" fill="#8b77e8"/>
          <path id="Trazado_22559" data-name="Trazado 22559" d="M687.475,917.075a2.371,2.371,0,0,0-.072-.568,4.068,4.068,0,0,0-.535-1.249A4.54,4.54,0,0,0,685.631,914a4.395,4.395,0,0,0-.846-.472,5.949,5.949,0,0,0-.939-.316,7.414,7.414,0,0,0-.977-.127,6.363,6.363,0,0,0-.953.053,4.792,4.792,0,0,0-1.63.567,4.342,4.342,0,0,0-1.037.82,3.173,3.173,0,0,0-.351.428l.027.235.383-.012c.243-.008.59-.022,1-.012a13.791,13.791,0,0,1,1.413.068l.788.112.8.172a10.964,10.964,0,0,1,2.835,1.022,8.374,8.374,0,0,1,1.167.716Z" transform="translate(-678.898 -913.081)" fill="#7760db"/>
        </g>
      </g>
    </g>
    <path id="Trazado_22560" data-name="Trazado 22560" d="M984.153,839.955H926.116V811.247h2.145V837.81h55.892Z" transform="translate(-428.103 -409.617)" fill="#fff"/>
    <path id="Trazado_22561" data-name="Trazado 22561" d="M1028.2,728.7h-68.85a26.564,26.564,0,0,0-26.563,26.564v26.563H1028.2a26.563,26.563,0,0,0,26.563-26.563h0A26.563,26.563,0,0,0,1028.2,728.7Z" transform="translate(-432.624 -353.634)" fill="#ddd6ff"/>
    <circle id="Elipse_1054" data-name="Elipse 1054" cx="5.363" cy="5.363" r="5.363" transform="matrix(0.983, -0.182, 0.182, 0.983, 756.213, 653.327)" fill="#ff95a9"/>
    <path id="Trazado_22562" data-name="Trazado 22562" d="M1756.971,1590.389v.007a7.506,7.506,0,1,1-2.77,14.546l-12.077-4.455,1.98-10.4Z" transform="translate(-981.518 -937.829)" fill="#ff95a9"/>
    <rect id="Rectángulo_4453" data-name="Rectángulo 4453" width="692.954" height="10.727" transform="translate(338.543 669.321)" fill="#8b77e8"/>
    <g id="Grupo_28397" data-name="Grupo 28397" transform="translate(493.39 678.975)">
      <path id="Trazado_22563" data-name="Trazado 22563" d="M1149.727,1676.431h0Z" transform="translate(-911.749 -1675.359)" fill="#f8f7ff"/>
      <rect id="Rectángulo_4454" data-name="Rectángulo 4454" width="237.978" height="2.145" transform="translate(0)" fill="#40327a"/>
    </g>
    <g id="Grupo_28398" data-name="Grupo 28398" transform="translate(399.166 678.975)">
      <path id="Trazado_22564" data-name="Trazado 22564" d="M680.641,1676.431h0Z" transform="translate(-618.947 -1675.359)" fill="#f8f7ff"/>
      <rect id="Rectángulo_4455" data-name="Rectángulo 4455" width="61.694" height="2.145" fill="#40327a"/>
    </g>
    <g id="Grupo_28399" data-name="Grupo 28399" transform="translate(471.713 678.975)">
      <path id="Trazado_22565" data-name="Trazado 22565" d="M854.29,1676.431h0Z" transform="translate(-844.39 -1675.359)" fill="#f8f7ff"/>
      <rect id="Rectángulo_4456" data-name="Rectángulo 4456" width="9.9" height="2.145" fill="#40327a"/>
    </g>
    <g id="Grupo_28400" data-name="Grupo 28400" transform="translate(800.934 678.975)">
      <path id="Trazado_22566" data-name="Trazado 22566" d="M2011.118,1676.431h0Z" transform="translate(-1867.445 -1675.359)" fill="#f8f7ff"/>
      <rect id="Rectángulo_4457" data-name="Rectángulo 4457" width="143.673" height="2.145" transform="translate(0)" fill="#40327a"/>
    </g>
    <rect id="Rectángulo_4458" data-name="Rectángulo 4458" width="28.043" height="2.145" transform="translate(668.85 660.531) rotate(-87.369)" fill="#fff"/>
    <rect id="Rectángulo_4459" data-name="Rectángulo 4459" width="135.545" height="10.727" transform="translate(859.431 691.587)" fill="#f2f0ff"/>
    <rect id="Rectángulo_4460" data-name="Rectángulo 4460" width="32.969" height="10.727" transform="translate(814.878 691.587)" fill="#e9e6ff"/>
    <rect id="Rectángulo_4461" data-name="Rectángulo 4461" width="47.749" height="5.363" transform="translate(427.299 713.041)" fill="#f2f0ff"/>
    <rect id="Rectángulo_4462" data-name="Rectángulo 4462" width="6.911" height="5.363" transform="translate(485.423 713.041)" fill="#f2f0ff"/>
    <rect id="Rectángulo_4463" data-name="Rectángulo 4463" width="158.966" height="5.363" transform="translate(505.919 713.041)" fill="#f2f0ff"/>
    <rect id="Rectángulo_4464" data-name="Rectángulo 4464" width="68.194" height="5.363" transform="translate(682.607 713.041)" fill="#f2f0ff"/>
    <rect id="Rectángulo_4465" data-name="Rectángulo 4465" width="120.127" height="5.363" transform="translate(759.672 713.041)" fill="#f2f0ff"/>
    <rect id="Rectángulo_4466" data-name="Rectángulo 4466" width="7.741" height="5.363" transform="translate(896.38 713.041)" fill="#f2f0ff"/>
    <rect id="Rectángulo_4467" data-name="Rectángulo 4467" width="193.969" height="10.727" transform="translate(616.12 691.587)" fill="#f2f0ff"/>
    <rect id="Rectángulo_4468" data-name="Rectángulo 4468" width="41.047" height="10.727" transform="translate(563.627 691.587)" fill="#e9e6ff"/>
    <rect id="Rectángulo_4469" data-name="Rectángulo 4469" width="8.404" height="10.727" transform="translate(551.22 691.587)" fill="#ddd6ff"/>
    <rect id="Rectángulo_4470" data-name="Rectángulo 4470" width="94.712" height="10.727" transform="translate(452.225 691.587)" fill="#f2f0ff"/>
    <rect id="Rectángulo_4471" data-name="Rectángulo 4471" width="70.754" height="10.727" transform="translate(368.24 691.587)" fill="#f2f0ff"/>
    <path id="Trazado_22567" data-name="Trazado 22567" d="M1144.673,1431.1H934.313a105.3,105.3,0,0,1,210.36,0Z" transform="translate(-433.662 -761.945)" fill="#ffd259"/>
    <path id="Trazado_22568" data-name="Trazado 22568" d="M1129.361,1350.03l-.862-1.965c2.824-1.239,5.734-2.365,8.646-3.348l.686,2.032C1134.978,1347.712,1132.128,1348.816,1129.361,1350.03Z" transform="translate(-565.359 -771.416)" fill="#ffaa45"/>
    <path id="Trazado_22569" data-name="Trazado 22569" d="M933.126,1458.706l-2.143-.1A105.921,105.921,0,0,1,984.2,1371.38l1.072,1.858A103.786,103.786,0,0,0,933.126,1458.706Z" transform="translate(-431.404 -789.499)" fill="#ffaa45"/>
    <circle id="Elipse_1055" data-name="Elipse 1055" cx="18.499" cy="18.499" r="18.499" transform="translate(645.232 551.267)" fill="#ab9af7"/>
    <circle id="Elipse_1056" data-name="Elipse 1056" cx="13.442" cy="13.442" r="13.442" transform="translate(699.266 647.622) rotate(-58.173)" fill="#ff95a9"/>
    <path id="Trazado_22570" data-name="Trazado 22570" d="M1699.344,1556.692l-1.445,4.876h-41.281l-56.814-12.833,7.6-25.732Z" transform="translate(-884.997 -892.329)" fill="#ff95a9"/>
    <circle id="Elipse_1057" data-name="Elipse 1057" cx="13.442" cy="13.442" r="13.442" transform="translate(523.583 643.052) rotate(-3.249)" fill="#ff95a9"/>
    <g id="Grupo_28401" data-name="Grupo 28401" transform="translate(586.416 551.273)">
      <path id="Trazado_22571" data-name="Trazado 22571" d="M1296.61,1295.609l-4.565,98.621h-67.621l-22.936-91.138a21.57,21.57,0,0,1,20.924-26.828h55.721A18.5,18.5,0,0,1,1296.61,1295.609Z" transform="translate(-1200.827 -1276.265)" fill="#ffc7bd"/>
    </g>
    <circle id="Elipse_1058" data-name="Elipse 1058" cx="18.499" cy="18.499" r="18.499" transform="translate(584.073 584.288) rotate(-78.719)" fill="#ffc7bd"/>
    <path id="Trazado_22572" data-name="Trazado 22572" d="M1049.676,1586.158l97.906.05.914-14.171-97.093-12.652Z" transform="translate(-511.901 -917.004)" fill="#ff95a9"/>
    <circle id="Elipse_1059" data-name="Elipse 1059" cx="15.653" cy="15.653" r="15.653" transform="translate(616.398 552.456) rotate(-45)" fill="#ff95a9"/>
    <path id="Trazado_22573" data-name="Trazado 22573" d="M1074.121,1450.228l-37.339,42.931-21.074-16.663,34.109-47.413Z" transform="translate(-488.864 -828.633)" fill="#ff95a9"/>
    <path id="Trazado_22574" data-name="Trazado 22574" d="M1556.147,1480.705l-21.629,15.908-20.064-24.347,23.522-19.395Z" transform="translate(-827.113 -844.766)" fill="#ff95a9"/>
    <path id="Trazado_22575" data-name="Trazado 22575" d="M1458.145,1350.728l-23.522,19.395-22.326-27.079-15.553-18.883,29.755-21.9,14.429,22.1Z" transform="translate(-747.281 -742.623)" fill="#ffc7bd"/>
    <path id="Trazado_22576" data-name="Trazado 22576" d="M1352.335,1340.753l23.926,30.963.252-.2a18.3,18.3,0,1,0,28.952-22.375l.087-.057-23.926-30.963Z" transform="translate(-717.164 -753.382)" fill="#ffc7bd"/>
    <path id="Trazado_22577" data-name="Trazado 22577" d="M1454.889,1404.421h-10.473v-2.145h10.473a13.17,13.17,0,0,0,3.738-.708,17.248,17.248,0,0,0,11.448-21.506,17.046,17.046,0,0,0-3-5.695l-.745-.931.1-.066-13.7-17.729,1.7-1.312,15.135,19.586-.1.065a19.371,19.371,0,0,1-10.214,29.639A15.043,15.043,0,0,1,1454.889,1404.421Z" transform="translate(-779.613 -777.935)" fill="#fff"/>
    <rect id="Rectángulo_4472" data-name="Rectángulo 4472" width="2.145" height="18.207" transform="matrix(0.97, -0.244, 0.244, 0.97, 597.534, 624.035)" fill="#8b77e8"/>
    <path id="Trazado_22578" data-name="Trazado 22578" d="M1180.542,1323.062l-13.461,15.482-21.074,24.205-24.3-21.145,16.933-23.522,12.935-17.986Z" transform="translate(-560.749 -741.154)" fill="#ffc7bd"/>
    <rect id="Rectángulo_4473" data-name="Rectángulo 4473" width="49.59" height="2.145" transform="matrix(0.656, -0.754, 0.754, 0.656, 571.325, 635.985)" fill="#fff"/>
    <rect id="Rectángulo_4474" data-name="Rectángulo 4474" width="98.594" height="8.538" transform="translate(643.699 660.689)" fill="#40327a"/>
    <g id="Grupo_28402" data-name="Grupo 28402" transform="translate(724.156 571.761)">
      <path id="Trazado_22579" data-name="Trazado 22579" d="M1785.541,1339.93l-15.553,75.475-.114.555-4.411,21.444H1628.857l20.078-97.474Z" transform="translate(-1628.857 -1339.93)" fill="#fff"/>
      <path id="Trazado_22580" data-name="Trazado 22580" d="M1800.609,1339.93l-15.553,75.475-.114.555-4.411,21.444H1643.926L1664,1339.93Z" transform="translate(-1639.077 -1339.93)" fill="#c4b8ff"/>
      <path id="Trazado_22581" data-name="Trazado 22581" d="M1785.056,1574.468l-.114.555-4.411,21.444H1643.926Z" transform="translate(-1639.077 -1498.994)" fill="#ddd6ff"/>
      <ellipse id="Elipse_1060" data-name="Elipse 1060" cx="11.039" cy="8.988" rx="11.039" ry="8.988" transform="translate(68.971 49.452) rotate(-42.06)" fill="#fff"/>
    </g>
    <path id="Trazado_22582" data-name="Trazado 22582" d="M1363.115,1599.994a9.931,9.931,0,0,1-3.231.544l0,.01-17.075.064-2.359-13.838,16.132-5.6a9.961,9.961,0,1,1,6.532,18.82Z" transform="translate(-709.105 -931.405)" fill="#ff95a9"/>
    <rect id="Rectángulo_4475" data-name="Rectángulo 4475" width="31.467" height="2.145" transform="translate(677.253 655.73) rotate(-86.641)" fill="#fff"/>
    <rect id="Rectángulo_4476" data-name="Rectángulo 4476" width="3.31" height="2.145" transform="translate(531.568 639.46) rotate(-54.265)" fill="#8b77e8"/>
    <rect id="Rectángulo_4477" data-name="Rectángulo 4477" width="79.601" height="2.145" transform="matrix(0.584, -0.812, 0.812, 0.584, 539.057, 629.057)" fill="#8b77e8"/>
    <rect id="Rectángulo_4478" data-name="Rectángulo 4478" width="54.172" height="2.145" transform="translate(873.841 624.633) rotate(-78.509)" fill="#8b77e8"/>
    <path id="Trazado_22583" data-name="Trazado 22583" d="M1910.319,1364.88" transform="translate(-1095.588 -785.09)" fill="none" stroke="#8b77e8" stroke-miterlimit="10" stroke-width="2"/>
    <path id="Trazado_22584" data-name="Trazado 22584" d="M1846.986,1364.88" transform="translate(-1052.636 -785.09)" fill="none" stroke="#8b77e8" stroke-miterlimit="10" stroke-width="2"/>
    <path id="Trazado_22585" data-name="Trazado 22585" d="M1886.569,1364.88" transform="translate(-1079.481 -785.09)" fill="none" stroke="#8b77e8" stroke-miterlimit="10" stroke-width="2"/>
    <g id="Grupo_28403" data-name="Grupo 28403" transform="translate(776.76 264.526)">
      <path id="Trazado_22586" data-name="Trazado 22586" d="M2332.749,1156.936l9.021,30.889c1.521-.444,3.041-.916,4.52-1.4l-10.048-30.571Q2334.508,1156.424,2332.749,1156.936Z" transform="translate(-2158.839 -907.854)" fill="#ccc2ff"/>
      <path id="Trazado_22587" data-name="Trazado 22587" d="M2354.188,1095.834l11.04,30.227a143.766,143.766,0,0,0,53.277-34.5l-23.042-22.466A111.367,111.367,0,0,1,2354.188,1095.834Z" transform="translate(-2173.379 -849.017)" fill="#ddd6ff"/>
      <path id="Trazado_22588" data-name="Trazado 22588" d="M2550.9,732.757l-31.418,6.958a110.912,110.912,0,0,1-24.9,97.061l24.169,21.248A143.093,143.093,0,0,0,2550.9,732.757Z" transform="translate(-2268.598 -620.911)" fill="#f2f0ff"/>
      <path id="Trazado_22589" data-name="Trazado 22589" d="M2533.185,620.326l28.8-14.36c-2.036-4.083-4.3-8.116-6.719-11.988l-27.281,17.068C2529.859,614.043,2531.609,617.166,2533.185,620.326Z" transform="translate(-2291.247 -526.791)" fill="#ddd6ff"/>
      <path id="Trazado_22590" data-name="Trazado 22590" d="M1824.5,528.04a110.827,110.827,0,0,1,95.979-109.69,26.875,26.875,0,0,1,11-.908c1.221-.04,2.445-.068,3.676-.068a111.2,111.2,0,0,1,89.1,45.021l25.89-19.111a143.5,143.5,0,0,0-114.992-58.09c-78.76,0-142.835,64.081-142.835,142.845a143.926,143.926,0,0,0,2.587,27.189l31.6-6.092A111.71,111.71,0,0,1,1824.5,528.04Z" transform="translate(-1792.323 -385.195)" fill="#f2f0ff"/>
      <path id="Trazado_22591" data-name="Trazado 22591" d="M1836.106,910.534l-31.272,7.59c.678,2.8,1.453,5.607,2.3,8.356l30.75-9.486C1837.229,914.869,1836.631,912.695,1836.106,910.534Z" transform="translate(-1800.808 -741.479)" fill="#ddd6ff"/>
      <path id="Trazado_22592" data-name="Trazado 22592" d="M1960.461,1033.436a110.134,110.134,0,0,1-40.192-7.523,111.587,111.587,0,0,1-61.176-58.677l-29.462,12.943a143.993,143.993,0,0,0,78.943,75.713,143.536,143.536,0,0,0,83.24,6.266l-7.051-31.4A111.077,111.077,0,0,1,1960.461,1033.436Z" transform="translate(-1817.625 -779.934)" fill="#f2f0ff"/>
      <path id="Trazado_22593" data-name="Trazado 22593" d="M2332.316,545.691a29.008,29.008,0,0,0,15.334,4.648,96.843,96.843,0,0,0-23.723-10.85C2326.834,541.753,2329.632,543.9,2332.316,545.691Z" transform="translate(-2152.855 -489.837)" fill="#f0edff"/>
      <path id="Trazado_22594" data-name="Trazado 22594" d="M2107.564,672.123c0,.1.012.2.015.308a6.634,6.634,0,0,1,2.421-.46h1.636v-6.389c-.206-.421-.414-.856-.623-1.309a8.16,8.16,0,0,0-3.448,6.656Z" transform="translate(-2006.119 -574.465)" fill="#f0edff"/>
      <path id="Trazado_22595" data-name="Trazado 22595" d="M1979.541,663.052a18.248,18.248,0,0,1,16.958-25.041h1.572a30.81,30.81,0,0,1-4.358-15.837V599.445h-1.636a6.654,6.654,0,0,1-4.45-11.607,10.352,10.352,0,0,1-.131-1.562v-1.2a10.308,10.308,0,0,1,4.708-8.646c-2.372-5.549-4.647-12.836-4.647-20.394,0-13.183,11.131-16.83,17.3-17.84-.02-.169-.033-.34-.048-.51a97.426,97.426,0,0,0-70.731,85.179c-.007.073-.014.147-.02.221q-.167,1.958-.258,3.937c-.009.195-.014.39-.022.585-.048,1.238-.079,2.48-.08,3.729,0,.069,0,.139,0,.208,0,1.394.038,2.778.1,4.158,0,.047,0,.094.005.141a96.521,96.521,0,0,0,16.311,49.772c.032.056.07.1.1.158A55.937,55.937,0,0,1,1979.541,663.052Z" transform="translate(-1888.197 -488.617)" fill="#f0edff"/>
      <path id="Trazado_22596" data-name="Trazado 22596" d="M2299.386,600.569a.382.382,0,0,1-.016.094c-1.119,10.247-5.21,24.317-18.925,27.772a10.294,10.294,0,0,1-.187,1.665,6.352,6.352,0,0,1,1.565,4.178,6.941,6.941,0,0,1-6.941,6.941h-1.355v22.728a30.8,30.8,0,0,1-4.359,15.838h1.572a18.248,18.248,0,0,1,16.958,25.042,55.92,55.92,0,0,1,29.246,22.583,97.676,97.676,0,0,1-37.526,33.013c-2.056,1.024-4.142,1.977-6.284,2.859-.559.228-1.126.465-1.693.685a97.185,97.185,0,0,1-35.249,6.614h.01a97.083,97.083,0,0,0,35.359-6.622c.567-.221,1.134-.449,1.7-.678a97.374,97.374,0,0,0,26.246-164C2299.473,599.7,2299.433,600.133,2299.386,600.569Z" transform="translate(-2093.355 -530.39)" fill="#f0edff"/>
      <path id="Trazado_22597" data-name="Trazado 22597" d="M2102.781,985.71c2.142-.882,4.229-1.834,6.284-2.859a97.677,97.677,0,0,0,37.526-33.013,55.92,55.92,0,0,0-29.246-22.583,18.264,18.264,0,0,1-16.958,11.5h-14.525v35.52h-2.145v-35.52h-35.743v35.52h-2.145v-35.52H2031.3a18.263,18.263,0,0,1-16.958-11.5,55.938,55.938,0,0,0-29.339,22.726A97.8,97.8,0,0,0,2018.933,981a96.313,96.313,0,0,0,25.476,9.648c.685.166,1.37.307,2.063.449a98.407,98.407,0,0,0,19.294,1.914h.072a97.185,97.185,0,0,0,35.249-6.614C2101.654,986.175,2102.222,985.938,2102.781,985.71Z" transform="translate(-1923.001 -752.819)" fill="#ffd4cc"/>
      <path id="Trazado_22598" data-name="Trazado 22598" d="M2159.5,854.535c9.279,0,10.983,13.217,2.006,15.57l-16.859,4.419h0l-19.706,5.168v0l-.006,0-.015,0-17.307-4.544-19.263-5.049c-8.976-2.353-7.273-15.57,2.007-15.57h5.3a.038.038,0,0,0,.028-.063,31.047,31.047,0,0,1-3.727-5.013.037.037,0,0,0-.032-.019h-1.037c-9.406,0-17.637,6.9-18.672,16.249a18.294,18.294,0,0,0,18.158,20.29h14.485a.039.039,0,0,0,.039-.039v-4.954a.039.039,0,0,1,.039-.039H2107a.039.039,0,0,1,.039.039v4.954a.039.039,0,0,0,.039.039h35.665a.039.039,0,0,0,.039-.039v-4.954a.039.039,0,0,1,.039-.039h2.068a.039.039,0,0,1,.039.039v4.954a.039.039,0,0,0,.039.039h14.486a18.293,18.293,0,0,0,18.158-20.29c-1.034-9.349-9.265-16.25-18.67-16.25H2157.9a.039.039,0,0,0-.032.019,31.032,31.032,0,0,1-3.727,5.013.038.038,0,0,0,.028.063Z" transform="translate(-1982.068 -700.045)" fill="#b3a4f5"/>
      <path id="Trazado_22599" data-name="Trazado 22599" d="M2297.528,885.262l17.151-4.5c8.933-2.341,7.238-15.493-2-15.493h-5.713a31.045,31.045,0,0,1-9.442,7v12.99Z" transform="translate(-2134.952 -710.783)" fill="#624ac9"/>
      <path id="Trazado_22600" data-name="Trazado 22600" d="M2109.276,880.766l19.555,5.126-2.429-.638V872.272a31.042,31.042,0,0,1-9.441-7h-5.688C2102.039,865.273,2100.344,878.425,2109.276,880.766Z" transform="translate(-2003.29 -710.783)" fill="#624ac9"/>
      <path id="Trazado_22601" data-name="Trazado 22601" d="M2236.278,943.452v0l-.006,0Z" transform="translate(-2093.408 -763.802)" fill="#624ac9"/>
      <path id="Trazado_22602" data-name="Trazado 22602" d="M2174.9,900l2.429.638,17.307,4.544.015,0,.007,0,19.706-5.168h0v-3.741c-.512.024-1.024.039-1.544.039h-16.553a28.938,28.938,0,0,1-21.223-9.223c-.047-.023-.1-.042-.143-.065Z" transform="translate(-2051.783 -725.533)" fill="#ff95a9"/>
      <path id="Trazado_22603" data-name="Trazado 22603" d="M2096.646,693.524a6.654,6.654,0,0,0,4.45,11.607h1.635v-3.709A10.333,10.333,0,0,1,2096.646,693.524Z" transform="translate(-1997.215 -594.303)" fill="#ff95a9"/>
      <path id="Trazado_22604" data-name="Trazado 22604" d="M2110.033,688.2a6.632,6.632,0,0,0-2.421.46,8.164,8.164,0,0,0,4.056,6.748V688.2Z" transform="translate(-2006.152 -590.689)" fill="#ff95a9"/>
      <path id="Trazado_22605" data-name="Trazado 22605" d="M2352.209,702.727v3.436h1.355a6.941,6.941,0,0,0,6.941-6.941,6.352,6.352,0,0,0-1.565-4.178A10.343,10.343,0,0,1,2352.209,702.727Z" transform="translate(-2172.037 -595.334)" fill="#ff95a9"/>
      <path id="Trazado_22606" data-name="Trazado 22606" d="M2356.741,691.294a23.437,23.437,0,0,1-4.532.235v6.323a8.183,8.183,0,0,0,4.75-6.6C2356.885,691.267,2356.816,691.283,2356.741,691.294Z" transform="translate(-2172.037 -592.765)" fill="#ff95a9"/>
      <path id="Trazado_22607" data-name="Trazado 22607" d="M2196.563,896.311h16.553c.52,0,1.031-.015,1.544-.039v-9.249a30.83,30.83,0,0,1-13.361,3.025h-12.741a30.836,30.836,0,0,1-13.219-2.961A28.938,28.938,0,0,0,2196.563,896.311Z" transform="translate(-2052.084 -725.534)" fill="#e5659b"/>
      <path id="Trazado_22608" data-name="Trazado 22608" d="M2118.9,668.78v7.208a8.109,8.109,0,0,0,3.774,1.1v-7.966a82.589,82.589,0,0,1,.542-9.551H2123a8.12,8.12,0,0,0-4.721,1.514c.21.453.418.888.623,1.309Z" transform="translate(-2013.387 -571.274)" fill="#4a3c81"/>
      <path id="Trazado_22609" data-name="Trazado 22609" d="M2340.48,690.545v7.565h.4a8.115,8.115,0,0,0,3.377-.74v-6.323A21.319,21.319,0,0,1,2340.48,690.545Z" transform="translate(-2164.082 -592.283)" fill="#4a3c81"/>
      <path id="Trazado_22610" data-name="Trazado 22610" d="M2191.5,712.49h-.4v.4a8.706,8.706,0,0,1-8.705,8.705h-4.532a22.713,22.713,0,0,0-7.7-9.112,10.276,10.276,0,0,1-7.3-3.234,22.371,22.371,0,0,0-5.315-.661h0a22.5,22.5,0,0,0-4.391.436,10.281,10.281,0,0,1-7.694,3.468h-.544a22.706,22.706,0,0,0-7.686,9.1H2132.7a8.705,8.705,0,0,1-8.705-8.705v-.413a10.234,10.234,0,0,1-3.774-.838v26.439a31,31,0,0,0,17.6,27.931c.047.022.1.042.143.065a30.836,30.836,0,0,0,13.219,2.961h12.741a30.958,30.958,0,0,0,30.957-30.957V711.911A10.254,10.254,0,0,1,2191.5,712.49Zm-26.9,9.1a7.05,7.05,0,0,1-14.1,0Z" transform="translate(-2014.7 -604.518)" fill="#4a3c81"/>
      <path id="Trazado_22611" data-name="Trazado 22611" d="M2301.19,721.518a4.165,4.165,0,0,1-4.165,4.165h-5.429a22.352,22.352,0,0,1,2.494,4.138h4.532a8.706,8.706,0,0,0,8.705-8.705v-.4h-6.163c.005.088.026.172.026.261Z" transform="translate(-2130.929 -612.747)" fill="#ff95a9"/>
      <path id="Trazado_22612" data-name="Trazado 22612" d="M2165.463,607.87v1.2a10.257,10.257,0,0,1-2.248,6.409h8.758a10.257,10.257,0,0,1-2.248-6.409v-1.2a10.327,10.327,0,0,1,10.315-10.315H2184c-5.869-7.439-10.1-16.107-14.176-19.9-10.506-9.781-24.988-5.371-24.988-5.371l0,0c-.022.023-7.757,7.688-10.327,25.273h20.644A10.327,10.327,0,0,1,2165.463,607.87Z" transform="translate(-2024.39 -511.407)" fill="#ff95a9"/>
      <path id="Trazado_22613" data-name="Trazado 22613" d="M2131.945,669.118v7.966c.108,0,.214.016.324.016h6.588a4.152,4.152,0,0,1,3.39-1.759h16.214a8.152,8.152,0,0,0,3.121-6.409v-1.2a8.179,8.179,0,0,0-8.17-8.17h-20.926A82.589,82.589,0,0,0,2131.945,669.118Zm10.677.169a5.239,5.239,0,0,1,.684-1.6,5.807,5.807,0,0,1,1.582-1.613,5.64,5.64,0,0,1,1.082-.6,7.678,7.678,0,0,1,1.2-.4,9.551,9.551,0,0,1,1.249-.163,8.119,8.119,0,0,1,1.219.068,6.14,6.14,0,0,1,2.085.725,5.549,5.549,0,0,1,1.327,1.049,4.094,4.094,0,0,1,.449.547l-.036.3-.489-.015c-.311-.01-.754-.029-1.285-.015-.4-.01-.851.017-1.324.052a3.4,3.4,0,1,1-5.216,1.263c-.335.145-.652.293-.926.443a10.692,10.692,0,0,0-1.494.917l-.2-.227A3.034,3.034,0,0,1,2142.622,669.287Z" transform="translate(-2022.654 -571.274)" fill="#ff95a9"/>
      <path id="Trazado_22614" data-name="Trazado 22614" d="M2140.65,729.787h4.532a22.339,22.339,0,0,1,2.494-4.138h-5.429a4.165,4.165,0,0,1-4.165-4.165v-.538c0-.089.021-.173.026-.261h-5.839c-.109,0-.215-.013-.324-.016v.413A8.705,8.705,0,0,0,2140.65,729.787Z" transform="translate(-2022.654 -612.713)" fill="#ff95a9"/>
      <path id="Trazado_22615" data-name="Trazado 22615" d="M2264.524,659.567h-5.732a8.179,8.179,0,0,0-8.169,8.17v1.2a8.153,8.153,0,0,0,3.121,6.409h15.494a4.152,4.152,0,0,1,3.39,1.759h6.912v-7.565C2273.476,668.166,2268.611,664.269,2264.524,659.567Zm4.229,10.674a10.7,10.7,0,0,0-1.494-.917c-.274-.15-.591-.3-.926-.443a3.4,3.4,0,1,1-5.215-1.263c-.474-.035-.929-.062-1.325-.052-.531-.014-.974,0-1.285.015l-.489.015-.035-.3a4.094,4.094,0,0,1,.449-.547,5.544,5.544,0,0,1,1.327-1.049,6.141,6.141,0,0,1,2.085-.725,8.121,8.121,0,0,1,1.219-.068,9.548,9.548,0,0,1,1.249.163,7.65,7.65,0,0,1,1.2.4,5.652,5.652,0,0,1,1.083.6,5.8,5.8,0,0,1,1.582,1.613,5.2,5.2,0,0,1,.684,1.6,3.049,3.049,0,0,1,.092.727Z" transform="translate(-2103.141 -571.274)" fill="#ff95a9"/>
      <path id="Trazado_22616" data-name="Trazado 22616" d="M2129.885,485.878c-.448.133-.895.261-1.345.419-8.979,3.153-10.757,9.638-10.206,15.5.016.17.029.34.048.51-6.165,1.01-17.3,4.658-17.3,17.84,0,7.558,2.275,14.845,4.647,20.394a10.244,10.244,0,0,1,5.607-1.669h.5c2.57-17.585,10.3-25.25,10.327-25.273v0c9.324-6.907,19.184-6.615,27.532-2.347,13.6,6.961,21.743,25.067,37.18,26.547,10.5,1.016,19.656-8.3,20.861-14.805a.394.394,0,0,0,.016-.094c.047-.436.087-.864.124-1.285a61.806,61.806,0,0,0,.12-9.835,36.528,36.528,0,0,1-11.481,1.443,29.006,29.006,0,0,1-15.334-4.648c-2.684-1.789-5.481-3.938-8.39-6.2-9.475-7.377-20.136-15.971-31.911-17.4A26.875,26.875,0,0,0,2129.885,485.878Z" transform="translate(-2001.726 -452.723)" fill="#4a3c81"/>
      <path id="Trazado_22617" data-name="Trazado 22617" d="M2280.626,725.664h5.429a4.165,4.165,0,0,0,4.165-4.165v-.538c0-.089-.021-.173-.026-.261h-14.584c-.063,0-.125-.008-.189-.009A22.5,22.5,0,0,1,2280.626,725.664Z" transform="translate(-2119.96 -612.727)" fill="#ff809f"/>
      <path id="Trazado_22618" data-name="Trazado 22618" d="M2240.956,708.586h-4.738a22.372,22.372,0,0,1,5.316.661C2241.333,709.035,2241.139,708.815,2240.956,708.586Z" transform="translate(-2093.372 -604.518)" fill="#ff809f"/>
      <path id="Trazado_22619" data-name="Trazado 22619" d="M2151.014,721.518a4.165,4.165,0,0,0,4.166,4.165h5.429a22.493,22.493,0,0,1,5.192-4.964H2151.04c-.005.088-.026.172-.026.261Z" transform="translate(-2035.587 -612.747)" fill="#ff809f"/>
      <path id="Trazado_22620" data-name="Trazado 22620" d="M2222.938,708.586c-.119.15-.246.293-.373.436a22.5,22.5,0,0,1,4.391-.436Z" transform="translate(-2084.113 -604.518)" fill="#ff809f"/>
      <path id="Trazado_22621" data-name="Trazado 22621" d="M2153.423,710.345h14.556a8.121,8.121,0,0,0,5.049-1.759h-16.214A4.152,4.152,0,0,0,2153.423,710.345Z" transform="translate(-2037.221 -604.518)" fill="#ff809f"/>
      <path id="Trazado_22622" data-name="Trazado 22622" d="M2275.813,708.586h-15.494a8.123,8.123,0,0,0,5.049,1.759H2279.2A4.152,4.152,0,0,0,2275.813,708.586Z" transform="translate(-2109.717 -604.518)" fill="#ff809f"/>
      <path id="Trazado_22623" data-name="Trazado 22623" d="M2221.355,756.054a7.049,7.049,0,0,0,7.05-7.05h-14.1A7.05,7.05,0,0,0,2221.355,756.054Z" transform="translate(-2078.511 -631.93)" fill="#fff"/>
      <path id="Trazado_22624" data-name="Trazado 22624" d="M2100.9,663.215v1.2a10.3,10.3,0,0,0,9.991,10.3c.109,0,.214.016.324.016h21.144a10.281,10.281,0,0,0,7.694-3.468c.127-.143.254-.286.373-.436a10.257,10.257,0,0,0,2.248-6.409v-1.2a10.327,10.327,0,0,0-10.315-10.315h-21.144a10.342,10.342,0,0,0-10.315,10.315Zm5.594-6.656a8.12,8.12,0,0,1,4.721-1.514h21.144a8.179,8.179,0,0,1,8.169,8.17v1.2a8.194,8.194,0,0,1-8.169,8.169h-21.144c-.109,0-.216-.012-.324-.016a8.159,8.159,0,0,1-7.83-7.844c0-.1-.015-.2-.015-.308v-1.2A8.16,8.16,0,0,1,2106.491,656.56Z" transform="translate(-2001.598 -566.752)" fill="#ffe159"/>
      <path id="Trazado_22625" data-name="Trazado 22625" d="M2176.072,684.766l-1.026.219a14.565,14.565,0,0,0-2.7.865,3.4,3.4,0,1,0,5.216-1.263c-.161.012-.315.021-.482.035Z" transform="translate(-2049.851 -588.243)" fill="#7760db"/>
      <path id="Trazado_22626" data-name="Trazado 22626" d="M2166.531,680.575c.274-.15.591-.3.926-.443a14.569,14.569,0,0,1,2.7-.865l1.026-.219,1.009-.144c.166-.014.321-.023.482-.035.474-.035.928-.062,1.325-.052.531-.014.974,0,1.285.015l.489.015.036-.3a4.094,4.094,0,0,0-.449-.547,5.55,5.55,0,0,0-1.327-1.049,6.138,6.138,0,0,0-2.085-.725,8.1,8.1,0,0,0-1.219-.068,9.56,9.56,0,0,0-1.249.162,7.678,7.678,0,0,0-1.2.4,5.628,5.628,0,0,0-1.082.6,5.81,5.81,0,0,0-1.583,1.613,5.232,5.232,0,0,0-.684,1.6,3.028,3.028,0,0,0-.093.727l.2.227A10.7,10.7,0,0,1,2166.531,680.575Z" transform="translate(-2044.961 -582.524)" fill="#4f37b3"/>
      <path id="Trazado_22627" data-name="Trazado 22627" d="M2282.009,684.766l-1.008-.144c-.167-.014-.321-.023-.482-.035a3.4,3.4,0,1,0,5.215,1.263,14.562,14.562,0,0,0-2.7-.865Z" transform="translate(-2122.542 -588.243)" fill="#7760db"/>
      <path id="Trazado_22628" data-name="Trazado 22628" d="M2283.692,678.941a5.8,5.8,0,0,0-1.582-1.613,5.634,5.634,0,0,0-1.083-.6,7.65,7.65,0,0,0-1.2-.4,9.549,9.549,0,0,0-1.249-.162,8.1,8.1,0,0,0-1.219.068,6.141,6.141,0,0,0-2.085.725,5.546,5.546,0,0,0-1.327,1.049,4.094,4.094,0,0,0-.449.547l.035.3.489-.015c.311-.01.754-.029,1.285-.015.4-.01.851.017,1.325.052.161.012.315.021.482.035l1.008.144,1.026.219a14.557,14.557,0,0,1,2.7.865c.335.145.653.293.927.443a10.7,10.7,0,0,1,1.493.917l.2-.227a3.049,3.049,0,0,0-.092-.727A5.2,5.2,0,0,0,2283.692,678.941Z" transform="translate(-2118.655 -582.524)" fill="#4f37b3"/>
      <path id="Trazado_22629" data-name="Trazado 22629" d="M2174.009,947.35V987.9h2.146V947.35Z" transform="translate(-2051.182 -766.448)" fill="#fff"/>
      <path id="Trazado_22630" data-name="Trazado 22630" d="M2291.747,947.35V987.9h2.145V947.35Z" transform="translate(-2131.031 -766.448)" fill="#fff"/>
      <path id="Trazado_22631" data-name="Trazado 22631" d="M2191.588,568.365c4.074,3.792,8.307,12.46,14.176,19.9h17.188a10.327,10.327,0,0,1,10.315,10.315v1.2c0,.13-.015.257-.02.386,13.715-3.455,17.806-17.524,18.925-27.772-1.2,6.505-10.356,15.821-20.861,14.805-15.436-1.48-23.579-19.586-37.179-26.547-8.348-4.268-18.208-4.56-27.532,2.347C2166.6,562.995,2181.083,558.585,2191.588,568.365Z" transform="translate(-2046.157 -502.116)" fill="#40327a"/>
      <path id="Trazado_22632" data-name="Trazado 22632" d="M2308.837,669.536a21.316,21.316,0,0,0,3.774.5,23.443,23.443,0,0,0,4.532-.235c.074-.012.144-.027.217-.039a8.154,8.154,0,0,0,.042-.832v-1.2a8.179,8.179,0,0,0-8.169-8.17h-15.412C2297.909,664.269,2302.775,668.166,2308.837,669.536Z" transform="translate(-2132.439 -571.274)" fill="#40327a"/>
      <path id="Trazado_22633" data-name="Trazado 22633" d="M2285.729,663.215a10.327,10.327,0,0,0-10.315-10.315H2254.27a10.327,10.327,0,0,0-10.315,10.315v1.2a10.258,10.258,0,0,0,2.248,6.409c.183.229.376.449.578.661a10.277,10.277,0,0,0,7.3,3.234c.063,0,.125.009.189.009h21.144a10.23,10.23,0,0,0,10.3-9.927c0-.129.02-.256.02-.386Zm-6.937,8.625a8.116,8.116,0,0,1-3.377.74H2254.27a8.194,8.194,0,0,1-8.169-8.169v-1.2a8.179,8.179,0,0,1,8.169-8.17h21.144a8.18,8.18,0,0,1,8.17,8.17v1.2a8.157,8.157,0,0,1-4.792,7.429Z" transform="translate(-2098.619 -566.752)" fill="#ffe159"/>
    </g>
    <path id="Trazado_22634" data-name="Trazado 22634" d="M805.167,242.522a23.681,23.681,0,0,0,5.393,9.528l-3.211,5.457,11.727,6.907,3.21-5.457a23.566,23.566,0,0,0,10.954.1l3.115,5.513,11.847-6.708-3.123-5.513a23.6,23.6,0,0,0,5.561-9.432l6.326.055.119-13.607-6.326-.056a23.7,23.7,0,0,0-5.4-9.528l3.211-5.457-11.727-6.907-3.21,5.457a23.538,23.538,0,0,0-10.947-.1l-3.123-5.505-11.838,6.7,3.115,5.513a23.835,23.835,0,0,0-5.561,9.432l-6.326-.048-.119,13.607Zm12.428-6.692a10.365,10.365,0,1,1,10.277,10.452A10.366,10.366,0,0,1,817.594,235.83Z" transform="translate(-341.78)" fill="#f0edff"/>
    <path id="Trazado_22635" data-name="Trazado 22635" d="M992.071,370.321l-7.459,7.331,12.73,12.957,7.459-7.341a41.9,41.9,0,0,0,13.538,5.755l-.089,10.454,18.15.148.088-10.454a41.713,41.713,0,0,0,13.637-5.518l7.331,7.459,12.947-12.72-7.331-7.459a42,42,0,0,0,5.755-13.538l10.454.088.148-18.16-10.454-.089a41.826,41.826,0,0,0-5.518-13.637l7.459-7.331-12.72-12.947-7.469,7.331A41.641,41.641,0,0,0,1037.2,306.9l.089-10.454-18.16-.157-.089,10.454a41.807,41.807,0,0,0-13.637,5.518l-7.331-7.459-12.947,12.73L992.456,325a41.688,41.688,0,0,0-5.744,13.538l-10.454-.089L976.1,356.6l10.455.1A41.749,41.749,0,0,0,992.071,370.321Zm17.3-22.515a18.4,18.4,0,1,1,18.239,18.554A18.386,18.386,0,0,1,1009.374,347.806Z" transform="translate(-462.001 -60.376)" fill="#f0edff"/>
    <g id="Grupo_28404" data-name="Grupo 28404" transform="translate(584.433 438.648)">
      <circle id="Elipse_1061" data-name="Elipse 1061" cx="22.288" cy="22.288" r="22.288" transform="translate(0 77.401) rotate(-45)" fill="#40327a"/>
      <path id="Trazado_22636" data-name="Trazado 22636" d="M1517.978,1020.8l-1.474-1.559a24.024,24.024,0,0,0,7.552-16.9,49.4,49.4,0,0,0-15.039-36.867l1.488-1.544a51.55,51.55,0,0,1,15.695,38.47A26.157,26.157,0,0,1,1517.978,1020.8Z" transform="translate(-1407.859 -951.816)" fill="#fff"/>
      <path id="Trazado_22637" data-name="Trazado 22637" d="M1348.261,976.8a49.171,49.171,0,1,0-50.5,47.8l25.747-24.367a24.106,24.106,0,0,0,24.759-23.434Z" transform="translate(-1232.151 -926.281)" fill="#40327a"/>
      <path id="Trazado_22638" data-name="Trazado 22638" d="M1312.907,1122.475l7.112.2.391-14.224-7.112-.2a7.115,7.115,0,0,0-7.308,6.917h0A7.115,7.115,0,0,0,1312.907,1122.475Z" transform="translate(-1270.165 -1049.691)" fill="#ff95a9"/>
      <path id="Trazado_22639" data-name="Trazado 22639" d="M1384.893,1025.813l-53.456-1.47-1.9,69,33.2.913a23.063,23.063,0,0,0,23.683-23.844Z" transform="translate(-1286.137 -992.787)" fill="#ff95a9"/>
      <path id="Trazado_22640" data-name="Trazado 22640" d="M1330.128,1021.706l-1.423-.039,1.13-41.086,42.342,1.165a20.254,20.254,0,0,1,19.689,20.8l-.022.805-1.423-.039a55.679,55.679,0,0,0-33.866,10.331h0a43.447,43.447,0,0,1-26.427,8.061Z" transform="translate(-1285.572 -963.107)" fill="#40327a"/>
      <path id="Trazado_22641" data-name="Trazado 22641" d="M1441.24,1179.557a8.619,8.619,0,0,1-16.525-.473Z" transform="translate(-1350.685 -1097.732)" fill="#fff"/>
      <path id="Trazado_22642" data-name="Trazado 22642" d="M1411.258,1119.717a3.153,3.153,0,1,1-3.125-3.182A3.153,3.153,0,0,1,1411.258,1119.717Z" transform="translate(-1337.282 -1055.312)" fill="#8b77e8"/>
      <path id="Trazado_22643" data-name="Trazado 22643" d="M1398.28,1115.587a2.791,2.791,0,0,1,.091-.673,4.838,4.838,0,0,1,.647-1.474,5.37,5.37,0,0,1,1.48-1.481,5.227,5.227,0,0,1,1.007-.551,7.1,7.1,0,0,1,1.116-.364,8.808,8.808,0,0,1,1.159-.14,7.491,7.491,0,0,1,1.129.073,5.687,5.687,0,0,1,1.926.689,5.153,5.153,0,0,1,1.221.983,3.786,3.786,0,0,1,.412.511l-.035.278-.453-.018c-.288-.012-.7-.033-1.19-.025a16.405,16.405,0,0,0-1.675.066l-.936.125-.953.195a12.988,12.988,0,0,0-3.37,1.182,9.9,9.9,0,0,0-1.392.837Z" transform="translate(-1332.757 -1051.492)" fill="#7760db"/>
      <path id="Trazado_22644" data-name="Trazado 22644" d="M1480.86,1121.174a3.153,3.153,0,1,0,3.182-3.125A3.154,3.154,0,0,0,1480.86,1121.174Z" transform="translate(-1388.763 -1056.338)" fill="#8b77e8"/>
      <path id="Trazado_22645" data-name="Trazado 22645" d="M1485.769,1117.183a2.815,2.815,0,0,0-.079-.674,4.828,4.828,0,0,0-.62-1.485,5.379,5.379,0,0,0-1.453-1.507,5.214,5.214,0,0,0-1-.568,7.015,7.015,0,0,0-1.109-.384,8.742,8.742,0,0,0-1.156-.161,7.542,7.542,0,0,0-1.13.052,5.692,5.692,0,0,0-1.937.655,5.15,5.15,0,0,0-1.238.961,3.793,3.793,0,0,0-.421.5l.03.279.454-.01c.288-.007.7-.02,1.191,0a16.43,16.43,0,0,1,1.674.1l.933.141.949.212a12.989,12.989,0,0,1,3.349,1.242,9.9,9.9,0,0,1,1.376.861Z" transform="translate(-1385.214 -1052.506)" fill="#7760db"/>
    </g>
    <g id="Grupo_28406" data-name="Grupo 28406" transform="translate(645.994 301.737)">
      <g id="Grupo_28405" data-name="Grupo 28405" transform="translate(65.468 36.686)">
        <ellipse id="Elipse_1062" data-name="Elipse 1062" cx="8.777" cy="8.456" rx="8.777" ry="8.456" fill="#b3a4f5"/>
        <ellipse id="Elipse_1063" data-name="Elipse 1063" cx="8.778" cy="8.456" rx="8.778" ry="8.456" transform="translate(31.859)" fill="#b3a4f5"/>
        <ellipse id="Elipse_1064" data-name="Elipse 1064" cx="8.778" cy="8.456" rx="8.778" ry="8.456" transform="translate(63.719)" fill="#b3a4f5"/>
      </g>
      <path id="Trazado_22646" data-name="Trazado 22646" d="M1598.176,591.115H1431.109a45.142,45.142,0,0,1,0-90.285h121.926a45.193,45.193,0,0,1,45.142,45.142Zm-167.067-88.139a43,43,0,0,0,0,85.994h164.922v-43a43.045,43.045,0,0,0-43-43Z" transform="translate(-1385.967 -500.83)" fill="#b3a4f5"/>
    </g>
    <rect id="Rectángulo_4479" data-name="Rectángulo 4479" width="31.305" height="42.071" transform="translate(654.04 554.596) rotate(-172.142)" fill="#ff95a9"/>
    <g id="Grupo_28407" data-name="Grupo 28407" transform="translate(944.413 456.388)">
      <circle id="Elipse_1065" data-name="Elipse 1065" cx="77.195" cy="77.195" r="77.195" transform="translate(0 0)" fill="#fff"/>
      <circle id="Elipse_1066" data-name="Elipse 1066" cx="23.016" cy="23.016" r="23.016" transform="translate(43.258 76.111) rotate(-45)" fill="#fff"/>
      <path id="Trazado_22647" data-name="Trazado 22647" d="M2461.226,1171.862a41.591,41.591,0,1,1,41.591-41.591A41.639,41.639,0,0,1,2461.226,1171.862Zm0-46.032a4.441,4.441,0,1,0,4.44,4.441A4.446,4.446,0,0,0,2461.226,1125.831Z" transform="translate(-2385.418 -1054.16)" fill="#fff"/>
      <path id="Trazado_22648" data-name="Trazado 22648" d="M2493.232,1130.552l-1.825-1.127c10.466-16.954,10.916-37.71,1.235-56.946a45.976,45.976,0,0,0-20.589-20.373c-15.119-7.485-30.849-8.789-45.488-3.767a55.553,55.553,0,0,0-31.771,28.191l-1.931-.934a57.7,57.7,0,0,1,33.007-29.286c15.193-5.211,31.492-3.871,47.135,3.873a48.14,48.14,0,0,1,21.554,21.333C2504.583,1091.431,2504.1,1112.949,2493.232,1130.552Z" transform="translate(-2367.262 -1023.31)" fill="#7760db"/>
      <circle id="Elipse_1067" data-name="Elipse 1067" cx="49.459" cy="49.459" r="49.459" transform="translate(7.25 77.195) rotate(-45)" fill="#ffccd6"/>
      <circle id="Elipse_1068" data-name="Elipse 1068" cx="56.207" cy="56.207" r="56.207" transform="translate(20.988 20.988)" fill="#ffccd6"/>
      <path id="Trazado_22649" data-name="Trazado 22649" d="M2493.232,1130.552l-1.825-1.127c10.466-16.954,10.916-37.71,1.235-56.946a45.976,45.976,0,0,0-20.589-20.373c-15.119-7.485-30.849-8.789-45.488-3.767a55.553,55.553,0,0,0-31.771,28.191l-1.931-.934a57.7,57.7,0,0,1,33.007-29.286c15.193-5.211,31.492-3.871,47.135,3.873a48.14,48.14,0,0,1,21.554,21.333C2504.583,1091.431,2504.1,1112.949,2493.232,1130.552Z" transform="translate(-2367.262 -1023.31)" fill="#7760db"/>
      <path id="Trazado_22650" data-name="Trazado 22650" d="M2432.476,1278.572a57.345,57.345,0,0,1-57.28-57.28h2.146a55.176,55.176,0,0,0,71.48,52.671l.635,2.049A57.279,57.279,0,0,1,2432.476,1278.572Z" transform="translate(-2355.281 -1144.097)" fill="#7760db"/>
      <path id="Trazado_22651" data-name="Trazado 22651" d="M2675.727,1322.787l-1.515-1.519a55.472,55.472,0,0,0,8.006-10.106l1.825,1.127A57.619,57.619,0,0,1,2675.727,1322.787Z" transform="translate(-2558.073 -1205.047)" fill="#7760db"/>
      <path id="Trazado_22652" data-name="Trazado 22652" d="M2552.783,1153.209a43.941,43.941,0,0,0-54.253-54.3,40.685,40.685,0,0,1,54.253,54.3Z" transform="translate(-2438.926 -1058.387)" fill="#ff95a9"/>
      <path id="Trazado_22653" data-name="Trazado 22653" d="M2505.817,1146.059a43.861,43.861,0,0,1-1.675,12.061l-.008.007a40.674,40.674,0,1,1-54.282-54.29.127.127,0,0,1,.037-.015,43.939,43.939,0,0,1,55.928,42.236Z" transform="translate(-2390.284 -1063.299)" fill="#ffb0bf"/>
      <path id="Trazado_22654" data-name="Trazado 22654" d="M2485.384,1157.253h-12.71l-13.659-30.13,13.333-6.044,7.953,17.541c8.3-11,26.69-32.359,56.987-52.571l8.125,12.177c-39.719,26.5-57.706,55.259-57.883,55.546Z" transform="translate(-2412.126 -1052.375)" fill="#fff"/>
    </g>
    <g id="Grupo_28408" data-name="Grupo 28408" transform="translate(536.516 394.97)">
      <circle id="Elipse_1069" data-name="Elipse 1069" cx="5.097" cy="5.097" r="5.097" transform="translate(36.999 2.87) rotate(-13.282)" fill="#fff"/>
      <circle id="Elipse_1070" data-name="Elipse 1070" cx="5.097" cy="5.097" r="5.097" transform="translate(17.972 9.418) rotate(-67.5)" fill="#fff"/>
      <circle id="Elipse_1071" data-name="Elipse 1071" cx="5.097" cy="5.097" r="5.097" transform="translate(0 2.87) rotate(-13.282)" fill="#fff"/>
    </g>
    <circle id="Elipse_1072" data-name="Elipse 1072" cx="17.162" cy="17.162" r="17.162" transform="translate(313.252 350.609) rotate(-13.622)" fill="#ffccd6"/>
  </g>
</svg>
