<svg xmlns="http://www.w3.org/2000/svg" width="854.737" height="548.787" viewBox="0 0 854.737 548.787">
  <g id="Grupo_28233" data-name="Grupo 28233" transform="translate(-233.923 -241.931)">
    <path id="Trazado_22116" data-name="Trazado 22116" d="M1965.928,590.29A154.525,154.525,0,1,1,1811.4,435.758,154.572,154.572,0,0,1,1965.928,590.29Z" transform="translate(-942.688 -128.408)" fill="#f2f0ff"/>
    <path id="Trazado_22117" data-name="Trazado 22117" d="M2103.066,1182.275c-1.973,0-3.966-.033-5.923-.1l.085-2.5c1.929.065,3.893.1,5.838.1a169.766,169.766,0,0,0,159.349-110.721l2.344.871a172.271,172.271,0,0,1-161.693,112.35Z" transform="translate(-1234.357 -547.957)" fill="#b3a4f5"/>
    <path id="Trazado_22118" data-name="Trazado 22118" d="M2600.888,1009.212l-2.4-.693c1.216-4.2,2.282-8.518,3.168-12.823l2.449.505C2603.2,1000.568,2602.121,1004.946,2600.888,1009.212Z" transform="translate(-1566.489 -499.359)" fill="#b3a4f5"/>
    <path id="Trazado_22119" data-name="Trazado 22119" d="M2520.239,633.07a168.312,168.312,0,0,0-47.709-97.154l1.777-1.758a170.786,170.786,0,0,1,48.41,98.585Z" transform="translate(-1483.045 -193.596)" fill="#b3a4f5"/>
    <path id="Trazado_22120" data-name="Trazado 22120" d="M2146.431,420.927a168.268,168.268,0,0,0-104.292-35.756,171.025,171.025,0,0,0-36.428,3.914l-.535-2.442a173.52,173.52,0,0,1,36.963-3.973,170.753,170.753,0,0,1,105.827,36.283Z" transform="translate(-1173.43 -93.238)" fill="#b3a4f5"/>
    <path id="Trazado_22121" data-name="Trazado 22121" d="M1926.729,413.543l-.926-2.322c3.488-1.388,7.058-2.674,10.613-3.824l.769,2.378C1933.683,410.909,1930.165,412.176,1926.729,413.543Z" transform="translate(-1120.846 -109.619)" fill="#b3a4f5"/>
    <path id="Trazado_22122" data-name="Trazado 22122" d="M1609.764,824.61l-2.483-.29q.276-2.366.619-4.716l2.473.359Q1610.038,822.277,1609.764,824.61Z" transform="translate(-909.83 -382.7)" fill="#b3a4f5"/>
    <path id="Trazado_22123" data-name="Trazado 22123" d="M1630.609,980.288a171.885,171.885,0,0,1-26.819-92.4q0-1.462.025-2.914l2.5.042q-.024,1.432-.024,2.873a169.392,169.392,0,0,0,26.428,91.055Z" transform="translate(-907.517 -426.01)" fill="#b3a4f5"/>
    <path id="Trazado_22124" data-name="Trazado 22124" d="M2276.99,1445.039l-10.5-36c1.909-.558,3.848-1.158,5.762-1.787l11.7,35.631C2281.638,1443.64,2279.3,1444.366,2276.99,1445.039Z" transform="translate(-1346.544 -772.008)" fill="#ccc2ff"/>
    <path id="Trazado_22125" data-name="Trazado 22125" d="M2313.042,1350.2l-12.865-35.226a183.616,183.616,0,0,0,68.05-44.075l26.852,26.178A221.359,221.359,0,0,1,2313.042,1350.2Z" transform="translate(-1368.864 -681.676)" fill="#ddd6ff"/>
    <path id="Trazado_22126" data-name="Trazado 22126" d="M2549.031,945.062,2520.866,920.3a182.842,182.842,0,0,0,41.047-160.018l36.615-8.108a220.354,220.354,0,0,1-49.5,192.888Z" transform="translate(-1515.067 -338.029)" fill="#f2f0ff"/>
    <path id="Trazado_22127" data-name="Trazado 22127" d="M2581.929,583.656c-2.6-5.211-5.487-10.36-8.578-15.3l31.793-19.888c3.728,5.961,7.208,12.17,10.344,18.454Z" transform="translate(-1549.838 -203.073)" fill="#ddd6ff"/>
    <path id="Trazado_22128" data-name="Trazado 22128" d="M1467.034,503.757a221.625,221.625,0,0,1-3.984-41.873c0-121.283,98.664-219.953,219.937-219.953a219.675,219.675,0,0,1,177.067,89.451l-30.172,22.272a183.323,183.323,0,0,0-146.895-74.221c-100.6,0-182.436,81.848-182.436,182.451a184.051,184.051,0,0,0,3.306,34.771Z" transform="translate(-814.279)" fill="#f2f0ff"/>
    <path id="Trazado_22129" data-name="Trazado 22129" d="M1484.964,1043.333c-1.305-4.225-2.5-8.554-3.544-12.867l36.442-8.848c.868,3.572,1.854,7.156,2.933,10.652Z" transform="translate(-826.449 -516.531)" fill="#ddd6ff"/>
    <path id="Trazado_22130" data-name="Trazado 22130" d="M1719.267,1257.421a218.968,218.968,0,0,1-79.893-14.969,221.73,221.73,0,0,1-121.561-116.587l34.335-15.083A183.962,183.962,0,0,0,1653,1207.515a183.548,183.548,0,0,0,106.329,7.995l8.216,36.591A220.788,220.788,0,0,1,1719.267,1257.421Z" transform="translate(-850.559 -575.601)" fill="#f2f0ff"/>
    <g id="Grupo_28222" data-name="Grupo 28222" transform="translate(260.372 733.517)">
      <rect id="Rectángulo_4367" data-name="Rectángulo 4367" width="742.393" height="12.501" transform="translate(34.404)" fill="#8b77e8"/>
      <g id="Grupo_28218" data-name="Grupo 28218" transform="translate(169.465 11.25)">
        <path id="Trazado_22131" data-name="Trazado 22131" d="M1091.716,1735.457h0Z" transform="translate(-814.385 -1734.207)" fill="#f8f7ff"/>
        <rect id="Rectángulo_4368" data-name="Rectángulo 4368" width="277.331" height="2.5" fill="#40327a"/>
      </g>
      <g id="Grupo_28219" data-name="Grupo 28219" transform="translate(59.66 11.25)">
        <path id="Trazado_22132" data-name="Trazado 22132" d="M560.945,1735.457h0Z" transform="translate(-489.049 -1734.207)" fill="#f8f7ff"/>
        <rect id="Rectángulo_4369" data-name="Rectángulo 4369" width="71.896" height="2.5" fill="#40327a"/>
      </g>
      <g id="Grupo_28220" data-name="Grupo 28220" transform="translate(144.204 11.25)">
        <path id="Trazado_22133" data-name="Trazado 22133" d="M751.079,1735.457h0Z" transform="translate(-739.541 -1734.207)" fill="#f8f7ff"/>
        <rect id="Rectángulo_4370" data-name="Rectángulo 4370" width="11.537" height="2.5" fill="#40327a"/>
      </g>
      <g id="Grupo_28221" data-name="Grupo 28221" transform="translate(527.866 11.25)">
        <path id="Trazado_22134" data-name="Trazado 22134" d="M2043.7,1735.457h0Z" transform="translate(-1876.269 -1734.207)" fill="#f8f7ff"/>
        <rect id="Rectángulo_4371" data-name="Rectángulo 4371" width="167.431" height="2.5" transform="translate(0)" fill="#40327a"/>
      </g>
      <rect id="Rectángulo_4372" data-name="Rectángulo 4372" width="202.634" height="12.501" transform="translate(609.788 25.949)" fill="#f2f0ff"/>
      <rect id="Rectángulo_4373" data-name="Rectángulo 4373" width="38.421" height="12.501" transform="translate(557.867 25.949)" fill="#e9e6ff"/>
      <rect id="Rectángulo_4374" data-name="Rectángulo 4374" width="55.644" height="6.25" transform="translate(79.945 50.951)" fill="#f2f0ff"/>
      <rect id="Rectángulo_4375" data-name="Rectángulo 4375" width="8.055" height="6.25" transform="translate(147.681 50.951)" fill="#f2f0ff"/>
      <rect id="Rectángulo_4376" data-name="Rectángulo 4376" width="185.253" height="6.25" transform="translate(171.566 50.951)" fill="#f2f0ff"/>
      <rect id="Rectángulo_4377" data-name="Rectángulo 4377" width="79.47" height="6.25" transform="translate(377.472 50.951)" fill="#f2f0ff"/>
      <rect id="Rectángulo_4378" data-name="Rectángulo 4378" width="166.242" height="6.25" transform="translate(467.281 50.951)" fill="#f2f0ff"/>
      <rect id="Rectángulo_4379" data-name="Rectángulo 4379" width="9.02" height="6.25" transform="translate(652.846 50.951)" fill="#f2f0ff"/>
      <rect id="Rectángulo_4380" data-name="Rectángulo 4380" width="252.296" height="12.501" transform="translate(299.99 25.949)" fill="#f2f0ff"/>
      <rect id="Rectángulo_4381" data-name="Rectángulo 4381" width="47.835" height="12.501" transform="translate(238.816 25.949)" fill="#e9e6ff"/>
      <rect id="Rectángulo_4382" data-name="Rectángulo 4382" width="9.793" height="12.501" transform="translate(224.359 25.949)" fill="#ddd6ff"/>
      <rect id="Rectángulo_4383" data-name="Rectángulo 4383" width="110.375" height="12.501" transform="translate(108.991 25.949)" fill="#f2f0ff"/>
      <rect id="Rectángulo_4384" data-name="Rectángulo 4384" width="93.575" height="12.501" transform="translate(0 25.949)" fill="#f2f0ff"/>
    </g>
    <g id="Grupo_28224" data-name="Grupo 28224" transform="translate(233.923 360.23)">
      <g id="Grupo_28223" data-name="Grupo 28223" transform="translate(34.878 34.868)">
        <path id="Trazado_22135" data-name="Trazado 22135" d="M730.69,1182.847l-1.23-2.176c1.487-.841,2.974-1.741,4.418-2.673l1.357,2.1C733.748,1181.057,732.22,1181.983,730.69,1182.847Z" transform="translate(-597.087 -1015.229)" fill="#b3a4f5"/>
        <path id="Trazado_22136" data-name="Trazado 22136" d="M483.538,854.681l-1.585-1.934a87.085,87.085,0,0,0-55.116-154.508c-47.415,0-86.478,38.562-87.076,85.962l-2.5-.032a89.584,89.584,0,1,1,146.277,70.512Z" transform="translate(-337.261 -695.739)" fill="#b3a4f5"/>
        <path id="Trazado_22137" data-name="Trazado 22137" d="M443.379,1123.237a89.987,89.987,0,0,1-81.15-51.588l2.263-1.062a87.232,87.232,0,0,0,96.407,48.387l.5,2.449A90.2,90.2,0,0,1,443.379,1123.237Z" transform="translate(-353.802 -944.07)" fill="#b3a4f5"/>
      </g>
      <path id="Trazado_22138" data-name="Trazado 22138" d="M758.383,664.385c-2.645-1.837-5.412-3.57-8.224-5.15l11.1-19.751c3.437,1.93,6.819,4.05,10.053,6.3Z" transform="translate(-575.922 -623.603)" fill="#e9e6ff"/>
      <path id="Trazado_22139" data-name="Trazado 22139" d="M647.68,624.757a100.888,100.888,0,0,0-42.541-9.67l.182-22.656a123.392,123.392,0,0,1,52.024,11.837Z" transform="translate(-479.848 -592.431)" fill="#e9e6ff"/>
      <path id="Trazado_22140" data-name="Trazado 22140" d="M559.316,616.935l-2.8-22.481q1.934-.242,3.887-.424l2.09,22.558C561.429,616.687,560.37,616.8,559.316,616.935Z" transform="translate(-447.635 -593.49)" fill="#e9e6ff"/>
      <path id="Trazado_22141" data-name="Trazado 22141" d="M248.178,798.564a124.506,124.506,0,0,1,56.554-170.211l9.777,20.436a101.887,101.887,0,0,0-46.281,139.223Z" transform="translate(-233.923 -616.229)" fill="#e9e6ff"/>
      <path id="Trazado_22142" data-name="Trazado 22142" d="M327.253,1177a125.523,125.523,0,0,1-14.967-15.99l17.83-13.976a102.958,102.958,0,0,0,12.261,13.1Z" transform="translate(-285.837 -959.85)" fill="#e9e6ff"/>
      <path id="Trazado_22143" data-name="Trazado 22143" d="M387.5,1224.877c-1.84-1.227-3.687-2.531-5.487-3.877l13.563-18.146c1.476,1.1,2.988,2.171,4.491,3.174Z" transform="translate(-332.029 -996.827)" fill="#e9e6ff"/>
      <circle id="Elipse_1011" data-name="Elipse 1011" cx="68.923" cy="68.923" r="68.923" transform="translate(55.532 55.528)" fill="#ffd259"/>
      <path id="Trazado_22144" data-name="Trazado 22144" d="M629.184,840.2c-1.06-.853-2.174-1.665-3.313-2.414a42.063,42.063,0,0,0-23.195-6.947v-2.5a44.551,44.551,0,0,1,24.569,7.359c1.2.792,2.386,1.651,3.506,2.554Z" transform="translate(-478.217 -748.719)" fill="#fff"/>
      <path id="Trazado_22145" data-name="Trazado 22145" d="M699.046,928.62l-1.983-1.524a42.132,42.132,0,0,0,8.6-21.969c.116-1.208.174-2.488.174-3.809a42.168,42.168,0,0,0-11.325-28.792l1.831-1.7a44.656,44.656,0,0,1,11.994,30.493c0,1.4-.062,2.759-.186,4.039A44.625,44.625,0,0,1,699.046,928.62Z" transform="translate(-539.057 -776.864)" fill="#fff"/>
      <path id="Trazado_22146" data-name="Trazado 22146" d="M633.713,894.131a30.945,30.945,0,0,0-31.036-29.916v-2.5a33.436,33.436,0,0,1,33.534,32.326Z" transform="translate(-478.217 -770.828)" fill="#fff"/>
      <path id="Trazado_22147" data-name="Trazado 22147" d="M677.585,991.163l-1.977-1.529a30.9,30.9,0,0,0,6.062-14.052l2.471.388A33.418,33.418,0,0,1,677.585,991.163Z" transform="translate(-526.533 -846.263)" fill="#fff"/>
      <path id="Trazado_22148" data-name="Trazado 22148" d="M525.529,911.551h0a20.992,20.992,0,0,0,7,4.859h0a20.991,20.991,0,0,0,18.339-.917l6.275-3.449-13.149-23.918-7.016,2.5a11.964,11.964,0,0,1-8.794-.3h0a11.963,11.963,0,0,1-5.711-5.207L511.62,865.388a11.963,11.963,0,0,1-1.336-7.61v0a11.965,11.965,0,0,1,4.462-7.587l5.873-4.58-13.147-23.915-6.277,3.45a20.991,20.991,0,0,0-10.6,14.989h0a20.986,20.986,0,0,0,.353,8.513h0A141.3,141.3,0,0,0,525.529,911.551Z" transform="translate(-403.781 -744.314)" fill="#fff"/>
    </g>
    <g id="Grupo_28225" data-name="Grupo 28225" transform="translate(599.851 339.059)">
      <circle id="Elipse_1012" data-name="Elipse 1012" cx="10.348" cy="10.348" r="10.348" transform="translate(0 14.634) rotate(-45)" fill="#b3a4f5"/>
      <circle id="Elipse_1013" data-name="Elipse 1013" cx="10.348" cy="10.348" r="10.348" transform="translate(39.745 22.328) rotate(-76.717)" fill="#b3a4f5"/>
      <circle id="Elipse_1014" data-name="Elipse 1014" cx="10.348" cy="10.348" r="10.348" transform="translate(75.119 14.634) rotate(-45)" fill="#b3a4f5"/>
    </g>
    <path id="Trazado_22149" data-name="Trazado 22149" d="M1352.324,519.934H1157.355a55.182,55.182,0,0,1,0-110.364h139.788a55.244,55.244,0,0,1,55.181,55.182ZM1157.355,412.07a52.682,52.682,0,0,0,0,105.363h192.468V464.752a52.74,52.74,0,0,0-52.68-52.682Z" transform="translate(-575.204 -111.058)" fill="#b3a4f5"/>
    <g id="Grupo_28226" data-name="Grupo 28226" transform="translate(741.709 343.352)">
      <path id="Trazado_22150" data-name="Trazado 22150" d="M1936.5,806.953h7.537l.474-10.654-16.085-3.2a9.044,9.044,0,0,1-4.662-2.5l-1.4,5.743a2.781,2.781,0,0,1-3.362,2.041l-13.587-3.32a2.774,2.774,0,0,1-2.1-2.934l-.186.541-2.44,7.081-9.568,27.818,20.269-15.48.005.009a24.855,24.855,0,0,1,14.043-5.119c.332-.021.672-.008,1.009-.01.377,0,.756-.023,1.132-.007h7.7l0-.053Z" transform="translate(-1839.574 -706.831)" fill="none"/>
      <path id="Trazado_22151" data-name="Trazado 22151" d="M2047.941,857.448h0a15.626,15.626,0,0,1-14.917-16.3l.093-2.085h-7.537l1.274.055-.075,1.75a21.862,21.862,0,0,0,20.882,22.823c.35.024.677.028.983.023a21.827,21.827,0,0,0,21.839-20.905l.172-3.751H2064.4l-.154,3.476A15.626,15.626,0,0,1,2047.941,857.448Z" transform="translate(-1928.657 -738.938)" fill="#8b77e8"/>
      <path id="Trazado_22152" data-name="Trazado 22152" d="M1945.314,1139.505c-.025.688-.025,1.35-.025,2.025h-.013l.013.325c.012,1.3.075,2.588.188,3.875l.137,2.65v.006h90.479v-.006l.15-3.2c.05-.537.113-1.075.138-1.625v-.038l6.163-65.74h-97.517Z" transform="translate(-1875.291 -897.088)" fill="#8b77e8"/>
      <path id="Trazado_22153" data-name="Trazado 22153" d="M2214.008,1316.534h0l-.612-8.075.2-4.05-.2,4.056Z" transform="translate(-2053.082 -1047.228)" fill="#8b77e8"/>
      <path id="Trazado_22154" data-name="Trazado 22154" d="M1941.166,689.818a10,10,0,0,1-1.759,2.225l.006,0-11.318,10.8-.874,2.54a2.774,2.774,0,0,0,2.1,2.934l13.587,3.32a2.781,2.781,0,0,0,3.362-2.041l1.4-5.743a9.085,9.085,0,0,1-2.389-8.626l2.227-8.919,0-.011.554-2.217,2.635-10.552h0l2.7-10.8-12.213-2.985a2.781,2.781,0,0,0-3.362,2.041l-3.236,13.242a9.992,9.992,0,0,1,6.57,14.79Z" transform="translate(-1863.489 -620.095)" fill="#40327a"/>
      <path id="Trazado_22155" data-name="Trazado 22155" d="M2583.938,932.841l8.057-7.785h0Z" transform="translate(-2298.561 -795.912)" fill="#8b77e8"/>
      <path id="Trazado_22156" data-name="Trazado 22156" d="M2020.328,831.78l4.257-2.758h0l-4.257,2.758-6.3,4.078-59.27,38.388-42.424-51.488-.007.007a24.844,24.844,0,0,0-18.432-9.086c-.079,0-.156-.024-.236-.027h-.358c-.2,0-.4,0-.607,0h-10.9l1.127.052-.175,3.813A24.323,24.323,0,0,1,1858.4,840.81c-.366,0-.746,0-1.124-.027a24.363,24.363,0,0,1-23.238-25.429l.072-1.7h-7.7c-.376-.015-.754.006-1.132.007-.337,0-.677-.011-1.009.01a24.856,24.856,0,0,0-14.043,5.119l-.005-.009-20.269,15.48,9.568-27.818-16.641-5.736-42.1,72.7c-.021.035-.046.067-.066.1a17.049,17.049,0,0,0,22.305,23.83l0,0L1808.06,875.1l-.038-8.327h100.217l-1.459,15.552,33.492,27.54h0l.157.129.005-.005a17.048,17.048,0,0,0,22.673-.9c.023-.022.043-.048.066-.071l60.434-58.379-9.585-14.781Z" transform="translate(-1738.412 -713.536)" fill="#8b77e8"/>
      <path id="Trazado_22157" data-name="Trazado 22157" d="M2586.493,863.708a9.978,9.978,0,0,0-2.783.544v-.007l-16.525,5.72v.005a7.444,7.444,0,0,0-1.61.788l-.008-.01h0l-4.257,2.758-6.3,4.078,9.585,14.781h0l.179-.173,8.058-7.785h0l14.648-.721a10,10,0,1,0-.984-19.977Z" transform="translate(-2279.394 -755.262)" fill="#ff95a9"/>
      <path id="Trazado_22158" data-name="Trazado 22158" d="M1889.236,735.651l.186-.541.874-2.54,11.318-10.8-.006,0a10,10,0,1,0-15.55-12.248l-8.764,15.134,0,0h0l-3.32,5.733.006,0-3.824,6.6h0l16.642,5.736Z" transform="translate(-1825.69 -649.82)" fill="#ff95a9"/>
      <path id="Trazado_22159" data-name="Trazado 22159" d="M2067.888,842.682a21.828,21.828,0,0,1-21.84,20.905c-.305.005-.632,0-.983-.023a21.862,21.862,0,0,1-20.882-22.823l.075-1.75-1.274-.055-1.223-.053,0,.053-.072,1.7a24.363,24.363,0,0,0,23.238,25.429c.379.026.758.027,1.124.027a24.323,24.323,0,0,0,24.337-23.293l.175-3.813-1.127-.052-1.371-.063,0,.063Z" transform="translate(-1926.06 -738.813)" fill="#fff"/>
      <path id="Trazado_22160" data-name="Trazado 22160" d="M2077.883,711.98l3.152-15.826h0a6.817,6.817,0,1,0-5.354-8.017l-.365,1.832h0l-4.156,20.865a18.176,18.176,0,0,1-21.376,14.276l-1.616-.322-.474,10.654-.093,2.085a15.626,15.626,0,0,0,14.917,16.3h0a15.626,15.626,0,0,0,16.3-14.916l.154-3.476,1.026-23.09c-.335-.036-.672-.082-1.01-.149Z" transform="translate(-1943.238 -635.323)" fill="#ff95a9"/>
      <path id="Trazado_22161" data-name="Trazado 22161" d="M1990.436,574.9a25,25,0,0,1,2.645-6.5l20.583,4.1a19.059,19.059,0,0,0,15.005-3.34l-5.31,26.659a7.573,7.573,0,0,1-8.888,5.866l-29.274-5.83h0l-2.635,10.552L1982,608.64l-2.227,8.918a9.115,9.115,0,0,0,7.052,11.13l16.085,3.2,1.616.322a18.176,18.176,0,0,0,21.376-14.276l4.156-20.865h0l.365-1.832a6.817,6.817,0,1,1,5.354,8.017h0l-3.152,15.826,1.114.222c.338.067.674.112,1.01.149a11.358,11.358,0,0,0,12.352-9.071l1.765-8.863h0l3.916-19.661a22.7,22.7,0,0,0-16.453-26.371,73.523,73.523,0,0,1-20.62-10.376l-1.114-.222h0l-10.817-2.154-.018,0-.679-.135a9.052,9.052,0,0,0-3.1-.069,13.623,13.623,0,0,0-12,9.991,15.3,15.3,0,0,0-8.4,10.812h0a15.331,15.331,0,0,0,9.443,17.262Zm.554,28.484,12.833,2.547a6.587,6.587,0,0,1-13.152-.543A6.253,6.253,0,0,1,1990.99,603.389Z" transform="translate(-1897.98 -542.424)" fill="#40327a"/>
      <path id="Trazado_22162" data-name="Trazado 22162" d="M2026.1,652.689a7.573,7.573,0,0,0,8.888-5.866l5.31-26.659a19.06,19.06,0,0,1-15.005,3.34l-20.583-4.1a25,25,0,0,0-2.645,6.5l-1.421,5.686-1.117,4.469-2.7,10.8Z" transform="translate(-1909.606 -593.423)" fill="#ff95a9"/>
      <path id="Trazado_22163" data-name="Trazado 22163" d="M1987.365,734.226l0,.011.556-2.228Z" transform="translate(-1903.338 -668.022)" fill="#ff95a9"/>
      <path id="Trazado_22164" data-name="Trazado 22164" d="M2019.625,731.652a6.587,6.587,0,0,0,6.566-6.053l-12.833-2.547a6.256,6.256,0,0,0-.32,2A6.589,6.589,0,0,0,2019.625,731.652Z" transform="translate(-1920.349 -662.088)" fill="#fff"/>
      <path id="Trazado_22165" data-name="Trazado 22165" d="M1946.767,1286.981l.5,10.213.037.837c0,.038.012.075.012.113v.075a155.377,155.377,0,0,0,90.054,6.775v-.006l-.612-8.069.2-4.056.288-5.882h-90.479Z" transform="translate(-1876.444 -1035.682)" fill="#7760db"/>
      <path id="Trazado_22166" data-name="Trazado 22166" d="M1944.656,996.445l.038,8.327.087,19.124H2042.3l1.116-11.9,1.459-15.552Z" transform="translate(-1875.046 -843.206)" fill="#ffc7bd"/>
    </g>
    <g id="Grupo_28228" data-name="Grupo 28228" transform="translate(390.492 456.488)">
      <path id="Trazado_22167" data-name="Trazado 22167" d="M1161.98,889.887a57.354,57.354,0,0,1,34.636-2.725,29.421,29.421,0,0,0-17.6-4.26l-.366-4.987.366,4.988A29.394,29.394,0,0,0,1161.98,889.887Z" transform="translate(-1005.317 -877.819)" fill="none"/>
      <path id="Trazado_22168" data-name="Trazado 22168" d="M1229.335,886.973a56.938,56.938,0,0,1,12.1,4.288,34.94,34.94,0,0,0-4.913-5.215,34.377,34.377,0,0,0-25.156-8.321l.366,4.987A29.421,29.421,0,0,1,1229.335,886.973Z" transform="translate(-1038.036 -877.63)" fill="#b3a4f5"/>
      <rect id="Rectángulo_4385" data-name="Rectángulo 4385" width="5.675" height="2.499" transform="translate(261.588 159.999) rotate(-67.97)" fill="#ccc2ff"/>
      <rect id="Rectángulo_4386" data-name="Rectángulo 4386" width="5.428" height="2.501" transform="translate(431.404 231.385) rotate(-23.994)" fill="#ccc2ff"/>
      <path id="Trazado_22169" data-name="Trazado 22169" d="M930.545,1528.113l-9.056,10.411,47.842,6.234-2.8-11.117-1.207.3-5.177-20.577,1.206-.3-3.6-14.313-26.267,30.179Z" transform="translate(-845.995 -1289.114)" fill="#ffd259"/>
      <path id="Trazado_22170" data-name="Trazado 22170" d="M747.235,1475.528a15.868,15.868,0,0,1-2.037-.117,15.666,15.666,0,0,1-10.7-24.675l-.005,0,6.519-9.063-1.015-.73,2.254-3.131,1.014.73,6.471-9-1.014-.729,47.866-66.526q-4.736,1.188-9.318,2.744l.4,1.177c-3.324,1.122-6.645,2.409-9.871,3.823l-.5-1.145a122.285,122.285,0,0,0-11.933,6.042l.62,1.076a120.939,120.939,0,0,0-60.761,99.543h50.684l-8.673,0Z" transform="translate(-702.722 -1198.708)" fill="#ffd259"/>
      <path id="Trazado_22171" data-name="Trazado 22171" d="M1347.312,1573.534l-.015.011-23.382-28.373-3.718-4.511a22.493,22.493,0,0,1-3.446,1.742l-2.092,35.813-1.332-.078-.721,15.58H1351.5a122.873,122.873,0,0,0-2.2-18.17A15.65,15.65,0,0,1,1347.312,1573.534Z" transform="translate(-1105.104 -1316.879)" fill="#ffd259"/>
      <path id="Trazado_22172" data-name="Trazado 22172" d="M928.152,1369.255l-.4-1.177-.4-1.191c-3.394,1.145-6.784,2.457-10.076,3.9l.5,1.146.5,1.145C921.508,1371.664,924.828,1370.377,928.152,1369.255Z" transform="translate(-843.205 -1201.756)" fill="#ffaa45"/>
      <path id="Trazado_22173" data-name="Trazado 22173" d="M761.074,1398.679l-.62-1.076-.627-1.09a123.433,123.433,0,0,0-62.014,101.652l2.5.115c0-.019,0-.039,0-.058A120.939,120.939,0,0,1,761.074,1398.679Z" transform="translate(-697.812 -1221.382)" fill="#ffaa45"/>
      <path id="Trazado_22174" data-name="Trazado 22174" d="M1034.053,1155.369a26.1,26.1,0,0,1,1.247-32.917l-1.877-1.651a28.6,28.6,0,0,0-1.367,36.072Z" transform="translate(-915.436 -1038.727)" fill="#fff"/>
      <path id="Trazado_22175" data-name="Trazado 22175" d="M1310.872,1310.73q.694.732,1.319,1.524Q1311.571,1311.464,1310.872,1310.73Z" transform="translate(-1103.955 -1164.552)" fill="#ab9af7"/>
      <path id="Trazado_22176" data-name="Trazado 22176" d="M1306.491,1306.547c.491.428.967.874,1.417,1.345Q1307.235,1307.19,1306.491,1306.547Z" transform="translate(-1101.053 -1161.781)" fill="#ab9af7"/>
      <path id="Trazado_22177" data-name="Trazado 22177" d="M1263.109,1290.826h.4C1263.374,1290.827,1263.242,1290.823,1263.109,1290.826Z" transform="translate(-1072.313 -1151.366)" fill="#ab9af7"/>
      <path id="Trazado_22178" data-name="Trazado 22178" d="M1301.951,1302.96c.472.342.936.694,1.378,1.072C1302.889,1303.657,1302.426,1303.3,1301.951,1302.96Z" transform="translate(-1098.046 -1159.405)" fill="#ab9af7"/>
      <path id="Trazado_22179" data-name="Trazado 22179" d="M1264.927,1290.847q1.037.007,2.05.107Q1265.95,1290.851,1264.927,1290.847Z" transform="translate(-1073.518 -1151.38)" fill="#ab9af7"/>
      <path id="Trazado_22180" data-name="Trazado 22180" d="M1316.065,1317.015c-.311-.476-.649-.936-1-1.388.349.45.674.919.987,1.4Z" transform="translate(-1106.735 -1167.797)" fill="#ab9af7"/>
      <path id="Trazado_22181" data-name="Trazado 22181" d="M1292.456,1297.277c-.267-.138-.541-.244-.811-.371.4.19.8.382,1.194.6C1292.708,1297.43,1292.589,1297.346,1292.456,1297.277Z" transform="translate(-1091.218 -1155.394)" fill="#ab9af7"/>
      <path id="Trazado_22182" data-name="Trazado 22182" d="M1272.09,1291.305c.594.07,1.181.16,1.759.276C1273.264,1291.463,1272.678,1291.375,1272.09,1291.305Z" transform="translate(-1078.263 -1151.684)" fill="#ab9af7"/>
      <path id="Trazado_22183" data-name="Trazado 22183" d="M1297.1,1299.794c.427.254.852.511,1.259.793C1297.955,1300.308,1297.532,1300.048,1297.1,1299.794Z" transform="translate(-1094.833 -1157.307)" fill="#ab9af7"/>
      <path id="Trazado_22184" data-name="Trazado 22184" d="M1285.525,1294.41c.434.151.865.308,1.286.486C1286.385,1294.717,1285.956,1294.56,1285.525,1294.41Z" transform="translate(-1087.163 -1153.741)" fill="#ab9af7"/>
      <path id="Trazado_22185" data-name="Trazado 22185" d="M1278.976,1292.513c.5.116,1,.245,1.492.4C1279.973,1292.755,1279.476,1292.629,1278.976,1292.513Z" transform="translate(-1082.825 -1152.484)" fill="#ab9af7"/>
      <g id="Grupo_28227" data-name="Grupo 28227" transform="translate(111.758 139.461)">
        <path id="Trazado_22186" data-name="Trazado 22186" d="M1124.235,1412.56l2.033-34.8a15.882,15.882,0,0,1-4.343.72l-6.356-1.25,1.277-.251a21.374,21.374,0,0,1-13.479-8.226l-.295.229-27.883-36.084,34.135-26.369,3.3,4.274,13.867-10.206c-.312-.478-.638-.946-.987-1.4-.033-.042-.063-.087-.1-.129q-.624-.793-1.319-1.524l-.061-.067c-.451-.471-.926-.917-1.417-1.345-.052-.046-.1-.094-.154-.139-.442-.378-.907-.73-1.378-1.072-.126-.091-.249-.187-.377-.276-.407-.281-.832-.539-1.259-.793-.215-.128-.427-.259-.647-.379-.39-.214-.791-.406-1.194-.6-.259-.122-.515-.245-.78-.356-.421-.178-.852-.335-1.286-.486-.239-.084-.476-.17-.718-.245-.49-.151-.988-.28-1.492-.4-.189-.044-.375-.093-.565-.131-.578-.116-1.165-.207-1.759-.276-.123-.015-.244-.035-.368-.048q-1.011-.1-2.05-.107c-.042,0-.084-.006-.126-.006h-9.084l-.654,3.418a18.237,18.237,0,0,1-36.15-3.418h-19.046c-.472,0-.938.016-1.4.041a21.552,21.552,0,0,1,15.146,35.66h0l-15.687,18.042-1.916,2.2.942.82-11.674,13.412,3.6,14.313,1.219-.307,5.177,20.577-1.217.307,2.8,11.117,32.7,4.262,16.315-5.662a11.608,11.608,0,1,1,3.846,22.566l0,.012-17.6.065v.007H1074.1l-.617,0v0l-27.625-.014.014.055h78.8l0-.094.721-15.58Z" transform="translate(-1028.933 -1290.829)" fill="#ffc7bd"/>
      </g>
      <path id="Trazado_22187" data-name="Trazado 22187" d="M1355.566,977.7a28,28,0,0,1-7.365,20.281l1.844,1.687a30.483,30.483,0,0,0,8.019-22.077,60.082,60.082,0,0,0-21.461-43.4l-1.6,1.919A57.584,57.584,0,0,1,1355.566,977.7Z" transform="translate(-1119.941 -915.098)" fill="#fff"/>
      <path id="Trazado_22188" data-name="Trazado 22188" d="M1160.609,900.924a57.208,57.208,0,0,0-19.075,4.169,29.918,29.918,0,0,0-3.217,3.2,29.413,29.413,0,0,0-7.118,21.521l1.537,20.951a17.977,17.977,0,0,1,16.932,16.626l.755,10.285.217,2.956c.042.57.049,1.135.038,1.7,0,.154-.015.306-.021.458-.019.423-.051.843-.1,1.258-.017.147-.035.293-.055.438q-.1.707-.252,1.4c-.015.067-.026.134-.042.2a17.841,17.841,0,0,1-2.617,5.965l1.781,1.826a20.413,20.413,0,0,0,3.76-13.422l-.432-5.885-.463-6.309a50.627,50.627,0,0,0,15.7-8.832h0a64.879,64.879,0,0,1,31.723-14.169l3.976,37.338a28.1,28.1,0,0,0,16.755-26.959h0a57.308,57.308,0,0,0-59.785-54.707Z" transform="translate(-984.871 -893.024)" fill="#40327a"/>
      <path id="Trazado_22189" data-name="Trazado 22189" d="M1071.891,1019.991a17.881,17.881,0,0,1-21.457-16.309l-.971-13.24a17.974,17.974,0,0,1,13.96-18.836l-1.541-21.007a34.376,34.376,0,0,1,4.024-18.908,57.266,57.266,0,0,0-22.222,62.493,25.942,25.942,0,0,0,24.579,44.788Z" transform="translate(-920.541 -913.445)" fill="#40327a"/>
      <path id="Trazado_22190" data-name="Trazado 22190" d="M1188.715,1144.838c.048-.415.08-.835.1-1.258C1188.794,1144,1188.764,1144.423,1188.715,1144.838Z" transform="translate(-1023.028 -1053.818)" fill="#ff95a9"/>
      <path id="Trazado_22191" data-name="Trazado 22191" d="M1187.8,1150q.153-.69.252-1.4C1187.989,1149.077,1187.907,1149.544,1187.8,1150Z" transform="translate(-1022.425 -1057.148)" fill="#ff95a9"/>
      <path id="Trazado_22192" data-name="Trazado 22192" d="M1188.532,1131.39l-.217-2.956.217,2.955c.042.571.05,1.137.039,1.7C1188.581,1132.525,1188.574,1131.96,1188.532,1131.39Z" transform="translate(-1022.763 -1043.784)" fill="#ff95a9"/>
      <path id="Trazado_22193" data-name="Trazado 22193" d="M1182.518,1153.335a17.929,17.929,0,0,1-2.631,5.952l.013.013A17.841,17.841,0,0,0,1182.518,1153.335Z" transform="translate(-1017.18 -1060.28)" fill="#ff95a9"/>
      <path id="Trazado_22194" data-name="Trazado 22194" d="M1165.217,1184.006q.552-.363,1.071-.763C1165.942,1183.511,1165.583,1183.764,1165.217,1184.006Z" transform="translate(-1007.461 -1080.094)" fill="#ff95a9"/>
      <path id="Trazado_22195" data-name="Trazado 22195" d="M1156.671,1189.2c.338-.144.675-.289,1-.451C1157.345,1188.913,1157.009,1189.057,1156.671,1189.2Z" transform="translate(-1001.8 -1083.742)" fill="#ff95a9"/>
      <path id="Trazado_22196" data-name="Trazado 22196" d="M1161.248,1186.825c.316-.171.628-.347.931-.535C1161.876,1186.479,1161.563,1186.654,1161.248,1186.825Z" transform="translate(-1004.832 -1082.113)" fill="#ff95a9"/>
      <path id="Trazado_22197" data-name="Trazado 22197" d="M1170.227,1179.528q-.606.583-1.267,1.106c.442-.349.869-.714,1.273-1.1Z" transform="translate(-1009.941 -1077.633)" fill="#ff95a9"/>
      <path id="Trazado_22198" data-name="Trazado 22198" d="M1143.4,1137.515a18.241,18.241,0,0,0,21.343-14.491l.654-3.418,2.663-13.928,9-.4a26.877,26.877,0,0,0,25.534-29.7l-.625-5.872-3.976-37.338a64.879,64.879,0,0,0-31.723,14.169h0a50.629,50.629,0,0,1-15.7,8.832l.463,6.309.432,5.885a20.413,20.413,0,0,1-3.76,13.422l3.225,3.3a19.008,19.008,0,0,0,13.525,5.7h10v3.75h-10a22.781,22.781,0,0,1-16.208-6.829l-3-3.078a20.576,20.576,0,0,1-6.7,4.293l-.917-2.323a17.823,17.823,0,0,1-3.07.884l-3.629,18.981-2.008,10.5a18.282,18.282,0,0,0,14.49,21.342ZM1172.236,1080l19.248-.832a10.044,10.044,0,0,1-19.248.832Z" transform="translate(-983.199 -980.145)" fill="#ff95a9"/>
      <path id="Trazado_22199" data-name="Trazado 22199" d="M1267.834,1178.622a10.027,10.027,0,0,0,9.313-7.608l-19.248.832A10.052,10.052,0,0,0,1267.834,1178.622Z" transform="translate(-1068.862 -1071.993)" fill="#fff"/>
      <path id="Trazado_22200" data-name="Trazado 22200" d="M1373.526,1487.059l-27.412,22.6,23.382,28.373.015-.011a15.6,15.6,0,0,0,8.613,5.317l0,.007,66.209,14.955h48.107l1.685-5.683-102.26-37.472Z" transform="translate(-1127.303 -1281.368)" fill="#ff95a9"/>
      <path id="Trazado_22201" data-name="Trazado 22201" d="M1203.419,1329.937l-3.3-4.274-34.135,26.369,27.883,36.084.295-.229a21.373,21.373,0,0,0,13.479,8.226l5.079-1a15.319,15.319,0,0,0,4.357-.826,20.064,20.064,0,0,0,9.847-31.695l-.865-1.083.122-.078-15.969-20.665,1.978-1.529,17.636,22.821-.12.077a22.533,22.533,0,0,1-6.643,32.15l3.718,4.511,27.412-22.6-20.066-30.729-16.815-25.752-.012.008-.011.009Z" transform="translate(-1007.967 -1170.504)" fill="#ffc7bd"/>
      <path id="Trazado_22202" data-name="Trazado 22202" d="M1310.4,1424.017a22.578,22.578,0,0,0-1.443-23.556l.12-.077-17.636-22.821-1.978,1.529,15.969,20.665-.122.078.865,1.083a20.066,20.066,0,0,1-9.847,31.695,15.323,15.323,0,0,1-4.357.826l-5.079,1-1.277.251,6.356,1.25a15.882,15.882,0,0,0,4.343-.72l-2.033,34.8,1.163.069,1.332.078,2.092-35.813a22.726,22.726,0,0,0,11.531-10.337Z" transform="translate(-1087.226 -1208.829)" fill="#fff"/>
      <path id="Trazado_22203" data-name="Trazado 22203" d="M1041.209,1561.436l1.207-.3,1.217-.306-5.177-20.577-1.218.307-1.206.3Z" transform="translate(-921.878 -1316.605)" fill="#8b77e8"/>
      <path id="Trazado_22204" data-name="Trazado 22204" d="M912.537,1348.988l26.435,23,22.638-26.01.943.821,1.916-2.2,15.687-18.042h0a21.556,21.556,0,1,0-33.751-26.754l-.012-.01-5.134,7.139,1.015.73Z" transform="translate(-840.064 -1151.392)" fill="#ffc7bd"/>
      <path id="Trazado_22205" data-name="Trazado 22205" d="M960.825,1480.163l-15.3,17.581.944.822.941.818,26.267-30.179,11.674-13.412-.942-.82-.942-.82Z" transform="translate(-861.917 -1259.568)" fill="#fff"/>
      <path id="Trazado_22206" data-name="Trazado 22206" d="M910.714,1542.374l.617,0h1.685v-.007l17.6-.065,0-.012a11.6,11.6,0,1,0-3.846-22.565l-16.315,5.662-32.7-4.262-47.842-6.234,9.056-10.411-.944-.822,15.3-17.581-26.435-23-24.441,33.969-1.015-.731-6.471,9,1.015.73-2.254,3.131-1.014-.73-6.519,9.063.005,0a15.666,15.666,0,0,0,10.7,24.675,15.867,15.867,0,0,0,2.037.117v.016l8.673,0,75.5.039,27.625.014Z" transform="translate(-754.407 -1265.479)" fill="#ff95a9"/>
      <path id="Trazado_22207" data-name="Trazado 22207" d="M808.261,1589.174l1.015.73,1.014.73,2.253-3.131-1.015-.73-1.014-.73Z" transform="translate(-770.983 -1346.943)" fill="#8b77e8"/>
      <path id="Trazado_22208" data-name="Trazado 22208" d="M835.125,1412.324l1.015.731,24.441-33.969,29.737-41.33-1.014-.73-1.015-.73-6.312,8.772-47.866,66.526Z" transform="translate(-788.108 -1181.489)" fill="#8b77e8"/>
      <path id="Trazado_22209" data-name="Trazado 22209" d="M1159.932,1180.646c-.063.051-.129.1-.193.148q-.519.4-1.071.763c-.135.09-.271.18-.409.266-.3.188-.615.365-.93.535-.181.1-.359.2-.545.3-.325.162-.662.307-1,.451-.153.065-.3.143-.452.2l.917,2.323a20.577,20.577,0,0,0,6.7-4.293l-1.748-1.791C1160.8,1179.932,1160.374,1180.3,1159.932,1180.646Z" transform="translate(-1000.912 -1077.645)" fill="#40327a"/>
      <path id="Trazado_22210" data-name="Trazado 22210" d="M1122.3,1103.777l-6.759-6.926a11.882,11.882,0,0,0,1.94-7.43l-.645-8.8a11.953,11.953,0,0,0-23.841,1.749l.646,8.8a11.948,11.948,0,0,0,19.376,8.463l6.862,7.031.006.006,1.748,1.791,3,3.078a22.781,22.781,0,0,0,16.208,6.829h10v-3.75h-10a19.008,19.008,0,0,1-13.525-5.7l-3.225-3.3-1.781-1.826Z" transform="translate(-959.596 -1004.77)" fill="#fff"/>
      <path id="Trazado_22211" data-name="Trazado 22211" d="M1092.108,914.973l1.541,21.007a17.974,17.974,0,0,0-13.96,18.836l.971,13.24a18.068,18.068,0,0,0,24.527,15.425c.155-.06.3-.138.452-.2.338-.143.674-.288,1-.451.185-.093.364-.2.545-.295.315-.171.628-.346.931-.535.138-.086.274-.175.409-.266.366-.242.725-.495,1.071-.763.064-.05.13-.1.193-.148q.659-.524,1.267-1.106l-6.862-7.031a11.948,11.948,0,0,1-19.376-8.464l-.646-8.8a11.953,11.953,0,0,1,23.841-1.749l.645,8.8a11.882,11.882,0,0,1-1.94,7.43l6.759,6.926a17.929,17.929,0,0,0,2.631-5.952c.015-.066.027-.133.042-.2.1-.459.185-.925.252-1.4.02-.146.038-.291.055-.438.049-.415.079-.835.1-1.258.007-.152.019-.3.022-.458.011-.562,0-1.127-.039-1.7l-.217-2.955-.755-10.285a17.977,17.977,0,0,0-16.932-16.626l-1.537-20.951a29.413,29.413,0,0,1,7.118-21.521,29.919,29.919,0,0,1,3.217-3.2,29.394,29.394,0,0,1,17.035-6.984l-.366-4.988a34.392,34.392,0,0,0-23.671,11.9,34.914,34.914,0,0,0-4.3,6.246A34.377,34.377,0,0,0,1092.108,914.973Z" transform="translate(-950.768 -877.819)" fill="#b3a4f5"/>
    </g>
    <g id="Grupo_28232" data-name="Grupo 28232" transform="translate(639.117 560.684)">
      <rect id="Rectángulo_4387" data-name="Rectángulo 4387" width="20.028" height="15.993" transform="translate(21.161 57.974) rotate(-168.576)" fill="#8b77e8"/>
      <rect id="Rectángulo_4388" data-name="Rectángulo 4388" width="20.028" height="15.993" transform="translate(22.943 81.165) rotate(180)" fill="#ff809f"/>
      <rect id="Rectángulo_4389" data-name="Rectángulo 4389" width="20.028" height="15.993" transform="translate(22.198 102.181) rotate(171.384)" fill="#ffc359"/>
      <path id="Trazado_22212" data-name="Trazado 22212" d="M1798.1,1209.127" transform="translate(-1675.36 -1201.438)" fill="none" stroke="#fff" stroke-miterlimit="10" stroke-width="2"/>
      <g id="Grupo_28230" data-name="Grupo 28230" transform="translate(12.164 0)">
        <path id="Trazado_22213" data-name="Trazado 22213" d="M1470.486,1331.048l201.676.013,5.632-141-201.676-.013Z" transform="translate(-1470.486 -1188.797)" fill="#ccc2ff"/>
        <path id="Trazado_22214" data-name="Trazado 22214" d="M1687.408,1417.956l-1.229,30.773-196.543-.013,6.948-1.082Z" transform="translate(-1483.172 -1339.784)" fill="#b3a4f5"/>
        <path id="Trazado_22215" data-name="Trazado 22215" d="M1682.236,1542.426l-196.543-.012,1.331-33.318,196.543.013Z" transform="translate(-1480.56 -1400.162)" fill="#b3a4f5"/>
        <path id="Trazado_22216" data-name="Trazado 22216" d="M1858.949,1568.477l-108.327-.007v-2.5l105.925.007.776-19.445,2.5.1Z" transform="translate(-1656.072 -1424.963)" fill="#8b77e8"/>
        <path id="Trazado_22217" data-name="Trazado 22217" d="M1498.737,1220.822l1.229-30.773,196.543.012-6.948,1.082Z" transform="translate(-1489.202 -1188.798)" fill="#b3a4f5"/>
        <g id="Grupo_28229" data-name="Grupo 28229" transform="translate(35.215 13.987)">
          <rect id="Rectángulo_4390" data-name="Rectángulo 4390" width="172.988" height="2.5" transform="translate(0 36.721) rotate(-8.818)" fill="#fff"/>
          <rect id="Rectángulo_4391" data-name="Rectángulo 4391" width="110.782" height="2.5" transform="translate(61.875 16.983) rotate(-8.818)" fill="#fff"/>
          <rect id="Rectángulo_4392" data-name="Rectángulo 4392" width="22.092" height="2.5" transform="translate(22.387 23.142) rotate(-8.818)" fill="#fff"/>
        </g>
        <path id="Trazado_22218" data-name="Trazado 22218" d="M1841.789,1232.1l-2.5-.1,1.722-43.13-122.188-.009v-2.5l124.79.009Z" transform="translate(-1635.008 -1186.353)" fill="#fff"/>
        <rect id="Rectángulo_4393" data-name="Rectángulo 4393" width="23.166" height="2.5" transform="translate(5.631)" fill="#b3a4f5"/>
        <path id="Trazado_22219" data-name="Trazado 22219" d="M1805.647,1208.646" transform="translate(-1692.526 -1201.119)" fill="none" stroke="#fff" stroke-miterlimit="10" stroke-width="2"/>
        <path id="Trazado_22220" data-name="Trazado 22220" d="M2069.2,1208.663" transform="translate(-1867.124 -1201.13)" fill="none" stroke="#fff" stroke-miterlimit="10" stroke-width="2"/>
        <rect id="Rectángulo_4394" data-name="Rectángulo 4394" width="4.076" height="2.5" transform="translate(201.418 117.391) rotate(-87.705)" fill="#8b77e8"/>
        <rect id="Rectángulo_4395" data-name="Rectángulo 4395" width="10.697" height="2.5" transform="translate(203.545 64.128) rotate(-87.705)" fill="#b3a4f5"/>
      </g>
      <g id="Grupo_28231" data-name="Grupo 28231" transform="translate(51.477 74.992)">
        <path id="Trazado_22221" data-name="Trazado 22221" d="M1844.717,1412.237l25.713,65.836h-23.159Z" transform="translate(-1757.722 -1410.987)" fill="#8b77e8"/>
        <path id="Trazado_22222" data-name="Trazado 22222" d="M1726.2,1508.908h55.923l-17.171-96.671H1726.2Z" transform="translate(-1679.205 -1410.987)" fill="#ddd6ff"/>
        <rect id="Rectángulo_4396" data-name="Rectángulo 4396" width="46.993" height="4.753" transform="translate(0 93.168)" fill="#ddd6ff"/>
        <rect id="Rectángulo_4397" data-name="Rectángulo 4397" width="2.5" height="2.813" transform="translate(45.743 53.89)" fill="#fff"/>
        <path id="Trazado_22223" data-name="Trazado 22223" d="M1724.994,1455.026h-2.5v-46.494h31.7v2.5h-29.2Z" transform="translate(-1676.751 -1408.532)" fill="#fff"/>
        <rect id="Rectángulo_4398" data-name="Rectángulo 4398" width="2.5" height="98.185" transform="translate(84.514 1.469) rotate(-10.072)" fill="#8b77e8"/>
        <circle id="Elipse_1015" data-name="Elipse 1015" cx="9.981" cy="9.981" r="9.981" transform="translate(56.072 18.47) rotate(-22.5)" fill="#7760db"/>
        <path id="Trazado_22224" data-name="Trazado 22224" d="M1811.514,1459.557a8.73,8.73,0,0,0-1.68-2.287l1.751-1.787a11.262,11.262,0,0,1,2.158,2.941Z" transform="translate(-1734.613 -1439.636)" fill="#fff"/>
        <path id="Trazado_22225" data-name="Trazado 22225" d="M1761.931,1465.334a11.122,11.122,0,0,1-3.471-8.118,11.238,11.238,0,0,1,15.6-10.349l-.974,2.3a8.733,8.733,0,0,0-9.433,14.357Z" transform="translate(-1700.578 -1433.344)" fill="#fff"/>
      </g>
    </g>
  </g>
</svg>
