<svg xmlns="http://www.w3.org/2000/svg" xmlns:xlink="http://www.w3.org/1999/xlink" width="156" height="156" viewBox="0 0 156 156">
  <defs>
    <linearGradient id="linear-gradient" x1="0.5" x2="0.5" y2="1" gradientUnits="objectBoundingBox">
      <stop offset="0" stop-color="#b869c3"/>
      <stop offset="1" stop-color="#4e3160"/>
    </linearGradient>
  </defs>
  <g id="Grupo_30046" data-name="Grupo 30046" transform="translate(-936 -14173)">
    <g id="Grupo_30035" data-name="Grupo 30035" transform="translate(526 5157)">
      <circle id="Elipse_993" data-name="Elipse 993" cx="78" cy="78" r="78" transform="translate(410 9016)" fill="url(#linear-gradient)"/>
      <circle id="Elipse_998" data-name="Elipse 998" cx="63" cy="63" r="63" transform="translate(425 9031)" fill="#fff"/>
    </g>
    <path id="Trazado_23975" data-name="Trazado 23975" d="M5.479,0V-42.334H20.8a23.887,23.887,0,0,1,8.833,1.523,16.27,16.27,0,0,1,6.328,4.321,18.8,18.8,0,0,1,3.75,6.665,27.517,27.517,0,0,1,1.274,8.643,27.619,27.619,0,0,1-1.274,8.672,18.8,18.8,0,0,1-3.75,6.665,16.27,16.27,0,0,1-6.328,4.321A23.887,23.887,0,0,1,20.8,0Zm8.789-7.764h6.094q5.742,0,8.555-3.442t2.813-9.976q0-6.533-2.812-9.976T20.361-34.6H14.268Z" transform="translate(992 14271)" fill="#002b45"/>
  </g>
</svg>
