<svg xmlns="http://www.w3.org/2000/svg" width="154.145" height="200.438" viewBox="0 0 154.145 200.438">
  <g id="Grupo_30028" data-name="Grupo 30028" transform="translate(-597.849 -195.893)">
    <path id="Trazado_23953" data-name="Trazado 23953" d="M680.485,261.166c1.057-13.765,5.722-28.2,2.369-40.977-7.822-18.254-44.772-26.862-62.528-23.629-11.1,18.679-6.514,41.718-4.472,63Z" transform="translate(27.512)" fill="#592d0d" fill-rule="evenodd"/>
    <path id="Trazado_23954" data-name="Trazado 23954" d="M625.61,258.826V196.745c15.153,3.555,30.207,11.013,34.88,21.912,3.351,12.778-1.314,27.212-2.371,40.977Z" transform="translate(49.878 1.532)" fill="#4a250a" fill-rule="evenodd"/>
    <path id="Trazado_23955" data-name="Trazado 23955" d="M625.407,328.49a243.681,243.681,0,0,0,28.982-1.281V239.782l-3.253-1.421c-7.165-3.135-16.033-6.74-25.73-8.057Z" transform="translate(49.513 61.827)" fill="#b2d8de" fill-rule="evenodd"/>
    <path id="Trazado_23956" data-name="Trazado 23956" d="M644.024,328.49a243.659,243.659,0,0,1-28.979-1.281V239.782l3.253-1.421c7.165-3.135,16.033-6.74,25.727-8.057Z" transform="translate(30.896 61.827)" fill="#b2d8de" fill-rule="evenodd"/>
    <path id="Trazado_23957" data-name="Trazado 23957" d="M618.008,224.153h41.385v24.966c-13.793,10.963-27.589,11.4-41.385,0Z" transform="translate(36.219 50.776)" fill="#e0ac7e" fill-rule="evenodd"/>
    <path id="Trazado_23958" data-name="Trazado 23958" d="M632,205.917c-5.865-1.147-11.475,4.852-12.526,10.728a125.411,125.411,0,0,0-1.891,16.464c-.157-.025.7-.039-.478-.039s-5.034.875-4.852,6c.134,3.84,3.476,15,7.867,13.175,6.36,17.032,14.918,26.647,28.921,30.053.238-.45.344-.106.568-.252V207.7A88.366,88.366,0,0,1,632,205.917Z" transform="translate(25.876 17.757)" fill="#f2c196" fill-rule="evenodd"/>
    <path id="Trazado_23959" data-name="Trazado 23959" d="M643.015,205.917c5.865-1.147,11.475,4.852,12.526,10.728a125.435,125.435,0,0,1,1.893,16.464c.154-.025-.708-.039.475-.039s5.037.875,4.852,6c-.137,3.84-3.476,15-7.867,13.175-6.444,17.264-15.138,26.77-29.488,30.053V207.7A88.369,88.369,0,0,0,643.015,205.917Z" transform="translate(49.513 17.757)" fill="#ebb688" fill-rule="evenodd"/>
    <path id="Trazado_23960" data-name="Trazado 23960" d="M629.953,236.079h7.076l-3,11.229h-8.161l-3-11.229Z" transform="translate(44.968 72.202)" fill="#ff3705" fill-rule="evenodd"/>
    <path id="Trazado_23961" data-name="Trazado 23961" d="M633.969,239.972l2.895,42.49L629.889,295.2l-6.975-12.742,2.9-42.49Z" transform="translate(45.033 79.198)" fill="#ff5527" fill-rule="evenodd"/>
    <path id="Trazado_23962" data-name="Trazado 23962" d="M641.935,243.041l-12.14,11.8-13.586-19.9,5.034-2.744C626.326,237.568,633.3,240.977,641.935,243.041Z" transform="translate(32.985 65.241)" fill="#f0fafc" fill-rule="evenodd"/>
    <path id="Trazado_23963" data-name="Trazado 23963" d="M674.92,305.1l-29.8-71.282c-26.929,11.617-44.227,20.572-47.27,54.684,12.238,21.831,41.453,39.7,77.071,39.674Z" transform="translate(0 68.15)" fill="#096385" fill-rule="evenodd"/>
    <path id="Trazado_23964" data-name="Trazado 23964" d="M606.557,269.993c1.077.755,2.3,1.368,3.434,2.078l-.081-14.112Z" transform="translate(15.646 111.514)" fill="#08426a" fill-rule="evenodd"/>
    <path id="Trazado_23965" data-name="Trazado 23965" d="M649.915,306.657V324.67l-28.05-50.237,8.344-10.119L617.5,260.079l-5.735-21.053,13.878-6.067Z" transform="translate(25.006 66.597)" fill="#0174a3" fill-rule="evenodd"/>
    <path id="Trazado_23966" data-name="Trazado 23966" d="M625.407,243.041l12.143,11.8,13.586-19.9L646.1,232.2C641.015,237.568,634.049,240.977,625.407,243.041Z" transform="translate(49.513 65.241)" fill="#f0fafc" fill-rule="evenodd"/>
    <path id="Trazado_23967" data-name="Trazado 23967" d="M625.407,305.1l29.8-71.282c26.929,11.617,44.227,20.572,47.27,54.684-12.238,21.831-41.453,39.7-77.074,39.674Z" transform="translate(49.513 68.15)" fill="#0b5975" fill-rule="evenodd"/>
    <path id="Trazado_23968" data-name="Trazado 23968" d="M646.469,269.993c-1.079.755-2.307,1.368-3.44,2.078l.084-14.112Z" transform="translate(81.174 111.514)" fill="#08426a" fill-rule="evenodd"/>
    <path id="Trazado_23969" data-name="Trazado 23969" d="M625.407,306.586V324.6l28.05-50.237-8.345-10.119,12.708-4.236,5.736-21.053L650.179,233Z" transform="translate(49.514 66.668)" fill="#0a6d94" fill-rule="evenodd"/>
  </g>
</svg>
