<svg xmlns="http://www.w3.org/2000/svg" width="467.905" height="388.011" viewBox="0 0 467.905 388.011">
  <g id="Grupo_28440" data-name="Grupo 28440" transform="translate(-767.925 -132.668)">
    <g id="Grupo_28410" data-name="Grupo 28410" transform="translate(870.794 210.861)">
      <path id="Trazado_22655" data-name="Trazado 22655" d="M-593.777,343.2c-1.863,4.909-2.161,19.469-6.546,33.627-.174.923,4.274,2.361,4.819,1.69,7.034-15.464,17.671-32.828,19.776-42.879.7-3.355-2.73-10.745-6.855-7.968C-586.337,330.2-592.232,339.126-593.777,343.2Z" transform="translate(626.617 -177.289)" fill="#f4a086"/>
      <path id="Trazado_22656" data-name="Trazado 22656" d="M-605.485,387.347a13.73,13.73,0,0,1,1.707-3.928,6.845,6.845,0,0,1,3.1-2.713c.009.738.325,1.861,1,2.159.534.235,3.67.153,4.107.54.294.259-.959,5.03-.162,7.082,0,0,2.857,2.163,4.331,3.2a5.394,5.394,0,0,1,1.579,1.517,2.125,2.125,0,0,1,.15,2.1,1.408,1.408,0,0,1-.119.155l-10.888-2-1.485-.584a14.215,14.215,0,0,1-.244-1.561q-.325-2.8-.652-5.6a21.666,21.666,0,0,0-2.858,5.685l-1.316-.518Q-606.358,390.116-605.485,387.347Z" transform="translate(627.282 -182.454)" fill="#222b54" fill-rule="evenodd"/>
      <path id="Trazado_22657" data-name="Trazado 22657" d="M-600.773,270.218c-.6,4.158.191,8.384,1.132,12.478,2.974,12.916,8.65,31.656,14.519,43.54.714,1.446,9.188,3.853,9.422,2.358,2.382-15.239-1-42.231-5.642-56.942-1-3.159-2.21-6.369-4.511-8.752C-592.549,255.968-599.674,262.655-600.773,270.218Z" transform="translate(626.681 -170.832)" fill="#f4a086"/>
      <path id="Trazado_22658" data-name="Trazado 22658" d="M-615.494,346.617c-.225,5.246,4.066,19.163,4.351,33.982.125.931,4.8.9,5.106.09,1.818-16.891,6.462-36.717,5.3-46.921-.387-3.405-5.967-9.343-9.01-5.411C-612.516,331.937-615.307,342.263-615.494,346.617Z" transform="translate(628.078 -177.289)" fill="#f7b690"/>
      <path id="Trazado_22659" data-name="Trazado 22659" d="M-613.317,391.968a13.745,13.745,0,0,1,.15-4.28,6.852,6.852,0,0,1,1.9-3.661c.278.684.984,1.612,1.722,1.642.583.023,3.472-1.2,4.02-1,.394.145,1.032,5.754,2.773,6.943a38,38,0,0,0,5.694,2.731,5.392,5.392,0,0,1,1.826,1.207,2.125,2.125,0,0,1,.525,2.037,1.378,1.378,0,0,1-.089.174h-12.665a14.188,14.188,0,0,1-.8-1.363l-2.657-4.974a21.644,21.644,0,0,0-.578,6.337h-1.415Q-613.114,394.865-613.317,391.968Z" transform="translate(627.877 -182.774)" fill="#0a3c5f" fill-rule="evenodd"/>
      <path id="Trazado_22660" data-name="Trazado 22660" d="M-589.876,278.3c-3.328,4.124-13.36,7.491-16.2,5.724-15.524-9.664-15.34-7.834-16.522-12.535-.916-3.642,1.048-7.324,2.943-10.567,1.69-2.895,19.057-5.6,26.868-3.567,1.584.413,4.029-.147,4.689,1.4,1.263,2.956,2.086,5.786,4.015,10.67C-582.995,272.177-586.73,274.4-589.876,278.3Z" transform="translate(628.784 -170.51)" fill="#222b56" fill-rule="evenodd"/>
      <path id="Trazado_22661" data-name="Trazado 22661" d="M-620.54,262.436c5.524-7.557,18.6-6.314,22.6,3.517,4.428,10.875-1,53.757-3.492,62.041-1.133,2.154-10.865,6.131-12.62,2.073-1.3-12.681-5.174-36.256-7.063-42.677C-622.534,282.563-626.268,270.273-620.54,262.436Z" transform="translate(628.861 -170.597)" fill="#f7b690"/>
      <path id="Trazado_22662" data-name="Trazado 22662" d="M-571.64,234.744c.324,1.015-6.142,2-7.032,1.2-8.251-7.348-18.72-17.5-24.009-27.2-.91-1.669,3.119-7.45,2.878-9.335C-590.919,201.982-574.539,225.689-571.64,234.744Z" transform="translate(626.857 -164.999)" fill="#2a9dea"/>
      <path id="Trazado_22663" data-name="Trazado 22663" d="M-590.38,256.966c-1.925-.772-4.236,1.015-6.016,1.588a23.353,23.353,0,0,1-7.4,1.129c-4.968-.056-10.2-1.654-14.736.381-4.334,1.947-6.726,6.814-7.2,11.541s.62,9.449,1.414,14.132c.892,5.255,7.372,12.686,7.443,39.311h39.631C-574.855,284.207-587.1,258.282-590.38,256.966Z" transform="translate(629.074 -170.522)" fill="#0a3c5f" fill-rule="evenodd"/>
      <path id="Trazado_22664" data-name="Trazado 22664" d="M-589.953,239.842c.856-5.77,3.028-11.429,2.6-17.247-.337-4.592-4.114-8.435-6.519-12.711-1.141-2.029-.492-5.42-1.864-7.119-2.831-3.507-6.934-4.079-11.223-5.464-11.74-3.791-14.783,13.769-14.3,17.636s2.91,9.3,3.607,13.133c1.787,9.818,1.726,17.774-1.856,27.089-.164.425,23.039,3.459,27.381,2.585,4.4-.886,4.964-2.527,3.455-6.416A21.988,21.988,0,0,1-589.953,239.842Z" transform="translate(628.637 -164.745)" fill="#3cb0f9"/>
      <path id="Trazado_22665" data-name="Trazado 22665" d="M-578.578,233.508c-9.18-.934-25.855,1.381-31.9,1.761.251,7.006,35,8.459,37.244,6.119C-568.148,236.078-575.655,233.8-578.578,233.508Z" transform="translate(627.595 -168.261)" fill="#f4a086"/>
      <path id="Trazado_22666" data-name="Trazado 22666" d="M-616.714,212.257q-.431,16.488-.861,32.977a4.116,4.116,0,0,1-.639,2.553c-1.165,1.426-3.745.934-4.947-.461-5.187-6.018-7.343-29.873-5.733-34.2,1.322-3.557,3.892-7.084,7.433-8.687C-616.53,202.2-616.613,208.411-616.714,212.257Z" transform="translate(629.418 -165.438)" fill="#80d0ff"/>
      <path id="Trazado_22667" data-name="Trazado 22667" d="M-584.4,232.007c-1.776-1.184-33.839,8.316-39.282,13.533-1.481,1.42.506,5.333,3.275,5.749a16.861,16.861,0,0,0,6.14-.66C-601.805,247.01-579.072,236.268-584.4,232.007Z" transform="translate(628.914 -168.128)" fill="#f7b690"/>
      <path id="Trazado_22668" data-name="Trazado 22668" d="M-598.507,165.47a6.745,6.745,0,0,0-5.326-4.091,6.744,6.744,0,0,0-6.156,2.686,11.909,11.909,0,0,1-2.119,2.866c-1.262.939-2.994.8-4.518,1.185A6.607,6.607,0,0,0-621.353,173c-1.03,4.724,3.308,9.353,2.407,14.1a11.814,11.814,0,0,1-3.359,5.58,21.736,21.736,0,0,0-4.088,5.15c-.951,1.985-1.051,4.569.411,6.215a7.6,7.6,0,0,0,4.19,1.99,24.106,24.106,0,0,0,5.215.433c4.057,0,4.057-8.352,4.264-14.811.12-3.739,8.772-4.144,9.829-7.731.579-1.967-.079-4.082.119-6.123a8.477,8.477,0,0,1,2.483-4.85,8.413,8.413,0,0,0,1.772-4.158A6.621,6.621,0,0,0-598.507,165.47Z" transform="translate(629.195 -161.333)" fill="#222b56" fill-rule="evenodd"/>
      <path id="Trazado_22669" data-name="Trazado 22669" d="M-602.383,188.571a17.891,17.891,0,0,0,.481,7.881,2.806,2.806,0,0,1,.024,2.376,2.6,2.6,0,0,1-2.137.751,12.319,12.319,0,0,1-3.914-.293,4.173,4.173,0,0,1-2.862-2.487,6.193,6.193,0,0,1,.108-3.214q.649-3.053,1.3-6.107a3.518,3.518,0,0,1,.677-1.677,2.4,2.4,0,0,1,2.837-.294,7.033,7.033,0,0,1,2.178,2.127Z" transform="translate(627.642 -163.63)" fill="#f4a086"/>
      <path id="Trazado_22670" data-name="Trazado 22670" d="M-598.715,186.2a12.236,12.236,0,0,0,.969-4.275,22.253,22.253,0,0,0,.052-6.046,7.7,7.7,0,0,0-2.969-5.105,8.037,8.037,0,0,0-7.04-.549,7.481,7.481,0,0,0-4.729,3.95,10.384,10.384,0,0,0-.546,3.4,12.586,12.586,0,0,0,.316,4.454,8.16,8.16,0,0,0,2.95,3.9,19.542,19.542,0,0,0,4.374,2.332,8.75,8.75,0,0,0,2.75.776C-600.685,189.151-599.505,187.78-598.715,186.2Z" transform="translate(627.841 -162.136)" fill="#f7b690"/>
      <path id="Trazado_22671" data-name="Trazado 22671" d="M-607.156,173.617c-.851,1.919-.522,4.337-1.859,5.956a3.663,3.663,0,0,1-4.626.734,4.175,4.175,0,0,1-1.816-3.286,6.1,6.1,0,0,1,1.1-3.672,11.542,11.542,0,0,1,2.738-2.752,13.851,13.851,0,0,1,5.361-2.6,8.955,8.955,0,0,1,3.786-.01c.937.208,2.751.718,3,1.826s-.717,1.3-1.495,1.081a5.027,5.027,0,0,0-3.426.052A5.163,5.163,0,0,0-607.156,173.617Z" transform="translate(628.075 -161.955)" fill="#222b56" fill-rule="evenodd"/>
      <path id="Trazado_22672" data-name="Trazado 22672" d="M-611.7,180.334a3.1,3.1,0,0,0-1.154-.222,1.432,1.432,0,0,0-1.048.468,1.709,1.709,0,0,0-.208,1.518,2.478,2.478,0,0,0,2.851,1.957,1.673,1.673,0,0,0,1.249-2.139A2.309,2.309,0,0,0-611.7,180.334Z" transform="translate(627.952 -163.141)" fill="#f7b690"/>
      <path id="Trazado_22673" data-name="Trazado 22673" d="M-613.892,230.885c-1.187,1.722,2.842,2.735,2.574,3.787-.233.914-5.94,1.052-7.3,1.4a2,2,0,0,0-1.646,1.248,2.354,2.354,0,0,0,.683,2.088,5.4,5.4,0,0,0,4.387,1.672,15.318,15.318,0,0,0,4.578-1.253,7.233,7.233,0,0,0,2.27-1.217,3.757,3.757,0,0,0,.266-5.211C-609.53,231.986-612.176,231.583-613.892,230.885Z" transform="translate(628.542 -168.03)" fill="#f7b690"/>
      <path id="Trazado_22674" data-name="Trazado 22674" d="M-570.115,235.273a14.892,14.892,0,0,0-4.352-1.8c.871.862,2.7,3.049,2.194,3.848-.486.774-2.772-2.417-3.685-2.549-1.8-.26-3.781.686-5.468-.141-1.272-.623-2.145-2.413-1.113-3.527C-577.926,226.117-570.7,231.064-570.115,235.273Z" transform="translate(624.949 -167.849)" fill="#f7b690"/>
    </g>
    <ellipse id="Elipse_1073" data-name="Elipse 1073" cx="105.672" cy="12.681" rx="105.672" ry="12.681" transform="translate(789.42 495.318)" fill="#e1dce6" style="mix-blend-mode: multiply;isolation: isolate"/>
    <ellipse id="Elipse_1074" data-name="Elipse 1074" cx="114.125" cy="16.907" rx="114.125" ry="16.907" transform="translate(950.886 440.369)" fill="#e1dce6" style="mix-blend-mode: multiply;isolation: isolate"/>
    <ellipse id="Elipse_1075" data-name="Elipse 1075" cx="68.919" cy="10.919" rx="68.919" ry="10.919" transform="translate(1097.991 476.445)" fill="#e1dce6" style="mix-blend-mode: multiply;isolation: isolate"/>
    <g id="Grupo_28415" data-name="Grupo 28415" transform="translate(944.353 176.362)">
      <path id="Trazado_22675" data-name="Trazado 22675" d="M-378.277,145.673l22.152,257.684h-4.309l-22.152-257.684Z" transform="translate(532.094 -125.327)" fill="#ff9f36"/>
      <path id="Trazado_22676" data-name="Trazado 22676" d="M-420.079,305.8h-4.309l-8.4,112.977h4.309Zm-106.389,0-8.4,112.977h4.309l8.4-112.977Z" transform="translate(546.756 -140.743)" fill="#ff9f36"/>
      <path id="Trazado_22677" data-name="Trazado 22677" d="M-548.022,327.922h141.059l15.234-204.763H-532.789Z" transform="translate(548.022 -123.159)" fill="#e98b38"/>
      <path id="Trazado_22678" data-name="Trazado 22678" d="M-410.459,324.072l14.593-196.145H-528.307L-542.9,324.072Z" transform="translate(547.529 -123.618)" fill="#fff"/>
      <g id="Grupo_28413" data-name="Grupo 28413" transform="translate(18.736 135.569)">
        <path id="Trazado_22679" data-name="Trazado 22679" d="M-422.567,291.288H-411.6a3.565,3.565,0,0,0,3.556-3.3l.817-10.985a3.566,3.566,0,0,0-3.556-3.831h-10.965a3.566,3.566,0,0,0-3.556,3.3l-.818,10.986A3.566,3.566,0,0,0-422.567,291.288Z" transform="translate(517.551 -273.171)" fill="#fdd247" fill-rule="evenodd"/>
        <path id="Trazado_22680" data-name="Trazado 22680" d="M-439.364,299.044l-.231,3.111h29.261l.231-3.111Zm28.827,5.835H-439.8l-.232,3.112h29.261Zm-.435,5.836h-29.261l-.231,3.111H-411.2Zm-.434,5.835h-29.261l-.231,3.111h29.261Zm-.435,5.836h-14.294l-.231,3.111h14.294Z" transform="translate(518.972 -275.662)" fill="#a2d1eb"/>
        <g id="Grupo_28411" data-name="Grupo 28411" transform="translate(39.037 0)">
          <path id="Trazado_22681" data-name="Trazado 22681" d="M-465.763,291.288H-454.8a3.565,3.565,0,0,0,3.556-3.3l.818-10.985a3.567,3.567,0,0,0-3.556-3.831h-10.966a3.566,3.566,0,0,0-3.556,3.3l-.818,10.986A3.566,3.566,0,0,0-465.763,291.288Z" transform="translate(482.672 -273.171)" fill="#b58fef"/>
          <path id="Trazado_22682" data-name="Trazado 22682" d="M-482.56,299.044l-.231,3.111h29.261l.231-3.111Zm28.827,5.835h-29.261l-.231,3.112h29.261Zm-.435,5.836h-29.261l-.231,3.111H-454.4Zm-.434,5.835h-29.261l-.231,3.111h29.261Zm-.434,5.836h-14.3l-.231,3.111h14.294Z" transform="translate(484.094 -275.662)" fill="#a2d1eb"/>
        </g>
        <g id="Grupo_28412" data-name="Grupo 28412" transform="translate(0 0)">
          <path id="Trazado_22683" data-name="Trazado 22683" d="M-508.958,291.288h10.966a3.565,3.565,0,0,0,3.555-3.3l.818-10.985a3.567,3.567,0,0,0-3.556-3.831h-10.966a3.566,3.566,0,0,0-3.556,3.3l-.817,10.986A3.565,3.565,0,0,0-508.958,291.288Z" transform="translate(525.868 -273.171)" fill="#67bdd4" fill-rule="evenodd"/>
          <path id="Trazado_22684" data-name="Trazado 22684" d="M-525.756,299.044l-.231,3.111h29.261l.231-3.111Zm28.827,5.835H-526.19l-.231,3.112h29.261Zm-.434,5.836h-29.261l-.232,3.111H-497.6Zm-.435,5.835h-29.261l-.231,3.111h29.261Zm-.434,5.836h-14.3l-.231,3.111h14.3Z" transform="translate(527.29 -275.662)" fill="#a2d1eb"/>
        </g>
      </g>
      <path id="Trazado_22685" data-name="Trazado 22685" d="M-492.461,149.594h63.234l.292-3.921h-63.234Zm-21.815,3.619-.291,3.921h106.325l.292-3.921Zm94.992,7.541h-84.78l-.292,3.921h84.78Z" transform="translate(544.801 -125.327)" fill="#a2d1eb"/>
      <g id="Grupo_28414" data-name="Grupo 28414" transform="translate(33.767 51.505)">
        <path id="Trazado_22686" data-name="Trazado 22686" d="M-462.29,254.94h28.434l2.121-28.434h-28.434Z" transform="translate(506.001 -184.614)" fill="#fdd247" fill-rule="evenodd"/>
        <path id="Trazado_22687" data-name="Trazado 22687" d="M-465.353,203.753a5.3,5.3,0,0,1,3.84.867,1.342,1.342,0,0,0,2.038-1.056l.635-8.52h28.434l-2.121,28.434h-8.52a1.346,1.346,0,0,0-1.2,1.959,5.344,5.344,0,0,1,.576,3.9,6.16,6.16,0,0,1-5.221,4.7,5.115,5.115,0,0,1-5.792-5.533,5.9,5.9,0,0,1,1.129-3.035,1.2,1.2,0,0,0-.885-2h-8.518l.635-8.518a1.2,1.2,0,0,0-1.92-1.034,5.853,5.853,0,0,1-3.1.9,5.118,5.118,0,0,1-5.069-6.2A6.158,6.158,0,0,1-465.353,203.753Z" transform="translate(506.793 -181.585)" fill="#3cb0f9"/>
        <path id="Trazado_22688" data-name="Trazado 22688" d="M-482.134,228.376a5.86,5.86,0,0,0-1.225,3.993,5.079,5.079,0,0,0,4.52,4.7,6.079,6.079,0,0,0,6.616-5.533,5.222,5.222,0,0,0-.732-3.129,1.285,1.285,0,0,1,1.126-1.9h8.631l-.619,8.3a1.13,1.13,0,0,0,1.717,1.05,5.78,5.78,0,0,1,3.512-.65,5.081,5.081,0,0,1,4.4,4.871,6.082,6.082,0,0,1-5.994,6.213,5.227,5.227,0,0,1-2.637-.695,1.29,1.29,0,0,0-1.884,1.046l-.619,8.3h-28.434l2.121-28.434H-483A1.137,1.137,0,0,1-482.134,228.376Z" transform="translate(509.03 -184.614)" fill="#b58fef"/>
        <path id="Trazado_22689" data-name="Trazado 22689" d="M-508.537,180.151H-480.1l-.635,8.521a1.342,1.342,0,0,1-2.038,1.056,5.3,5.3,0,0,0-3.84-.867,6.16,6.16,0,0,0-5.063,4.872,5.118,5.118,0,0,0,5.069,6.2,5.856,5.856,0,0,0,3.1-.9,1.2,1.2,0,0,1,1.919,1.034l-.636,8.518H-492.2a.61.61,0,0,0-.479,1,5.237,5.237,0,0,1,1.311,4.863,6.16,6.16,0,0,1-5.222,4.7,5.115,5.115,0,0,1-5.791-5.533,6.009,6.009,0,0,1,2.038-4.033.561.561,0,0,0-.347-1h-9.965Z" transform="translate(510.658 -180.151)" fill="#dccec3"/>
      </g>
    </g>
    <g id="Grupo_28424" data-name="Grupo 28424" transform="translate(782.56 310.655)">
      <g id="Grupo_28417" data-name="Grupo 28417" transform="translate(110.667 1.858)">
        <path id="Trazado_22690" data-name="Trazado 22690" d="M-537.7,365.513h-18.917l-9.458-21.444h18.917Z" transform="translate(600.887 -280.579)" fill="#616d7d"/>
        <path id="Trazado_22691" data-name="Trazado 22691" d="M-540.054,365.513h-18.917l-9.459-21.444h18.917Z" transform="translate(601.113 -280.579)" fill="#7590a2"/>
        <rect id="Rectángulo_4480" data-name="Rectángulo 4480" width="39.108" height="2.798" rx="1.399" transform="translate(27.002 82.136)" fill="#758798"/>
        <path id="Trazado_22692" data-name="Trazado 22692" d="M-595.265,344.585a5.383,5.383,0,0,1-5.443-6.34l8.213-58.091a7.56,7.56,0,0,1,7.236-6.34h74.7a5.382,5.382,0,0,1,5.443,6.34l-8.213,58.091a7.558,7.558,0,0,1-7.235,6.34Z" transform="translate(604.227 -273.815)" fill="#616d7d"/>
        <path id="Trazado_22693" data-name="Trazado 22693" d="M-599.089,344.585a5.382,5.382,0,0,1-5.443-6.34l8.212-58.091a7.56,7.56,0,0,1,7.236-6.34h74.7a5.382,5.382,0,0,1,5.443,6.34l-8.212,58.091a7.56,7.56,0,0,1-7.236,6.34Z" transform="translate(604.595 -273.815)" fill="#758798"/>
        <path id="Trazado_22694" data-name="Trazado 22694" d="M-598.112,340.413a3.114,3.114,0,0,1-3.152-3.671l7.647-54.089a4.372,4.372,0,0,1,4.191-3.672h74.7a3.114,3.114,0,0,1,3.152,3.672l-7.647,54.089a4.372,4.372,0,0,1-4.19,3.671Z" transform="translate(604.278 -274.312)" fill="#f7f6f0"/>
        <g id="Grupo_28416" data-name="Grupo 28416" transform="translate(5.588 11.362)">
          <path id="Trazado_22695" data-name="Trazado 22695" d="M-515.455,292.558h-74.911a1.149,1.149,0,0,1-1.164-1.359l.5-3.451a1.625,1.625,0,0,1,1.556-1.359h74.91a1.149,1.149,0,0,1,1.164,1.359l-.5,3.451A1.624,1.624,0,0,1-515.455,292.558Z" transform="translate(597.751 -286.388)" fill="#dad7fe"/>
          <path id="Trazado_22696" data-name="Trazado 22696" d="M-586.184,329.967h-9.9a1.225,1.225,0,0,1-1.239-1.448l4.463-31.011a1.729,1.729,0,0,1,1.656-1.448h9.9a1.224,1.224,0,0,1,1.239,1.448l-4.463,31.011A1.729,1.729,0,0,1-586.184,329.967Z" transform="translate(598.309 -287.319)" fill="#dad7fe"/>
          <path id="Trazado_22697" data-name="Trazado 22697" d="M-514.852,320.112h-26.325a1.224,1.224,0,0,1-1.239-1.448l3.044-21.156a1.73,1.73,0,0,1,1.656-1.448h26.324a1.224,1.224,0,0,1,1.239,1.448l-3.044,21.156A1.729,1.729,0,0,1-514.852,320.112Z" transform="translate(593.022 -287.319)" fill="#dad7fe"/>
          <path id="Trazado_22698" data-name="Trazado 22698" d="M-514.179,326.509a1.239,1.239,0,0,0-1.125-1.553h-26.521a1.749,1.749,0,0,0-1.572,1.553l-1.675,11.637h29.219Z" transform="translate(593.277 -290.101)" fill="#dad7fe"/>
          <path id="Trazado_22699" data-name="Trazado 22699" d="M-546.987,314.484a1.239,1.239,0,0,0-1.125-1.553h-10.1a1.748,1.748,0,0,0-1.572,1.553l-3.238,22.505h12.8Z" transform="translate(595.005 -288.944)" fill="#dad7fe"/>
          <path id="Trazado_22700" data-name="Trazado 22700" d="M-585.374,337.524a1.239,1.239,0,0,0-1.126-1.553h-10.1a1.746,1.746,0,0,0-1.572,1.553l-.242,1.684h12.795Z" transform="translate(598.412 -291.162)" fill="#dad7fe"/>
          <path id="Trazado_22701" data-name="Trazado 22701" d="M-566.858,318.141h-9.9A1.225,1.225,0,0,1-578,316.693l2.761-19.185a1.729,1.729,0,0,1,1.656-1.448h9.9a1.225,1.225,0,0,1,1.239,1.448l-2.761,19.185A1.729,1.729,0,0,1-566.858,318.141Z" transform="translate(596.448 -287.319)" fill="#dad7fe"/>
          <path id="Trazado_22702" data-name="Trazado 22702" d="M-556.946,296.06l-1.686,11.722a1.24,1.24,0,0,0,1.126,1.553h10.1a1.747,1.747,0,0,0,1.572-1.553l1.687-11.722Z" transform="translate(594.584 -287.319)" fill="#dad7fe"/>
          <path id="Trazado_22703" data-name="Trazado 22703" d="M-565.7,324.227a1.239,1.239,0,0,0-1.125-1.553h-10.1a1.748,1.748,0,0,0-1.572,1.553l-1.971,13.7h12.8Z" transform="translate(596.684 -289.882)" fill="#dad7fe"/>
          <path id="Trazado_22704" data-name="Trazado 22704" d="M-585.724,305.077h-5.939l.984-6.836h5.939Z" transform="translate(597.762 -287.529)" fill="#cc346f"/>
          <path id="Trazado_22705" data-name="Trazado 22705" d="M-592.132,308l-.168,1.174h9.591l.168-1.174Zm-.485,3.375h9.591l.169-1.174h-9.591Zm-.317,2.2h9.591l.169-1.174h-9.591Zm-.316,2.2h9.591l.169-1.174h-9.591Zm-.317,2.2h4.686l.169-1.173H-593.4Z" transform="translate(597.946 -288.469)" fill="#f7f6f0"/>
          <path id="Trazado_22706" data-name="Trazado 22706" d="M-568.281,305.077h-5.938l.984-6.836h5.939Z" transform="translate(596.083 -287.529)" fill="#fdd247" fill-rule="evenodd"/>
          <path id="Trazado_22707" data-name="Trazado 22707" d="M-574.688,308l-.169,1.174h9.591L-565.1,308Zm-.486,3.375h9.591l.169-1.174h-9.591Zm-.316,2.2h9.59l.169-1.174h-9.591Zm-.317,2.2h9.591l.169-1.174h-9.591Zm-.317,2.2h4.686l.169-1.173h-4.686Z" transform="translate(596.266 -288.469)" fill="#f7f6f0"/>
          <path id="Trazado_22708" data-name="Trazado 22708" d="M-552.76,321.948H-558.7l.984-6.836h5.939Z" transform="translate(594.588 -289.154)" fill="#70a0fe"/>
          <path id="Trazado_22709" data-name="Trazado 22709" d="M-559.168,324.874l-.168,1.174h9.591l.168-1.174Zm-.485,3.375h9.591l.169-1.174h-9.591Zm-.317,2.2h9.591l.169-1.174H-559.8Zm-.316,2.2h9.591l.169-1.174h-9.591Zm-.317,2.2h4.686l.169-1.174h-4.686Z" transform="translate(594.772 -290.093)" fill="#f7f6f0"/>
          <path id="Trazado_22710" data-name="Trazado 22710" d="M-555.125,297.242l-.169,1.174h9.591l.169-1.174Zm-.485,3.375h9.591l.169-1.174h-9.591Zm-.317,2.2h4.454l.169-1.174h-4.454Z" transform="translate(594.322 -287.433)" fill="#f7f6f0"/>
          <path id="Trazado_22711" data-name="Trazado 22711" d="M-512.984,305.077h-25.253l.984-6.836H-512Z" transform="translate(592.618 -287.529)" fill="#70a0fe"/>
          <path id="Trazado_22712" data-name="Trazado 22712" d="M-538.6,308l-.169,1.174h25.253l.169-1.174Zm-.486,3.375h14.979l.169-1.174h-14.979Z" transform="translate(592.701 -288.469)" fill="#f7f6f0"/>
          <path id="Trazado_22713" data-name="Trazado 22713" d="M-572.125,331.792h-5.938l.984-6.836h5.939Z" transform="translate(596.453 -290.101)" fill="#818bea" fill-rule="evenodd"/>
          <path id="Trazado_22714" data-name="Trazado 22714" d="M-578.431,334.719l-.169,1.174h9.591l.169-1.174Zm-.486,3.375h6.167l.169-1.174h-6.167Z" transform="translate(596.535 -291.041)" fill="#f7f6f0"/>
          <path id="Trazado_22715" data-name="Trazado 22715" d="M-589.049,328.186h-5.938l.984-6.836h5.939Z" transform="translate(598.082 -289.754)" fill="#66bcd5" fill-rule="evenodd"/>
          <path id="Trazado_22716" data-name="Trazado 22716" d="M-595.322,331.113l-.168,1.174h9.591l.168-1.174Z" transform="translate(598.131 -290.694)" fill="#f7f6f0"/>
        </g>
      </g>
      <g id="Grupo_28418" data-name="Grupo 28418" transform="translate(0 55.501)">
        <path id="Trazado_22717" data-name="Trazado 22717" d="M-699.633,333.173l0,.05a3.864,3.864,0,0,1,.591-.05,3.942,3.942,0,0,1,3.924,3.569l6.68,70.214a2.781,2.781,0,0,0,2.781,2.532H-643.4a3.942,3.942,0,0,1,3.942,3.942,3.942,3.942,0,0,1-3.942,3.942h-42.253a10.656,10.656,0,0,1-8.1-3.741c-2.324.173-11.326.943-11.326.943l-9.224-2.935-8.382-78.466Z" transform="translate(726.632 -333.173)" fill="#5189e5"/>
        <path id="Trazado_22718" data-name="Trazado 22718" d="M-709.726,409.488a2.781,2.781,0,0,1-2.78-2.532l-6.68-70.214a3.942,3.942,0,0,0-3.924-3.569h0a3.941,3.941,0,0,0-3.924,4.315l6.678,70.2a10.677,10.677,0,0,0,10.63,9.682h42.253a3.942,3.942,0,0,0,3.942-3.942h0a3.942,3.942,0,0,0-3.942-3.942Z" transform="translate(727.052 -333.173)" fill="#70a0fe"/>
        <rect id="Rectángulo_4481" data-name="Rectángulo 4481" width="6.41" height="59.58" transform="translate(41.242 84.198)" fill="#7590a2"/>
        <path id="Trazado_22719" data-name="Trazado 22719" d="M-703.147,491.586h0a6.409,6.409,0,0,1,6.41-6.409h32.867a6.409,6.409,0,0,1,6.41,6.409h-45.688Z" transform="translate(724.751 -347.808)" fill="#4b4b6d"/>
        <path id="Trazado_22720" data-name="Trazado 22720" d="M-676.017,432.472h-5.852a5.871,5.871,0,0,1-4.939-2.7l-2.208-3.434h20.145l-2.209,3.434A5.868,5.868,0,0,1-676.017,432.472Z" transform="translate(723.39 -342.143)" fill="#4b4b6d"/>
      </g>
      <g id="Grupo_28420" data-name="Grupo 28420" transform="translate(17.295)">
        <path id="Trazado_22721" data-name="Trazado 22721" d="M-621.419,359.49c-3.1-1.46-20.861-3.941-24-5.31-4.327-1.885-7.606-6.968-9.731-11.182a77.643,77.643,0,0,1-3.046-7.2l-13.275,7.014a78.3,78.3,0,0,0,6,8.842c3.375,4.3,7.285,8.317,12.109,10.894,5.028,2.686,25.836,3.012,31.468,2.123C-617.359,363.725-618.32,360.95-621.419,359.49Z" transform="translate(704.406 -277.925)" fill="#f4a086"/>
        <path id="Trazado_22722" data-name="Trazado 22722" d="M-668.327,319.737c-3.5-1.9-10.7-1.5-11.044,3.553-.2,2.972,1.5,6.217,2.632,8.887a78.6,78.6,0,0,0,4.327,8.686c.058.1.121.2.179.3l14.628-6.1C-660.819,331.013-663.83,322.172-668.327,319.737Z" transform="translate(705.168 -276.278)" fill="#e2b639"/>
        <path id="Trazado_22723" data-name="Trazado 22723" d="M-603.857,360.491a6.175,6.175,0,0,1,2.071,4.2c.034,1.6-1.272,4.81-2.461,3.738-.982-.886-1.228-2.368-2.55-2.327a11.46,11.46,0,0,0-3.737,1.259c-3.628,1.441-14.619-.514-9.943-6.26C-616.895,356.7-607.766,356.767-603.857,360.491Z" transform="translate(699.606 -280.038)" fill="#f4a086"/>
        <path id="Trazado_22724" data-name="Trazado 22724" d="M-575.525,480.045c.75,1.126,1.752,2.383,3.1,2.351,2.33-.055,2.5-3.38,1.916-5.619q-.943-3.623-1.888-7.246l-7.319,2.139A30.559,30.559,0,0,0-575.525,480.045Z" transform="translate(695.572 -290.801)" fill="#f4a086"/>
        <path id="Trazado_22725" data-name="Trazado 22725" d="M-604.911,401.367c-5.89-6.5-42.7-14.591-60.016-19.887-12.929-3.956-26.233-6.18-28.2,11.282a20.346,20.346,0,0,0,9.438,19.232c7.028,4.316,15.863,3.912,24.092,3.367l41-2.715c1.5,20.533,18.95,27.884,26.763,50.627l11.737-2.393C-587.213,450.172-601.986,405.116-604.911,401.367Z" transform="translate(706.503 -282.056)" fill="#0a3c5f" fill-rule="evenodd"/>
        <path id="Trazado_22726" data-name="Trazado 22726" d="M-664.194,468.7c-.6,1.213-1.188,2.71-.485,3.863,1.212,1.991,4.177.475,5.824-1.15l5.331-5.258-7.182-4.291Q-662.483,465.266-664.194,468.7Z" transform="translate(703.783 -290.063)" fill="#f7b690"/>
        <path id="Trazado_22727" data-name="Trazado 22727" d="M-697.379,411.994c7.028,4.316,15.863,3.912,24.093,3.367l48.742-3.227c2.594-.172,5.5-.5,7.121-2.536,1.89-2.376.975-6.089-1.176-8.231s-5.176-3.1-8.079-3.991q-25.969-7.949-51.937-15.9c-12.929-3.956-26.233-6.18-28.2,11.282A20.347,20.347,0,0,0-697.379,411.994Z" transform="translate(707.82 -282.056)" fill="#0a3c5f" fill-rule="evenodd"/>
        <path id="Trazado_22728" data-name="Trazado 22728" d="M-611.969,408.407c-3.58-11.081-25.9,10.791-29.8,16.678a351.73,351.73,0,0,0-18.478,31.336l8.715,7.134c5.716-11.516,17.116-21.237,26.441-30.435,3.065-3.023,6.192-6.132,8.064-10.057S-611.331,410.384-611.969,408.407Z" transform="translate(703.325 -284.619)" fill="#0a3c5f" fill-rule="evenodd"/>
        <path id="Trazado_22729" data-name="Trazado 22729" d="M-697.127,332.127c.887,6.613,3.426,13.024,3.318,19.694a25.348,25.348,0,0,1-7.887,17.843c-3,2.82-7.119,6.021-6.045,10,.966,3.575,5.437,4.634,9.117,5.052,8.024.912,17.18,1.476,23.083-4.035,3.615-3.375,5.179-8.366,6.33-13.175a133.305,133.305,0,0,0,3.561-26c.279-7.456-.219-15.4-4.5-21.51-4.27-6.085-9.062-10.12-16.05-7.974C-694.15,319.813-698.006,325.569-697.127,332.127Z" transform="translate(707.915 -275.579)" fill="#fdd247"/>
        <path id="Trazado_22730" data-name="Trazado 22730" d="M-578.848,475.538c.455.8,2.556,1.17,3.421,1.206.684.027,3.816-1.4,4.493-1.167.488.168,2.305,6.707,4.562,8.094a53.471,53.471,0,0,0,7.161,3.184,7.815,7.815,0,0,1,2.361,1.408,2.837,2.837,0,0,1,1,2.374,1.324,1.324,0,0,1-.07.2h-14.764c-.429-.5-.816-1.051-1.192-1.589l-4.05-5.8c-.426,2.112-.793,4.589-1.2,7.388h-1.649C-579.3,488.589-580.756,477.877-578.848,475.538Z" transform="translate(695.58 -291.379)" fill="#222b54" fill-rule="evenodd"/>
        <path id="Trazado_22731" data-name="Trazado 22731" d="M-670.508,476.71a16.008,16.008,0,0,1,1.99-4.579,7.983,7.983,0,0,1,3.619-3.163c.009.861.379,2.17,1.167,2.517.623.275,4.278.179,4.787.63.342.3-1.117,5.864-.188,8.255,0,0,3.33,2.521,5.048,3.733a6.285,6.285,0,0,1,1.841,1.769,2.479,2.479,0,0,1,.174,2.446,1.523,1.523,0,0,1-.138.182l-12.694-2.326-1.731-.68a16.5,16.5,0,0,1-.285-1.819q-.379-3.266-.76-6.53a25.248,25.248,0,0,0-3.332,6.627l-1.535-.6Z" transform="translate(704.509 -290.747)" fill="#0a3c5f" fill-rule="evenodd"/>
        <path id="Trazado_22732" data-name="Trazado 22732" d="M-630.773,358.7c-3.1-1.46-20.861-3.153-24-4.522-4.327-1.885-7.606-6.968-9.731-11.182a77.626,77.626,0,0,1-3.046-7.2l-13.275,7.014a78.3,78.3,0,0,0,6,8.842c3.375,4.3,7.285,8.317,12.108,10.894,5.029,2.686,25.836,2.223,31.468,1.334C-626.713,362.937-627.675,360.162-630.773,358.7Z" transform="translate(705.307 -277.925)" fill="#f7b690"/>
        <path id="Trazado_22733" data-name="Trazado 22733" d="M-670.708,328.286c-1.566-3.4-3.682-6.766-6.973-8.548-3.5-1.9-10.7-1.5-11.043,3.553-.205,2.972,1.5,6.217,2.632,8.887a78.61,78.61,0,0,0,4.327,8.686c.058.1.121.2.179.3l14.628-6.1C-667.716,333.089-669.825,330.2-670.708,328.286Z" transform="translate(706.069 -276.278)" fill="#fdd247"/>
        <path id="Trazado_22734" data-name="Trazado 22734" d="M-613.065,354.258a6.175,6.175,0,0,1,3.371,3.246c.576,1.494.436,4.955-1.047,4.35-1.224-.5-1.958-1.81-3.188-1.324a11.488,11.488,0,0,0-3.089,2.452c-2.924,2.586-13.926,4.473-11.476-2.518C-626.619,355.109-618.007,352.081-613.065,354.258Z" transform="translate(700.302 -279.634)" fill="#f7b690"/>
        <g id="Grupo_28419" data-name="Grupo 28419" transform="translate(6.955)">
          <path id="Trazado_22735" data-name="Trazado 22735" d="M-682.541,295.219c.618-1.166,7.4,2.331,7.8,3.168s.831,10.311,2.28,16.224c.313,1.277-12.337-2.632-11.438-4.176C-682.44,307.929-680.952,298.375-682.541,295.219Z" transform="translate(698.652 -273.995)" fill="#f4a086"/>
          <path id="Trazado_22736" data-name="Trazado 22736" d="M-663.144,284.989c-2.342-9.718-15.636-7.668-18.794-6.7s-3.238,5.435-3.543,8.724a8.311,8.311,0,0,0,1.755,5.659c1.161,1.549,6.218,3.882,6.5,3.943,1.877,3.234,4.927,6.932,8.029,6.887a4.59,4.59,0,0,0,3.486-2.047,13.575,13.575,0,0,0,1.708-3.81A23.036,23.036,0,0,0-663.144,284.989Z" transform="translate(698.803 -272.304)" fill="#f7b690"/>
          <path id="Trazado_22737" data-name="Trazado 22737" d="M-686.471,290.092a9.693,9.693,0,0,1-2.289-4.861,9.072,9.072,0,0,1,1.638-6.091c2.141-3.181,7.671-7.289,12.139-7.379,4.772-.1,12.969,4.655,12.191,10.561-.233,1.767-1.2,1.779-2.894,2.343-2.227.744-5.215,1.257-7.062,2.707-2.21,1.733-1.227,5.915-5.749,7.273-1.461.439-2.963,3.02-3.934,5.028C-683.585,298.361-685.351,291.444-686.471,290.092Z" transform="translate(699.122 -271.759)" fill="#222b56" fill-rule="evenodd"/>
          <path id="Trazado_22738" data-name="Trazado 22738" d="M-694.273,303.895c-.426,1.82.217,3.719.114,5.586-.24,4.34-4.3,7.477-5.652,11.606a6.563,6.563,0,0,0,.129,4.892,4,4,0,0,0,4.077,2.29c1.816-.329,2.992-2.1,3.674-3.815s1.131-3.606,2.4-4.943c1.965-2.063,5.366-2.253,7.258-4.383,1.824-2.054,3.182-7.758,3.182-11.968,0-8.115-2.6-15.52-6.5-14.352-2.323.7-2.994,4.927-3.612,6.787C-690.247,298.752-693.523,300.688-694.273,303.895Z" transform="translate(700.219 -273.389)" fill="#222b56" fill-rule="evenodd"/>
          <path id="Trazado_22739" data-name="Trazado 22739" d="M-679.626,292.83a1.661,1.661,0,0,0-.433.853,3.864,3.864,0,0,0,.5,2.924,3.863,3.863,0,0,0,2.442,1.685,1.625,1.625,0,0,0,1.172-.115c1.184-.722.583-3.233.014-4.206C-676.522,292.961-678.618,291.892-679.626,292.83Z" transform="translate(698.288 -273.753)" fill="#f7b690"/>
        </g>
      </g>
      <path id="Trazado_22740" data-name="Trazado 22740" d="M-602.17,361.46l-25.9,2.07a1.831,1.831,0,0,0-1.684,1.826h0a1.831,1.831,0,0,0,1.831,1.83h25.9a1.83,1.83,0,0,0,1.83-1.83v-2.071A1.831,1.831,0,0,0-602.17,361.46Z" transform="translate(717.684 -280.395)" fill="#a2d1eb"/>
      <g id="Grupo_28423" data-name="Grupo 28423" transform="translate(80.02 86.791)">
        <g id="Grupo_28421" data-name="Grupo 28421" transform="translate(18.081 5.969)">
          <rect id="Rectángulo_4482" data-name="Rectángulo 4482" width="107.041" height="2.956" transform="translate(0 106.585) rotate(-84.712)" fill="#d0d9df"/>
        </g>
        <g id="Grupo_28422" data-name="Grupo 28422" transform="translate(124.237 5.969)">
          <rect id="Rectángulo_4483" data-name="Rectángulo 4483" width="2.956" height="107.041" transform="matrix(0.996, -0.092, 0.092, 0.996, 0, 0.272)" fill="#d0d9df"/>
        </g>
        <path id="Trazado_22741" data-name="Trazado 22741" d="M-486.439,373.9H-635.455a3.052,3.052,0,0,1-3.052-3.052h0a3.052,3.052,0,0,1,3.052-3.053h149.016a3.052,3.052,0,0,1,3.053,3.053h0A3.052,3.052,0,0,1-486.439,373.9Z" transform="translate(638.507 -367.797)" fill="#7590a2"/>
      </g>
    </g>
    <g id="Grupo_28434" data-name="Grupo 28434" transform="translate(1059.626 235.458)">
      <g id="Grupo_28433" data-name="Grupo 28433">
        <path id="Trazado_22742" data-name="Trazado 22742" d="M-359.692,375.563c-1.25,2.633-2.952,5.6-5.422,6.341-1.713.512-6.525-2.728-7.488-4.029s2.023-64,4.179-67.821c2.892-5.121,25.715,1.951,24.929,10.835-1,11.357-4.239,23.44-8.079,34.7A188.486,188.486,0,0,1-359.692,375.563Z" transform="translate(415.878 -200.084)" fill="#222b54"/>
        <path id="Trazado_22743" data-name="Trazado 22743" d="M-313.938,445.917a17.141,17.141,0,0,1-7.548-.6q-.2-4.415-.394-8.829a2.115,2.115,0,0,1,.137-1.075,1.775,1.775,0,0,1,1.337-.737c2-.36,5.1-.472,5.423,2.081C-314.591,439.806-314.289,442.864-313.938,445.917Z" transform="translate(410.977 -212.229)" fill="#f4a086"/>
        <path id="Trazado_22744" data-name="Trazado 22744" d="M-373.551,445.917a16.236,16.236,0,0,1-7.41-.6l1.635-8.829a2.451,2.451,0,0,1,.385-1.075,2.316,2.316,0,0,1,1.5-.737c2.087-.36,5.2-.472,4.945,2.081C-372.8,439.806-373.2,442.864-373.551,445.917Z" transform="translate(416.664 -212.229)" fill="#f4a086"/>
        <path id="Trazado_22745" data-name="Trazado 22745" d="M-372.636,374.175c3.259-5.21,11.113-8.781,14.413.258,5.034,13.784-10.931,39.568-13.307,56.213h-8.548C-380.315,429.034-374.443,377.066-372.636,374.175Z" transform="translate(416.58 -205.914)" fill="#222b54"/>
        <path id="Trazado_22746" data-name="Trazado 22746" d="M-330.164,324.743c-2.081,1.639-4.833,1.891-7.414,1.891-21.249,0-33.545-6.911-30.606-16.672,3.019-10.026,22.035-8.407,31.967-5.177,2.141.7,5.261,1.371,6.724,3.37C-327.374,311.053-325.108,320.759-330.164,324.743Z" transform="translate(415.476 -199.504)" fill="#0a3c5f" fill-rule="evenodd"/>
        <path id="Trazado_22747" data-name="Trazado 22747" d="M-396.393,266.395c-2.041.54-4.528.777-5.965-.767a4.181,4.181,0,0,1-.906-3.46,9.732,9.732,0,0,1,1.378-3.41c4.925-8.366,26.625-23.568,35.62-28.8,3.959-2.3,2.6,18.512,1.1,20.791C-366.675,253.061-386.927,263.89-396.393,266.395Z" transform="translate(418.817 -192.521)" fill="#0a3c5f"/>
        <path id="Trazado_22748" data-name="Trazado 22748" d="M-321.118,375.529c-.451,2.634-3.852,5.891-6.1,6.628-1.558.512-7.353-2.728-8.711-4.029S-352.5,324.223-351.5,320.4a12.685,12.685,0,0,1,10.38-9.2c6.856-1.11,14.263,1.275,17,9.938C-317.5,342.051-325.7,357.672-321.118,375.529Z" transform="translate(413.833 -200.336)" fill="#0a3c5f"/>
        <path id="Trazado_22749" data-name="Trazado 22749" d="M-411.315,226.471c-.873-1.17-1.988-2.463-3.447-2.4a3.054,3.054,0,0,0-2.568,2.322,67.689,67.689,0,0,0,1.99,9.072l7.483-2.988A55.652,55.652,0,0,0-411.315,226.471Z" transform="translate(420.167 -191.971)" fill="#d5e5fd"/>
        <path id="Trazado_22750" data-name="Trazado 22750" d="M-407.8,233.376l-8.922,2.658c2.745,10.439,9.27,26.9,12.9,29.891,2.623,2.161,5.509,1.239,7.56-1.009C-394.035,262.475-402.469,243.59-407.8,233.376Z" transform="translate(420.107 -192.867)" fill="#0a3c5f"/>
        <path id="Trazado_22751" data-name="Trazado 22751" d="M-337.255,374.152c1.488-5.2,9.054-9.31,14.5.258,8.77,15.4,6.721,38.424,7.2,56.213H-324.1C-324.884,429.011-338.082,377.043-337.255,374.152Z" transform="translate(412.46 -205.891)" fill="#0a3c5f"/>
        <path id="Trazado_22752" data-name="Trazado 22752" d="M-370.839,237.756c-2.165,3.2-1.379,7.766-.84,11.468,1.153,7.922.818,63.863.71,65.11a3.149,3.149,0,0,0,1.694,3.2,5.88,5.88,0,0,0,2.428.326c11.16-.072,28.829-.145,39.989-.217a4.1,4.1,0,0,0,2.141-.4c1.339-.835.876-2.652.395-4.041-3.219-9.3-4.809-33.771-1.888-43.145,2.9-9.3,6.459-20.792,4.853-30.517-3.937-4.809-11.99-15.968-27.956-15.968C-360.511,223.575-368.9,234.883-370.839,237.756Z" transform="translate(415.828 -191.923)" fill="#0a3c5f"/>
        <path id="Trazado_22753" data-name="Trazado 22753" d="M-323.694,234.792c-1.524-.455-12.254.229-9.39,7.858,3.554,9.471,10.658,17.184,16.587,25.38a36.372,36.372,0,0,0,6.072,7.039,12.253,12.253,0,0,0,8.554,3.085c1.622-.133,4.014-.9,4.81-2.487.64-1.281-.155-3.386-.446-4.66C-298.538,266.483-315.231,237.318-323.694,234.792Z" transform="translate(412.101 -192.993)" fill="#0a3c5f"/>
        <path id="Trazado_22754" data-name="Trazado 22754" d="M-306.98,266.05a.779.779,0,0,1,.023.19C-306.963,266.177-306.974,266.113-306.98,266.05Z" transform="translate(409.542 -196.013)" fill="#18898d" fill-rule="evenodd"/>
        <path id="Trazado_22755" data-name="Trazado 22755" d="M-332.279,303.849c-.148,1.576,2.985,3,4.529,3.35.446.1,2.737-2.185,5.952-4.415l-4.905-5.017C-328.993,300.629-332.248,303.527-332.279,303.849Z" transform="translate(411.978 -199.067)" fill="#d5e5fd"/>
        <path id="Trazado_22756" data-name="Trazado 22756" d="M-357.329,280.618c2.024-10.73,4.093-21.43,6.515-31.146,2.29-9.187,7.8-15.661,14.746-21.7-5.737-4.478-15.74-4.9-20.658.948-6.068,7.22-4.138,20.312-3.866,28.968C-360.378,264.562-358.39,280.63-357.329,280.618Z" transform="translate(414.752 -192)" fill="#acccfd"/>
        <path id="Trazado_22757" data-name="Trazado 22757" d="M-350.447,232.259c.8-1.155,1.866-2.377,1.623-3.762a2.265,2.265,0,0,0-1.861-1.8c-3.388-.481-1.834,3.2-1.349,4.826-3.254,4.879-7.167,15.119-8.463,27.338.349,7.291,2.211,21.988,3.225,21.978,1.379-7.312,2.783-14.6,4.3-21.582C-352.682,251.193-351.945,234.421-350.447,232.259Z" transform="translate(414.694 -192.22)" fill="#fdd247"/>
        <path id="Trazado_22758" data-name="Trazado 22758" d="M-296.393,277.059c-.406-1.456-1.9-2.313-3.317-2.83a15.534,15.534,0,0,0-7.912-.946c-1.745.352-2.285,1.938-3.281,3.216-2.5,3.2-12.255,14.807-17.143,20.917l5.347,6.724c7.9-5.478,22.25-19.346,24.653-22.485C-297.019,280.312-295.939,278.688-296.393,277.059Z" transform="translate(411.57 -196.691)" fill="#0a3c5f"/>
        <g id="Grupo_28425" data-name="Grupo 28425" transform="translate(54.611)">
          <path id="Trazado_22759" data-name="Trazado 22759" d="M-348.985,191.6c1.233-1.238,9.745-4.479,12.485,1.665a15.3,15.3,0,0,1,.81,8.076c-.662,3.035-3.573,12.905-1.509,14.322a7.158,7.158,0,0,1-6.042-1.357,7.157,7.157,0,0,1-2.637-5.6c.037-2.416,1.3-4.841.618-7.157a8.924,8.924,0,0,0-2.5-3.529c-.827-.833-2.217-1.752-2.43-2.939A4.227,4.227,0,0,1-348.985,191.6Z" transform="translate(359.095 -188.656)" fill="#222b56" fill-rule="evenodd"/>
          <path id="Trazado_22760" data-name="Trazado 22760" d="M-357.558,195.758a4.493,4.493,0,0,1,1.234-2.77c1.225-1.11,3.173-.934,4.666-.225.8.381,1.629,1.04,1.635,1.93a2.675,2.675,0,0,1-1.13,1.849c-1.289,1.141-3.14,2.832-4.84,3.287C-358.093,200.391-357.726,196.965-357.558,195.758Z" transform="translate(359.813 -188.902)" fill="#222b56" fill-rule="evenodd"/>
          <path id="Trazado_22761" data-name="Trazado 22761" d="M-351.877,210.632c1.093-4.827,4.746-5.957,6.87-4.8,1.36,9.034,2.747,13.05,6.289,17.979-4.4,2.822-11.92,2.3-13.545,0C-352.328,223.088-352.442,213.128-351.877,210.632Z" transform="translate(359.295 -190.175)" fill="#f4a086"/>
          <path id="Trazado_22762" data-name="Trazado 22762" d="M-343.624,198.109a7.517,7.517,0,0,0-12.542-1.878c-3.463,3.86-3.872,14.03-2.587,16.547,2.248,4.4,10.308,2.467,12.026.161C-344.211,209.561-341.9,202.234-343.624,198.109Z" transform="translate(359.979 -189.043)" fill="#f7b690"/>
          <path id="Trazado_22763" data-name="Trazado 22763" d="M-357.192,196.713a34.2,34.2,0,0,1-.336,3.408,3.361,3.361,0,0,1-2.026,2.571,4.157,4.157,0,0,0,.35-3.03c-.206-1.022-.594-2-.755-3.033a7.132,7.132,0,0,1,2.135-6.195,7.129,7.129,0,0,1,6.322-1.719,4.666,4.666,0,0,1,3.053,2.009,2.822,2.822,0,0,1-.368,3.45,3.347,3.347,0,0,1-2.911.564c-.818-.19-1.069-.75-1.741-1.122C-355.573,192.453-356.974,195-357.192,196.713Z" transform="translate(360.039 -188.551)" fill="#222b56" fill-rule="evenodd"/>
          <path id="Trazado_22764" data-name="Trazado 22764" d="M-338.733,208.3a4.749,4.749,0,0,1-1.948,2.982c-2.869,1.977-3.965-2.149-2.837-4.19C-342.175,204.663-338.108,205.05-338.733,208.3Z" transform="translate(358.49 -190.186)" fill="#f7b690"/>
          <path id="Trazado_22765" data-name="Trazado 22765" d="M-349.647,194.407c.022.928,2.492,2.436,3.171,3.068a8.053,8.053,0,0,1,1.874,2.039,4.967,4.967,0,0,1,.113,3.507,20.327,20.327,0,0,0-.869,3.478,3.385,3.385,0,0,0,1.281,3.168,3.6,3.6,0,0,1,.741-3.338c.709-.957,1.646-1.732,2.323-2.71a6.566,6.566,0,0,0,.472-6.519c-.723-1.457-2.71-3.823-4.228-4.392C-346.025,192.235-349.7,192.306-349.647,194.407Z" transform="translate(359.038 -188.929)" fill="#222b56" fill-rule="evenodd"/>
        </g>
        <path id="Trazado_22766" data-name="Trazado 22766" d="M-399.008,450.945a2.676,2.676,0,0,1,2.246-2.521,16.637,16.637,0,0,1,3.671-.082,9.913,9.913,0,0,0,8.511-5.253,2.5,2.5,0,0,1,.855-1.136,1.647,1.647,0,0,1,1.779.327c.5.407.845.962,1.3,1.416a4.366,4.366,0,0,0,3.116,1.247c.961-.014,2.037-.748,2.96-.263.814.428,1.034,1.556,1.241,2.361.355,1.385.678,2.781,1.017,4.171a5.814,5.814,0,0,1,.172.947h-6.673a9.355,9.355,0,0,1-.7-2.235,5.264,5.264,0,0,1-.578,2.235h-18.341A2.066,2.066,0,0,1-399.008,450.945Z" transform="translate(418.403 -212.935)" fill="#0a3c5f" fill-rule="evenodd"/>
        <path id="Trazado_22767" data-name="Trazado 22767" d="M-324.854,450.965a2.872,2.872,0,0,1,.988-2.521c.525-.285,1.344-2.334,2.431-5.336.5-1.372,3.268-1.756,4.651.607.449.766.867,1.263,1.37,1.247.422-.014.9-.748,1.3-.263a5.682,5.682,0,0,1,.546,2.361c.156,1.385.3,2.781.447,4.171.033.308.065.63.075.947H-324.6A3.613,3.613,0,0,1-324.854,450.965Z" transform="translate(411.263 -212.954)" fill="#0a3c5f" fill-rule="evenodd"/>
        <path id="Trazado_22768" data-name="Trazado 22768" d="M-354.688,229.945l2.127-1.559a2.541,2.541,0,0,1,1.677-.682,2.54,2.54,0,0,1,1.48,1.013l2.1,2.362a2.321,2.321,0,0,0,1.187.861,2.3,2.3,0,0,0,1.74-.681A60.819,60.819,0,0,0-338,225.521a.993.993,0,0,0,.365-.669,1.009,1.009,0,0,0-.286-.563l-2.643-3.213a20.955,20.955,0,0,1-6.125,2.2,8.125,8.125,0,0,1-4.939-.743c-.249-.133-.718-.6-1-.44s-.343,1.052-.417,1.34q-.384,1.525-.768,3.049Z" transform="translate(414.135 -191.683)" fill="#d5e5fd"/>
        <g id="Grupo_28426" data-name="Grupo 28426" transform="translate(56.75 94.56)">
          <rect id="Rectángulo_4484" data-name="Rectángulo 4484" width="30.628" height="0.904" transform="translate(0 30.623) rotate(-88.935)" fill="#222b54"/>
        </g>
        <g id="Grupo_28427" data-name="Grupo 28427" transform="translate(59.341 36.61)">
          <path id="Trazado_22769" data-name="Trazado 22769" d="M-354,281.048l-.8-.419a89.306,89.306,0,0,1,19.972-25.521l-5.8-4.172,5.877-1.946c1.619-6.805,2.088-12.758-.783-19.577l.833-.351c3,7.128,2.477,13.3.769,20.383l-.059.245-4.671,1.546,5.288,3.8-.429.375A88.411,88.411,0,0,0-354,281.048Z" transform="translate(354.805 -229.062)" fill="#222b54"/>
        </g>
        <g id="Grupo_28428" data-name="Grupo 28428" transform="translate(47.348 37.994)">
          <path id="Trazado_22770" data-name="Trazado 22770" d="M-360.009,281.42a73.575,73.575,0,0,1-8.039-27.876l-.027-.336L-366,252.4a4.082,4.082,0,0,1-1.761-2.337,8.246,8.246,0,0,1,.108-4.05,33.071,33.071,0,0,1,8.042-15.42l.664.615a32.164,32.164,0,0,0-7.824,15,7.446,7.446,0,0,0-.121,3.608A2.762,2.762,0,0,0-364.6,251.9l2.172.086-4.688,1.82A72.684,72.684,0,0,0-359.208,281Z" transform="translate(368.076 -230.593)" fill="#222b54"/>
        </g>
        <path id="Trazado_22771" data-name="Trazado 22771" d="M-334.781,308.938a5.48,5.48,0,0,0,.6,4.192,4.744,4.744,0,0,0,3.263,1.815,11.551,11.551,0,0,0,3.814-.264,4.558,4.558,0,0,0,2.463-1.061,1.689,1.689,0,0,0,.06-2.411c-.849-.659-2.241-.036-3.081-.707s-.462-1.991-.5-3.069c-.064-1.629-1.758-3.587-3.518-3.3C-333.631,304.439-334.465,307.317-334.781,308.938Z" transform="translate(412.233 -199.676)" fill="#f7b690"/>
        <g id="Grupo_28430" data-name="Grupo 28430" transform="translate(0 15.843)">
          <path id="Trazado_22772" data-name="Trazado 22772" d="M-420.133,219.318a6.509,6.509,0,0,1,7.027-3.78c.17-3.076-2.088-10.884.511-9.228,1.152.734,3.122,10.808,2.1,16.274a8.3,8.3,0,0,1-2.312,4.888C-417.431,231.492-421.716,223.147-420.133,219.318Z" transform="translate(420.468 -206.082)" fill="#f7b690"/>
          <g id="Grupo_28429" data-name="Grupo 28429" transform="translate(2.431 10.915)">
            <path id="Trazado_22773" data-name="Trazado 22773" d="M-414.939,229.21a.45.45,0,0,1-.156-.028,1.987,1.987,0,0,1-1.116-2.044,5.7,5.7,0,0,1,.3-1.3c.066-.208.131-.417.182-.628a4.386,4.386,0,0,0-.979-3.865c-.07-.079-.143-.155-.215-.231a4.015,4.015,0,0,1-.595-.734,1.549,1.549,0,0,1-.073-1.579,1.835,1.835,0,0,1,2.23-.471,6.5,6.5,0,0,1,4.062,4.466.452.452,0,0,1-.331.547.453.453,0,0,1-.547-.33,5.576,5.576,0,0,0-3.485-3.831c-.45-.159-.995-.18-1.157.088a.7.7,0,0,0,.079.651,3.33,3.33,0,0,0,.471.569c.08.084.159.167.236.254a5.3,5.3,0,0,1,1.182,4.674c-.055.232-.127.462-.2.69a4.838,4.838,0,0,0-.256,1.1,1.121,1.121,0,0,0,.526,1.132.453.453,0,0,1,.268.581A.453.453,0,0,1-414.939,229.21Z" transform="translate(417.779 -218.16)" fill="#f4a086"/>
          </g>
        </g>
        <g id="Grupo_28431" data-name="Grupo 28431" transform="translate(62.913 95.013)">
          <path id="Trazado_22774" data-name="Trazado 22774" d="M-348.783,297.827a2.072,2.072,0,0,1-2.07-2.07,2.072,2.072,0,0,1,2.07-2.07,2.072,2.072,0,0,1,2.07,2.07A2.072,2.072,0,0,1-348.783,297.827Zm0-3.235a1.167,1.167,0,0,0-1.166,1.165,1.167,1.167,0,0,0,1.166,1.166,1.166,1.166,0,0,0,1.165-1.166A1.166,1.166,0,0,0-348.783,294.592Z" transform="translate(350.853 -293.687)" fill="#222b54"/>
        </g>
        <g id="Grupo_28432" data-name="Grupo 28432" transform="translate(62.33 106.363)">
          <path id="Trazado_22775" data-name="Trazado 22775" d="M-349.428,310.386a2.072,2.072,0,0,1-2.07-2.07,2.073,2.073,0,0,1,2.07-2.07,2.073,2.073,0,0,1,2.07,2.07A2.072,2.072,0,0,1-349.428,310.386Zm0-3.235a1.167,1.167,0,0,0-1.165,1.166,1.167,1.167,0,0,0,1.165,1.166,1.168,1.168,0,0,0,1.167-1.166A1.168,1.168,0,0,0-349.428,307.151Z" transform="translate(351.498 -306.246)" fill="#222b54"/>
        </g>
        <path id="Trazado_22776" data-name="Trazado 22776" d="M-356.686,302.3c.348,7.889.416,15.711,3.618,22.93-1.769.066-3.95,1-5.449-.164-1.653-1.286-.512-4.5-.292-6.217C-358.137,313.607-356.433,307.561-356.686,302.3Z" transform="translate(414.588 -199.503)" fill="#222b54"/>
      </g>
    </g>
    <g id="Grupo_28436" data-name="Grupo 28436" transform="translate(1152.589 241.553)">
      <path id="Trazado_22777" data-name="Trazado 22777" d="M-278.747,468.19a17.521,17.521,0,0,1-7.983-.649q.8-4.75,1.6-9.5a2.6,2.6,0,0,1,.395-1.158,2.443,2.443,0,0,1,1.606-.793c2.239-.387,5.591-.508,5.359,2.24C-278.049,461.615-278.424,464.905-278.747,468.19Z" transform="translate(314.629 -220.384)" fill="#f4a086"/>
      <path id="Trazado_22778" data-name="Trazado 22778" d="M-264.932,454.567a17.461,17.461,0,0,1-6.673,4.413l-4.482-8.56a2.663,2.663,0,0,1-.389-1.167,2.5,2.5,0,0,1,.785-1.623c1.527-1.691,4.092-3.857,5.57-1.524C-268.356,448.9-266.663,451.75-264.932,454.567Z" transform="translate(313.642 -219.345)" fill="#f4a086"/>
      <path id="Trazado_22779" data-name="Trazado 22779" d="M-306.152,321.994c3.111-5.511,27.671,2.1,26.825,11.659-1.081,12.221-4.562,25.223-8.694,37.341q-.263.771-.533,1.542a26.564,26.564,0,0,0,.633,19.389c5.762,13.25,9.388,31.252,15.446,41.744l-7.236,5.68c-1.272-1.206-28.664-47.522-30.069-53.724C-310.842,380.936-308.625,326.375-306.152,321.994Z" transform="translate(316.875 -207.315)" fill="#222b54" fill-rule="evenodd"/>
      <path id="Trazado_22780" data-name="Trazado 22780" d="M-262.818,338.807c-.166,2.846-7.45,1.027-10.227,1.027-22.865,0-36.1-7.436-32.934-17.939,3.249-10.79,23.711-9.048,34.4-5.571,2.3.75,5.661,1.476,7.235,3.627C-262.064,323.068-262.216,328.539-262.818,338.807Z" transform="translate(316.527 -206.691)" fill="#0a3c5f" fill-rule="evenodd"/>
      <path id="Trazado_22781" data-name="Trazado 22781" d="M-297.307,256.706c-.744,10.51-2.805,21.278-8.717,30-1.275,1.88-3.126,3.83-5.384,3.592a4.5,4.5,0,0,1-3.18-2.167,10.453,10.453,0,0,1-1.29-3.74c-1.916-10.27,1.219-20.736,4.341-30.7,1.286-4.107,3-11.375,7.176-13.589,4.354-2.306,6.546,4.818,6.945,7.722A43.09,43.09,0,0,1-297.307,256.706Z" transform="translate(317.492 -199.565)" fill="#f4a086"/>
      <path id="Trazado_22782" data-name="Trazado 22782" d="M-296.805,241.488c-.2-1.738-.665-3.787-2.28-4.546-1.7-.8-3.53.368-4.854,1.556-8.028,7.2-11.07,17.366-12.526,28.276l19.25,1.188A101.767,101.767,0,0,0-296.805,241.488Z" transform="translate(317.492 -199.279)" fill="#3483e2" fill-rule="evenodd"/>
      <path id="Trazado_22783" data-name="Trazado 22783" d="M-273.273,392.755c-1.088,2.834-2.63,6.031-5.216,6.824-1.793.55-7.287-2.935-8.45-4.335s-5.483-58.006-3.535-62.114a18.122,18.122,0,0,1,13.278-9.9c7.631-1.194,16,1.135,16.02,10.694.026,12.221-2.276,25.223-5.309,37.341A186.059,186.059,0,0,1-273.273,392.755Z" transform="translate(315.038 -207.585)" fill="#0a3c5f" fill-rule="evenodd"/>
      <path id="Trazado_22784" data-name="Trazado 22784" d="M-287.366,390.967c2.793-5.6,11.876-10.019,15.545.277,5.908,16.575-1.571,41.347-5.126,60.49h-9.2C-286.62,450-288.917,394.078-287.366,390.967Z" transform="translate(314.742 -213.564)" fill="#0a3c5f" fill-rule="evenodd"/>
      <path id="Trazado_22785" data-name="Trazado 22785" d="M-303.854,281.78c-1.716-8.46-4.643-16.719-5.885-25.244-.58-3.984-1.426-8.9.9-12.341,2.09-3.092,11.113-15.26,23.165-15.26,17.18,0,24.427,7,26.847,15.286,1.728,10.465,1.131,24.726-1.987,34.735-3,9.621.191,19.863,2.941,41.1H-307.5C-307.312,308.013-302.139,290.24-303.854,281.78Z" transform="translate(316.906 -198.534)" fill="#3483e2" fill-rule="evenodd"/>
      <path id="Trazado_22786" data-name="Trazado 22786" d="M-306.667,239.236c-1.327,0-11.388,39.075-7.566,45.254,1.923,3.11,5.183,3.17,8.051,1.591C-302.191,283.881-300.513,239.236-306.667,239.236Z" transform="translate(317.36 -199.526)" fill="#f4a086"/>
      <path id="Trazado_22787" data-name="Trazado 22787" d="M-248.675,271.3a49.484,49.484,0,0,0-9.8-26.35c-1.03-1.366-2.5-2.819-4.177-2.458a3.186,3.186,0,0,0-2.056,1.761,8.9,8.9,0,0,0-.714,2.694c-1.631,10.762-1.724,21.691-1.813,32.576a39.173,39.173,0,0,0,.773,9.973,13.191,13.191,0,0,0,5.446,8.131c1.49.918,4.05,1.783,5.755.912,1.371-.7,2.025-3.034,2.586-4.323a49.7,49.7,0,0,0,3.821-14.423A48.824,48.824,0,0,0-248.675,271.3Z" transform="translate(312.754 -199.834)" fill="#f7b690"/>
      <path id="Trazado_22788" data-name="Trazado 22788" d="M-264.774,241.167c.418-1.69,1.135-3.638,2.817-4.087,1.774-.474,4.5,1.589,5.653,3.02,6.966,8.676,9.741,19.215,9.782,30.332l-21.22-2.877A102.634,102.634,0,0,1-264.774,241.167Z" transform="translate(312.803 -199.311)" fill="#3483e2" fill-rule="evenodd"/>
      <path id="Trazado_22789" data-name="Trazado 22789" d="M-299.725,288.067c-1.462.875-1.776,2.984-1.1,4.547s32.1,11.141,38.082,11.262c1.82.036,3.916-.06,5.04-1.491,1-1.28.8-3.118.344-4.679a16.717,16.717,0,0,0-4.215-7.467c-1.416-1.291-3.136-.748-4.88-.8C-272.862,289.25-298.79,287.508-299.725,288.067Z" transform="translate(316.019 -204.216)" fill="#f7b690"/>
      <g id="Grupo_28435" data-name="Grupo 28435" transform="translate(11.797)">
        <path id="Trazado_22790" data-name="Trazado 22790" d="M-301.052,215.009c.746.831,1.41.438,1.162-.641-.792-3.45-1.018-3.97-.056-7.391.53-1.882.781-2.08-.123-2.508C-303.061,203.054-307.218,208.132-301.052,215.009Z" transform="translate(304.518 -196.155)" fill="#222b54" fill-rule="evenodd"/>
        <path id="Trazado_22791" data-name="Trazado 22791" d="M-288.431,215.008c1.177-5.194,5.107-6.41,7.392-5.164,1.464,9.722,2.957,14.043,6.768,19.347-4.738,3.037-12.827,2.472-14.575,0C-288.916,228.411-289.04,217.694-288.431,215.008Z" transform="translate(303.042 -196.652)" fill="#f4a086"/>
        <path id="Trazado_22792" data-name="Trazado 22792" d="M-287.731,203.132a8.089,8.089,0,0,0-12.919,4.4c-1.406,5.4,3.223,15.326,5.694,17.1,4.323,3.1,11.073-2.73,11.578-5.784C-282.639,214.37-284.049,206.225-287.731,203.132Z" transform="translate(304.197 -195.876)" fill="#f7b690"/>
        <path id="Trazado_22793" data-name="Trazado 22793" d="M-285.594,218.153a2.136,2.136,0,0,1-.2,1.659,1.47,1.47,0,0,1-1.291.465,5.916,5.916,0,0,1-1.375-.38,11.093,11.093,0,0,0-6-.322,3.679,3.679,0,0,0-2.348,1.335,3.555,3.555,0,0,0-.441,2.176,6.572,6.572,0,0,0,.7,2.745,4.153,4.153,0,0,0,2.039,1.919,5.937,5.937,0,0,0,3.916-.132,13.8,13.8,0,0,0,6.079-3.55,8.829,8.829,0,0,0,2.532-6.444,7.4,7.4,0,0,0-1.032-3.347,4.551,4.551,0,0,0-2.221-2.015c-1.487-.549-1.176.711-1.034,1.593C-286.033,215.287-285.817,216.721-285.594,218.153Z" transform="translate(303.845 -196.916)" fill="#222b54" fill-rule="evenodd"/>
        <path id="Trazado_22794" data-name="Trazado 22794" d="M-288.073,205.014c-.064.838,3.87,11.034,4.137,10.856.953-.631,1.7-3.853,3.675-4.122.633-.086,1.573.152,1.353-1.105-1.392-7.965-1-7.622-2.556-8.074C-284.894,201.572-287.959,203.519-288.073,205.014Z" transform="translate(302.961 -195.969)" fill="#222b54" fill-rule="evenodd"/>
        <path id="Trazado_22795" data-name="Trazado 22795" d="M-281.945,197.7c-7.359-3.285-18.311-2.937-21.033-.531-4.05,3.581.81,10.606,2.61,10.7.822.041,1.42-.718,2-1.3,2.746-2.776,5.9-1.677,8.369-1.7C-285.631,204.81-275.675,200.5-281.945,197.7Z" transform="translate(304.548 -195.295)" fill="#222b54" fill-rule="evenodd"/>
        <path id="Trazado_22796" data-name="Trazado 22796" d="M-278.335,210.838a5.113,5.113,0,0,1-.391,3.813c-1.768,3.307-4.851-.1-4.781-2.605C-283.423,209.056-279.344,207.418-278.335,210.838Z" transform="translate(302.522 -196.607)" fill="#f7b690"/>
      </g>
      <path id="Trazado_22797" data-name="Trazado 22797" d="M-273.878,460.155a2.7,2.7,0,0,1-.347-1.49,1.773,1.773,0,0,1,1.5-1.242c.678-.128,1.378-.033,2.065-.093a4.689,4.689,0,0,0,3.182-1.708c.652-.8.79-2.2,1.828-2.624.916-.376,2,.223,2.8.608,1.389.664,2.763,1.362,4.144,2.042a6.271,6.271,0,0,1,.9.513l-4.611,5.5a10.091,10.091,0,0,1-2.325-.97,5.663,5.663,0,0,1,1.444,2.021l-8.414,11.14-3.569-3.247A10.677,10.677,0,0,0-273.878,460.155Z" transform="translate(313.527 -220.095)" fill="#0a3c5f" fill-rule="evenodd"/>
      <path id="Trazado_22798" data-name="Trazado 22798" d="M-276.794,471.614a17.9,17.9,0,0,1,3.951-.075c.081,0,.163-.008.244-.011l.51,4.119-6.516-.022a2.222,2.222,0,0,1-.615-1.306C-279.334,473-278.081,471.916-276.794,471.614Z" transform="translate(313.907 -221.884)" fill="#0a3c5f" fill-rule="evenodd"/>
      <path id="Trazado_22799" data-name="Trazado 22799" d="M-290.865,473.623a3.087,3.087,0,0,1,1.063-2.713c.565-.306,1.447-2.513,2.616-5.741.535-1.478,3.516-1.891,5.006.652.483.825.932,1.36,1.474,1.342.454-.015.962-.8,1.4-.283a6.107,6.107,0,0,1,.587,2.54c.168,1.491.321,2.992.481,4.488.036.332.07.678.081,1.018h-12.434A3.884,3.884,0,0,1-290.865,473.623Z" transform="translate(315.028 -221.164)" fill="#0a3c5f" fill-rule="evenodd"/>
      <path id="Trazado_22800" data-name="Trazado 22800" d="M-303.725,285.088c-.693-.441-1.82-.771-2.156-.022a1.238,1.238,0,0,0,.445,1.3,3.5,3.5,0,0,1,.963,1.086,1.635,1.635,0,0,1-1.131,1.959,4.742,4.742,0,0,1-2.5-.057l-6.711-1.369c-.93-.19-2.115-.277-2.607.533a2.144,2.144,0,0,0,.168,1.985,10.854,10.854,0,0,0,6.015,5.459,10.851,10.851,0,0,0,8.117-.325,7.825,7.825,0,0,0,3.71-3.272C-297.191,288.244-300.8,286.952-303.725,285.088Z" transform="translate(317.602 -203.895)" fill="#f7b690"/>
      <path id="Trazado_22801" data-name="Trazado 22801" d="M-305.006,232.779a6.5,6.5,0,0,1,6.443-1.461c1.435.479,2.806,1.765,2.614,3.266a2.327,2.327,0,0,1-2.485,1.937c-.027,1.414-1.337,2.417-2.516,3.2l-2.126,1.405a2.982,2.982,0,0,1-2.09.71C-308.675,241.163-306.576,234.3-305.006,232.779Z" transform="translate(316.588 -198.733)" fill="#f7b690"/>
    </g>
    <g id="Grupo_28437" data-name="Grupo 28437" transform="translate(784.611 134.503)">
      <path id="Trazado_22802" data-name="Trazado 22802" d="M-336.9,158.61a.9.9,0,0,1-.864-.641q-.392-1.284-.822-2.556a.9.9,0,0,1,.567-1.146.9.9,0,0,1,1.145.567q.439,1.3.838,2.607a.9.9,0,0,1-.6,1.129A.89.89,0,0,1-336.9,158.61Z" transform="translate(687.604 -84.291)" fill="#2b6ed4"/>
      <path id="Trazado_22803" data-name="Trazado 22803" d="M-706.293,225.407a.9.9,0,0,1-.734-.375c-1.1-1.521-2.15-3.034-3.128-4.5a.9.9,0,0,1,.249-1.253.9.9,0,0,1,1.253.249c.967,1.445,2.007,2.941,3.092,4.445a.9.9,0,0,1-.2,1.262A.9.9,0,0,1-706.293,225.407Zm-6.043-9.061a.9.9,0,0,1-.773-.435c-.974-1.6-1.9-3.2-2.738-4.761a.9.9,0,0,1,.365-1.225.9.9,0,0,1,1.225.364c.829,1.531,1.734,3.106,2.693,4.682a.9.9,0,0,1-.3,1.242A.9.9,0,0,1-712.336,216.347Zm-5.167-9.585a.9.9,0,0,1-.819-.521c-.791-1.7-1.518-3.4-2.161-5.066a.9.9,0,0,1,.518-1.169.9.9,0,0,1,1.169.518c.628,1.629,1.338,3.294,2.112,4.952a.9.9,0,0,1-.437,1.2A.9.9,0,0,1-717.5,206.762Zm-3.9-10.16a.9.9,0,0,1-.865-.645c-.534-1.784-.992-3.585-1.36-5.352a.9.9,0,0,1,.7-1.069.9.9,0,0,1,1.069.7c.358,1.717.8,3.468,1.322,5.2a.9.9,0,0,1-.607,1.125A.924.924,0,0,1-721.407,196.6Zm-2.2-10.655a.9.9,0,0,1-.9-.808,50.513,50.513,0,0,1-.279-5.308v-.23a.9.9,0,0,1,.9-.9h.005a.9.9,0,0,1,.9.909v.225a48.587,48.587,0,0,0,.269,5.112.9.9,0,0,1-.8.994C-723.541,185.945-723.573,185.947-723.605,185.947Zm.048-10.873a.987.987,0,0,1-.1-.005.9.9,0,0,1-.8-1,50.219,50.219,0,0,1,.928-5.467.9.9,0,0,1,1.082-.68.9.9,0,0,1,.681,1.082,48.7,48.7,0,0,0-.895,5.27A.9.9,0,0,1-723.557,175.075Zm35.341-8.716c-.493,0-1-.024-1.5-.07a.9.9,0,0,1-.815-.984.9.9,0,0,1,.983-.816,13,13,0,0,0,5.036-.478.9.9,0,0,1,1.131.594.9.9,0,0,1-.595,1.131A14.253,14.253,0,0,1-688.217,166.358Zm-6.647-1.481a.9.9,0,0,1-.38-.084,15.257,15.257,0,0,1-4.691-3.332.9.9,0,0,1,.034-1.278.9.9,0,0,1,1.278.035,13.445,13.445,0,0,0,4.14,2.934.9.9,0,0,1,.439,1.2A.9.9,0,0,1-694.863,164.877Zm-26.27-.4a.907.907,0,0,1-.3-.052.9.9,0,0,1-.549-1.153,43.994,43.994,0,0,1,2.179-5.112.9.9,0,0,1,1.214-.4.9.9,0,0,1,.4,1.214,42.268,42.268,0,0,0-2.089,4.9A.9.9,0,0,1-721.134,164.478Zm41.475-1.528a.9.9,0,0,1-.615-.241.9.9,0,0,1-.048-1.277A8.935,8.935,0,0,0-679.3,160.1a9.362,9.362,0,0,0,1.221-3.023.907.907,0,0,1,1.073-.695.9.9,0,0,1,.695,1.074,11.184,11.184,0,0,1-1.457,3.6,10.751,10.751,0,0,1-1.229,1.6A.9.9,0,0,1-679.658,162.949Zm-22.506-5.791a.9.9,0,0,1-.83-.545,19.716,19.716,0,0,1-1.493-5.488.9.9,0,0,1,.789-1,.9.9,0,0,1,1,.789,17.94,17.94,0,0,0,1.357,4.986.9.9,0,0,1-.47,1.188A.9.9,0,0,1-702.165,157.158Zm-14.06-2.37a.9.9,0,0,1-.513-.16.9.9,0,0,1-.229-1.258,36.656,36.656,0,0,1,3.513-4.333.9.9,0,0,1,1.278-.034.9.9,0,0,1,.034,1.278,34.769,34.769,0,0,0-3.338,4.119A.905.905,0,0,1-716.225,154.789Zm38.917-2.023a.9.9,0,0,1-.878-.694,14.206,14.206,0,0,0-2.071-4.65.9.9,0,0,1,.238-1.256.906.906,0,0,1,1.256.239,16.047,16.047,0,0,1,2.336,5.248.9.9,0,0,1-.67,1.089A.936.936,0,0,1-677.308,152.766Zm-31.437-5.831a.9.9,0,0,1-.722-.36.9.9,0,0,1,.177-1.265,32.68,32.68,0,0,1,3.415-2.255q.655-.374,1.335-.718a.9.9,0,0,1,.881.037q.344-1.164.808-2.341a.9.9,0,0,1,1.172-.509.9.9,0,0,1,.509,1.172,24.083,24.083,0,0,0-1.405,5.038.9.9,0,0,1-1.034.752.9.9,0,0,1-.752-1.034q.1-.647.246-1.3-.436.229-.861.473a30.863,30.863,0,0,0-3.225,2.128A.892.892,0,0,1-708.745,146.935Zm25.423-2.968a.9.9,0,0,1-.509-.157,12.113,12.113,0,0,0-1.255-.752,15.785,15.785,0,0,0-3.421-1.29.9.9,0,0,1-.656-1.1.9.9,0,0,1,1.1-.656,17.484,17.484,0,0,1,3.812,1.438,13.9,13.9,0,0,1,1.443.864.9.9,0,0,1,.236,1.255A.9.9,0,0,1-683.322,143.968Zm306.521-.5a.9.9,0,0,1-.838-.567c-.671-1.662-1.4-3.325-2.16-4.943a.9.9,0,0,1,.432-1.2.9.9,0,0,1,1.2.432c.778,1.649,1.518,3.345,2.2,5.038a.905.905,0,0,1-.5,1.177A.91.91,0,0,1-376.8,143.471Zm-322.258-1.376a.905.905,0,0,1-.872-.667.9.9,0,0,1,.634-1.11,24.736,24.736,0,0,1,5.575-.868.9.9,0,0,1,.936.87.9.9,0,0,1-.87.936,22.834,22.834,0,0,0-5.166.806A.907.907,0,0,1-699.059,142.094Zm-.538-5.7a.9.9,0,0,1-.46-.127.9.9,0,0,1-.316-1.238,47.81,47.81,0,0,1,3.123-4.59.9.9,0,0,1,1.266-.169.9.9,0,0,1,.169,1.267,45.909,45.909,0,0,0-3,4.415A.9.9,0,0,1-699.6,136.4Zm124.921-2.457c-.511,0-1.028-.023-1.541-.07a.9.9,0,0,1-.819-.981.9.9,0,0,1,.981-.819,14.189,14.189,0,0,0,5.073-.427.9.9,0,0,1,1.115.624.9.9,0,0,1-.625,1.114A15.412,15.412,0,0,1-574.675,133.938Zm193.234-.317a.9.9,0,0,1-.8-.473c-.855-1.574-1.764-3.145-2.7-4.669a.9.9,0,0,1,.294-1.244.9.9,0,0,1,1.244.294c.958,1.553,1.886,3.153,2.756,4.756a.9.9,0,0,1-.364,1.225A.9.9,0,0,1-381.441,133.621Zm-199.935-1.133a.907.907,0,0,1-.383-.085,12.919,12.919,0,0,1-2.75-1.717,12.332,12.332,0,0,1-1.825-1.866.9.9,0,0,1,.149-1.27.9.9,0,0,1,1.269.149,10.554,10.554,0,0,0,1.557,1.592,11.037,11.037,0,0,0,2.366,1.474.9.9,0,0,1,.436,1.2A.9.9,0,0,1-581.376,132.488Zm15.311-1.75a.9.9,0,0,1-.63-.256.9.9,0,0,1-.018-1.278,7.711,7.711,0,0,0,1.052-1.357,12.762,12.762,0,0,0,1.323-3,.9.9,0,0,1,1.124-.607.9.9,0,0,1,.607,1.124,14.568,14.568,0,0,1-1.512,3.428,9.512,9.512,0,0,1-1.3,1.675A.9.9,0,0,1-566.065,130.738Zm-126.96-3.015a.9.9,0,0,1-.61-.238.9.9,0,0,1-.056-1.277c1.193-1.3,2.494-2.623,3.868-3.928a.9.9,0,0,1,1.278.033.9.9,0,0,1-.033,1.278c-1.344,1.276-2.615,2.567-3.779,3.839A.9.9,0,0,1-693.025,127.723Zm305.865-3.367a.905.905,0,0,1-.743-.387c-1.022-1.466-2.1-2.925-3.208-4.34a.9.9,0,0,1,.154-1.269.9.9,0,0,1,1.269.155c1.128,1.441,2.227,2.927,3.268,4.419a.905.905,0,0,1-.224,1.259A.9.9,0,0,1-387.16,124.356Zm-200.816-.061a.906.906,0,0,1-.877-.683,16.732,16.732,0,0,1-.5-4.079c0-.54.025-1.089.075-1.631a.913.913,0,0,1,.981-.818.9.9,0,0,1,.818.982c-.044.488-.067.981-.067,1.467a14.869,14.869,0,0,0,.441,3.637.9.9,0,0,1-.655,1.1A.94.94,0,0,1-587.976,124.3Zm25.219-3.667a.9.9,0,0,1-.9-.9,24.928,24.928,0,0,0-.616-5.21.9.9,0,0,1,.686-1.078.9.9,0,0,1,1.078.686,26.718,26.718,0,0,1,.66,5.59.9.9,0,0,1-.9.91Zm-122.383-.427a.9.9,0,0,1-.69-.319.9.9,0,0,1,.106-1.274c1.361-1.152,2.8-2.313,4.279-3.448a.9.9,0,0,1,1.267.165.9.9,0,0,1-.166,1.268c-1.455,1.118-2.872,2.259-4.211,3.394A.9.9,0,0,1-685.139,120.2Zm291.265-4.417a.9.9,0,0,1-.68-.307c-1.181-1.346-2.416-2.677-3.67-3.956a.9.9,0,0,1,.013-1.278.9.9,0,0,1,1.278.013c1.278,1.3,2.536,2.659,3.739,4.03a.9.9,0,0,1-.084,1.275A.9.9,0,0,1-393.875,115.783Zm-193.168-2.154a.9.9,0,0,1-.358-.074.9.9,0,0,1-.472-1.187,17.011,17.011,0,0,1,.855-1.713,17.221,17.221,0,0,1,2.286-3.07.9.9,0,0,1,1.277-.054.905.905,0,0,1,.054,1.278,15.358,15.358,0,0,0-2.048,2.743,15.515,15.515,0,0,0-.765,1.533A.9.9,0,0,1-587.042,113.629Zm-89.457-.076a.9.9,0,0,1-.74-.385.9.9,0,0,1,.221-1.259c1.478-1.038,3.01-2.07,4.552-3.065a.9.9,0,0,1,1.25.268.9.9,0,0,1-.269,1.25c-1.522.983-3.035,2-4.494,3.027A.9.9,0,0,1-676.5,113.553Zm111.451-3.508a.9.9,0,0,1-.833-.555,26.268,26.268,0,0,0-2.488-4.631.9.9,0,0,1,.237-1.256.9.9,0,0,1,1.255.237,28.008,28.008,0,0,1,2.662,4.951.9.9,0,0,1-.484,1.183A.907.907,0,0,1-565.048,110.045Zm163.545-2.032a.9.9,0,0,1-.607-.235c-1.323-1.2-2.7-2.388-4.092-3.517a.9.9,0,0,1-.132-1.271.9.9,0,0,1,1.271-.132c1.418,1.15,2.821,2.356,4.169,3.582a.9.9,0,0,1,.061,1.277A.9.9,0,0,1-401.5,108.013Zm-265.837-.379a.9.9,0,0,1-.778-.443.9.9,0,0,1,.316-1.238c1.586-.942,3.191-1.854,4.772-2.711a.9.9,0,0,1,1.225.363.9.9,0,0,1-.363,1.225c-1.56.847-3.146,1.747-4.712,2.677A.894.894,0,0,1-667.34,107.634ZM-580,105.489a.9.9,0,0,1-.723-.361.9.9,0,0,1,.18-1.265c1.308-.984,2.763-1.966,4.578-3.1a.905.905,0,0,1,1.245.291.9.9,0,0,1-.291,1.244c-1.77,1.1-3.182,2.054-4.447,3A.9.9,0,0,1-580,105.489Zm-77.753-3.046a.9.9,0,0,1-.812-.508.9.9,0,0,1,.417-1.208c1.78-.866,3.471-1.628,5.027-2.266a.9.9,0,0,1,1.178.493.9.9,0,0,1-.493,1.179c-1.52.623-3.177,1.37-4.922,2.218A.9.9,0,0,1-657.749,102.443Zm247.788-1.287a.9.9,0,0,1-.527-.171c-1.161-.835-2.352-1.65-3.539-2.423-.308-.2-.619-.4-.929-.6a.9.9,0,0,1-.277-1.248.9.9,0,0,1,1.248-.277c.316.2.63.4.944.607,1.211.789,2.425,1.62,3.609,2.472a.9.9,0,0,1,.206,1.262A.905.905,0,0,1-409.961,101.156Zm-161.017-.186a.9.9,0,0,1-.673-.3,37.458,37.458,0,0,0-3.813-3.7.9.9,0,0,1-.113-1.272.9.9,0,0,1,1.273-.113c.967.811,1.906,1.682,2.807,2.6a.9.9,0,0,1,.257-.216c1.565-.886,3.187-1.762,4.823-2.606a.9.9,0,0,1,1.217.39.9.9,0,0,1-.389,1.217c-1.588.819-3.163,1.669-4.683,2.529a.9.9,0,0,1-.1,1.236A.9.9,0,0,1-570.978,100.969Zm-76.7-2.7a.9.9,0,0,1-.848-.591.9.9,0,0,1,.535-1.16c1.67-.616,3.386-1.238,5.139-1.854a.9.9,0,0,1,1.152.553.9.9,0,0,1-.553,1.151q-2.615.92-5.112,1.844A.9.9,0,0,1-647.677,98.267ZM-419.138,95.3a.9.9,0,0,1-.445-.117c-1.55-.879-3.153-1.737-4.763-2.548a.9.9,0,0,1-.4-1.214.9.9,0,0,1,1.213-.4c1.638.825,3.266,1.7,4.841,2.59a.9.9,0,0,1,.341,1.232A.9.9,0,0,1-419.138,95.3Zm-141.977-.633a.9.9,0,0,1-.818-.519.9.9,0,0,1,.433-1.2c1.627-.765,3.309-1.519,5-2.243a.906.906,0,0,1,1.187.475.9.9,0,0,1-.476,1.187c-1.671.715-3.333,1.46-4.94,2.217A.9.9,0,0,1-561.115,94.668Zm-76.279,0a.9.9,0,0,1-.859-.623.9.9,0,0,1,.577-1.14c1.783-.585,3.541-1.134,5.224-1.635a.9.9,0,0,1,1.124.608A.9.9,0,0,1-631.936,93c-1.667.5-3.409,1.041-5.177,1.619A.872.872,0,0,1-637.394,94.665Zm58.09-.656a.894.894,0,0,1-.47-.133,36.356,36.356,0,0,0-4.723-2.421.905.905,0,0,1-.48-1.186.9.9,0,0,1,1.185-.478,38.017,38.017,0,0,1,4.96,2.542.9.9,0,0,1,.3,1.243A.9.9,0,0,1-579.3,94.009Zm-47.642-2.441a.9.9,0,0,1-.874-.675.9.9,0,0,1,.646-1.1c1.817-.474,3.612-.906,5.333-1.282a.9.9,0,0,1,1.075.69.9.9,0,0,1-.69,1.075c-1.7.371-3.468.8-5.262,1.266A.911.911,0,0,1-626.946,91.568ZM-428.859,90.4a.9.9,0,0,1-.368-.079c-1.624-.726-3.3-1.429-4.983-2.091a.9.9,0,0,1-.51-1.172.905.905,0,0,1,1.171-.511c1.708.672,3.411,1.386,5.059,2.123a.9.9,0,0,1,.456,1.194A.9.9,0,0,1-428.859,90.4ZM-551.1,90.383a.9.9,0,0,1-.843-.577.9.9,0,0,1,.515-1.169c1.685-.653,3.413-1.291,5.139-1.9a.905.905,0,0,1,1.152.554.9.9,0,0,1-.554,1.151c-1.708.6-3.418,1.229-5.083,1.874A.885.885,0,0,1-551.1,90.383Zm-38.187-.632a.9.9,0,0,1-.238-.032,45.24,45.24,0,0,0-5.224-1.087.9.9,0,0,1-.761-1.027.906.906,0,0,1,1.027-.761,47.023,47.023,0,0,1,5.432,1.131.9.9,0,0,1,.634,1.11A.9.9,0,0,1-589.287,89.752Zm-27.015-.494a.9.9,0,0,1-.89-.754.9.9,0,0,1,.742-1.041c1.854-.311,3.686-.566,5.446-.757a.9.9,0,0,1,1,.8.9.9,0,0,1-.8,1c-1.724.187-3.522.436-5.341.743A.953.953,0,0,1-616.3,89.257Zm16.271-1.134h-.043c-1.741-.08-3.558-.085-5.37-.017a.917.917,0,0,1-.937-.869.906.906,0,0,1,.869-.937c1.862-.07,3.73-.065,5.522.018a.9.9,0,0,1,.861.944A.9.9,0,0,1-600.032,88.123Zm59.212-1.342a.9.9,0,0,1-.861-.634.9.9,0,0,1,.591-1.133c1.728-.542,3.494-1.067,5.25-1.559a.9.9,0,0,1,1.113.627.9.9,0,0,1-.626,1.113c-1.738.487-3.486,1.006-5.195,1.544A.917.917,0,0,1-540.82,86.781Zm101.831-.375a.9.9,0,0,1-.294-.05c-1.683-.578-3.415-1.135-5.15-1.652a.9.9,0,0,1-.606-1.124.9.9,0,0,1,1.124-.608c1.758.525,3.514,1.088,5.22,1.675a.9.9,0,0,1,.56,1.149A.9.9,0,0,1-438.988,86.406Zm-91.341-2.563a.9.9,0,0,1-.877-.688.9.9,0,0,1,.661-1.094c1.766-.436,3.561-.849,5.335-1.23a.9.9,0,0,1,1.074.694.9.9,0,0,1-.694,1.073c-1.756.377-3.534.787-5.282,1.217A.892.892,0,0,1-530.329,83.843Zm80.908-.55a.913.913,0,0,1-.224-.029c-1.724-.439-3.5-.855-5.268-1.234a.9.9,0,0,1-.694-1.073.9.9,0,0,1,1.074-.695c1.792.384,3.587.805,5.335,1.251a.9.9,0,0,1,.652,1.1A.9.9,0,0,1-449.421,83.293Zm-70.256-1.734a.9.9,0,0,1-.888-.741.9.9,0,0,1,.727-1.052c1.788-.326,3.6-.63,5.4-.9a.9.9,0,0,1,1.028.758.9.9,0,0,1-.758,1.029c-1.778.269-3.576.57-5.346.894A.906.906,0,0,1-519.677,81.558Zm59.609-.55a.931.931,0,0,1-.157-.014c-1.762-.309-3.562-.592-5.348-.84a.9.9,0,0,1-.771-1.018.906.906,0,0,1,1.019-.772c1.807.25,3.628.537,5.412.849a.9.9,0,0,1,.734,1.047A.905.905,0,0,1-460.069,81.008Zm-48.839-1.083a.9.9,0,0,1-.9-.8.9.9,0,0,1,.789-1.006c1.8-.217,3.635-.41,5.445-.573a.9.9,0,0,1,.981.819.9.9,0,0,1-.819.981c-1.793.161-3.607.352-5.392.568A.887.887,0,0,1-508.908,79.925Zm38.051-.415a.816.816,0,0,1-.093-.005c-1.784-.183-3.6-.341-5.4-.465a.9.9,0,0,1-.84-.963.911.911,0,0,1,.965-.84c1.816.126,3.653.284,5.457.47a.9.9,0,0,1,.806.991A.9.9,0,0,1-470.856,79.511Zm-27.2-.56a.9.9,0,0,1-.9-.85.9.9,0,0,1,.849-.955c1.823-.108,3.663-.188,5.47-.238h.025a.9.9,0,0,1,.9.878.9.9,0,0,1-.879.928c-1.788.05-3.609.129-5.413.235Zm16.336-.192h-.034c-1.795-.065-3.617-.1-5.417-.108a.9.9,0,0,1-.9-.906.9.9,0,0,1,.9-.9h0c1.819.007,3.661.044,5.475.109a.9.9,0,0,1,.87.936A.9.9,0,0,1-481.721,78.758Z" transform="translate(724.782 -76.841)" fill="#2b6ed4"/>
      <path id="Trazado_22804" data-name="Trazado 22804" d="M-699.092,248.111a.9.9,0,0,1-.711-.345q-.839-1.07-1.667-2.151a.9.9,0,0,1,.168-1.267.9.9,0,0,1,1.267.168q.821,1.072,1.654,2.134a.9.9,0,0,1-.153,1.269A.9.9,0,0,1-699.092,248.111Z" transform="translate(722.556 -92.951)" fill="#2b6ed4"/>
    </g>
    <g id="Grupo_28438" data-name="Grupo 28438" transform="translate(767.925 191.728)">
      <path id="Trazado_22805" data-name="Trazado 22805" d="M-698.638,140.162l-22.3,48.614-6.564-7.682Z" transform="translate(741.73 -140.162)" fill="#3483e2"/>
      <path id="Trazado_22806" data-name="Trazado 22806" d="M-700.154,140.162-743.246,178.8l28.46,4.589Z" transform="translate(743.246 -140.162)" fill="#3cb0f9"/>
      <path id="Trazado_22807" data-name="Trazado 22807" d="M-699.065,140.162l-25.5,41.474,3.205,7.14-10.571-8.328Z" transform="translate(742.157 -140.162)" fill="#3483e2"/>
    </g>
    <g id="Grupo_28439" data-name="Grupo 28439" transform="translate(1030.411 132.668)">
      <path id="Trazado_22808" data-name="Trazado 22808" d="M-452.8,76.347l49.553,20.126-.483-10.093Z" transform="translate(452.796 -74.959)" fill="#e98b38"/>
      <path id="Trazado_22809" data-name="Trazado 22809" d="M-452.8,76.2l57.861-1.389-17.583,22.844Z" transform="translate(452.796 -74.811)" fill="#fdd247"/>
      <path id="Trazado_22810" data-name="Trazado 22810" d="M-452.8,76.347-405.8,89.076l2.558,7.4,1.992-13.309Z" transform="translate(452.796 -74.959)" fill="#ff9f36"/>
    </g>
    <path id="Trazado_22811" data-name="Trazado 22811" d="M-264.212,190.672a.9.9,0,0,1-.5-.149.9.9,0,0,1-.257-1.252,13.627,13.627,0,0,0,1.4-2.769.9.9,0,0,1,1.16-.535.9.9,0,0,1,.534,1.161,15.4,15.4,0,0,1-1.583,3.137A.9.9,0,0,1-264.212,190.672Zm2.478-8.26h-.021a.9.9,0,0,1-.883-.924q.005-.216.005-.431a19.225,19.225,0,0,0-.6-4.7.9.9,0,0,1,.655-1.1.9.9,0,0,1,1.1.655,21.088,21.088,0,0,1,.653,5.139c0,.158,0,.315-.005.474A.9.9,0,0,1-261.734,182.412Zm-68.421-2.422a.9.9,0,0,1-.8-.491.9.9,0,0,1,.39-1.217c1.582-.812,3.173-1.676,4.729-2.567a.9.9,0,0,1,1.234.335.9.9,0,0,1-.335,1.233c-1.581.9-3.2,1.782-4.8,2.606A.9.9,0,0,1-330.154,179.99Zm9.408-5.385a.9.9,0,0,1-.764-.42.9.9,0,0,1,.279-1.247c1.51-.957,3.017-1.96,4.478-2.981a.9.9,0,0,1,1.259.223.9.9,0,0,1-.222,1.258c-1.485,1.037-3.014,2.055-4.547,3.027A.9.9,0,0,1-320.747,174.605Zm56.429-2.6a.9.9,0,0,1-.8-.474,20.7,20.7,0,0,0-1.29-2.083,25.6,25.6,0,0,0-1.714-2.167.9.9,0,0,1,.079-1.275.906.906,0,0,1,1.276.08,27.657,27.657,0,0,1,1.836,2.321,22.46,22.46,0,0,1,1.4,2.267.9.9,0,0,1-.366,1.225A.9.9,0,0,1-264.317,172Zm-47.539-3.6a.9.9,0,0,1-.718-.353.9.9,0,0,1,.168-1.267c1.422-1.092,2.835-2.224,4.2-3.368a.9.9,0,0,1,1.273.11.9.9,0,0,1-.11,1.273c-1.384,1.161-2.817,2.312-4.26,3.419A.9.9,0,0,1-311.857,168.4Zm40.475-4.526a.9.9,0,0,1-.561-.2,39.261,39.261,0,0,0-4.373-2.985.9.9,0,0,1-.317-1.238.9.9,0,0,1,1.238-.317,41.085,41.085,0,0,1,4.576,3.124.9.9,0,0,1,.146,1.27A.9.9,0,0,1-271.382,163.872Zm-32.173-2.445a.9.9,0,0,1-.665-.292.9.9,0,0,1,.053-1.277c1.319-1.212,2.624-2.465,3.882-3.728a.905.905,0,0,1,1.278,0,.9.9,0,0,1,0,1.278c-1.275,1.281-2.6,2.554-3.938,3.783A.9.9,0,0,1-303.555,161.426Zm22.895-3.123a.908.908,0,0,1-.38-.084c-.875-.407-1.808-.817-2.775-1.218-.718-.3-1.441-.587-2.168-.874a.9.9,0,0,1-.508-1.173.9.9,0,0,1,1.172-.509q1.1.437,2.2.886c.991.412,1.949.831,2.847,1.249a.9.9,0,0,1,.437,1.2A.9.9,0,0,1-280.66,158.3Zm-10.03-4.118a.9.9,0,0,1-.347-.07c-1.286-.535-2.406-1.034-3.422-1.526q-.388.432-.777.861a.9.9,0,0,1-1.277.06.9.9,0,0,1-.059-1.277c.151-.165.3-.333.452-.5a.9.9,0,0,1-.279-1.168.9.9,0,0,1,1.224-.37l.285.151q.941-1.079,1.852-2.172a.9.9,0,0,1,1.272-.117.9.9,0,0,1,.117,1.272q-.771.927-1.569,1.848c.865.408,1.811.825,2.877,1.269a.9.9,0,0,1,.488,1.181A.9.9,0,0,1-290.691,154.185Zm-9.447-5.247a.9.9,0,0,1-.567-.2,22.9,22.9,0,0,1-2.079-1.9,19.671,19.671,0,0,1-1.821-2.186.9.9,0,0,1,.207-1.261.9.9,0,0,1,1.262.207,17.8,17.8,0,0,0,1.654,1.985,20.768,20.768,0,0,0,1.913,1.746.9.9,0,0,1,.136,1.271A.9.9,0,0,1-300.138,148.938Zm11.17-3.623a.815.815,0,0,1-.5-.161.832.832,0,0,1-.226-1.2l.719.548-.668-.615a42.824,42.824,0,0,0,2.921-4.331.9.9,0,0,1,1.234-.327.9.9,0,0,1,.327,1.235,44.339,44.339,0,0,1-2.988,4.444A1.058,1.058,0,0,1-288.968,145.315Zm-17.392-5.081a.9.9,0,0,1-.854-.609,17.764,17.764,0,0,1-.994-5.6.9.9,0,0,1,.894-.914.9.9,0,0,1,.914.893,15.922,15.922,0,0,0,.9,5.031.9.9,0,0,1-.559,1.15A.919.919,0,0,1-306.36,140.234Zm22.663-4.243a.885.885,0,0,1-.272-.042.9.9,0,0,1-.591-1.133,13.794,13.794,0,0,0,.688-4.135c0-.289-.011-.577-.034-.865a.9.9,0,0,1,.83-.973.9.9,0,0,1,.972.83c.027.335.04.672.04,1.009a15.624,15.624,0,0,1-.77,4.678A.906.906,0,0,1-283.7,135.991Zm-22.685-6.384a.9.9,0,0,1-.319-.059.9.9,0,0,1-.527-1.165,15.788,15.788,0,0,1,2.974-4.891.906.906,0,0,1,1.276-.07.9.9,0,0,1,.07,1.276,13.949,13.949,0,0,0-2.629,4.325A.906.906,0,0,1-306.383,129.607Zm21.616-4.022a.9.9,0,0,1-.744-.39,10.344,10.344,0,0,0-3.73-3.234.9.9,0,0,1-.383-1.219.9.9,0,0,1,1.22-.383,12.153,12.153,0,0,1,4.379,3.808.9.9,0,0,1-.229,1.257A.9.9,0,0,1-284.767,125.586Zm-14.508-3.821a.9.9,0,0,1-.82-.521.9.9,0,0,1,.436-1.2,12.791,12.791,0,0,1,2.6-.893,11.863,11.863,0,0,1,2.619-.289h0c.155,0,.307,0,.461.009a.9.9,0,0,1,.869.936.907.907,0,0,1-.936.87,10.145,10.145,0,0,0-2.614.236,11.026,11.026,0,0,0-2.229.767A.9.9,0,0,1-299.275,121.765Z" transform="translate(1471.486 53.617)" fill="#2b6ed4"/>
    <path id="Trazado_22812" data-name="Trazado 22812" d="M-536.747,246.9a.9.9,0,0,1-.492-.147.9.9,0,0,1-.263-1.251c.964-1.477,1.87-3.025,2.692-4.6a.9.9,0,0,1,1.219-.383.9.9,0,0,1,.383,1.219c-.849,1.628-1.785,3.228-2.781,4.754A.905.905,0,0,1-536.747,246.9Zm5.013-9.6a.906.906,0,0,1-.34-.067.9.9,0,0,1-.5-1.178c.664-1.638,1.262-3.33,1.774-5.032a.9.9,0,0,1,1.126-.6.9.9,0,0,1,.6,1.126c-.529,1.756-1.145,3.5-1.831,5.191A.9.9,0,0,1-531.734,237.3Zm3.127-10.368a.95.95,0,0,1-.181-.018.9.9,0,0,1-.706-1.065c.352-1.736.628-3.51.819-5.273a.9.9,0,0,1,1-.8.9.9,0,0,1,.8,1c-.2,1.818-.481,3.648-.844,5.439A.9.9,0,0,1-528.607,226.93Zm1.163-10.766h-.014a.9.9,0,0,1-.891-.917q.007-.413.006-.829c0-1.5-.061-3.015-.18-4.5a.9.9,0,0,1,.829-.973.9.9,0,0,1,.972.828c.124,1.537.186,3.1.186,4.649q0,.427-.006.855A.9.9,0,0,1-527.444,216.164Zm-.874-10.793a.9.9,0,0,1-.888-.744l-.062-.34a47.759,47.759,0,0,0-1.16-4.839.9.9,0,0,1,.609-1.123.9.9,0,0,1,1.123.609,49.446,49.446,0,0,1,1.2,5.021l.064.352a.9.9,0,0,1-.729,1.049A.889.889,0,0,1-528.318,205.371Zm-31.588-7.152a.9.9,0,0,1-.845-.583.9.9,0,0,1,.524-1.166,9.3,9.3,0,0,0,3.9-2.924.9.9,0,0,1,1.27-.149.9.9,0,0,1,.149,1.27,11.138,11.138,0,0,1-4.681,3.494A.909.909,0,0,1-559.906,198.219Zm-5.275-.06a.9.9,0,0,1-.38-.083q-.271-.126-.539-.279a7.323,7.323,0,0,1-3.358-4.275.9.9,0,0,1,.594-1.131.9.9,0,0,1,1.131.595,5.477,5.477,0,0,0,2.532,3.243c.132.075.266.145.4.207a.9.9,0,0,1,.439,1.2A.9.9,0,0,1-565.181,198.159Zm33.755-3.152a.905.905,0,0,1-.827-.539,34.6,34.6,0,0,0-2.488-4.656.9.9,0,0,1,.273-1.248.9.9,0,0,1,1.248.273,36.462,36.462,0,0,1,2.62,4.9.9.9,0,0,1-.461,1.193A.9.9,0,0,1-531.426,195.007Zm-22.135-4.939a.979.979,0,0,1-.115-.007.9.9,0,0,1-.783-1.011,12.156,12.156,0,0,0,.1-1.539A15.052,15.052,0,0,0-554.8,184a.9.9,0,0,1,.667-1.091.9.9,0,0,1,1.09.667,16.859,16.859,0,0,1,.492,3.937,14.126,14.126,0,0,1-.11,1.769A.9.9,0,0,1-553.561,190.068Zm-15.086-1.269a.888.888,0,0,1-.216-.026.9.9,0,0,1-.663-1.092,12.865,12.865,0,0,1,2.579-5.179.9.9,0,0,1,1.273-.114.9.9,0,0,1,.115,1.272,11.209,11.209,0,0,0-2.211,4.449A.9.9,0,0,1-568.646,188.8Zm31.35-2.85a.9.9,0,0,1-.659-.286,24.684,24.684,0,0,0-3.758-3.278l-.188-.13a.9.9,0,0,1-.238-1.256.9.9,0,0,1,1.256-.237l.208.144a26.532,26.532,0,0,1,4.037,3.52.9.9,0,0,1-.04,1.278A.9.9,0,0,1-537.3,185.949Zm-24.717-5.291a.9.9,0,0,1-.8-.483.9.9,0,0,1,.379-1.22,17.887,17.887,0,0,1,4.849-1.7c-.259-.467-.538-.946-.837-1.444q-.4-.67-.821-1.331a.9.9,0,0,1,.28-1.247.9.9,0,0,1,1.247.281q.43.678.842,1.366c.736,1.223,1.351,2.347,1.882,3.437a.9.9,0,0,1-.418,1.208.906.906,0,0,1-1.208-.418c-.028-.059-.057-.117-.087-.177l-.034.007a16.223,16.223,0,0,0-4.852,1.617A.9.9,0,0,1-562.013,180.658Zm15.8-.7a.881.881,0,0,1-.3-.054,21.2,21.2,0,0,0-5.061-1.139.9.9,0,0,1-.811-.988.906.906,0,0,1,.988-.811,22.953,22.953,0,0,1,5.494,1.236.9.9,0,0,1,.546,1.155A.906.906,0,0,1-546.212,179.962Zm-15.327-9.538a.9.9,0,0,1-.728-.367c-1.053-1.427-2.173-2.839-3.332-4.2a.9.9,0,0,1,.1-1.273.9.9,0,0,1,1.274.1c1.187,1.389,2.334,2.834,3.411,4.3a.9.9,0,0,1-.191,1.263A.9.9,0,0,1-561.539,170.424Zm-7.036-8.241a.9.9,0,0,1-.644-.27c-1.248-1.268-2.556-2.508-3.889-3.684a.9.9,0,0,1-.08-1.276.9.9,0,0,1,1.276-.079c1.364,1.2,2.7,2.473,3.981,3.772a.9.9,0,0,1-.011,1.278A.9.9,0,0,1-568.575,162.183Zm-8.124-7.172a.9.9,0,0,1-.549-.186c-1.413-1.083-2.883-2.126-4.367-3.1a.905.905,0,0,1-.257-1.253.9.9,0,0,1,1.252-.257c1.519,1,3.023,2.07,4.471,3.178a.9.9,0,0,1,.168,1.267A.9.9,0,0,1-576.7,155.011Zm-9.047-5.962a.9.9,0,0,1-.442-.116c-1.555-.873-3.158-1.7-4.762-2.452a.9.9,0,0,1-.434-1.2.9.9,0,0,1,1.2-.434c1.643.772,3.284,1.617,4.877,2.511a.9.9,0,0,1,.346,1.231A.9.9,0,0,1-585.746,149.049Z" transform="translate(1496.558 51.123)" fill="#2b6ed4"/>
  </g>
</svg>
